<svg width="94" height="94" viewBox="0 0 94 94" fill="none" xmlns="http://www.w3.org/2000/svg">
<circle cx="47" cy="47" r="47" fill="url(#paint0_linear_618_7212)"/>
<path d="M66.5 26.6875H63.25V25.875C63.25 25.2285 62.9932 24.6085 62.5361 24.1514C62.079 23.6943 61.459 23.4375 60.8125 23.4375C60.166 23.4375 59.546 23.6943 59.0889 24.1514C58.6318 24.6085 58.375 25.2285 58.375 25.875V26.6875H56.75V25.875C56.75 25.2285 56.4932 24.6085 56.0361 24.1514C55.579 23.6943 54.959 23.4375 54.3125 23.4375C53.666 23.4375 53.046 23.6943 52.5889 24.1514C52.1318 24.6085 51.875 25.2285 51.875 25.875V26.6875H42.125V25.875C42.125 25.2285 41.8682 24.6085 41.4111 24.1514C40.954 23.6943 40.334 23.4375 39.6875 23.4375C39.041 23.4375 38.421 23.6943 37.9639 24.1514C37.5068 24.6085 37.25 25.2285 37.25 25.875V26.6875H35.625V25.875C35.625 25.2285 35.3682 24.6085 34.9111 24.1514C34.454 23.6943 33.834 23.4375 33.1875 23.4375C32.541 23.4375 31.921 23.6943 31.4639 24.1514C31.0068 24.6085 30.75 25.2285 30.75 25.875V26.6875H27.5C26.4226 26.6875 25.3892 27.1155 24.6274 27.8774C23.8655 28.6392 23.4375 29.6726 23.4375 30.75V66.5C23.4375 67.5774 23.8655 68.6108 24.6274 69.3726C25.3892 70.1345 26.4226 70.5625 27.5 70.5625H66.5C67.5774 70.5625 68.6108 70.1345 69.3726 69.3726C70.1345 68.6108 70.5625 67.5774 70.5625 66.5V51.875C70.5625 51.6595 70.4769 51.4528 70.3245 51.3005C70.1722 51.1481 69.9655 51.0625 69.75 51.0625C69.5345 51.0625 69.3278 51.1481 69.1755 51.3005C69.0231 51.4528 68.9375 51.6595 68.9375 51.875V52.6875H59.1875V44.5625H68.9375C68.9375 44.778 69.0231 44.9847 69.1755 45.137C69.3278 45.2894 69.5345 45.375 69.75 45.375C69.9655 45.375 70.1722 45.2894 70.3245 45.137C70.4769 44.9847 70.5625 44.778 70.5625 44.5625V30.75C70.5625 29.6726 70.1345 28.6392 69.3726 27.8774C68.6108 27.1155 67.5774 26.6875 66.5 26.6875ZM60 25.875C60 25.6595 60.0856 25.4528 60.238 25.3005C60.3903 25.1481 60.597 25.0625 60.8125 25.0625C61.028 25.0625 61.2347 25.1481 61.387 25.3005C61.5394 25.4528 61.625 25.6595 61.625 25.875V29.125C61.625 29.3405 61.5394 29.5472 61.387 29.6995C61.2347 29.8519 61.028 29.9375 60.8125 29.9375C60.597 29.9375 60.3903 29.8519 60.238 29.6995C60.0856 29.5472 60 29.3405 60 29.125V25.875ZM53.5 25.875C53.5 25.6595 53.5856 25.4528 53.738 25.3005C53.8903 25.1481 54.097 25.0625 54.3125 25.0625C54.528 25.0625 54.7347 25.1481 54.887 25.3005C55.0394 25.4528 55.125 25.6595 55.125 25.875V29.125C55.125 29.3405 55.0394 29.5472 54.887 29.6995C54.7347 29.8519 54.528 29.9375 54.3125 29.9375C54.097 29.9375 53.8903 29.8519 53.738 29.6995C53.5856 29.5472 53.5 29.3405 53.5 29.125V25.875ZM38.875 25.875C38.875 25.6595 38.9606 25.4528 39.113 25.3005C39.2653 25.1481 39.472 25.0625 39.6875 25.0625C39.903 25.0625 40.1097 25.1481 40.262 25.3005C40.4144 25.4528 40.5 25.6595 40.5 25.875V29.125C40.5 29.3405 40.4144 29.5472 40.262 29.6995C40.1097 29.8519 39.903 29.9375 39.6875 29.9375C39.472 29.9375 39.2653 29.8519 39.113 29.6995C38.9606 29.5472 38.875 29.3405 38.875 29.125V25.875ZM32.375 25.875C32.375 25.6595 32.4606 25.4528 32.613 25.3005C32.7653 25.1481 32.972 25.0625 33.1875 25.0625C33.403 25.0625 33.6097 25.1481 33.762 25.3005C33.9144 25.4528 34 25.6595 34 25.875V29.125C34 29.3405 33.9144 29.5472 33.762 29.6995C33.6097 29.8519 33.403 29.9375 33.1875 29.9375C32.972 29.9375 32.7653 29.8519 32.613 29.6995C32.4606 29.5472 32.375 29.3405 32.375 29.125V25.875ZM27.5 28.3125H30.75V29.125C30.75 29.7715 31.0068 30.3915 31.4639 30.8486C31.921 31.3057 32.541 31.5625 33.1875 31.5625C33.834 31.5625 34.454 31.3057 34.9111 30.8486C35.3682 30.3915 35.625 29.7715 35.625 29.125V28.3125H37.25V29.125C37.25 29.7715 37.5068 30.3915 37.9639 30.8486C38.421 31.3057 39.041 31.5625 39.6875 31.5625C40.334 31.5625 40.954 31.3057 41.4111 30.8486C41.8682 30.3915 42.125 29.7715 42.125 29.125V28.3125H51.875V29.125C51.875 29.7715 52.1318 30.3915 52.5889 30.8486C53.046 31.3057 53.666 31.5625 54.3125 31.5625C54.959 31.5625 55.579 31.3057 56.0361 30.8486C56.4932 30.3915 56.75 29.7715 56.75 29.125V28.3125H58.375V29.125C58.375 29.7715 58.6318 30.3915 59.0889 30.8486C59.546 31.3057 60.166 31.5625 60.8125 31.5625C61.459 31.5625 62.079 31.3057 62.5361 30.8486C62.9932 30.3915 63.25 29.7715 63.25 29.125V28.3125H66.5C67.1465 28.3125 67.7665 28.5693 68.2236 29.0264C68.6807 29.4835 68.9375 30.1035 68.9375 30.75V33.1875H25.0625V30.75C25.0625 30.1035 25.3193 29.4835 25.7764 29.0264C26.2335 28.5693 26.8535 28.3125 27.5 28.3125ZM57.5625 42.9375H47.8125V34.8125H57.5625V42.9375ZM47.8125 62.4375V54.3125H57.5625V62.4375H47.8125ZM46.1875 62.4375H36.4375V54.3125H46.1875V62.4375ZM25.0625 62.4375V54.3125H34.8125V62.4375H25.0625ZM34.8125 42.9375H25.0625V34.8125H34.8125V42.9375ZM34.8125 44.5625V52.6875H25.0625V44.5625H34.8125ZM36.4375 52.6875V44.5625H46.1875V52.6875H36.4375ZM36.4375 42.9375V34.8125H46.1875V42.9375H36.4375ZM66.5 68.9375H27.5C26.8535 68.9375 26.2335 68.6807 25.7764 68.2236C25.3193 67.7665 25.0625 67.1465 25.0625 66.5V64.0625H68.9375V66.5C68.9375 67.1465 68.6807 67.7665 68.2236 68.2236C67.7665 68.6807 67.1465 68.9375 66.5 68.9375ZM68.9375 54.3125V62.4375H59.1875V54.3125H68.9375ZM57.5625 52.6875H47.8125V44.5625H57.5625V52.6875ZM59.1875 42.9375V34.8125H68.9375V42.9375H59.1875Z" fill="white"/>
<path d="M68.9374 47.8124V48.6249C68.9374 48.8404 69.023 49.0471 69.1754 49.1994C69.3278 49.3518 69.5344 49.4374 69.7499 49.4374C69.9654 49.4374 70.1721 49.3518 70.3244 49.1994C70.4768 49.0471 70.5624 48.8404 70.5624 48.6249V47.8124C70.5624 47.5969 70.4768 47.3903 70.3244 47.2379C70.1721 47.0855 69.9654 46.9999 69.7499 46.9999C69.5344 46.9999 69.3278 47.0855 69.1754 47.2379C69.023 47.3903 68.9374 47.5969 68.9374 47.8124ZM43.173 46.423L40.4999 49.1043L39.4518 48.048C39.2988 47.895 39.0913 47.8091 38.8749 47.8091C38.6585 47.8091 38.451 47.895 38.298 48.048C38.145 48.201 38.0591 48.4085 38.0591 48.6249C38.0591 48.8413 38.145 49.0488 38.298 49.2018L39.923 50.8268C39.9986 50.9029 40.0884 50.9634 40.1874 51.0046C40.2864 51.0459 40.3926 51.0671 40.4999 51.0671C40.6072 51.0671 40.7134 51.0459 40.8124 51.0046C40.9114 50.9634 41.0012 50.9029 41.0768 50.8268L44.3268 47.5768C44.4798 47.4238 44.5657 47.2163 44.5657 46.9999C44.5657 46.7835 44.4798 46.576 44.3268 46.423C44.1738 46.27 43.9663 46.1841 43.7499 46.1841C43.5335 46.1841 43.326 46.27 43.173 46.423ZM54.548 56.173L51.8749 58.8543L50.8268 57.798C50.751 57.7223 50.6611 57.6622 50.5621 57.6212C50.4631 57.5802 50.357 57.5591 50.2499 57.5591C50.1428 57.5591 50.0367 57.5802 49.9377 57.6212C49.8387 57.6622 49.7488 57.7223 49.673 57.798C49.5973 57.8738 49.5372 57.9637 49.4962 58.0627C49.4552 58.1617 49.4341 58.2678 49.4341 58.3749C49.4341 58.482 49.4552 58.5881 49.4962 58.6871C49.5372 58.7861 49.5973 58.876 49.673 58.9518C52.3462 61.6168 51.298 61.7143 55.7018 57.3268C55.8548 57.1738 55.9407 56.9663 55.9407 56.7499C55.9407 56.5335 55.8548 56.326 55.7018 56.173C55.5488 56.02 55.3413 55.9341 55.1249 55.9341C54.9085 55.9341 54.701 56.02 54.548 56.173ZM65.923 36.673L63.2499 39.3543L62.2018 38.298C62.0488 38.145 61.8413 38.0591 61.6249 38.0591C61.4085 38.0591 61.201 38.145 61.048 38.298C60.895 38.451 60.8091 38.6585 60.8091 38.8749C60.8091 39.0913 60.895 39.2988 61.048 39.4518C63.7212 42.1168 62.673 42.2143 67.0768 37.8268C67.2298 37.6738 67.3157 37.4663 67.3157 37.2499C67.3157 37.0335 67.2298 36.826 67.0768 36.673C66.9238 36.52 66.7163 36.4341 66.4999 36.4341C66.2835 36.4341 66.076 36.52 65.923 36.673Z" fill="white"/>
<defs>
<linearGradient id="paint0_linear_618_7212" x1="47" y1="0" x2="47" y2="94" gradientUnits="userSpaceOnUse">
<stop stop-color="#40C8F7"/>
<stop offset="1" stop-color="#008BBA"/>
</linearGradient>
</defs>
</svg>
