<svg width="94" height="94" viewBox="0 0 94 94" fill="none" xmlns="http://www.w3.org/2000/svg">
<circle cx="47" cy="47" r="47" fill="url(#paint0_linear_618_7202)"/>
<g clip-path="url(#clip0_618_7202)">
<path d="M63.8317 60.2367C63.9745 60.3795 64.1683 60.4598 64.3703 60.4598C64.5723 60.4598 64.766 60.3795 64.9089 60.2367L68.708 56.4376C68.7788 56.3669 68.8349 56.2829 68.8732 56.1905C68.9115 56.0981 68.9312 55.999 68.9312 55.899C68.9312 55.799 68.9115 55.6999 68.8732 55.6075C68.8349 55.5151 68.7788 55.4311 68.7081 55.3604C68.6374 55.2896 68.5534 55.2335 68.461 55.1952C68.3686 55.1569 68.2695 55.1372 68.1695 55.1372C68.0694 55.1372 67.9704 55.1569 67.878 55.1952C67.7855 55.2335 67.7016 55.2896 67.6308 55.3603L64.3703 58.6208L63.4208 57.6714C63.2779 57.5285 63.0842 57.4483 62.8821 57.4483C62.6801 57.4483 62.4864 57.5285 62.3435 57.6714C62.2007 57.8143 62.1204 58.008 62.1204 58.21C62.1205 58.4121 62.2007 58.6058 62.3436 58.7487L63.8317 60.2367ZM37.9102 38.0279H56.2735C56.4755 38.0279 56.6693 37.9477 56.8121 37.8048C56.955 37.662 57.0352 37.4682 57.0352 37.2662C57.0352 37.0642 56.955 36.8705 56.8121 36.7276C56.6693 36.5848 56.4755 36.5045 56.2735 36.5045H37.9102C37.7081 36.5045 37.5144 36.5848 37.3715 36.7276C37.2287 36.8705 37.1484 37.0642 37.1484 37.2662C37.1484 37.4682 37.2287 37.662 37.3715 37.8048C37.5144 37.9477 37.7081 38.0279 37.9102 38.0279ZM72.2383 62.3829H71.4226C72.4358 61.0847 72.9905 59.4873 72.9999 57.8405C73.0093 56.1937 72.473 54.5901 71.4746 53.2804C71.4753 53.2677 71.4766 53.2551 71.4766 53.2423V31.6602C71.4754 30.6505 71.0738 29.6824 70.3598 28.9684C69.6458 28.2544 68.6777 27.8528 67.668 27.8517H61.4219V26.0684C61.4212 25.4625 61.1802 24.8817 60.7518 24.4533C60.3234 24.0249 59.7426 23.7839 59.1367 23.7832H41.5664C41.541 23.7832 41.5156 23.7845 41.4904 23.787C41.4719 23.7889 41.454 23.792 41.436 23.7952C41.4295 23.7963 41.4229 23.7968 41.4164 23.7981C41.3948 23.8025 41.3736 23.808 41.3526 23.8142C41.3499 23.815 41.3471 23.8155 41.3444 23.8163C41.3231 23.8228 41.3023 23.8304 41.2819 23.8387C41.2794 23.8397 41.2768 23.8404 41.2744 23.8414C41.2551 23.8494 41.2365 23.8585 41.2181 23.868C41.2144 23.8699 41.2106 23.8715 41.2069 23.8734C41.1903 23.8823 41.1744 23.8922 41.1586 23.9023C41.1534 23.9056 41.1479 23.9085 41.1428 23.9119C41.128 23.9218 41.114 23.9327 41.1001 23.9435C41.0944 23.9479 41.0884 23.9518 41.0829 23.9564C41.0657 23.9705 41.0494 23.9855 41.0336 24.0011C41.0317 24.0029 41.0296 24.0044 41.0278 24.0063L37.1824 27.8517H26.332C25.3223 27.8528 24.3542 28.2544 23.6402 28.9684C22.9262 29.6824 22.5246 30.6505 22.5234 31.6602V62.3829H21.7617C21.6617 62.3829 21.5626 62.4026 21.4702 62.4409C21.3778 62.4792 21.2938 62.5353 21.2231 62.606C21.1524 62.6767 21.0963 62.7607 21.058 62.8531C21.0197 62.9455 21 63.0446 21 63.1446V66.1915C21.0011 67.2013 21.4028 68.1693 22.1168 68.8833C22.8308 69.5973 23.7988 69.999 24.8086 70.0001H69.1914C70.2012 69.999 71.1692 69.5973 71.8832 68.8833C72.5972 68.1693 72.9989 67.2013 73 66.1915V63.1446C73 63.0446 72.9803 62.9455 72.942 62.8531C72.9037 62.7607 72.8476 62.6767 72.7769 62.606C72.7062 62.5353 72.6222 62.4792 72.5298 62.4409C72.4374 62.4026 72.3383 62.3829 72.2383 62.3829ZM61.4219 29.3751H67.668C68.2738 29.3758 68.8547 29.6168 69.2831 30.0452C69.7115 30.4736 69.9524 31.0544 69.9531 31.6602V51.7814C69.1917 51.2187 68.3299 50.8064 67.4141 50.5665V32.6759C67.4141 32.5758 67.3944 32.4768 67.3561 32.3844C67.3178 32.292 67.2617 32.208 67.191 32.1372C67.1202 32.0665 67.0363 32.0104 66.9438 31.9721C66.8514 31.9339 66.7524 31.9142 66.6523 31.9142H61.4219V29.3751ZM61.4219 33.4376H65.8906V50.3336C65.7697 50.3278 65.6481 50.3243 65.5258 50.3243C64.0665 50.323 62.6392 50.7515 61.4219 51.5563V33.4376ZM65.5258 51.8478C66.7027 51.8478 67.8532 52.1968 68.8318 52.8507C69.8104 53.5045 70.5731 54.4339 71.0235 55.5213C71.4739 56.6086 71.5918 57.8051 71.3622 58.9594C71.1326 60.1138 70.5658 61.1741 69.7336 62.0063C68.9014 62.8385 67.841 63.4053 66.6867 63.6349C65.5324 63.8645 64.3359 63.7467 63.2485 63.2963C62.1612 62.8459 61.2318 62.0831 60.5779 61.1046C59.9241 60.126 59.5751 58.9755 59.5751 57.7985C59.5768 56.2208 60.2044 54.7083 61.32 53.5927C62.4355 52.4771 63.9481 51.8496 65.5258 51.8478ZM42.3281 29.877H55.9375V32.0098H42.3281V29.877ZM55.9883 33.5332C56.3787 33.5328 56.753 33.3775 57.0291 33.1014C57.3052 32.8253 57.4605 32.451 57.4609 32.0605V29.8262C57.4605 29.4357 57.3052 29.0614 57.0291 28.7853C56.753 28.5093 56.3787 28.354 55.9883 28.3535H42.3281V25.3066H59.1367C59.3387 25.3069 59.5323 25.3872 59.6751 25.53C59.8179 25.6728 59.8982 25.8664 59.8984 26.0684V52.8878C58.707 54.2461 58.0506 55.9916 58.0516 57.7985C58.0516 57.9741 58.0599 58.1478 58.0719 58.3204H34.1016V33.5332H55.9883ZM40.8047 26.3839V32.0098H35.1788L40.8047 26.3839ZM24.0469 31.6602C24.0476 31.0544 24.2885 30.4736 24.7169 30.0452C25.1453 29.6168 25.7262 29.3758 26.332 29.3751H35.659L33.1199 31.9142H27.3477C27.2476 31.9142 27.1486 31.9339 27.0562 31.9721C26.9637 32.0104 26.8798 32.0665 26.809 32.1372C26.7383 32.208 26.6822 32.292 26.6439 32.3844C26.6056 32.4768 26.5859 32.5758 26.5859 32.6759V59.0821C26.5859 59.1822 26.6056 59.2812 26.6439 59.3736C26.6822 59.466 26.7383 59.55 26.809 59.6207C26.8798 59.6915 26.9637 59.7476 27.0562 59.7859C27.1486 59.8241 27.2476 59.8438 27.3477 59.8438H58.3385C58.6015 60.7653 59.0397 61.6274 59.6291 62.3829H24.0469V31.6602ZM32.5781 33.4376V58.3204H28.1094V33.4376H32.5781ZM51.2548 63.9063L49.9544 65.2067C49.8839 65.2777 49.7999 65.3339 49.7075 65.3722C49.615 65.4105 49.5159 65.4301 49.4158 65.4298H44.5842C44.4841 65.4301 44.3849 65.4105 44.2925 65.3722C44.2 65.3339 44.1161 65.2776 44.0455 65.2066L42.7452 63.9063H51.2548ZM71.4766 66.1915C71.4759 66.7973 71.2349 67.3782 70.8065 67.8066C70.3781 68.235 69.7973 68.476 69.1914 68.4767H24.8086C24.2027 68.476 23.6219 68.235 23.1935 67.8066C22.7651 67.3782 22.5241 66.7973 22.5234 66.1915V63.9063H40.5908L42.9682 66.2838C43.1799 66.4967 43.4318 66.6655 43.7092 66.7804C43.9865 66.8953 44.2839 66.954 44.5842 66.9532H49.4158C49.716 66.954 50.0134 66.8953 50.2908 66.7804C50.5682 66.6656 50.82 66.4968 51.0317 66.2839L53.4092 63.9063H61.226C62.4835 64.7953 63.9857 65.2727 65.5258 65.2727C67.0659 65.2727 68.5681 64.7953 69.8256 63.9063H71.4766V66.1915ZM57.0352 46.3721C57.0353 46.2721 57.0156 46.173 56.9773 46.0806C56.939 45.9882 56.8829 45.9042 56.8122 45.8335C56.7414 45.7628 56.6574 45.7067 56.565 45.6684C56.4726 45.6301 56.3736 45.6104 56.2735 45.6104H51.8197C51.6177 45.6104 51.4239 45.6907 51.2811 45.8335C51.1382 45.9764 51.058 46.1701 51.058 46.3721C51.058 46.5742 51.1382 46.7679 51.2811 46.9107C51.4239 47.0536 51.6177 47.1339 51.8197 47.1339H52.6295C52.9358 47.1342 53.2362 47.219 53.4976 47.3788C53.7589 47.5386 53.9713 47.7673 54.1113 48.0398H51.8197C51.6177 48.0398 51.4239 48.12 51.2811 48.2629C51.1382 48.4057 51.058 48.5995 51.058 48.8015C51.058 49.0035 51.1382 49.1973 51.2811 49.3401C51.4239 49.483 51.6177 49.5632 51.8197 49.5632H54.1112C53.9713 49.8357 53.7589 50.0644 53.4976 50.2242C53.2362 50.384 52.9358 50.4688 52.6295 50.4691H51.8197C51.6705 50.4692 51.5247 50.513 51.4002 50.5951C51.2757 50.6773 51.178 50.7942 51.1194 50.9314C51.0607 51.0685 51.0436 51.2199 51.0702 51.3666C51.0968 51.5134 51.1659 51.6492 51.2689 51.757L54.508 55.1483C54.5771 55.2206 54.6598 55.2786 54.7513 55.319C54.8428 55.3594 54.9414 55.3813 55.0414 55.3836C55.1414 55.3859 55.2409 55.3685 55.3342 55.3323C55.4274 55.2962 55.5127 55.242 55.585 55.1729C55.6573 55.1038 55.7154 55.0211 55.7557 54.9296C55.7961 54.8381 55.8181 54.7395 55.8204 54.6395C55.8227 54.5395 55.8052 54.44 55.7691 54.3468C55.7329 54.2535 55.6788 54.1683 55.6097 54.0959L53.4884 51.8752C54.0326 51.7217 54.5265 51.427 54.9198 51.021C55.3132 50.6149 55.5921 50.112 55.7282 49.5632H56.2735C56.4756 49.5632 56.6693 49.483 56.8121 49.3401C56.955 49.1973 57.0353 49.0035 57.0353 48.8015C57.0353 48.5995 56.955 48.4057 56.8121 48.2629C56.6693 48.12 56.4756 48.0398 56.2735 48.0398H55.728C55.6494 47.72 55.5215 47.4143 55.3488 47.1339H56.2735C56.3736 47.1339 56.4726 47.1142 56.565 47.0759C56.6574 47.0376 56.7414 46.9815 56.8122 46.9108C56.8829 46.84 56.939 46.756 56.9773 46.6636C57.0156 46.5712 57.0353 46.4722 57.0352 46.3721ZM37.9102 51.7389H48.1086C48.3106 51.7389 48.5044 51.6586 48.6472 51.5158C48.7901 51.3729 48.8703 51.1792 48.8703 50.9772C48.8703 50.7751 48.7901 50.5814 48.6472 50.4385C48.5044 50.2957 48.3106 50.2154 48.1086 50.2154H37.9102C37.7081 50.2154 37.5144 50.2957 37.3715 50.4385C37.2287 50.5814 37.1484 50.7751 37.1484 50.9772C37.1484 51.1792 37.2287 51.3729 37.3715 51.5158C37.5144 51.6586 37.7081 51.7389 37.9102 51.7389ZM37.9102 42.5983H56.2735C56.4755 42.5983 56.6693 42.518 56.8121 42.3751C56.955 42.2323 57.0352 42.0386 57.0352 41.8365C57.0352 41.6345 56.955 41.4408 56.8121 41.2979C56.6693 41.1551 56.4755 41.0748 56.2735 41.0748H37.9102C37.7081 41.0748 37.5144 41.1551 37.3715 41.2979C37.2287 41.4408 37.1484 41.6345 37.1484 41.8365C37.1484 42.0386 37.2287 42.2323 37.3715 42.3751C37.5144 42.518 37.7081 42.5983 37.9102 42.5983ZM37.9102 47.1686H48.7728C48.9749 47.1686 49.1686 47.0883 49.3114 46.9455C49.4543 46.8026 49.5345 46.6089 49.5345 46.4068C49.5345 46.2048 49.4543 46.0111 49.3114 45.8682C49.1686 45.7254 48.9749 45.6451 48.7728 45.6451H37.9102C37.7081 45.6451 37.5144 45.7254 37.3715 45.8682C37.2287 46.0111 37.1484 46.2048 37.1484 46.4068C37.1484 46.6089 37.2287 46.8026 37.3715 46.9455C37.5144 47.0883 37.7081 47.1686 37.9102 47.1686Z" fill="white"/>
</g>
<defs>
<linearGradient id="paint0_linear_618_7202" x1="47" y1="0" x2="47" y2="94" gradientUnits="userSpaceOnUse">
<stop stop-color="#40C8F7"/>
<stop offset="1" stop-color="#008BBA"/>
</linearGradient>
<clipPath id="clip0_618_7202">
<rect width="52" height="52" fill="white" transform="translate(21 18)"/>
</clipPath>
</defs>
</svg>
