<svg width="94" height="94" viewBox="0 0 94 94" fill="none" xmlns="http://www.w3.org/2000/svg">
<circle cx="47" cy="47" r="47" fill="url(#paint0_linear_618_7187)"/>
<path d="M39.5574 43.0507L41.852 43.8155L41.9272 43.9968L40.8452 46.16C40.7599 46.3302 40.7304 46.5229 40.7608 46.7107C40.7912 46.8986 40.88 47.0721 41.0146 47.2067L42.1683 48.3604C42.3029 48.495 42.4764 48.5838 42.6643 48.6142C42.8521 48.6446 43.0448 48.6151 43.215 48.5298L45.3791 47.4469L45.5604 47.5221L46.3253 49.8167C46.3852 49.9973 46.5004 50.1544 46.6546 50.2658C46.8088 50.3772 46.9941 50.4373 47.1844 50.4375H48.8156C49.0059 50.4375 49.1914 50.3777 49.3457 50.2664C49.5001 50.1552 49.6155 49.9982 49.6757 49.8176L50.4405 47.523L50.6218 47.4478L52.785 48.5344C52.9552 48.6196 53.1479 48.6491 53.3357 48.6187C53.5236 48.5883 53.6971 48.4995 53.8317 48.3649L54.9854 47.2112C55.1217 47.0769 55.2119 46.9028 55.2432 46.7139C55.2745 46.525 55.2451 46.3311 55.1594 46.16L54.0719 43.9959L54.1471 43.8146L56.4417 43.0497C56.6223 42.9898 56.7794 42.8746 56.8908 42.7204C57.0022 42.5662 57.0623 42.3809 57.0625 42.1906V40.5594C57.0625 40.3691 57.0027 40.1836 56.8914 40.0293C56.7802 39.8749 56.6232 39.7595 56.4426 39.6993L54.148 38.9345C54.1232 38.874 54.0981 38.8135 54.0728 38.7532L55.1594 36.59C55.2446 36.4198 55.2741 36.2271 55.2437 36.0393C55.2133 35.8514 55.1245 35.6779 54.9899 35.5433L53.8362 34.3896C53.7017 34.255 53.5281 34.1662 53.3403 34.1358C53.1524 34.1054 52.9597 34.1349 52.7895 34.2202L50.6209 35.3031L50.4396 35.2279L49.6747 32.9333C49.6148 32.7527 49.4996 32.5956 49.3454 32.4842C49.1912 32.3728 49.0059 32.3127 48.8156 32.3125H47.1844C46.9941 32.3125 46.8086 32.3723 46.6543 32.4836C46.4999 32.5948 46.3845 32.7518 46.3243 32.9324L45.5595 35.227L45.3782 35.3022L43.215 34.2202C43.0448 34.1349 42.8521 34.1054 42.6643 34.1358C42.4764 34.1662 42.3029 34.255 42.1683 34.3896L41.0146 35.5433C40.88 35.6779 40.7912 35.8514 40.7608 36.0393C40.7304 36.2271 40.7599 36.4198 40.8452 36.59L41.9281 38.7541C41.9025 38.8143 41.8774 38.8747 41.8529 38.9354L39.5583 39.7003C39.3777 39.7602 39.2206 39.8754 39.1092 40.0296C38.9978 40.1838 38.9377 40.3691 38.9375 40.5594V42.1906C38.9375 42.3809 38.9973 42.5664 39.1086 42.7207C39.2198 42.8751 39.3768 42.9905 39.5574 43.0507ZM40.75 41.2128L42.8425 40.515C42.9783 40.4696 43.1014 40.3928 43.2017 40.2907C43.3021 40.1886 43.3768 40.0642 43.4198 39.9277C43.5042 39.664 43.6112 39.4081 43.7397 39.1628C43.8059 39.0359 43.8411 38.895 43.8424 38.7518C43.8436 38.6086 43.8109 38.4672 43.747 38.3391L42.7582 36.3634L42.9884 36.1332L44.9641 37.122C45.0922 37.1859 45.2336 37.2186 45.3768 37.2174C45.52 37.2161 45.6609 37.1809 45.7878 37.1147C46.0331 36.9862 46.289 36.8792 46.5527 36.7948C46.6892 36.7518 46.8136 36.6771 46.9157 36.5767C47.0178 36.4764 47.0946 36.3533 47.14 36.2175L47.8378 34.125H48.1622L48.86 36.2175C48.9054 36.3533 48.9822 36.4764 49.0843 36.5767C49.1864 36.6771 49.3108 36.7518 49.4473 36.7948C49.711 36.8792 49.9669 36.9862 50.2122 37.1147C50.3391 37.1809 50.48 37.2161 50.6232 37.2174C50.7664 37.2186 50.9078 37.1859 51.0359 37.122L53.0116 36.1332L53.2418 36.3634L52.253 38.3391C52.1891 38.4672 52.1564 38.6086 52.1576 38.7518C52.1589 38.895 52.1941 39.0359 52.2603 39.1628C52.3888 39.4081 52.4958 39.664 52.5802 39.9277C52.6232 40.0642 52.6979 40.1886 52.7983 40.2907C52.8986 40.3928 53.0217 40.4696 53.1575 40.515L55.25 41.2128V41.5372L53.1575 42.235C53.0217 42.2804 52.8986 42.3572 52.7983 42.4593C52.6979 42.5614 52.6232 42.6858 52.5802 42.8223C52.4958 43.086 52.3888 43.3419 52.2603 43.5872C52.1941 43.7141 52.1589 43.855 52.1576 43.9982C52.1564 44.1414 52.1891 44.2828 52.253 44.4109L53.2418 46.3866L53.0116 46.6168L51.0359 45.628C50.9078 45.5641 50.7664 45.5314 50.6232 45.5326C50.48 45.5339 50.3391 45.5691 50.2122 45.6353C49.9669 45.7638 49.711 45.8708 49.4473 45.9552C49.3108 45.9982 49.1864 46.0729 49.0843 46.1733C48.9822 46.2736 48.9054 46.3967 48.86 46.5325L48.1622 48.625H47.8378L47.14 46.5325C47.0946 46.3967 47.0178 46.2736 46.9157 46.1733C46.8136 46.0729 46.6892 45.9982 46.5527 45.9552C46.289 45.8708 46.0331 45.7638 45.7878 45.6353C45.6609 45.5691 45.52 45.5339 45.3768 45.5326C45.2336 45.5314 45.0922 45.5641 44.9641 45.628L42.9884 46.6168L42.7582 46.3866L43.747 44.4109C43.8109 44.2828 43.8436 44.1414 43.8424 43.9982C43.8411 43.855 43.8059 43.7141 43.7397 43.5872C43.6112 43.3419 43.5042 43.086 43.4198 42.8223C43.3768 42.6858 43.3021 42.5614 43.2017 42.4593C43.1014 42.3572 42.9783 42.2804 42.8425 42.235L40.75 41.5372V41.2128Z" fill="white"/>
<path d="M48 45.0001C48.7169 45.0001 49.4178 44.7875 50.0139 44.3892C50.61 43.9908 51.0747 43.4247 51.349 42.7623C51.6234 42.0999 51.6952 41.3711 51.5553 40.6679C51.4154 39.9647 51.0702 39.3188 50.5632 38.8118C50.0563 38.3049 49.4103 37.9596 48.7072 37.8197C48.004 37.6799 47.2751 37.7517 46.6127 38.026C45.9503 38.3004 45.3842 38.765 44.9859 39.3611C44.5876 39.9573 44.375 40.6581 44.375 41.3751C44.375 42.3365 44.7569 43.2585 45.4367 43.9384C46.1165 44.6182 47.0385 45.0001 48 45.0001ZM48 39.5626C48.3584 39.5626 48.7089 39.6689 49.0069 39.868C49.305 40.0672 49.5373 40.3503 49.6745 40.6815C49.8117 41.0127 49.8476 41.3771 49.7776 41.7287C49.7077 42.0803 49.5351 42.4032 49.2816 42.6567C49.0281 42.9102 48.7052 43.0828 48.3536 43.1528C48.002 43.2227 47.6375 43.1868 47.3063 43.0496C46.9752 42.9124 46.6921 42.6801 46.4929 42.3821C46.2938 42.084 46.1875 41.7336 46.1875 41.3751C46.1875 40.8944 46.3784 40.4334 46.7183 40.0935C47.0582 39.7535 47.5193 39.5626 48 39.5626ZM46.1104 25.3091L47.3529 26.6286C47.5308 26.4692 47.7612 26.3811 48 26.3811C48.2388 26.3811 48.4692 26.4692 48.647 26.6286L49.8895 25.3091C49.3741 24.8356 48.6998 24.5729 48 24.5729C47.3001 24.5729 46.6258 24.8356 46.1104 25.3091ZM52.4279 22.9211C51.2197 21.8126 49.6397 21.1975 48 21.1975C46.3603 21.1975 44.7802 21.8126 43.572 22.9211L44.8145 24.2406C45.6837 23.4433 46.8204 23.0009 48 23.0009C49.1795 23.0009 50.3162 23.4433 51.1854 24.2406L52.4279 22.9211Z" fill="white"/>
<path d="M54.9654 20.5314C53.0646 18.788 50.5792 17.8208 48 17.8208C45.4208 17.8208 42.9353 18.788 41.0346 20.5314L42.2779 21.8509C43.8394 20.4187 45.8812 19.6241 48 19.6241C50.1188 19.6241 52.1606 20.4187 53.7221 21.8509L54.9654 20.5314ZM75.1875 28.6876C75.1908 28.0129 75.0058 27.3506 74.6531 26.7753C74.3005 26.2 73.7943 25.7345 73.1915 25.4313C72.5887 25.1281 71.9132 24.9991 71.2411 25.059C70.569 25.1188 69.9269 25.365 69.3872 25.77C68.8474 26.1749 68.4314 26.7224 68.1859 27.351C67.9404 27.9795 67.8753 28.6641 67.9978 29.3276C68.1202 29.9912 68.4255 30.6074 68.8791 31.1069C69.3328 31.6064 69.9169 31.9694 70.5656 32.1549L68.9344 46.0477C68.5357 46.1736 68.1715 46.3899 67.8703 46.6798C67.5691 46.9697 67.339 47.3253 67.198 47.7189H65.2188V32.0942C65.2176 31.1911 64.8583 30.3253 64.2197 29.6867C63.5811 29.0481 62.7153 28.6888 61.8122 28.6876H34.1878C33.2847 28.6888 32.4189 29.0481 31.7803 29.6867C31.1417 30.3253 30.7824 31.1911 30.7812 32.0942V47.7189H28.802C28.6613 47.3262 28.4322 46.9712 28.1324 46.6812C27.8326 46.3913 27.47 46.1742 27.0729 46.0468L25.4344 32.1549C26.2765 31.9076 26.9996 31.3619 27.4684 30.6198C27.9372 29.8778 28.1194 28.9904 27.9811 28.1237C27.8428 27.257 27.3933 26.4704 26.7168 25.9111C26.0404 25.3519 25.1833 25.0584 24.306 25.0855C23.4288 25.1126 22.5915 25.4585 21.9508 26.0584C21.3102 26.6584 20.9102 27.4712 20.8256 28.3448C20.7411 29.2184 20.9778 30.0929 21.4915 30.8046C22.0052 31.5162 22.7606 32.0163 23.6164 32.2111L25.2531 46.1012C24.7456 46.3 24.3098 46.6472 24.0026 47.0974C23.6954 47.5476 23.5311 48.08 23.5311 48.6251C23.5311 49.1702 23.6954 49.7026 24.0026 50.1528C24.3098 50.6031 24.7456 50.9502 25.2531 51.149L23.6219 65.0391C22.7569 65.2339 21.9927 65.7374 21.4725 66.4553C20.9523 67.1733 20.7118 68.0563 20.7962 68.9389C20.8805 69.8215 21.2839 70.643 21.9307 71.2494C22.5774 71.8558 23.4232 72.2055 24.3094 72.2329C25.1955 72.2603 26.0613 71.9635 26.7443 71.3982C27.4272 70.8328 27.8806 70.0378 28.0193 69.1621C28.158 68.2865 27.9725 67.3903 27.4976 66.6416C27.0227 65.8929 26.2911 65.3431 25.4398 65.0953L27.0711 51.2025C27.4687 51.0759 27.8318 50.8593 28.132 50.5694C28.4323 50.2796 28.6615 49.9243 28.802 49.5314H30.7812V50.656C30.7828 51.523 31.1169 52.3563 31.7147 52.9842C31.7147 53.0096 31.6966 53.0304 31.6929 53.0567L29.8804 69.3692C29.8664 69.4958 29.8793 69.624 29.9181 69.7454C29.957 69.8667 30.0211 69.9785 30.1061 70.0734C30.1911 70.1684 30.2951 70.2443 30.4115 70.2963C30.5278 70.3483 30.6538 70.3751 30.7812 70.3751H65.2188C65.3462 70.3751 65.4722 70.3483 65.5885 70.2963C65.7049 70.2443 65.8089 70.1684 65.8939 70.0734C65.9789 69.9785 66.043 69.8667 66.0819 69.7454C66.1207 69.624 66.1336 69.4958 66.1196 69.3692L64.3071 53.0567C64.3071 53.0304 64.2898 53.0096 64.2853 52.9842C64.8831 52.3563 65.2172 51.523 65.2188 50.656V49.5314H67.198C67.3383 49.9241 67.5673 50.2793 67.8672 50.5691C68.1671 50.8589 68.5298 51.0757 68.9271 51.2025L70.5584 65.0953C69.7163 65.3426 68.9931 65.8884 68.5244 66.6304C68.0556 67.3724 67.8733 68.2598 68.0116 69.1265C68.15 69.9933 68.5994 70.7798 69.2759 71.3391C69.9524 71.8983 70.8094 72.1918 71.6867 72.1647C72.564 72.1376 73.4013 71.7917 74.0419 71.1918C74.6826 70.5918 75.0826 69.779 75.1671 68.9054C75.2517 68.0318 75.0149 67.1573 74.5012 66.4456C73.9875 65.734 73.2321 65.2339 72.3763 65.0391L70.7469 51.149C71.2544 50.9502 71.6902 50.6031 71.9974 50.1528C72.3046 49.7026 72.4689 49.1702 72.4689 48.6251C72.4689 48.08 72.3046 47.5476 71.9974 47.0974C71.6902 46.6472 71.2544 46.3 70.7469 46.1012L72.3781 32.2111C73.1753 32.027 73.8868 31.5787 74.3969 30.9389C74.9069 30.2992 75.1856 29.5058 75.1875 28.6876ZM22.625 28.6876C22.625 28.3291 22.7313 27.9787 22.9305 27.6806C23.1296 27.3826 23.4127 27.1503 23.7439 27.0131C24.0751 26.8759 24.4395 26.84 24.7911 26.9099C25.1427 26.9799 25.4656 27.1525 25.7191 27.406C25.9726 27.6595 26.1452 27.9824 26.2152 28.334C26.2851 28.6856 26.2492 29.05 26.112 29.3812C25.9748 29.7124 25.7425 29.9955 25.4445 30.1946C25.1464 30.3938 24.796 30.5001 24.4375 30.5001C23.9568 30.5001 23.4958 30.3091 23.1559 29.9692C22.816 29.6293 22.625 29.1683 22.625 28.6876ZM26.25 68.5626C26.25 68.9211 26.1437 69.2715 25.9445 69.5696C25.7454 69.8676 25.4623 70.1 25.1311 70.2371C24.7999 70.3743 24.4355 70.4102 24.0839 70.3403C23.7323 70.2704 23.4094 70.0977 23.1559 69.8442C22.9024 69.5908 22.7298 69.2678 22.6598 68.9162C22.5899 68.5646 22.6258 68.2002 22.763 67.869C22.9002 67.5378 23.1325 67.2547 23.4305 67.0556C23.7286 66.8564 24.079 66.7501 24.4375 66.7501C24.9182 66.7501 25.3792 66.9411 25.7191 67.281C26.059 67.6209 26.25 68.0819 26.25 68.5626ZM26.25 49.5314C26.0708 49.5314 25.8955 49.4782 25.7465 49.3786C25.5975 49.2791 25.4813 49.1375 25.4127 48.9719C25.3441 48.8063 25.3262 48.6241 25.3612 48.4483C25.3961 48.2725 25.4824 48.111 25.6092 47.9843C25.7359 47.8576 25.8974 47.7712 26.0732 47.7363C26.249 47.7013 26.4312 47.7193 26.5968 47.7878C26.7624 47.8564 26.9039 47.9726 27.0035 48.1216C27.1031 48.2707 27.1562 48.4459 27.1562 48.6251C27.1562 48.8655 27.0608 49.096 26.8908 49.2659C26.7209 49.4359 26.4904 49.5314 26.25 49.5314ZM32.5937 32.0942C32.5942 31.6716 32.7623 31.2664 33.0612 30.9675C33.36 30.6687 33.7652 30.5006 34.1878 30.5001H61.8122C62.2348 30.5006 62.64 30.6687 62.9388 30.9675C63.2377 31.2664 63.4058 31.6716 63.4062 32.0942V50.656C63.4058 51.0787 63.2377 51.4838 62.9388 51.7827C62.64 52.0815 62.2348 52.2496 61.8122 52.2501H34.1878C33.7652 52.2496 33.36 52.0815 33.0612 51.7827C32.7623 51.4838 32.5942 51.0787 32.5937 50.656V32.0942ZM45.2812 68.5626V66.7501H50.7187V68.5626H45.2812ZM52.5312 68.5626V65.8439C52.5312 65.6035 52.4358 65.373 52.2658 65.203C52.0959 65.0331 51.8654 64.9376 51.625 64.9376H44.375C44.1346 64.9376 43.9041 65.0331 43.7342 65.203C43.5642 65.373 43.4687 65.6035 43.4687 65.8439V68.5626H31.7935L33.4094 54.0626H62.5997L64.211 68.5626H52.5312ZM69.75 28.6876C69.75 28.3291 69.8563 27.9787 70.0555 27.6806C70.2546 27.3826 70.5377 27.1503 70.8689 27.0131C71.2001 26.8759 71.5645 26.84 71.9161 26.9099C72.2677 26.9799 72.5906 27.1525 72.8441 27.406C73.0976 27.6595 73.2702 27.9824 73.3402 28.334C73.4101 28.6856 73.3742 29.05 73.237 29.3812C73.0998 29.7124 72.8675 29.9955 72.5695 30.1946C72.2714 30.3938 71.921 30.5001 71.5625 30.5001C71.0818 30.5001 70.6208 30.3091 70.2809 29.9692C69.941 29.6293 69.75 29.1683 69.75 28.6876ZM69.75 47.7189C69.9292 47.7189 70.1045 47.772 70.2535 47.8716C70.4025 47.9712 70.5187 48.1127 70.5873 48.2783C70.6559 48.4439 70.6738 48.6261 70.6388 48.8019C70.6039 48.9777 70.5176 49.1392 70.3908 49.2659C70.2641 49.3927 70.1026 49.479 69.9268 49.5139C69.751 49.5489 69.5688 49.531 69.4032 49.4624C69.2376 49.3938 69.0961 49.2776 68.9965 49.1286C68.8969 48.9796 68.8438 48.8043 68.8438 48.6251C68.8438 48.3848 68.9392 48.1542 69.1092 47.9843C69.2791 47.8143 69.5096 47.7189 69.75 47.7189ZM73.375 68.5626C73.375 68.9211 73.2687 69.2715 73.0695 69.5696C72.8704 69.8676 72.5873 70.1 72.2561 70.2371C71.9249 70.3743 71.5605 70.4102 71.2089 70.3403C70.8573 70.2704 70.5343 70.0977 70.2809 69.8442C70.0274 69.5908 69.8548 69.2678 69.7848 68.9162C69.7149 68.5646 69.7508 68.2002 69.888 67.869C70.0252 67.5378 70.2575 67.2547 70.5555 67.0556C70.8536 66.8564 71.204 66.7501 71.5625 66.7501C72.0432 66.7501 72.5042 66.9411 72.8441 67.281C73.184 67.6209 73.375 68.0819 73.375 68.5626Z" fill="white"/>
<defs>
<linearGradient id="paint0_linear_618_7187" x1="47" y1="0" x2="47" y2="94" gradientUnits="userSpaceOnUse">
<stop stop-color="#40C8F7"/>
<stop offset="1" stop-color="#008BBA"/>
</linearGradient>
</defs>
</svg>
