<svg width="94" height="94" viewBox="0 0 94 94" fill="none" xmlns="http://www.w3.org/2000/svg">
<circle cx="47" cy="47" r="47" fill="url(#paint0_linear_618_7192)"/>
<g clip-path="url(#clip0_618_7192)">
<path d="M28.1707 45.3846C27.6641 45.8528 27.0068 46.1245 26.3175 46.1504C27.082 47.2024 28.0846 48.0585 29.2433 48.6488C30.402 49.2391 31.684 49.5468 32.9844 49.5468C34.2848 49.5468 35.5668 49.2391 36.7255 48.6488C37.8842 48.0585 38.8868 47.2024 39.6514 46.1504C38.962 46.1245 38.3047 45.8528 37.7981 45.3846C37.2048 46.082 36.4671 46.6422 35.6359 47.0263C34.8047 47.4104 33.9 47.6094 32.9844 47.6094C32.0688 47.6094 31.1641 47.4104 30.3329 47.0263C29.5018 46.6422 28.764 46.082 28.1707 45.3846ZM69.6826 46.1504C68.9933 46.1245 68.336 45.8528 67.8294 45.3846C67.2361 46.0821 66.4984 46.6423 65.6672 47.0265C64.836 47.4107 63.9313 47.6097 63.0157 47.6097C62.1 47.6097 61.1953 47.4107 60.3641 47.0265C59.533 46.6423 58.7952 46.0821 58.202 45.3846C57.6954 45.8528 57.0381 46.1245 56.3487 46.1504C57.1132 47.2024 58.1158 48.0585 59.2746 48.6488C60.4333 49.2391 61.7153 49.5468 63.0157 49.5468C64.3161 49.5468 65.598 49.2391 66.7568 48.6488C67.9155 48.0585 68.9181 47.2024 69.6826 46.1504ZM19.4612 45.1836H20.8542C21.1187 46.0698 21.4856 46.922 21.9475 47.7232L20.9947 48.6372C20.7724 48.8519 20.596 49.1095 20.4764 49.3945C20.3567 49.6794 20.2962 49.9857 20.2986 50.2947C20.3036 50.65 20.3798 51.0006 20.5227 51.3259C20.6655 51.6512 20.8721 51.9446 21.1303 52.1887L22.3175 53.3294C22.7874 53.8016 23.4194 54.0772 24.0852 54.1003C24.7509 54.1233 25.4005 53.892 25.9019 53.4534L26.892 52.503C27.0043 52.5631 27.1196 52.6168 27.233 52.674C27.5347 52.0744 27.9559 51.5428 28.4705 51.1119C28.0515 50.9254 27.6445 50.713 27.2518 50.4759C27.0692 50.3638 26.8545 50.3155 26.6414 50.3385C26.4284 50.3614 26.2289 50.4544 26.0743 50.6028L24.5602 52.0559C24.42 52.147 24.2517 52.1844 24.0862 52.1615C23.9206 52.1385 23.7689 52.0567 23.6587 51.931L22.4735 50.7917C22.4029 50.7286 22.3456 50.6521 22.3048 50.5666C22.2641 50.4811 22.2407 50.3884 22.2361 50.2938C22.2341 50.2457 22.2421 50.1977 22.2596 50.1528C22.2772 50.1079 22.3038 50.0672 22.3379 50.0332L23.8549 48.5781C24.0192 48.4205 24.1227 48.2101 24.1473 47.9838C24.172 47.7575 24.1161 47.5298 23.9896 47.3405C23.3076 46.3247 22.8182 45.1921 22.5457 43.9993C22.4969 43.7853 22.3769 43.5941 22.2053 43.4572C22.0337 43.3202 21.8207 43.2457 21.6011 43.2456H19.4607C19.3072 43.2256 19.1673 43.1474 19.07 43.0271C18.9726 42.9068 18.9252 42.7537 18.9375 42.5995V40.9904C18.9251 40.836 18.9725 40.6827 19.07 40.5623C19.1675 40.4419 19.3075 40.3637 19.4612 40.3437H21.1134C21.3703 40.3437 21.6167 40.2417 21.7984 40.06C21.98 39.8783 22.0821 39.6319 22.0821 39.375C22.0821 39.1181 21.98 38.8717 21.7984 38.69C21.6167 38.5083 21.3703 38.4062 21.1134 38.4062H19.4612C18.7925 38.4236 18.158 38.7054 17.6966 39.1898C17.2353 39.6742 16.9848 40.3217 17 40.9904V42.5995C16.9848 43.2682 17.2353 43.9157 17.6966 44.4001C18.158 44.8845 18.7925 45.1662 19.4612 45.1836ZM76.5389 38.4062H74.8867C74.6298 38.4062 74.3834 38.5083 74.2017 38.69C74.02 38.8717 73.918 39.1181 73.918 39.375C73.918 39.6319 74.02 39.8783 74.2017 40.06C74.3834 40.2417 74.6298 40.3437 74.8867 40.3437H76.5384C76.6922 40.3635 76.8324 40.4417 76.9299 40.5622C77.0275 40.6826 77.075 40.8359 77.0625 40.9904V42.5995C77.075 42.7539 77.0276 42.9072 76.9301 43.0276C76.8326 43.148 76.6926 43.2262 76.5389 43.2461H74.3994C74.18 43.2461 73.967 43.3206 73.7954 43.4575C73.6238 43.5943 73.5038 43.7854 73.4549 43.9993C73.1822 45.1923 72.6926 46.325 72.0105 47.341C71.8839 47.5302 71.828 47.758 71.8526 47.9843C71.8772 48.2107 71.9808 48.4211 72.1452 48.5786L73.6608 50.0317C73.6952 50.066 73.7221 50.107 73.7398 50.1522C73.7575 50.1974 73.7655 50.2458 73.7635 50.2943C73.7589 50.3886 73.7356 50.4811 73.695 50.5664C73.6545 50.6517 73.5974 50.7281 73.5271 50.7912L72.3428 51.9295C72.2326 52.0558 72.0806 52.1381 71.9146 52.1612C71.7487 52.1844 71.5799 52.1468 71.4394 52.0555L69.9258 50.6023C69.7712 50.4536 69.5716 50.3606 69.3583 50.3378C69.1451 50.315 68.9303 50.3637 68.7478 50.4764C68.3553 50.7135 67.9485 50.9259 67.5296 51.1124C68.0442 51.5432 68.4653 52.0746 68.7671 52.674C68.8805 52.6168 68.9958 52.5631 69.1077 52.503L70.0977 53.4534C70.5994 53.8922 71.2494 54.1234 71.9156 54.1C72.5817 54.0766 73.2139 53.8003 73.6835 53.3274L74.8703 52.1877C75.1282 51.9437 75.3346 51.6505 75.4773 51.3253C75.62 51.0002 75.696 50.6498 75.701 50.2947C75.7035 49.9853 75.643 49.6785 75.523 49.3932C75.4031 49.1079 75.2263 48.85 75.0035 48.6353L74.0526 47.7232C74.5147 46.9221 74.8816 46.0698 75.1459 45.1836H76.5389C77.2076 45.1662 77.8421 44.8845 78.3035 44.4001C78.7648 43.9157 79.0153 43.2682 79 42.5995V40.9904C79.0153 40.3217 78.7648 39.6742 78.3035 39.1898C77.8421 38.7054 77.2076 38.4236 76.5389 38.4062ZM64.588 59.9977C65.355 59.9673 66.0788 59.6345 66.6011 59.0719C67.1234 58.5093 67.4016 57.7628 67.375 56.9956V54.9709C67.4016 54.2037 67.1234 53.4572 66.6011 52.8946C66.0788 52.332 65.355 51.9991 64.588 51.9687H62.5763C62.3194 51.9687 62.073 52.0708 61.8913 52.2525C61.7097 52.4342 61.6076 52.6806 61.6076 52.9375C61.6076 53.1944 61.7097 53.4408 61.8913 53.6225C62.073 53.8042 62.3194 53.9062 62.5763 53.9062H64.588C64.8403 53.9381 65.0702 54.0671 65.2288 54.2658C65.3875 54.4646 65.4624 54.7173 65.4375 54.9704V56.9956C65.4625 57.2488 65.3877 57.5017 65.229 57.7005C65.0703 57.8993 64.8403 58.0284 64.588 58.0602H61.9825C61.7618 58.0603 61.5477 58.1357 61.3756 58.274C61.2036 58.4123 61.084 58.6052 61.0365 58.8207C60.6995 60.3481 60.0919 61.8028 59.2424 63.1162C59.1221 63.3026 59.0695 63.5247 59.0933 63.7453C59.1171 63.9658 59.2159 64.1716 59.3732 64.3281L61.2172 66.16C61.284 66.2288 61.3365 66.3102 61.3714 66.3996C61.4063 66.4889 61.4231 66.5843 61.4206 66.6802C61.4111 66.9901 61.2794 67.2836 61.0544 67.4968L59.6105 68.9301C59.4453 69.1253 59.212 69.2502 58.958 69.2795C58.7041 69.3088 58.4484 69.2404 58.2431 69.088L56.3977 67.2595C56.2417 67.105 56.0379 67.0081 55.8197 66.9845C55.6015 66.9609 55.3817 67.0121 55.1964 67.1297C53.8682 67.975 52.4008 68.5785 50.8622 68.9122C50.646 68.9591 50.4524 69.0786 50.3135 69.2507C50.1747 69.4229 50.0989 69.6374 50.0988 69.8587V72.4447C50.0601 72.6953 49.9269 72.9215 49.7267 73.077C49.5265 73.2326 49.2744 73.3056 49.0221 73.2812H46.978C46.7257 73.3056 46.4736 73.2326 46.2734 73.077C46.0731 72.9215 45.94 72.6953 45.9012 72.4447V69.8587C45.9013 69.6373 45.8255 69.4226 45.6865 69.2503C45.5475 69.078 45.3537 68.9585 45.1374 68.9117C43.5986 68.5777 42.1309 67.9742 40.8022 67.1292C40.6168 67.0117 40.397 66.9606 40.1787 66.9844C39.9605 67.0081 39.7568 67.1053 39.601 67.26L37.757 69.0885C37.5514 69.2406 37.2958 69.309 37.0417 69.2798C36.7877 69.2506 36.5542 69.1259 36.3886 68.9311L34.9452 67.4973C34.7207 67.2834 34.5895 66.9896 34.58 66.6797C34.5773 66.5841 34.5936 66.4889 34.628 66.3997C34.6625 66.3105 34.7143 66.229 34.7805 66.16L36.6279 64.329C36.7858 64.1724 36.8851 63.9663 36.909 63.7452C36.9329 63.524 36.88 63.3014 36.7592 63.1147C35.9083 61.8023 35.3001 60.3477 34.9636 58.8202C34.9161 58.6047 34.7965 58.4118 34.6244 58.2735C34.4524 58.1352 34.2383 58.0598 34.0176 58.0598H31.4117C31.1608 58.0251 30.9328 57.8954 30.7748 57.6974C30.6168 57.4995 30.5408 57.2484 30.5625 56.9961V54.9714C30.5404 54.7189 30.6161 54.4675 30.7741 54.2693C30.932 54.071 31.1601 53.9411 31.4112 53.9062H33.4237C33.6807 53.9062 33.9271 53.8042 34.1088 53.6225C34.2904 53.4408 34.3925 53.1944 34.3925 52.9375C34.3925 52.6806 34.2904 52.4342 34.1088 52.2525C33.9271 52.0708 33.6807 51.9687 33.4237 51.9687H31.4112C30.6443 51.9993 29.9208 52.3322 29.3987 52.8946C28.8766 53.4571 28.5984 54.2034 28.625 54.9704V56.9956C28.5983 57.7627 28.8764 58.5091 29.3985 59.0717C29.9206 59.6343 30.6443 59.9672 31.4112 59.9977H33.26C33.5967 61.2196 34.0872 62.3938 34.7199 63.492L33.4145 64.7853C33.1667 65.0342 32.9708 65.3299 32.8383 65.6552C32.7057 65.9805 32.6392 66.3289 32.6425 66.6802C32.6532 67.5058 32.9899 68.2937 33.5792 68.872L35.0251 70.3072C35.5512 70.8648 36.2752 71.1936 37.0413 71.2228C37.8074 71.2521 38.5543 70.9795 39.1215 70.4636L40.4307 69.1655C41.5427 69.7961 42.7295 70.2844 43.9633 70.6191V72.4447C43.9972 73.2116 44.3334 73.9339 44.8983 74.4537C45.4632 74.9735 46.2109 75.2486 46.978 75.2187H49.0221C49.7891 75.2484 50.5366 74.9733 51.1014 74.4535C51.6662 73.9338 52.0024 73.2116 52.0363 72.4447V70.6191C53.2701 70.2847 54.4569 69.7965 55.5689 69.166L56.8777 70.4632C57.4447 70.9795 58.192 71.2523 58.9583 71.2229C59.7247 71.1934 60.4487 70.864 60.9745 70.3057L62.4199 68.872C63.0107 68.294 63.3481 67.5052 63.3581 66.6787C63.3612 66.3273 63.2942 65.9788 63.1609 65.6536C63.0277 65.3284 62.8309 65.0331 62.5822 64.7848L61.2811 63.492C61.913 62.3935 62.4034 61.2194 62.7405 59.9977H64.588Z" fill="white"/>
<path d="M41.491 60.6002C40.9923 60.9714 40.3873 61.1718 39.7656 61.1718C39.6707 61.1718 39.5767 61.1669 39.4842 61.1572C40.4541 62.5103 41.7325 63.6129 43.2134 64.3734C44.6943 65.134 46.3352 65.5307 48 65.5307C49.6648 65.5307 51.3057 65.134 52.7866 64.3734C54.2675 63.6129 55.5459 62.5103 56.5158 61.1572C56.4233 61.1669 56.3293 61.1718 56.2344 61.1718C55.6127 61.1718 55.0077 60.9714 54.509 60.6002C53.7042 61.5391 52.7057 62.2927 51.5822 62.8094C50.4587 63.3261 49.2366 63.5936 48 63.5936C46.7634 63.5936 45.5413 63.3261 44.4178 62.8094C43.2943 62.2927 42.2958 61.5391 41.491 60.6002ZM38.7969 52.4278V58.2655C38.7969 58.5224 38.8989 58.7689 39.0806 58.9505C39.2623 59.1322 39.5087 59.2343 39.7656 59.2343C40.0226 59.2343 40.269 59.1322 40.4506 58.9505C40.6323 58.7689 40.7344 58.5224 40.7344 58.2655V52.4278C40.7344 50.5242 42.5135 48.7829 44.5561 48.5964C43.8685 48.1909 43.2573 47.6679 42.7503 47.0513C40.4883 47.9173 38.7969 50.0583 38.7969 52.4278ZM55.2656 52.4278V58.2655C55.2656 58.5224 55.3677 58.7689 55.5494 58.9505C55.731 59.1322 55.9774 59.2343 56.2344 59.2343C56.4913 59.2343 56.7377 59.1322 56.9194 58.9505C57.1011 58.7689 57.2031 58.5224 57.2031 58.2655V52.4278C57.2031 50.0583 55.5117 47.9173 53.2497 47.0513C52.7429 47.6679 52.1319 48.1909 51.4444 48.5964C53.486 48.7829 55.2656 50.5242 55.2656 52.4278ZM47.9932 57.2968H48.0097C48.2362 57.2959 48.4603 57.2492 48.6683 57.1595C48.8763 57.0697 49.064 56.9388 49.2201 56.7746L50.4262 55.5085C50.6064 55.3172 50.7415 55.088 50.8217 54.8378C50.9019 54.5875 50.9252 54.3225 50.8898 54.0621L50.2204 49.1656C49.6062 49.3787 48.9643 49.5017 48.3148 49.5308L47.7157 49.5322C47.0663 49.5063 46.4242 49.3866 45.8092 49.1767L45.1122 53.972C45.0737 54.2288 45.0929 54.4908 45.1685 54.7392C45.2441 54.9875 45.3741 55.2159 45.5491 55.4077L46.776 56.7494C46.9307 56.919 47.1186 57.055 47.3279 57.1491C47.5373 57.2433 47.7637 57.2935 47.9932 57.2968Z" fill="white"/>
<path d="M48 47.6094C50.6751 47.6094 52.8438 45.4408 52.8438 42.7656C52.8438 40.0905 50.6751 37.9219 48 37.9219C45.3249 37.9219 43.1562 40.0905 43.1562 42.7656C43.1562 45.4408 45.3249 47.6094 48 47.6094Z" fill="white"/>
<path d="M32.9776 43.7345H32.9941C33.2205 43.7336 33.4444 43.687 33.6524 43.5973C33.8603 43.5077 34.048 43.3769 34.204 43.2128L35.4111 41.9462C35.591 41.7547 35.7259 41.5255 35.806 41.2753C35.8861 41.0251 35.9094 40.7602 35.8742 40.4998L35.3898 36.9576C34.7864 37.2069 34.1477 37.36 33.4968 37.4115L32.4903 37.4124C31.8398 37.3628 31.2011 37.2116 30.5974 36.9644L30.0965 40.4102C30.0581 40.6669 30.0774 40.9289 30.153 41.1771C30.2286 41.4254 30.3585 41.6537 30.5334 41.8454L31.7604 43.1871C31.9151 43.3567 32.103 43.4927 32.3123 43.5869C32.5217 43.681 32.7481 43.7312 32.9776 43.7345ZM26.2031 44.2189C26.4601 44.2189 26.7065 44.1168 26.8881 43.9351C27.0698 43.7534 27.1719 43.507 27.1719 43.2501V38.9586C27.2126 38.3455 27.4329 37.7581 27.8052 37.2694C28.1776 36.7808 28.6856 36.4126 29.2658 36.2107C28.7146 35.8064 28.2324 35.3157 27.8379 34.7576C27.0755 35.1701 26.4341 35.7747 25.9774 36.5115C25.5208 37.2483 25.2646 38.0917 25.2344 38.9581V43.2501C25.2344 43.507 25.3364 43.7534 25.5181 43.9351C25.6998 44.1168 25.9462 44.2189 26.2031 44.2189ZM38.7969 38.9586V43.2501C38.7969 43.507 38.8989 43.7534 39.0806 43.9351C39.2623 44.1168 39.5087 44.2189 39.7656 44.2189C40.0226 44.2189 40.269 44.1168 40.4506 43.9351C40.6323 43.7534 40.7344 43.507 40.7344 43.2501V38.9586C40.7042 38.0921 40.4481 37.2486 39.9914 36.5117C39.5347 35.7748 38.8933 35.1701 38.1309 34.7576C37.7363 35.3157 37.2541 35.8064 36.7029 36.2107C37.2831 36.4125 37.791 36.7807 38.1634 37.2692C38.5357 37.7578 38.7561 38.3451 38.7969 38.9581V38.9586Z" fill="white"/>
<path d="M32.9844 35.5C35.392 35.5 37.3438 33.5482 37.3438 31.1406C37.3438 28.733 35.392 26.7812 32.9844 26.7812C30.5768 26.7812 28.625 28.733 28.625 31.1406C28.625 33.5482 30.5768 35.5 32.9844 35.5Z" fill="white"/>
<path d="M63.0079 43.7345H63.0253C63.2519 43.7336 63.4759 43.6869 63.6839 43.5972C63.892 43.5075 64.0797 43.3765 64.2358 43.2123L65.4419 41.9462C65.622 41.7549 65.7572 41.5257 65.8374 41.2755C65.9176 41.0252 65.9408 40.7602 65.9054 40.4998L65.421 36.9576C64.8175 37.2069 64.1786 37.36 63.5276 37.4115L62.5216 37.4124C61.8711 37.3628 61.2323 37.2117 60.6286 36.9644L60.1278 40.4102C60.0894 40.6669 60.1087 40.929 60.1844 41.1772C60.26 41.4255 60.3901 41.6538 60.5652 41.8454L61.7916 43.1867C61.9462 43.3562 62.1338 43.4923 62.343 43.5865C62.5522 43.6807 62.7785 43.7311 63.0079 43.7345ZM56.2344 44.2189C56.4913 44.2189 56.7377 44.1168 56.9194 43.9351C57.1011 43.7534 57.2031 43.507 57.2031 43.2501V38.9586C57.2439 38.3455 57.4641 37.7581 57.8365 37.2694C58.2089 36.7808 58.7168 36.4126 59.2971 36.2107C58.7459 35.8064 58.2637 35.3157 57.8691 34.7576C57.1067 35.1701 56.4654 35.7747 56.0087 36.5115C55.552 37.2483 55.2959 38.0917 55.2656 38.9581V43.2501C55.2656 43.507 55.3677 43.7534 55.5494 43.9351C55.731 44.1168 55.9774 44.2189 56.2344 44.2189ZM68.8281 38.9586V43.2501C68.8281 43.507 68.9302 43.7534 69.1119 43.9351C69.2935 44.1168 69.5399 44.2189 69.7969 44.2189C70.0538 44.2189 70.3002 44.1168 70.4819 43.9351C70.6636 43.7534 70.7656 43.507 70.7656 43.2501V38.9586C70.7355 38.0921 70.4794 37.2486 70.0227 36.5117C69.566 35.7748 68.9246 35.1701 68.1621 34.7576C67.7675 35.3157 67.2854 35.8064 66.7342 36.2107C67.3143 36.4125 67.8223 36.7807 68.1946 37.2692C68.567 37.7578 68.7873 38.3451 68.8281 38.9581V38.9586Z" fill="white"/>
<path d="M63.0156 35.5C65.4232 35.5 67.375 33.5482 67.375 31.1406C67.375 28.733 65.4232 26.7812 63.0156 26.7812C60.608 26.7812 58.6562 28.733 58.6562 31.1406C58.6562 33.5482 60.608 35.5 63.0156 35.5Z" fill="white"/>
</g>
<defs>
<linearGradient id="paint0_linear_618_7192" x1="47" y1="0" x2="47" y2="94" gradientUnits="userSpaceOnUse">
<stop stop-color="#40C8F7"/>
<stop offset="1" stop-color="#008BBA"/>
</linearGradient>
<clipPath id="clip0_618_7192">
<rect width="62" height="62" fill="white" transform="translate(17 20)"/>
</clipPath>
</defs>
</svg>
