<svg width="494" height="532" viewBox="0 0 494 532" fill="none" xmlns="http://www.w3.org/2000/svg">
<rect x="47" y="54" width="447" height="478" fill="url(#paint0_linear_717_50)"/>
<g filter="url(#filter0_d_717_50)">
<rect x="15" y="8" width="431" height="493" rx="6" fill="white"/>
<path d="M192.643 65.1C167.483 69.133 143.3 77.9908 122.979 93.6492C93.246 116.589 76.7514 150.836 75.0346 188.095C73.895 212.693 79.7706 236.676 86.8746 260.031C95.9988 290.075 101.889 324.3 120.915 349.978C150.581 389.938 207.931 406.795 255.891 399.639C286.874 395.022 319.612 377.439 329.151 345.619C332.68 333.846 334.405 321.199 340.436 310.314C347.658 297.275 360.771 289.66 370.724 279.041C383.015 265.929 387.973 249.589 391.037 232.303C398.133 192.225 387.648 148.165 363.176 115.635C336.447 80.1146 293.061 67.1276 250.644 63.4202C231.619 61.7182 211.853 61.9846 192.643 65.1Z" fill="#008BBA"/>
<path opacity="0.7" d="M192.643 65.1C167.483 69.133 143.3 77.9908 122.979 93.6492C93.246 116.589 76.7514 150.836 75.0346 188.095C73.895 212.693 79.7706 236.676 86.8746 260.031C95.9988 290.075 101.889 324.3 120.915 349.978C150.581 389.938 207.931 406.795 255.891 399.639C286.874 395.022 319.612 377.439 329.151 345.619C332.68 333.846 334.405 321.199 340.436 310.314C347.658 297.275 360.771 289.66 370.724 279.041C383.015 265.929 387.973 249.589 391.037 232.303C398.133 192.225 387.648 148.165 363.176 115.635C336.447 80.1146 293.061 67.1276 250.644 63.4202C231.619 61.7182 211.853 61.9846 192.643 65.1Z" fill="white"/>
<path d="M366.35 336.724H328.566C324.786 336.724 321.721 339.789 321.721 343.569V387.607C321.721 391.387 324.786 394.452 328.566 394.452H366.35C370.131 394.452 373.195 391.387 373.195 387.607V343.569C373.195 339.789 370.131 336.724 366.35 336.724Z" fill="#008BBA"/>
<path d="M347.48 346.27C354.587 346.27 360.349 340.509 360.349 333.402C360.349 326.295 354.587 320.533 347.48 320.533C340.373 320.533 334.612 326.295 334.612 333.402C334.612 340.509 340.373 346.27 347.48 346.27Z" fill="#263238" stroke="#263238" stroke-linecap="round" stroke-linejoin="round"/>
<path d="M345.29 351.043L327.389 360.249L335.233 391.107H360.808L368.304 360.249L349.552 351.214L345.29 351.043Z" fill="#ADBEC9" stroke="#263238" stroke-linecap="round" stroke-linejoin="round"/>
<path d="M327.389 360.249L320.559 388.991C320.357 389.816 320.412 390.683 320.716 391.477C321.02 392.27 321.559 392.952 322.261 393.431L331.311 399.647H336.78L330.305 388.221L333.546 382.086L327.389 360.249Z" fill="#ADBEC9" stroke="#263238" stroke-linecap="round" stroke-linejoin="round"/>
<path d="M368.304 360.249L375.142 388.991C375.341 389.816 375.286 390.683 374.982 391.476C374.678 392.269 374.14 392.95 373.44 393.431L364.389 399.647H358.928L365.411 388.221L362.169 382.086L368.304 360.249Z" fill="#ADBEC9" stroke="#263238" stroke-linecap="round" stroke-linejoin="round"/>
<path d="M347.68 361.958C346.459 361.958 345.289 361.473 344.426 360.61C343.562 359.747 343.077 358.576 343.077 357.356V346.1H352.32V357.356C352.319 357.963 352.198 358.564 351.964 359.124C351.73 359.685 351.388 360.194 350.957 360.621C350.525 361.049 350.014 361.387 349.452 361.617C348.89 361.846 348.287 361.962 347.68 361.958Z" fill="white" stroke="#263238" stroke-linecap="round" stroke-linejoin="round"/>
<path d="M343.077 353.293C344.038 354.267 345.262 354.938 346.6 355.224C347.059 355.276 347.521 355.301 347.984 355.298C348.49 355.301 348.997 355.276 349.501 355.224V355.18C350.573 354.897 351.54 354.308 352.283 353.485V346.085H343.077V353.293Z" fill="#263238" stroke="#263238" stroke-linecap="round" stroke-linejoin="round"/>
<path d="M355.924 339.115L355.147 331.781C353.815 333.365 350.041 333.816 347.983 333.942C345.719 333.816 341.582 333.365 340.125 331.781L339.266 339.115C339.266 339.115 336.203 337.235 336.713 340.987C337.224 344.739 339.436 344.739 339.436 344.739C339.486 346.817 340.273 348.811 341.656 350.363C342.877 351.843 344.912 353.589 346.6 353.767C347.059 353.818 347.521 353.84 347.983 353.833C348.49 353.84 348.997 353.818 349.5 353.767V353.7C350.98 353.493 352.69 351.739 353.748 350.333C355.02 348.731 355.73 346.755 355.768 344.709C355.768 344.709 357.788 344.709 358.255 340.957C358.721 337.205 355.924 339.115 355.924 339.115Z" fill="white" stroke="#263238" stroke-linecap="round" stroke-linejoin="round"/>
<path d="M368.815 404.575H326.879V405.937H368.815V404.575Z" fill="#008BBA" stroke="#263238" stroke-linecap="round" stroke-linejoin="round"/>
<path d="M368.822 404.575H326.879L322.69 381.561H373.01L368.822 404.575Z" fill="#008BBA" stroke="#263238" stroke-linecap="round" stroke-linejoin="round"/>
<path d="M368.822 404.575L373.01 381.561L326.879 404.575H368.822Z" fill="#263238" stroke="#263238" stroke-linecap="round" stroke-linejoin="round"/>
<path d="M307.446 336.724H209.855C206.075 336.724 203.01 339.789 203.01 343.569V387.607C203.01 391.387 206.075 394.452 209.855 394.452H307.446C311.227 394.452 314.291 391.387 314.291 387.607V343.569C314.291 339.789 311.227 336.724 307.446 336.724Z" fill="#008BBA"/>
<path d="M251.495 332.98C251.495 332.98 251.288 334.867 248.979 337.383C246.67 339.899 245.412 339.27 245.827 340.528C246.241 341.786 247.928 342.63 247.928 342.63C247.928 342.63 247.299 350.185 248.557 351.65C249.815 353.115 254.847 352.486 254.847 352.486C254.847 352.486 255.691 356.053 254.64 358.362C253.589 360.671 253.804 361.722 253.804 361.722C253.804 361.722 262.61 359.62 264.29 357.948C265.969 356.275 263.246 347.454 265.133 339.899C267.02 332.344 254.011 330.212 251.495 332.98Z" fill="white" stroke="#263238" stroke-linecap="round" stroke-linejoin="round"/>
<path d="M286.527 387.067V357.911L289.679 350.562C289.679 350.562 291.566 345.109 291.566 343.851C291.566 342.593 290.722 342.8 289.886 344.48C289.05 346.159 289.05 347.21 288.206 348.046C287.267 348.875 286.278 349.646 285.246 350.355C285.246 350.355 285.461 346.788 285.461 346.159C285.461 345.53 284.41 345.316 283.781 346.581C283.152 347.847 284.203 347.21 282.73 349.933C281.258 352.657 282.101 357.489 282.101 357.489C282.101 357.489 277.698 375.952 276.648 379.097C275.597 382.242 276.019 386.23 280.843 388.325C285.668 390.419 286.527 387.067 286.527 387.067Z" fill="white" stroke="#263238" stroke-linecap="round" stroke-linejoin="round"/>
<path d="M280.029 364.8C280.029 364.8 286.527 384.04 286.527 387C286.527 392.454 283.567 394.134 281.073 392.876C278.579 391.618 275.412 384.78 275.412 384.78C275.412 384.78 278.32 366.088 280.029 364.8Z" fill="#D9D9D9" stroke="#263238" stroke-linecap="round" stroke-linejoin="round"/>
<path d="M226.32 380.984C226.32 380.984 228 381.613 231.145 380.777C234.29 379.94 245.02 377.624 245.02 377.624C245.02 377.624 243.969 381.613 244.813 383.5C245.656 385.387 249.423 390.426 249.423 390.426L246.774 405.966H277.854L275.049 393.179C275.049 393.179 280.296 365.695 280.089 364.859C279.881 364.023 273.791 357.518 271.482 356.675C269.174 355.831 260.782 356.26 260.782 356.26L243.163 361.921C243.163 361.921 228.414 370.283 225.691 372.2C222.968 374.117 221.91 378.86 226.32 380.984Z" fill="#D9D9D9" stroke="#263238" stroke-linecap="round" stroke-linejoin="round"/>
<path d="M244.99 377.624L250.444 377.21" stroke="#263238" stroke-linecap="round" stroke-linejoin="round"/>
<path d="M248.557 361.685C248.557 361.685 255.062 362.521 255.691 371.963" stroke="#263238" stroke-linecap="round" stroke-linejoin="round"/>
<path d="M258.836 323.708C258.836 323.708 254.218 318.676 250.444 321.399C246.67 324.122 248.964 331.019 251.073 334.408C253.182 337.797 257.578 339.233 258.207 340.284C258.836 341.335 256.727 349.512 256.727 353.715C256.727 357.918 263.439 360.841 267.827 360.841C272.215 360.841 277.269 356.438 277.898 355.18C278.217 354.57 278.496 353.939 278.734 353.293C278.734 353.293 274.539 354.344 274.124 350.148C273.71 345.952 277.691 343.222 277.691 335.881C277.691 328.54 268.907 318.254 258.836 323.708Z" fill="#263238" stroke="#263238" stroke-linecap="round" stroke-linejoin="round"/>
<path d="M263.682 338.908L257.133 335.591L250.878 347.943L257.427 351.26L263.682 338.908Z" fill="#008BBA" stroke="#263238" stroke-linecap="round" stroke-linejoin="round"/>
<path d="M225.691 372.2C228.415 370.313 243.104 361.921 243.104 361.921L247.403 360.545C250.918 356.845 253.589 353.952 253.589 353.952C253.589 353.952 259.043 349.756 259.465 349.127C260.244 348.163 261.084 347.251 261.981 346.396C262.825 345.56 263.461 345.138 261.566 345.345C259.672 345.553 258.606 346.825 257.126 346.825C255.646 346.825 254.61 344.724 254.61 344.724C254.61 344.724 254.189 339.692 253.56 339.485C252.931 339.277 251.673 339.899 251.673 340.743C251.676 341.243 251.606 341.742 251.465 342.223C250.218 342.975 249.026 343.815 247.899 344.739C247.055 345.582 247.27 346.418 247.27 347.469V352.501C247.27 352.501 227.201 367.257 225.07 369.521C220.252 374.494 222.309 377.136 223.73 378.571C222.702 376.24 223.782 373.495 225.691 372.2Z" fill="white" stroke="#263238" stroke-linecap="round" stroke-linejoin="round"/>
<path d="M189.313 336.724H91.7216C87.9412 336.724 84.8766 339.789 84.8766 343.569V387.607C84.8766 391.387 87.9412 394.452 91.7216 394.452H189.313C193.093 394.452 196.158 391.387 196.158 387.607V343.569C196.158 339.789 193.093 336.724 189.313 336.724Z" fill="#008BBA"/>
<path d="M149.405 385.564H80.3995V405.937H149.405V385.564Z" fill="#444444" stroke="#444444" stroke-linecap="round" stroke-linejoin="round"/>
<path d="M120.212 377.025H111.576V386.149H120.212V377.025Z" fill="#444444" stroke="#444444" stroke-linecap="round" stroke-linejoin="round"/>
<path d="M137.72 346.441H91.84V378.261H137.72V346.441Z" fill="#444444" stroke="#444444" stroke-linecap="round" stroke-linejoin="round"/>
<path d="M134.523 348.661H95.0442V376.041H134.523V348.661Z" fill="white" stroke="#444444" stroke-linecap="round" stroke-linejoin="round"/>
<path d="M131.911 384.04H91.9287V385.764H131.911V384.04Z" fill="white" stroke="#444444" stroke-linecap="round" stroke-linejoin="round"/>
<path d="M151.04 385.416H78.7642V387.881H151.04V385.416Z" fill="#444444" stroke="#444444" stroke-linecap="round" stroke-linejoin="round"/>
<path d="M152.431 323.264C152.431 323.264 147.503 323.523 146.718 326.897C145.934 330.272 149.316 331.337 149.316 331.337C149.316 331.337 149.057 336.791 149.316 337.568C149.541 338.42 149.714 339.285 149.834 340.158C149.834 340.158 149.057 344.309 149.316 345.094C149.575 345.878 151.913 345.871 151.913 345.871C151.913 345.871 154.503 352.094 156.842 352.361C159.18 352.627 161.511 351.058 161.511 351.058L162.806 355.18C162.806 355.18 175.786 351.029 175.009 351.288C174.232 351.547 172.929 345.323 172.929 345.323C172.929 345.323 177.081 332.61 175.009 326.638C172.937 320.666 162.029 315.479 152.431 323.264Z" fill="white" stroke="#444444" stroke-linecap="round" stroke-linejoin="round"/>
<path d="M160.734 342.208C160.45 342.263 160.184 342.386 159.959 342.566C159.733 342.747 159.555 342.979 159.439 343.244C159.439 343.244 166.698 346.618 169.296 346.359C170.548 346.194 171.775 345.879 172.951 345.419V345.323C172.951 345.323 177.103 332.61 175.031 326.638C172.959 320.666 162.051 315.479 152.453 323.264C152.453 323.264 147.525 323.523 146.741 326.897C145.956 330.272 149.338 331.337 149.338 331.337C149.338 331.337 151.151 332.373 151.935 332.114C152.678 331.752 153.372 331.297 154 330.76C154 330.76 151.669 335.2 152.446 335.688C153.223 336.177 155.302 338.027 155.302 338.027C155.302 338.027 156.338 340.358 157.115 339.322C157.892 338.286 157.522 338.123 158.151 336.991C158.375 336.66 158.691 336.403 159.06 336.252C159.429 336.101 159.835 336.063 160.226 336.142C160.617 336.221 160.976 336.414 161.257 336.697C161.538 336.98 161.73 337.339 161.807 337.731C162.31 339.862 161.77 341.949 160.734 342.208Z" fill="#444444" stroke="#444444" stroke-linecap="round" stroke-linejoin="round"/>
<path d="M170.776 350.244L159.676 355.424L157.456 359.124L177.184 354.188L179.656 354.928C179.656 354.928 178.176 348.52 170.776 350.244Z" fill="#C8D7E0" stroke="#444444" stroke-linecap="round" stroke-linejoin="round"/>
<path d="M151.04 383.3L150.1 405.944H188.41C189.224 400.712 193.657 370.898 190.504 365.052C189.875 363.882 179.656 354.936 179.656 354.936C179.656 354.936 176.2 352.96 172.996 353.952C169.792 354.943 160.416 357.896 160.416 357.896L145.86 366.524L135.996 385.024L119.22 382.56L116.756 386.26L138.46 397.848L151.04 383.3Z" fill="#C8D7E0" stroke="#444444" stroke-linecap="round" stroke-linejoin="round"/>
<path d="M116.756 381.82L112.064 378.372C112.064 378.372 104.664 379.112 103.68 379.852C103.098 380.283 102.666 380.886 102.444 381.576L105.9 382.072L102.94 382.812V384.04L108.86 383.796L112.56 386.016L116.756 386.26L119.22 382.56L116.756 381.82Z" fill="white" stroke="#444444" stroke-linecap="round" stroke-linejoin="round"/>
<path d="M192.88 405.937L196.58 386.956C196.678 386.451 196.663 385.931 196.537 385.433C196.411 384.935 196.176 384.471 195.849 384.074C195.522 383.677 195.112 383.358 194.647 383.138C194.182 382.919 193.675 382.805 193.161 382.804H167.157C166.364 382.803 165.595 383.073 164.977 383.57C164.359 384.067 163.93 384.76 163.761 385.535L159.269 405.937H192.88Z" fill="#444444" stroke="#444444" stroke-linecap="round" stroke-linejoin="round"/>
<path d="M238.575 68.6816V101.723" stroke="#263238" stroke-miterlimit="10" stroke-dasharray="3 3"/>
<path d="M238.73 103.602L245.19 92.406H232.262L238.73 103.602Z" fill="#263238"/>
<path d="M234.283 282.001C283.648 282.001 323.667 241.983 323.667 192.617C323.667 143.251 283.648 103.232 234.283 103.232C184.917 103.232 144.898 143.251 144.898 192.617C144.898 241.983 184.917 282.001 234.283 282.001Z" stroke="#263238" stroke-miterlimit="10" stroke-dasharray="3.01 3.01"/>
<path d="M238.575 288.587V312.771" stroke="#263238" stroke-miterlimit="10" stroke-dasharray="3 3"/>
<path d="M118.28 313.326V298.777H348.568V317.462" stroke="#263238" stroke-miterlimit="10" stroke-dasharray="3 3"/>
<path d="M118.295 319.453L124.755 308.257H111.828L118.295 319.453Z" fill="#263238"/>
<path d="M238.73 319.453L245.19 308.257H232.262L238.73 319.453Z" fill="#263238"/>
<path d="M348.539 319.453L355.006 308.257H342.078L348.539 319.453Z" fill="#263238"/>
<path d="M307.609 160.56C307.609 160.56 277.306 156.608 236.14 114.243V113.659L235.851 113.947L235.57 113.659V114.243C194.434 156.608 164.123 160.56 164.123 160.56C153.327 249.301 228.318 279.7 235.585 282.453V282.66L235.866 282.556L236.155 282.66V282.453C243.422 279.7 318.413 249.264 307.609 160.56Z" fill="#263238"/>
<path d="M302 163.453C302 163.453 274.08 159.82 236.14 120.77V120.23L235.874 120.504L235.615 120.23V120.77C197.667 159.842 169.755 163.453 169.755 163.453C159.794 245.283 228.955 273.336 235.615 275.859V276.052L235.874 275.956L236.14 276.052V275.859C242.837 273.336 311.983 245.283 302 163.453Z" fill="#008BBA"/>
<path opacity="0.5" d="M288.34 170.631C288.34 170.631 266.14 167.768 236.073 136.776V136.355C236.007 136.421 235.94 136.495 235.866 136.562L235.659 136.355V136.776C205.563 167.768 183.4 170.631 183.4 170.631C175.497 235.529 230.346 257.781 235.659 259.779V259.935L235.866 259.853L236.073 259.935V259.779C241.394 257.781 296.235 235.529 288.34 170.631Z" fill="white"/>
<path d="M182.734 137.095C191.112 137.095 197.904 130.303 197.904 121.925C197.904 113.546 191.112 106.755 182.734 106.755C174.356 106.755 167.564 113.546 167.564 121.925C167.564 130.303 174.356 137.095 182.734 137.095Z" fill="white" stroke="#263238" stroke-width="2" stroke-miterlimit="10"/>
<path d="M184.17 117.951H180.351V113.748C180.353 113.242 180.555 112.757 180.913 112.4C181.27 112.042 181.755 111.84 182.261 111.838C182.511 111.838 182.76 111.888 182.991 111.984C183.223 112.08 183.433 112.22 183.611 112.398C183.788 112.575 183.929 112.785 184.025 113.017C184.12 113.249 184.17 113.497 184.17 113.748V117.951Z" fill="#263238"/>
<path d="M181.691 114.887C181.629 114.887 181.568 114.871 181.513 114.843L178.272 113.119C178.211 113.089 178.16 113.043 178.125 112.985C178.089 112.927 178.071 112.861 178.072 112.793V110.314C178.072 110.216 178.111 110.122 178.181 110.052C178.25 109.983 178.344 109.944 178.442 109.944C178.54 109.944 178.635 109.983 178.704 110.052C178.773 110.122 178.812 110.216 178.812 110.314V112.571L181.861 114.184C181.959 114.207 182.044 114.267 182.098 114.353C182.151 114.438 182.169 114.541 182.146 114.639C182.123 114.737 182.063 114.823 181.977 114.876C181.892 114.929 181.789 114.947 181.691 114.924V114.887Z" fill="#263238"/>
<path d="M182.86 114.887C182.762 114.911 182.658 114.894 182.572 114.842C182.486 114.789 182.425 114.704 182.401 114.606C182.378 114.508 182.394 114.404 182.447 114.318C182.5 114.232 182.584 114.171 182.682 114.147L185.731 112.534V110.314C185.731 110.216 185.77 110.122 185.84 110.052C185.909 109.983 186.003 109.944 186.101 109.944C186.199 109.944 186.293 109.983 186.363 110.052C186.432 110.122 186.471 110.216 186.471 110.314V112.793C186.472 112.86 186.455 112.925 186.421 112.983C186.387 113.04 186.338 113.087 186.279 113.119L183.03 114.843C182.978 114.872 182.92 114.888 182.86 114.887Z" fill="#263238"/>
<path d="M182.453 131.315C186.883 131.315 190.475 127.724 190.475 123.294C190.475 118.863 186.883 115.272 182.453 115.272C178.023 115.272 174.431 118.863 174.431 123.294C174.431 127.724 178.023 131.315 182.453 131.315Z" fill="#008BBA" stroke="#263238" stroke-miterlimit="10"/>
<path d="M168.519 121.377C168.419 121.377 168.323 121.337 168.252 121.266C168.184 121.196 168.146 121.101 168.146 121.003C168.146 120.905 168.184 120.811 168.252 120.741L171.116 117.877C171.165 117.831 171.224 117.798 171.289 117.782C171.354 117.767 171.422 117.769 171.486 117.788L175.393 118.935C175.442 118.949 175.487 118.972 175.527 119.003C175.567 119.034 175.6 119.073 175.625 119.117C175.649 119.161 175.665 119.209 175.671 119.259C175.677 119.309 175.673 119.36 175.66 119.409C175.646 119.457 175.623 119.503 175.592 119.542C175.561 119.582 175.522 119.615 175.478 119.64C175.434 119.665 175.386 119.68 175.336 119.686C175.286 119.693 175.235 119.689 175.186 119.675L171.486 118.587L168.8 121.266C168.764 121.303 168.72 121.332 168.671 121.352C168.623 121.371 168.571 121.379 168.519 121.377Z" fill="#263238"/>
<path d="M169.089 126.15C169.019 126.149 168.95 126.129 168.891 126.091C168.832 126.053 168.785 125.999 168.756 125.936C168.727 125.872 168.716 125.801 168.725 125.732C168.734 125.662 168.763 125.597 168.807 125.543L170.909 123.057C170.943 123.015 170.986 122.982 171.035 122.959C171.083 122.935 171.136 122.924 171.19 122.924H174.431C174.53 122.924 174.624 122.963 174.693 123.032C174.762 123.101 174.801 123.195 174.801 123.294C174.801 123.392 174.762 123.486 174.693 123.555C174.624 123.625 174.53 123.664 174.431 123.664H171.36L169.37 126.017C169.336 126.058 169.293 126.092 169.244 126.115C169.196 126.138 169.142 126.15 169.089 126.15Z" fill="#263238"/>
<path d="M171.383 131.493H171.331C171.235 131.478 171.148 131.427 171.088 131.35C171.029 131.272 171.002 131.175 171.013 131.078L171.397 128.022C171.403 127.971 171.419 127.922 171.445 127.877C171.47 127.833 171.504 127.794 171.545 127.763L174.55 125.654C174.631 125.599 174.73 125.577 174.827 125.594C174.924 125.61 175.01 125.664 175.068 125.743C175.096 125.783 175.116 125.828 175.127 125.875C175.138 125.923 175.14 125.972 175.131 126.021C175.123 126.069 175.105 126.115 175.079 126.156C175.053 126.197 175.019 126.233 174.979 126.261L172.108 128.281L171.745 131.167C171.734 131.256 171.692 131.338 171.625 131.398C171.558 131.458 171.472 131.492 171.383 131.493Z" fill="#263238"/>
<path d="M196.395 121.377C196.295 121.377 196.199 121.337 196.128 121.266L193.42 118.558L189.72 119.682C189.671 119.696 189.62 119.701 189.57 119.695C189.52 119.69 189.471 119.674 189.427 119.65C189.382 119.626 189.343 119.593 189.312 119.553C189.28 119.514 189.257 119.468 189.243 119.42C189.228 119.371 189.224 119.32 189.23 119.27C189.235 119.22 189.251 119.171 189.275 119.127C189.299 119.082 189.332 119.043 189.372 119.012C189.411 118.98 189.457 118.956 189.505 118.942L193.427 117.758C193.491 117.737 193.559 117.735 193.625 117.75C193.69 117.766 193.75 117.8 193.797 117.847L196.661 120.711C196.729 120.781 196.767 120.876 196.767 120.974C196.767 121.072 196.729 121.166 196.661 121.236C196.629 121.277 196.589 121.311 196.543 121.335C196.497 121.359 196.446 121.374 196.395 121.377Z" fill="#263238"/>
<path d="M195.817 126.15C195.764 126.15 195.71 126.138 195.662 126.115C195.613 126.092 195.57 126.058 195.536 126.017L193.546 123.664H190.475C190.376 123.664 190.282 123.625 190.213 123.555C190.144 123.486 190.105 123.392 190.105 123.294C190.105 123.195 190.144 123.101 190.213 123.032C190.282 122.963 190.376 122.924 190.475 122.924H193.716C193.771 122.924 193.825 122.937 193.874 122.96C193.924 122.983 193.968 123.016 194.004 123.057L196.099 125.543C196.13 125.58 196.154 125.622 196.169 125.669C196.184 125.715 196.19 125.763 196.186 125.812C196.182 125.86 196.168 125.907 196.145 125.95C196.123 125.993 196.092 126.031 196.054 126.061C195.989 126.119 195.905 126.151 195.817 126.15Z" fill="#263238"/>
<path d="M193.523 131.493C193.434 131.492 193.348 131.458 193.281 131.398C193.214 131.338 193.172 131.256 193.161 131.167L192.798 128.274L189.949 126.224C189.905 126.198 189.867 126.163 189.837 126.121C189.807 126.079 189.786 126.032 189.776 125.982C189.765 125.932 189.765 125.88 189.776 125.83C189.786 125.779 189.807 125.732 189.837 125.69C189.867 125.649 189.905 125.613 189.949 125.587C189.993 125.561 190.042 125.545 190.093 125.538C190.144 125.532 190.196 125.537 190.245 125.551C190.294 125.566 190.34 125.591 190.378 125.625L193.338 127.771C193.38 127.8 193.415 127.837 193.442 127.881C193.469 127.924 193.486 127.972 193.494 128.022L193.871 131.078C193.884 131.176 193.857 131.274 193.798 131.351C193.738 131.429 193.65 131.48 193.553 131.493H193.523Z" fill="#263238"/>
<path d="M182.823 131.315H182.083V120.363L184.525 118.602L184.962 119.201L182.823 120.748V131.315Z" fill="#263238"/>
<path d="M182.808 126.298L182.483 125.639L186.471 123.641V120.052H187.211V124.1L182.808 126.298Z" fill="#263238"/>
<path d="M182.261 123.612L179.027 121.592V118.336H179.767V121.185L182.653 122.983L182.261 123.612Z" fill="#263238"/>
<path d="M182.253 129.147L177.88 126.365V123.486H178.62V125.958L182.653 128.518L182.253 129.147Z" fill="#263238"/>
<path d="M179.345 119.12C179.762 119.12 180.1 118.782 180.1 118.365C180.1 117.948 179.762 117.61 179.345 117.61C178.928 117.61 178.59 117.948 178.59 118.365C178.59 118.782 178.928 119.12 179.345 119.12Z" fill="#263238"/>
<path d="M184.888 119.608C185.304 119.608 185.642 119.27 185.642 118.854C185.642 118.437 185.304 118.099 184.888 118.099C184.471 118.099 184.133 118.437 184.133 118.854C184.133 119.27 184.471 119.608 184.888 119.608Z" fill="#263238"/>
<path d="M187.529 119.978C187.529 120.125 187.486 120.268 187.405 120.39C187.323 120.511 187.208 120.606 187.073 120.662C186.937 120.718 186.789 120.733 186.645 120.704C186.502 120.676 186.37 120.605 186.266 120.502C186.163 120.398 186.092 120.266 186.064 120.123C186.035 119.979 186.05 119.83 186.106 119.695C186.162 119.56 186.257 119.444 186.378 119.363C186.5 119.282 186.643 119.238 186.789 119.238C186.986 119.238 187.174 119.316 187.313 119.455C187.451 119.594 187.529 119.782 187.529 119.978Z" fill="#263238"/>
<path d="M179.012 123.382C179.012 123.529 178.969 123.672 178.887 123.794C178.806 123.915 178.691 124.01 178.555 124.066C178.42 124.122 178.271 124.137 178.128 124.108C177.984 124.08 177.852 124.009 177.749 123.906C177.645 123.802 177.575 123.67 177.546 123.527C177.518 123.383 177.532 123.234 177.588 123.099C177.644 122.964 177.739 122.848 177.861 122.767C177.983 122.686 178.126 122.642 178.272 122.642C178.468 122.642 178.657 122.72 178.795 122.859C178.934 122.998 179.012 123.186 179.012 123.382Z" fill="#263238"/>
<path d="M199.992 112.747C201.125 109.825 199.674 106.537 196.751 105.404C193.828 104.271 190.54 105.721 189.407 108.644C188.274 111.567 189.725 114.855 192.648 115.988C195.571 117.121 198.858 115.67 199.992 112.747Z" fill="white" stroke="#263238" stroke-width="2" stroke-miterlimit="10"/>
<path d="M190.504 114.155L198.896 107.243" stroke="#263238" stroke-width="2" stroke-miterlimit="10"/>
<path d="M288.695 137.095C297.073 137.095 303.865 130.303 303.865 121.925C303.865 113.546 297.073 106.755 288.695 106.755C280.317 106.755 273.525 113.546 273.525 121.925C273.525 130.303 280.317 137.095 288.695 137.095Z" fill="#008BBA"/>
<path d="M297.146 134.556L297.035 134.623" stroke="white" stroke-miterlimit="10"/>
<path d="M280.481 134.66C282.942 136.272 285.82 137.131 288.762 137.132" stroke="white" stroke-miterlimit="10"/>
<path d="M302.429 115.42C301.552 113.592 300.32 111.956 298.803 110.61" stroke="white" stroke-miterlimit="10"/>
<path d="M297.035 134.66C294.577 136.272 291.701 137.131 288.761 137.132" stroke="white" stroke-miterlimit="10"/>
<path d="M297.146 134.556C298.99 133.326 300.543 131.707 301.697 129.813" stroke="white" stroke-miterlimit="10"/>
<path d="M301.697 129.813C302.611 128.334 303.259 126.706 303.613 125.003" stroke="white" stroke-miterlimit="10"/>
<path d="M280.481 134.66C278.589 133.423 276.997 131.779 275.819 129.85" stroke="white" stroke-miterlimit="10"/>
<path d="M278.712 110.573C281.481 108.111 285.057 106.753 288.761 106.755" stroke="white" stroke-miterlimit="10"/>
<path d="M298.803 110.573C296.037 108.113 292.463 106.754 288.761 106.755" stroke="white" stroke-miterlimit="10"/>
<path d="M303.613 125.04C303.825 124.028 303.931 122.996 303.931 121.962C303.928 121.383 303.891 120.805 303.82 120.23" stroke="white" stroke-miterlimit="10"/>
<path d="M302.429 115.42C303.161 116.933 303.631 118.56 303.82 120.23" stroke="white" stroke-miterlimit="10"/>
<path d="M273.88 125.04C273.671 124.027 273.567 122.996 273.569 121.962C273.57 121.383 273.605 120.805 273.673 120.23" stroke="white" stroke-miterlimit="10"/>
<path d="M278.712 110.573C277.196 111.919 275.963 113.555 275.086 115.383" stroke="white" stroke-miterlimit="10"/>
<path d="M275.086 115.42C274.358 116.935 273.888 118.56 273.695 120.23" stroke="white" stroke-miterlimit="10"/>
<path d="M273.88 125.04C274.237 126.742 274.886 128.369 275.797 129.85" stroke="white" stroke-miterlimit="10"/>
<path d="M288.761 110.573H298.803" stroke="white" stroke-miterlimit="10"/>
<path d="M278.712 110.573H288.761" stroke="white" stroke-miterlimit="10"/>
<path d="M302.429 115.383H275.086" stroke="white" stroke-miterlimit="10"/>
<path d="M303.82 120.193H273.695" stroke="white" stroke-miterlimit="10"/>
<path d="M297.146 125.003H303.613" stroke="white" stroke-miterlimit="10"/>
<path d="M280.681 125.003H273.902" stroke="white" stroke-miterlimit="10"/>
<path d="M297.146 125.003H280.681" stroke="white" stroke-miterlimit="10"/>
<path d="M301.697 129.813H275.819" stroke="white" stroke-miterlimit="10"/>
<path d="M297.035 134.623H297.146" stroke="white" stroke-miterlimit="10"/>
<path d="M288.761 134.623H297.035" stroke="white" stroke-miterlimit="10"/>
<path d="M280.681 134.623H280.481" stroke="white" stroke-miterlimit="10"/>
<path d="M288.761 134.623H280.681" stroke="white" stroke-miterlimit="10"/>
<path d="M288.761 110.573V106.755" stroke="white" stroke-miterlimit="10"/>
<path d="M297.146 110.943V115.383" stroke="white" stroke-miterlimit="10"/>
<path d="M280.681 110.943V115.383" stroke="white" stroke-miterlimit="10"/>
<path d="M288.761 115.568V120.141" stroke="white" stroke-miterlimit="10"/>
<path d="M297.146 125.003V120.585" stroke="white" stroke-miterlimit="10"/>
<path d="M280.681 120.585V125.003" stroke="white" stroke-miterlimit="10"/>
<path d="M288.761 125.188V129.761" stroke="white" stroke-miterlimit="10"/>
<path d="M288.761 134.623V137.095" stroke="white" stroke-miterlimit="10"/>
<path d="M297.146 134.556V130.205" stroke="white" stroke-miterlimit="10"/>
<path d="M297.146 134.556V134.623" stroke="white" stroke-miterlimit="10"/>
<path d="M280.681 130.205V134.623" stroke="white" stroke-miterlimit="10"/>
<path d="M288.695 137.095C297.073 137.095 303.865 130.303 303.865 121.925C303.865 113.546 297.073 106.755 288.695 106.755C280.317 106.755 273.525 113.546 273.525 121.925C273.525 130.303 280.317 137.095 288.695 137.095Z" stroke="#263238" stroke-width="2" stroke-miterlimit="10"/>
<path d="M309.518 120.6C307.128 122.938 302.999 123.937 299.78 122.361C297.242 121.118 295.199 119.024 295.643 115.945C296.087 112.867 298.84 111.158 299.995 108.375C301.23 105.415 301.312 100.768 301.312 100.768C301.312 100.768 303.45 103.195 303.695 104.675C303.847 105.573 303.931 106.481 303.946 107.391L305.552 103.106C305.907 104.586 306.188 106.14 306.647 107.598C307.461 110.151 309.763 111.439 310.917 113.674C312.071 115.908 311.294 118.824 309.518 120.6Z" fill="#263238"/>
<path d="M303.48 122.036C303.48 122.036 301.06 120.245 301.526 117.751C301.993 115.257 303.554 114.791 303.554 114.791C304.076 115.26 304.487 115.84 304.757 116.487C305.027 117.135 305.149 117.835 305.115 118.535C305.055 119.872 304.467 121.131 303.48 122.036Z" fill="#008BBA" stroke="#263238" stroke-linecap="round" stroke-linejoin="round"/>
<path d="M147.214 221.085C155.592 221.085 162.384 214.293 162.384 205.915C162.384 197.536 155.592 190.745 147.214 190.745C138.836 190.745 132.044 197.536 132.044 205.915C132.044 214.293 138.836 221.085 147.214 221.085Z" fill="#008BBA"/>
<path d="M147.214 221.085C153.684 221.085 158.928 214.293 158.928 205.915C158.928 197.536 153.684 190.745 147.214 190.745C140.745 190.745 135.5 197.536 135.5 205.915C135.5 214.293 140.745 221.085 147.214 221.085Z" stroke="white" stroke-miterlimit="10"/>
<path d="M147.214 221.085C150.279 221.085 152.764 214.293 152.764 205.915C152.764 197.536 150.279 190.745 147.214 190.745C144.149 190.745 141.664 197.536 141.664 205.915C141.664 214.293 144.149 221.085 147.214 221.085Z" stroke="white" stroke-miterlimit="10"/>
<path d="M139.311 192.965H154.873" stroke="white" stroke-miterlimit="10"/>
<path d="M132.829 200.69H161.363" stroke="white" stroke-miterlimit="10"/>
<path d="M132.044 208.416H162.14" stroke="white" stroke-miterlimit="10"/>
<path d="M135.16 216.149H159.025" stroke="white" stroke-miterlimit="10"/>
<path d="M147.214 221.085C155.592 221.085 162.384 214.293 162.384 205.915C162.384 197.536 155.592 190.745 147.214 190.745C138.836 190.745 132.044 197.536 132.044 205.915C132.044 214.293 138.836 221.085 147.214 221.085Z" stroke="#263238" stroke-width="2" stroke-miterlimit="10"/>
<path d="M157.426 203.628C156.004 203.63 154.641 204.196 153.635 205.202C152.629 206.207 152.063 207.571 152.061 208.993V221.24H162.791V209.03C162.795 208.323 162.659 207.621 162.392 206.967C162.124 206.312 161.729 205.717 161.231 205.215C160.732 204.713 160.14 204.314 159.487 204.042C158.834 203.77 158.134 203.629 157.426 203.628ZM153.541 210.473V208.993C153.541 207.963 153.951 206.974 154.679 206.246C155.408 205.517 156.396 205.108 157.426 205.108C158.457 205.108 159.445 205.517 160.173 206.246C160.902 206.974 161.311 207.963 161.311 208.993V210.473H153.541Z" fill="#263238"/>
<path d="M158.869 214.58C158.867 214.315 158.793 214.055 158.655 213.829C158.518 213.602 158.322 213.416 158.088 213.291C157.855 213.165 157.592 213.105 157.327 213.116C157.062 213.128 156.805 213.21 156.583 213.354C156.36 213.499 156.181 213.7 156.063 213.938C155.945 214.176 155.894 214.44 155.913 214.705C155.933 214.969 156.023 215.224 156.175 215.441C156.327 215.659 156.534 215.832 156.775 215.942L156.383 219.19H158.373L157.981 215.942C158.246 215.826 158.471 215.636 158.629 215.394C158.787 215.152 158.87 214.869 158.869 214.58Z" fill="white"/>
<path d="M324.452 221.085C332.83 221.085 339.622 214.293 339.622 205.915C339.622 197.536 332.83 190.745 324.452 190.745C316.073 190.745 309.282 197.536 309.282 205.915C309.282 214.293 316.073 221.085 324.452 221.085Z" fill="white" stroke="#263238" stroke-width="2" stroke-miterlimit="10"/>
<path d="M330.986 202.34H312.893V195.022H328.551L330.986 202.34Z" fill="#008BBA" stroke="#263238" stroke-miterlimit="10"/>
<path d="M336.07 199.292H312.893V215.15H336.07V199.292Z" fill="#008BBA" stroke="#263238" stroke-miterlimit="10"/>
<path d="M333.495 203.998C332.072 204 330.709 204.566 329.703 205.572C328.697 206.577 328.131 207.941 328.13 209.363V221.573H338.86V209.4C338.863 208.693 338.728 207.991 338.46 207.337C338.192 206.682 337.798 206.087 337.299 205.585C336.801 205.083 336.208 204.684 335.555 204.412C334.902 204.14 334.202 203.999 333.495 203.998ZM329.61 210.88V209.4C329.61 208.37 330.019 207.381 330.747 206.653C331.476 205.924 332.464 205.515 333.495 205.515C334.525 205.515 335.513 205.924 336.242 206.653C336.97 207.381 337.38 208.37 337.38 209.4V210.88H329.61Z" fill="#263238"/>
<path d="M334.938 214.928C334.935 214.662 334.862 214.402 334.725 214.175C334.587 213.947 334.391 213.761 334.157 213.635C333.923 213.51 333.66 213.45 333.394 213.461C333.129 213.472 332.871 213.555 332.649 213.7C332.426 213.845 332.247 214.048 332.13 214.286C332.012 214.524 331.961 214.79 331.982 215.055C332.003 215.319 332.094 215.574 332.247 215.791C332.4 216.008 332.608 216.18 332.851 216.289L332.458 219.538H334.442L334.049 216.289C334.314 216.174 334.539 215.983 334.697 215.741C334.855 215.499 334.939 215.217 334.938 214.928Z" fill="white"/>
<path d="M65.2371 405.937H393.73" stroke="#263238" stroke-linecap="round" stroke-linejoin="round"/>
<path d="M229.236 202.955C229.236 202.955 203.58 216.519 203.084 217.999C202.588 219.479 206.784 247.355 208.264 257.219C209.276 264.673 209.854 272.179 209.996 279.7V283.896H278.076C278.076 283.896 283.004 211.62 281.28 210.88C279.556 210.14 249.46 200.276 249.46 200.276L229.236 202.955Z" fill="white" stroke="#263238" stroke-linecap="round" stroke-linejoin="round"/>
<path d="M256.024 233.598C256.024 233.598 253.293 233.25 249.586 229.432V229.38V229.432C245.886 233.25 243.148 233.598 243.148 233.598C242.171 241.597 248.927 244.343 249.586 244.587C250.237 244.343 257.001 241.597 256.024 233.598Z" fill="#008BBA"/>
<path d="M249.571 245.342C249.524 245.349 249.477 245.349 249.43 245.342C249.342 245.33 249.257 245.302 249.179 245.26C246.879 244.369 244.95 242.721 243.71 240.588C242.47 238.455 241.993 235.964 242.356 233.524C242.376 233.36 242.45 233.208 242.567 233.091C242.684 232.975 242.836 232.9 243 232.88C243 232.88 245.523 232.481 248.92 229.003C248.978 228.907 249.057 228.825 249.15 228.762C249.243 228.699 249.349 228.658 249.46 228.64C249.59 228.617 249.723 228.633 249.845 228.684C250.003 228.749 250.136 228.863 250.222 229.01C253.604 232.444 256.09 232.843 256.142 232.843C256.303 232.866 256.452 232.942 256.566 233.058C256.679 233.175 256.752 233.325 256.771 233.487C257.134 235.923 256.659 238.411 255.423 240.542C254.188 242.673 252.265 244.321 249.971 245.216C249.851 245.293 249.713 245.337 249.571 245.342ZM243.777 234.197C243.572 236.21 244.025 238.235 245.067 239.969C246.108 241.703 247.683 243.053 249.556 243.817C251.429 243.052 253.004 241.702 254.047 239.968C255.09 238.235 255.544 236.21 255.343 234.197C254.351 233.909 252.205 233.021 249.556 230.453C246.907 233.021 244.768 233.909 243.777 234.197Z" fill="#263238"/>
<path d="M230.96 217.688C230.96 217.688 230.472 241.679 230.96 254.015C231.448 266.35 232.936 283.859 232.936 283.859" stroke="#263238" stroke-linecap="round" stroke-linejoin="round"/>
<path d="M233.18 227.367C233.724 227.367 234.164 226.927 234.164 226.383C234.164 225.839 233.724 225.399 233.18 225.399C232.636 225.399 232.196 225.839 232.196 226.383C232.196 226.927 232.636 227.367 233.18 227.367Z" stroke="#263238" stroke-linecap="round" stroke-linejoin="round"/>
<path d="M233.18 250.307C233.724 250.307 234.164 249.867 234.164 249.323C234.164 248.779 233.724 248.339 233.18 248.339C232.636 248.339 232.196 248.779 232.196 249.323C232.196 249.867 232.636 250.307 233.18 250.307Z" fill="white" stroke="#263238" stroke-linecap="round" stroke-linejoin="round"/>
<path d="M235.4 267.335C235.4 267.531 235.342 267.723 235.232 267.886C235.123 268.049 234.968 268.177 234.786 268.251C234.604 268.326 234.405 268.345 234.212 268.307C234.02 268.268 233.843 268.172 233.705 268.033C233.566 267.894 233.472 267.716 233.435 267.523C233.397 267.331 233.418 267.131 233.494 266.95C233.571 266.769 233.699 266.615 233.863 266.506C234.027 266.398 234.219 266.342 234.416 266.343C234.677 266.345 234.928 266.45 235.112 266.636C235.296 266.822 235.4 267.073 235.4 267.335Z" fill="white" stroke="#263238" stroke-linecap="round" stroke-linejoin="round"/>
<path d="M261.796 273.995L254.144 277.939C254.144 277.939 244.524 271.775 241.32 271.523C238.116 271.271 234.164 271.775 231.944 273.743C229.724 275.711 228.496 277.199 226.024 277.199C223.553 277.199 220.6 277.443 222.08 279.419C223.56 281.395 228.74 281.395 230.716 280.655C232.692 279.915 235.644 279.175 235.644 279.175C236.681 280.594 238.155 281.634 239.84 282.135C241.613 282.593 243.433 282.841 245.264 282.875C245.264 282.875 249.956 285.835 252.916 285.583C254.695 285.437 256.441 285.023 258.096 284.355L267.22 281.639C267.22 281.639 264.756 275.719 261.796 273.995Z" fill="#FDEFDA" stroke="#263238" stroke-linecap="round" stroke-linejoin="round"/>
<path d="M239.1 269.555C239.1 269.555 236.14 267.823 234.66 269.555C233.18 271.286 232.684 280.159 233.424 281.143C234.164 282.127 234.66 279.915 235.644 279.175C236.628 278.435 239.1 269.555 239.1 269.555Z" fill="#FDEFDA" stroke="#263238" stroke-linecap="round" stroke-linejoin="round"/>
<path d="M244.28 270.539C244.28 270.539 240.58 268.319 239.1 269.555C237.62 270.79 234.904 280.655 235.644 281.639C236.384 282.623 238.604 281.639 238.856 280.403C239.107 279.167 243.296 272.759 243.296 272.759L244.28 270.539Z" fill="#FDEFDA" stroke="#263238" stroke-linecap="round" stroke-linejoin="round"/>
<path d="M250.2 274.52C250.2 274.52 245.516 270.08 244.28 270.576C243.044 271.072 236.14 281.432 237.864 282.66C239.588 283.888 245.516 276.496 245.516 276.496L247.736 278.22" fill="#FDEFDA"/>
<path d="M250.2 274.52C250.2 274.52 245.516 270.08 244.28 270.576C243.044 271.072 236.14 281.432 237.864 282.66C239.588 283.888 245.516 276.496 245.516 276.496L247.736 278.22" stroke="#263238" stroke-linecap="round" stroke-linejoin="round"/>
<path d="M256.616 280.159C256.616 280.159 252.176 273.003 250.696 273.003C249.216 273.003 240.824 280.655 240.824 280.655C240.824 280.655 243.296 282.623 244.036 282.135C244.776 281.646 248.964 278.923 248.964 278.923C248.964 278.923 249.704 282.875 252.42 283.615" fill="#FDEFDA"/>
<path d="M256.616 280.159C256.616 280.159 252.176 273.003 250.696 273.003C249.216 273.003 240.824 280.655 240.824 280.655C240.824 280.655 243.296 282.623 244.036 282.135C244.776 281.646 248.964 278.923 248.964 278.923C248.964 278.923 249.704 282.875 252.42 283.615" stroke="#263238" stroke-linecap="round" stroke-linejoin="round"/>
<path d="M277.336 210.14C277.336 210.14 283.004 210.14 283.5 212.612C283.996 215.083 284.484 220.5 284.484 220.5C284.484 220.5 306.196 271.316 305.456 273.536C304.716 275.756 271.66 286.612 270.676 286.612C269.692 286.612 261.796 274.032 261.796 274.032L277.824 263.916L269.44 241.435" fill="white"/>
<path d="M277.336 210.14C277.336 210.14 283.004 210.14 283.5 212.612C283.996 215.083 284.484 220.5 284.484 220.5C284.484 220.5 306.196 271.316 305.456 273.536C304.716 275.756 271.66 286.612 270.676 286.612C269.692 286.612 261.796 274.032 261.796 274.032L277.824 263.916L269.44 241.435" stroke="#263238" stroke-linecap="round" stroke-linejoin="round"/>
<path d="M274.124 225.895C274.124 225.895 266.976 232.059 266.48 239.955" stroke="#263238" stroke-linecap="round" stroke-linejoin="round"/>
<path d="M268.204 225.68C268.204 225.68 264.26 231.815 264.26 239.215" stroke="#263238" stroke-linecap="round" stroke-linejoin="round"/>
<path d="M277.824 263.879C277.824 263.879 282.516 259.683 284.484 259.683C286.453 259.683 290.9 260.675 291.884 264.863" stroke="#263238" stroke-linecap="round" stroke-linejoin="round"/>
<path d="M281.036 259.195C281.036 259.195 287.696 255.243 289.916 256.975C291.401 258.258 292.58 259.859 293.364 261.659" stroke="#263238" stroke-linecap="round" stroke-linejoin="round"/>
<path d="M203.084 217.999L195.684 265.359C195.684 265.359 187.544 271.279 190.504 280.159C191.673 283.666 194.944 285.339 209.996 283.859C210.757 274.914 210.757 265.92 209.996 256.975C208.76 241.22 203.084 217.999 203.084 217.999Z" fill="white" stroke="#263238" stroke-linecap="round" stroke-linejoin="round"/>
<path d="M201.36 271.723C201.36 271.723 206.429 271.841 206.784 272.426C207.139 273.01 207.139 280.914 205.963 281.742C204.786 282.571 203.957 282.919 203.484 281.742C203.01 280.566 202.189 278.087 202.189 278.087C202.189 278.087 199.007 281.624 195.936 280.914C192.865 280.203 192.517 278.797 191.577 278.442C190.637 278.087 189.357 278.56 187.211 277.702C185.065 276.844 182.734 273.699 182.734 273.699C182.734 273.699 177.073 278.649 175.897 278.057C174.72 277.465 176.015 275.586 177.902 273.58C179.789 271.575 181.084 269.569 182.971 269.096C184.858 268.622 192.399 267.682 194.759 268.393C197.12 269.103 199.125 270.161 199.355 270.509C199.971 270.994 200.645 271.401 201.36 271.723Z" fill="#FDEFDA" stroke="#263238" stroke-linecap="round" stroke-linejoin="round"/>
<path d="M185.931 267.594C185.931 267.594 182.749 267.002 182.394 269.125C182.039 271.249 182.867 279.485 183.689 280.225C183.951 280.398 184.25 280.508 184.562 280.547C184.874 280.585 185.19 280.552 185.487 280.449C185.784 280.346 186.053 280.176 186.274 279.953C186.494 279.729 186.661 279.458 186.76 279.16C187.226 277.746 187.108 270.324 187.108 270.324C187.108 270.324 187.463 268.304 185.931 267.594Z" fill="#FDEFDA" stroke="#263238" stroke-linecap="round" stroke-linejoin="round"/>
<path d="M191.829 268.889C191.829 268.889 187.108 265.929 185.909 267.594C184.71 269.259 186.027 279.263 186.649 280.566C187.27 281.868 189.476 282.334 189.949 280.914C190.423 279.493 190.534 273.61 190.689 273.255" fill="#FDEFDA"/>
<path d="M191.829 268.889C191.829 268.889 187.108 265.929 185.909 267.594C184.71 269.259 186.027 279.263 186.649 280.566C187.27 281.868 189.476 282.334 189.949 280.914C190.423 279.493 190.534 273.61 190.689 273.255" stroke="#263238" stroke-linecap="round" stroke-linejoin="round"/>
<path d="M194.537 270.539C194.419 270.894 194.537 281.269 193.124 281.979C191.71 282.69 189.705 282.682 189.705 277.968C189.705 273.255 189.942 267.475 191.237 267.002C192.532 266.528 196.187 268.541 197.49 269.717" fill="#FDEFDA"/>
<path d="M194.537 270.539C194.419 270.894 194.537 281.269 193.124 281.979C191.71 282.69 189.705 282.682 189.705 277.968C189.705 273.255 189.942 267.475 191.237 267.002C192.532 266.528 196.187 268.541 197.49 269.717" stroke="#263238" stroke-linecap="round" stroke-linejoin="round"/>
<path d="M202.204 278.087L201.138 273.373" stroke="#263238" stroke-linecap="round" stroke-linejoin="round"/>
<path d="M222.768 202.873V216.319L229.591 211.442L222.768 202.873Z" fill="#BABABA" stroke="#263238" stroke-linecap="round" stroke-linejoin="round"/>
<path d="M230.953 217.681L222.768 202.873L230.76 197.212L230.953 217.681Z" fill="white" stroke="#263238" stroke-linecap="round" stroke-linejoin="round"/>
<path d="M228.414 193.904C228.414 193.904 229.976 207.35 230.368 211.25C230.76 215.15 230.953 217.688 230.953 217.688C230.953 217.688 243.037 203.628 245.375 200.527C247.714 197.427 248.298 196.435 248.298 196.435L248.89 182.013L228.414 193.904Z" fill="#FDEFDA" stroke="#263238" stroke-linecap="round" stroke-linejoin="round"/>
<path d="M228.74 196.724C229.912 197.616 231.285 198.207 232.739 198.447C234.193 198.687 235.683 198.568 237.08 198.1C242.26 196.198 243.74 192.92 244.872 191.788C245.612 191.048 247.166 190.027 248.609 188.828L248.89 182.013L228.414 193.904C228.414 193.904 228.548 195.029 228.74 196.724Z" fill="#263238" stroke="#263238" stroke-linecap="round" stroke-linejoin="round"/>
<path d="M236.414 205.212L230.953 217.681L240.506 211.442L236.414 205.212Z" fill="#BABABA" stroke="#263238" stroke-linecap="round" stroke-linejoin="round"/>
<path d="M236.414 205.212L240.891 217.296L254.152 200.143L250.252 192.151L236.414 205.212Z" fill="white" stroke="#263238" stroke-linecap="round" stroke-linejoin="round"/>
<path d="M222.605 142.711C218.762 145.543 216.015 149.616 214.828 154.24C213.03 161.781 216.833 169.973 217.115 172.496C217.396 175.02 216.315 178.298 217.507 181.413C218.698 184.529 223.967 189.464 224.811 191.773C225.654 194.082 230.375 198.241 235.511 196.361C240.647 194.482 242.26 191.181 243.429 190.042C244.598 188.902 247.869 186.993 249.453 184.862C251.036 182.73 252.035 181.206 252.035 181.206C252.035 181.206 256.194 170.987 256.549 161.877C256.904 152.768 251.502 142.437 241.298 139.596C231.093 136.754 222.605 142.711 222.605 142.711Z" fill="#FDEFDA" stroke="#263238" stroke-linecap="round" stroke-linejoin="round"/>
<path opacity="0.5" d="M214.317 167.22C214.317 167.22 214.458 173.229 216.641 174.805C218.824 176.381 223.53 176.285 225.432 175.493C227.334 174.701 228.437 170.691 229.236 169.536C230.035 168.382 232.632 168.996 232.632 168.996C232.632 168.996 234.49 174.25 235.962 174.849C237.435 175.449 242.09 176.477 245.346 174.775C248.602 173.073 249.238 166.48 249.238 166.48C249.238 166.48 251.132 166.117 250.607 165.141C250.082 164.164 235.637 164.179 233.927 164.741C232.218 165.303 231.996 166.073 231.064 166.058C230.131 166.043 228.844 165.067 227.911 165.052C226.979 165.037 214.021 165.266 214.021 165.266L214.317 167.22Z" fill="white"/>
<path d="M241.32 139.648C231.115 136.806 222.628 142.711 222.628 142.711C219.477 145.051 217.042 148.224 215.598 151.872C216.005 150.91 217.677 147.358 220.778 146.567C224.381 145.642 224.433 148.935 228.984 147.825C233.535 146.715 240.61 143.126 243.732 144.909C246.855 146.692 249.327 150.407 248.054 154.27C246.781 158.133 246.655 161.034 247.936 162.018C249.216 163.002 250.77 166.125 250.896 168.064C250.992 169.662 253.116 170.75 255.373 170.461C256.027 167.658 256.43 164.803 256.579 161.929C256.912 152.827 251.502 142.489 241.32 139.648Z" fill="#263238" stroke="#263238" stroke-linecap="round" stroke-linejoin="round"/>
<path d="M226.328 176.677C226.328 176.677 225.129 178.409 226.224 179.201C226.486 179.474 226.836 179.646 227.213 179.685C227.59 179.725 227.968 179.629 228.281 179.415" stroke="#263238" stroke-linecap="round" stroke-linejoin="round"/>
<path d="M227.571 178.438C228.407 179.171 229.433 179.653 230.531 179.83C232.211 180.044 233.964 178.35 233.964 178.35" stroke="#263238" stroke-linecap="round" stroke-linejoin="round"/>
<path d="M233.358 179.06C233.358 179.06 233.89 179.844 235.43 178.897C235.43 178.897 237.516 178.335 236.295 175.996" stroke="#263238" stroke-linecap="round" stroke-linejoin="round"/>
<path d="M226.439 183.271C226.439 183.271 232.166 185.491 237.176 182.242" stroke="#263238" stroke-linecap="round" stroke-linejoin="round"/>
<path d="M240.284 169.973C240.247 170.987 239.751 171.808 239.181 171.801C238.612 171.793 238.182 170.957 238.227 169.943C238.271 168.929 238.76 168.108 239.329 168.115C239.899 168.123 240.328 168.952 240.284 169.973Z" fill="#263238"/>
<path d="M225.647 170.076C225.647 171.098 225.114 171.912 224.544 171.904C223.974 171.897 223.545 171.068 223.59 170.054C223.634 169.04 224.122 168.219 224.692 168.226C225.262 168.234 225.691 169.063 225.647 170.076Z" fill="#263238"/>
<path d="M214.317 167.22C214.317 167.22 214.458 173.229 216.641 174.805C218.824 176.381 223.53 176.285 225.432 175.493C227.334 174.701 228.437 170.691 229.236 169.536C230.035 168.382 232.632 168.996 232.632 168.996C232.632 168.996 234.49 174.25 235.962 174.849C237.435 175.449 242.09 176.477 245.346 174.775C248.602 173.073 249.238 166.48 249.238 166.48C249.238 166.48 251.132 166.117 250.607 165.141C250.082 164.164 235.637 164.179 233.927 164.741C232.218 165.303 231.996 166.073 231.064 166.058C230.131 166.043 228.844 165.067 227.911 165.052C226.979 165.037 214.021 165.266 214.021 165.266L214.317 167.22Z" stroke="#263238" stroke-linecap="round" stroke-linejoin="round"/>
<path d="M250.607 165.155L256.682 168.138L256.268 169.1L249.238 166.495L250.607 165.155Z" fill="#263238" stroke="#263238" stroke-linecap="round" stroke-linejoin="round"/>
<path d="M233.92 164.756C232.211 165.311 231.989 166.088 231.056 166.073C230.124 166.058 228.836 165.081 227.904 165.067C226.971 165.052 214.014 165.281 214.014 165.281L214.192 166.436L227.771 166.228C227.771 166.228 229.754 166.066 229.495 167.605C229.125 169.751 229.228 169.544 229.228 169.544C230.02 168.389 232.625 169.003 232.625 169.003L232.81 169.499C232.684 168.522 232.581 166.998 233.099 166.487C233.883 165.747 237.435 165.962 240.632 165.807C243.511 165.815 246.386 166.045 249.231 166.495L250.533 165.089C249.379 164.179 235.592 164.208 233.92 164.756Z" fill="#263238" stroke="#263238" stroke-linecap="round" stroke-linejoin="round"/>
<path d="M250.94 171.749C250.94 171.749 255.498 165.599 257.696 166.983C259.894 168.367 258.14 174.746 256.712 177.639C255.284 180.533 251.88 181.258 251.221 178.927" fill="#FDEFDA"/>
<path d="M250.94 171.749C250.94 171.749 255.498 165.599 257.696 166.983C259.894 168.367 258.14 174.746 256.712 177.639C255.284 180.533 251.88 181.258 251.221 178.927" stroke="#263238" stroke-linecap="round" stroke-linejoin="round"/>
<path d="M222.716 283.615H165.492L158.299 243.899H215.524L222.716 283.615Z" fill="#263238" stroke="#263238" stroke-linecap="round" stroke-linejoin="round"/>
<path d="M220.496 283.615H163.272L156.079 243.899H213.304L220.496 283.615Z" fill="#008BBA" stroke="#263238" stroke-linecap="round" stroke-linejoin="round"/>
<path d="M165.492 283.615H220.496L215.198 254.362L165.492 283.615Z" fill="#263238" stroke="#263238" stroke-linecap="round" stroke-linejoin="round"/>
<path d="M253.241 283.615H163.272V286.02H253.241V283.615Z" fill="#008BBA" stroke="#263238" stroke-linecap="round" stroke-linejoin="round"/>
<path d="M253.241 283.615H221.266V286.02H253.241V283.615Z" fill="#263238" stroke="#263238" stroke-linecap="round" stroke-linejoin="round"/>
</g>
<defs>
<filter id="filter0_d_717_50" x="0" y="0" width="459" height="521" filterUnits="userSpaceOnUse" color-interpolation-filters="sRGB">
<feFlood flood-opacity="0" result="BackgroundImageFix"/>
<feColorMatrix in="SourceAlpha" type="matrix" values="0 0 0 0 0 0 0 0 0 0 0 0 0 0 0 0 0 0 127 0" result="hardAlpha"/>
<feOffset dx="-1" dy="6"/>
<feGaussianBlur stdDeviation="7"/>
<feComposite in2="hardAlpha" operator="out"/>
<feColorMatrix type="matrix" values="0 0 0 0 0 0 0 0 0 0 0 0 0 0 0 0 0 0 0.2 0"/>
<feBlend mode="normal" in2="BackgroundImageFix" result="effect1_dropShadow_717_50"/>
<feBlend mode="normal" in="SourceGraphic" in2="effect1_dropShadow_717_50" result="shape"/>
</filter>
<linearGradient id="paint0_linear_717_50" x1="114.148" y1="80.2851" x2="490.798" y2="556.437" gradientUnits="userSpaceOnUse">
<stop stop-color="#DADFE0"/>
<stop offset="1" stop-color="#D9D9D9" stop-opacity="0"/>
</linearGradient>
</defs>
</svg>
