<svg width="520" height="520" viewBox="0 0 520 520" fill="none" xmlns="http://www.w3.org/2000/svg">
<g clip-path="url(#clip0_679_202)">
<path d="M520 520H0V6.10352e-05H520V520Z" fill="#F0F4F7"/>
<path d="M381.857 461.101C381.857 463.551 310.909 465.535 223.39 465.535C135.871 465.535 64.9229 463.551 64.9229 461.101C64.9229 458.653 135.871 456.667 223.39 456.667C310.909 456.667 381.857 458.653 381.857 461.101Z" fill="#F8A293"/>
<path d="M190.065 293.495H138.06C129.301 293.495 122.2 286.395 122.2 277.635V225.63C122.2 216.87 129.301 209.77 138.06 209.77H190.065C198.825 209.77 205.926 216.87 205.926 225.63V277.635C205.926 286.395 198.825 293.495 190.065 293.495Z" fill="#DBE5E9"/>
<path d="M165.096 139.598H113.091C104.331 139.598 97.2297 132.497 97.2297 123.737V71.7319C97.2297 62.9731 104.331 55.8719 113.091 55.8719H165.096C173.855 55.8719 180.956 62.973 180.956 73.8774V125.883C180.956 132.497 173.855 139.598 165.096 139.598Z" fill="#DBE5E9"/>
<path d="M280.446 237.555H228.441C219.682 237.555 212.581 230.455 212.581 221.695V169.69C212.581 160.931 219.682 153.83 228.441 153.83H280.446C289.206 153.83 296.307 160.931 296.307 169.69V221.695C296.307 230.455 289.206 237.555 280.446 237.555Z" fill="#DBE5E9"/>
<path d="M373.481 199.491H321.475C312.716 199.491 305.615 192.391 305.615 183.631V48.3735C305.615 39.6146 312.716 32.5125 321.475 32.5125H373.481C382.241 32.5125 389.341 39.6146 389.341 48.3735V183.631C389.341 192.391 382.241 199.491 373.481 199.491Z" fill="#DBE5E9"/>
<path d="M414.353 333.972H283.454C274.694 333.972 267.594 326.871 267.594 318.111V266.106C267.594 257.347 274.694 250.246 283.454 250.246H414.353C423.112 250.246 430.214 257.347 430.214 266.106V318.111C430.214 326.871 423.112 333.972 414.353 333.972Z" fill="#DBE5E9"/>
<path d="M384.54 428.916H283.454C274.694 428.916 267.594 421.815 267.594 413.055V361.05C267.594 352.29 274.694 345.19 283.454 345.19H384.54C393.299 345.19 400.4 352.29 400.4 361.05V413.055C400.4 421.815 393.299 428.916 384.54 428.916Z" fill="#DBE5E9"/>
<path d="M303.29 425.403H294.06V390.823H303.29V425.403Z" fill="#C7C6C4"/>
<path d="M294.06 392.623L301.08 393.683V425.403H303.29V390.823H294.06V392.623Z" fill="#B3B3B2"/>
<path d="M304.59 448.123H292.76V423.973H304.59V448.123Z" fill="#616364"/>
<path d="M332.106 450.493H265.244V448.123H332.106V450.493Z" fill="#616364"/>
<path d="M299.91 456.667H297.44V449.307H299.91V456.667Z" fill="#616364"/>
<path d="M302.12 458.499C302.12 460.401 300.578 461.944 298.675 461.944C296.772 461.944 295.23 460.401 295.23 458.499C295.23 456.597 296.772 455.054 298.675 455.054C300.578 455.054 302.12 456.597 302.12 458.499Z" fill="#C7C6C4"/>
<path d="M294.554 458.538V458.499C294.554 456.227 296.403 454.377 298.675 454.377C300.908 454.377 302.717 456.125 302.793 458.357L301.443 458.403C301.391 456.904 300.176 455.73 298.675 455.73C297.149 455.73 295.906 456.972 295.906 458.499L294.554 458.538Z" fill="#616364"/>
<path d="M267.714 456.667H265.244V449.307H267.714V456.667Z" fill="#616364"/>
<path d="M269.924 458.499C269.924 460.401 268.381 461.944 266.478 461.944C264.575 461.944 263.034 460.401 263.034 458.499C263.034 456.597 264.575 455.054 266.478 455.054C268.381 455.054 269.924 456.597 269.924 458.499Z" fill="#C7C6C4"/>
<path d="M262.358 458.538V458.499C262.358 456.227 264.207 454.377 266.478 454.377C268.712 454.377 270.521 456.125 270.597 458.357L269.247 458.403C269.195 456.904 267.98 455.73 266.478 455.73C264.952 455.73 263.71 456.972 263.71 458.499L262.358 458.538Z" fill="#616364"/>
<path d="M332.106 456.667H329.636V449.307H332.106V456.667Z" fill="#616364"/>
<path d="M334.316 458.499C334.316 460.401 332.775 461.944 330.871 461.944C328.969 461.944 327.426 460.401 327.426 458.499C327.426 456.597 328.969 455.054 330.871 455.054C332.775 455.054 334.316 456.597 334.316 458.499Z" fill="#C7C6C4"/>
<path d="M326.75 458.538V458.499C326.75 456.227 328.599 454.377 330.871 454.377C333.105 454.377 334.913 456.125 334.989 458.357L333.639 458.403C333.587 456.904 332.372 455.73 330.871 455.73C329.345 455.73 328.102 456.972 328.102 458.499L326.75 458.538Z" fill="#616364"/>
<path d="M283.773 384.583L285.223 391.603H313.3L316.68 382.503L283.773 384.583Z" fill="#616364"/>
<path d="M313.3 391.603L316.68 382.503L283.773 384.583L284.379 387.513C292.982 389.527 309.457 387.703 309.457 387.703L308.512 391.603H313.3Z" fill="#545557"/>
<path d="M295.75 387.183L260 385.363C260 385.363 254.02 372.103 277.875 364.563C301.73 357.023 307.834 351.8 310.177 340.89C312.52 329.983 320.19 263.423 320.19 263.423H359.58C359.58 263.423 357.5 283.313 357.37 285.523C357.24 287.733 357.11 348.313 349.7 358.193C342.29 368.073 330.46 376.653 324.74 378.343C319.02 380.033 295.75 387.183 295.75 387.183Z" fill="#BE3C49"/>
<path d="M296.355 387.183C294.341 387.183 292.633 385.633 292.472 383.59C292.302 381.443 293.905 379.566 296.052 379.395C305.72 378.628 332.353 375.095 339.403 368.046C347.955 359.493 353.863 339.082 354.9 267.266C354.931 265.132 356.671 263.423 358.799 263.423C358.819 263.423 358.838 263.423 358.856 263.423C361.01 263.454 362.73 265.225 362.7 267.379C361.622 342.07 355.096 363.382 344.917 373.56C334.58 383.899 300.516 386.865 296.667 387.17C296.562 387.178 296.458 387.183 296.355 387.183Z" fill="#CD4E5D"/>
<path d="M302.12 448.123H304.59V423.973H302.12V448.123Z" fill="#545557"/>
<path d="M98.8325 461.484L111.93 338.011H161.85L173.03 461.484H178.75L169.65 328.943H103.61L92.6575 461.484H98.8325Z" fill="#858686"/>
<path d="M140.175 314.475C139.902 314.475 139.623 314.46 139.338 314.43L139.512 312.775C141.233 312.956 142.574 312.456 143.377 311.325C144.242 310.105 144.249 308.521 143.807 307.588C143.081 306.044 139.79 307.395 139.757 307.41L139.093 305.885C140.865 305.111 144.168 304.454 145.313 306.877C146.079 308.502 145.841 310.726 144.733 312.288C143.721 313.714 142.121 314.475 140.175 314.475Z" fill="#BE3C49"/>
<path d="M141.636 312.587C141.018 312.79 140.309 312.858 139.512 312.775L139.338 314.43C139.623 314.46 139.902 314.475 140.175 314.475C140.722 314.475 141.237 314.408 141.724 314.29L141.636 312.587ZM141.341 306.949L141.254 305.261C140.454 305.382 139.687 305.625 139.093 305.885L139.757 307.41C139.772 307.403 140.499 307.107 141.341 306.949Z" fill="#B32831"/>
<path d="M138.479 322.963H123.601C122.828 322.963 122.2 322.334 122.2 321.561V301.281C122.2 300.507 122.828 299.88 123.601 299.88H138.479C139.252 299.88 139.88 300.507 139.88 301.281V321.561C139.88 322.334 139.252 322.963 138.479 322.963Z" fill="#BE3C49"/>
<path d="M124.02 322.963H125.666V300.775H124.02V322.963Z" fill="#E296A0"/>
<path d="M262.454 206.743C262.454 206.743 258.526 203.623 260.434 197.383C262.34 191.143 269.36 188.109 269.36 188.109L269.014 189.149C269.014 189.149 281.32 182.216 298.914 187.069L297.9 187.676C297.9 187.676 310.094 191.489 310.874 211.163L308.966 208.043C308.966 208.043 309.746 219.656 309.92 223.209C310.094 226.763 310.266 236.729 310.874 239.503L306.194 233.783C306.194 233.783 303.867 243.261 302.38 244.963L299.845 238.549C299.845 238.549 298.306 241.409 295.534 242.969C295.534 242.969 300.096 210.469 262.454 206.743Z" fill="#4E1F1B"/>
<path d="M279.63 249.773L279.066 246.609L295.62 238.896L297.896 244.963C297.896 244.963 298.134 249.036 295.446 251.463C292.76 253.889 288.355 256.403 286.397 257.356C284.44 258.309 281.12 255.536 281.12 255.536L279.63 249.773Z" fill="#FBC278"/>
<path d="M295.62 238.896L279.066 246.609L279.63 249.773C283.27 250.943 287.095 249.976 290.219 247.216C292.709 245.015 294.87 242.65 296.36 240.867L295.62 238.896Z" fill="#EFAC57"/>
<path d="M276.576 252.503L285.223 255.979L304.653 249.773C304.653 249.773 300.496 266.26 298.416 269.163C296.336 272.067 285.165 281.286 285.165 281.286C285.165 281.286 278.526 271.353 276.64 265.698C274.756 260.043 276.576 252.503 276.576 252.503Z" fill="#F5F2BF"/>
<path d="M283.27 262.188C283.27 262.188 280.995 269.923 281.125 274.993C281.255 280.063 285.165 281.286 285.165 281.286L291.674 275.803C291.674 275.803 289.418 265.741 289.644 262.188C289.644 262.188 284.635 261.603 283.27 262.188Z" fill="#CD4E5D"/>
<path d="M290.967 276.399L291.674 275.803C291.674 275.803 289.419 265.741 289.644 262.188C289.644 262.188 285.91 261.752 284.013 262.011L283.27 262.188C283.27 262.188 287.82 263.033 288.47 263.098C288.47 263.098 289.24 272.634 290.967 276.399Z" fill="#AF434F"/>
<path d="M277.875 258.725L280.215 262.332C280.215 262.332 283.057 258.677 285.61 256.403C285.61 256.403 290.197 258.677 291.674 263.228C291.674 263.228 297.636 261.061 302.77 253.727C302.77 253.727 304.395 251.527 304.395 251.463C304.395 251.397 304.221 249.903 303.82 249.773C303.42 249.643 299.65 250.163 298.87 250.553C298.09 250.943 287.472 255.557 287.472 255.557L285.223 255.979L277.875 258.725Z" fill="#E4E1A6"/>
<path d="M282.296 256.793C282.23 256.987 282.686 260.367 283.27 262.188C283.27 262.188 287.633 262.513 289.644 262.188L290.096 256.793L285.223 255.979L282.296 256.793Z" fill="#CD4E5D"/>
<path d="M282.635 259.443C283.543 258.421 284.597 257.304 285.61 256.403C285.61 256.403 287.957 257.574 289.835 259.905L290.095 256.793L285.223 255.979L282.3 257.072C282.334 257.519 282.457 258.438 282.635 259.443Z" fill="#AF434F"/>
<path d="M255.58 259.263C255.58 259.263 252.2 261.863 249.99 265.243C247.78 268.623 231.904 293.973 231.904 293.973L186.193 311.998C186.193 311.998 193.31 315.683 194.22 321.923C194.22 321.923 238.55 309.963 244.01 306.843C244.01 306.843 258.57 292.283 260 290.593C261.43 288.903 255.58 259.263 255.58 259.263Z" fill="#5E7FC2"/>
<path d="M258.415 292.283C254.465 274.74 255.318 260.823 255.318 260.823C253.495 268.102 255.06 289.635 255.06 289.635L244.01 306.843C244.01 306.843 254.28 296.573 258.415 292.283Z" fill="#2E4FA7"/>
<path d="M163.28 321.923C163.28 321.923 166.441 314.946 171.945 313.299C177.45 311.653 186.193 311.998 186.193 311.998C186.193 311.998 193.96 315.553 194.22 321.923H163.28Z" fill="#FBC278"/>
<path d="M314.251 252.571C314.251 252.571 326.559 256.238 328.64 258.725C328.64 258.725 327.08 310.522 328.64 319.927C330.2 329.333 331.934 338.995 332.106 352.949L267.28 350.523C267.28 350.523 267.113 333.052 265.397 323.613C263.682 314.173 256.75 288.123 255.58 275.773C254.41 263.423 255.58 259.263 255.58 259.263L277.308 251.463C277.308 251.463 274.43 258.873 276.64 265.698C278.85 272.523 284.96 279.933 284.96 279.933C284.96 279.933 292.89 275.903 296.14 271.743C299.39 267.583 307.45 253.023 307.45 253.023L314.251 252.571Z" fill="#5E7FC2"/>
<path d="M270.384 253.947L255.58 259.263C255.58 259.263 252.2 261.863 249.99 265.243C247.78 268.623 231.904 293.973 231.904 293.973L202.852 305.429C202.563 305.964 202.366 306.444 202.305 306.843L232.614 294.883C232.614 294.883 250.016 268.007 251.002 265.735C251.002 265.735 253.193 262.016 255.362 260.476L269.997 254.861L270.384 253.947Z" fill="#869FD1"/>
<path d="M328.64 319.927C328.029 316.239 327.896 306.031 327.962 294.985C322.613 288.789 312.78 286.303 312.78 286.303C312.78 286.303 315.12 299.433 317.07 303.333C319.02 307.233 319.8 311.998 319.8 311.998L291.674 315.921C291.674 315.921 292.63 325.173 293.15 325.433C293.587 325.651 321.22 328.249 330.086 328.848C329.621 325.771 329.123 322.836 328.64 319.927Z" fill="#2E4FA7"/>
<path d="M284.96 279.933C284.96 279.933 286.26 289.074 288.08 295.098C289.9 301.123 291.862 328.163 292.512 332.843V350.523H293.15V332.843C293.15 332.843 290.875 302.205 288.73 295.077L285.48 279.933H284.96Z" fill="#2E4FA7"/>
<path d="M261.214 318.544C261.214 318.544 261.076 314.33 263.682 314.173C266.288 314.016 267.115 314.173 267.115 314.173L266.686 318.544H261.214Z" fill="#EFAC57"/>
<path d="M192.712 450.939C192.712 450.939 193.605 453.62 193.784 455.854C193.963 458.089 193.784 461.484 193.784 461.484H142.48C142.48 461.484 143.017 457.91 144.089 455.854C145.161 453.799 149.63 452.904 154.457 452.725C158.934 452.56 167.255 450.241 170.007 448.765C170.222 448.65 170.403 448.539 170.545 448.435C172.511 447.005 192.712 450.939 192.712 450.939Z" fill="#F5F2BF"/>
<path d="M143.185 458.267C142.716 459.92 142.48 461.484 142.48 461.484H193.784C193.784 461.484 193.864 459.951 193.863 458.267H143.185Z" fill="#3E231F"/>
<path d="M294.32 350.523H267.28C267.28 350.523 221.52 360.923 215.974 364.735C210.426 368.549 171.253 448.629 171.253 448.629L192.746 451.055L236.08 389.349C236.08 389.349 295.36 372.709 296.054 371.669C296.746 370.629 300.214 360.923 294.32 350.523Z" fill="#3E231F"/>
<path d="M218.746 449.323C218.746 449.323 234.694 374.095 236.774 370.283C238.854 366.469 245.094 363.695 251.334 361.963C257.574 360.229 294.32 350.523 294.32 350.523L332.106 352.949C332.106 352.949 331.066 369.589 320.666 373.749C310.266 377.909 261.386 385.015 261.386 385.015L242.004 452.382L218.746 449.323Z" fill="#492B25"/>
<path d="M218.746 449.323C218.746 449.323 207.134 453.135 202.626 454.003C198.12 454.869 195.346 456.255 193.96 457.989C192.574 459.723 193.094 462.323 193.094 462.323L242.697 461.915C242.697 461.915 243.044 457.062 242.004 452.382L218.746 449.323Z" fill="#F5F2BF"/>
<path d="M193.094 462.323L242.698 461.915C242.698 461.915 242.849 460.497 242.753 458.267L193.617 458.509C192.674 460.198 193.094 462.323 193.094 462.323Z" fill="#3E231F"/>
<path d="M289.644 305.547L322.92 296.443L312.78 286.303C312.78 286.303 309.4 274.863 315.38 265.763C321.36 256.663 326.82 258.707 328.64 258.725C330.46 258.743 341.9 281.883 348.14 299.563C348.14 299.563 347.36 310.483 340.6 313.603L297.697 318.543C297.697 318.543 299.174 309.789 289.644 305.547Z" fill="#5E7FC2"/>
<path d="M289.644 305.547C289.982 305.697 290.302 305.855 290.614 306.016C294.694 304.823 325.645 295.813 331.066 295.489C331.066 295.489 325.266 295.801 322.92 296.443L289.644 305.547Z" fill="#869FD1"/>
<path d="M265.72 318.543C265.72 318.543 264.541 315.254 266.687 312.686C268.833 310.12 270.691 307.713 273.696 306.91C276.699 306.108 285.997 305.145 289.644 305.547C289.644 305.547 294.257 306.75 296.617 309.999C298.977 313.248 297.795 318.544 297.795 318.544L265.72 318.543Z" fill="#FBC278"/>
<path d="M286.954 318.543H297.752C296.048 316.938 293.11 314.486 291.36 314.813C290.026 315.062 288.129 316.994 286.954 318.543Z" fill="#EFAC57"/>
<path d="M281.161 318.543C281.62 316.06 282.778 313.299 282.778 313.299C281.314 314.427 280.05 317.119 279.542 318.544L281.161 318.543Z" fill="#EFAC57"/>
<path d="M275.426 318.543C276.358 316.337 277.308 313.299 277.308 313.299C275.741 314.247 274.395 317.065 273.617 318.544L275.426 318.543Z" fill="#EFAC57"/>
<path d="M270.428 318.544C271.204 315.882 272.266 311.998 272.266 311.998C270.545 312.931 269.258 316.664 268.593 318.543L270.428 318.544Z" fill="#EFAC57"/>
<path d="M284.96 279.933C284.96 279.933 298.74 272.263 303.94 249.253L314.73 251.853C314.73 251.853 308.62 261.343 302.77 265.243L304.85 267.323C304.85 267.323 295.1 279.413 284.96 279.933Z" fill="#869FD1"/>
<path d="M284.96 279.933C284.96 279.933 276.024 264.593 277.308 251.463L269.75 253.803C269.75 253.803 271.754 262.897 274.094 266.537L272.266 267.323C272.266 267.323 277.42 277.073 284.96 279.933Z" fill="#869FD1"/>
<path d="M312.259 284.426C312.259 284.426 307.566 262.446 325.713 258.573C325.713 258.573 310.26 261.707 312.259 284.426Z" fill="#2E4FA7"/>
<path d="M285.223 255.979C285.223 255.979 294.256 250.877 297.896 244.963C297.896 244.963 301.934 247.004 304.859 249.474C304.859 249.474 298.09 259.458 292.76 262.188C292.76 262.188 289.448 256.695 285.223 255.979Z" fill="#F5F2BF"/>
<path d="M285.223 255.979C285.223 255.979 280.67 251.983 279.63 249.773C279.63 249.773 276.965 250.617 275.86 252.113C275.86 252.113 276.445 258.547 279.045 262.188C279.045 262.188 282.947 256.695 285.223 255.979Z" fill="#F5F2BF"/>
<path d="M300.689 318.197C300.865 316.502 301.036 312.952 299.845 310.093C298.497 306.856 294.784 305.011 293.558 304.477L289.644 305.547C299.174 309.789 297.697 318.543 297.697 318.543L300.689 318.197Z" fill="#F5F2BF"/>
<path d="M262.454 206.743C262.454 206.743 262.08 213.503 262.946 218.269C263.814 223.036 263.986 229.189 264.42 232.396C264.854 235.603 267.454 239.589 274.126 243.836C280.8 248.083 280.658 247.563 282.289 247.563C283.92 247.563 294.146 242.363 296.92 237.943C299.694 233.523 300.56 233.196 301.426 227.162C302.294 221.129 303.594 205.183 293.974 198.076C284.354 190.969 267.856 189.583 262.454 206.743Z" fill="#FBC278"/>
<path d="M262.454 206.743C262.454 206.743 265.546 202.149 269.36 202.409C269.36 202.409 278.634 198.856 284.96 200.676C284.96 200.676 288.521 205.443 289.644 209.083L290.219 203.536C290.219 203.536 294.06 212.203 294.494 217.576C294.926 222.949 295.041 224.596 295.041 224.596C295.041 224.596 297.786 217.836 299.434 217.316C301.08 216.796 304.395 219.049 304.395 219.049C304.395 219.049 310.18 203.363 296.226 194.956C282.274 186.549 276.294 190.189 270.4 192.529C264.506 194.869 262.53 202.497 262.454 206.743Z" fill="#4E1F1B"/>
<path d="M309.92 223.209C309.746 219.656 308.966 208.043 308.966 208.043L310.874 211.163C310.768 208.505 310.449 206.147 309.985 204.039C308.944 202.713 308.1 201.803 308.1 201.803L306.15 206.353C306.15 206.353 301.61 199.584 298.48 195.043C295.35 190.5 284.96 187.856 284.96 187.856C284.96 187.856 289.77 191.143 292.459 194.003C295.149 196.863 298.48 204.143 299.441 206.483C300.402 208.823 301.21 225.723 298.48 230.284C297.67 231.638 296.584 233.473 295.451 235.399C295.973 239.832 295.534 242.969 295.534 242.969C298.306 241.409 299.845 238.549 299.845 238.549L302.38 244.963C303.867 243.261 306.194 233.783 306.194 233.783L310.874 239.503C310.266 236.729 310.094 226.763 309.92 223.209Z" fill="#361916"/>
<path d="M303.339 202.179C302.737 201.288 302.081 200.32 301.412 199.334C300.099 197.755 298.403 196.267 296.226 194.956C293.988 193.607 291.958 192.572 290.096 191.788C290.945 192.512 291.772 193.272 292.459 194.003C295.149 196.863 298.48 204.143 299.441 206.483C299.912 207.631 300.346 212.285 300.344 217.265C302.067 217.47 304.395 219.049 304.395 219.049C304.395 219.049 307.67 210.16 303.339 202.179Z" fill="#361916"/>
<path d="M300.244 208.866C298.282 198.218 293.02 184.989 273.245 186.919L269.014 189.149C269.014 189.149 283.526 185.375 291.806 195.996C295.234 200.392 296.866 205.261 297.603 209.459C298.341 209.262 299.331 209.019 300.244 208.866Z" fill="#4F6371"/>
<path d="M306.865 218.761C307.317 224.802 304.358 229.948 300.257 230.254C296.158 230.56 292.467 225.911 292.015 219.87C291.565 213.828 294.523 208.683 298.624 208.377C302.725 208.071 306.415 212.72 306.865 218.761Z" fill="#4F6371"/>
<path d="M306.962 217.832C307.323 222.667 304.956 226.784 301.673 227.03C298.391 227.274 295.438 223.554 295.078 218.719C294.716 213.884 297.084 209.766 300.365 209.52C303.649 209.276 306.601 212.997 306.962 217.832Z" fill="#647E90"/>
<path d="M279.845 240.421C279.475 240.421 279.135 240.171 279.04 239.794C278.927 239.349 279.195 238.896 279.641 238.783C283.281 237.856 289.381 236.191 290.253 235.668C290.963 235.242 293.847 231.234 296.224 227.606C296.476 227.221 296.99 227.113 297.376 227.367C297.76 227.618 297.867 228.133 297.616 228.518C296.432 230.325 292.466 236.281 291.107 237.096C289.771 237.898 281.663 239.985 280.051 240.395C279.983 240.413 279.913 240.421 279.845 240.421Z" fill="#647E90"/>
<path d="M281.06 239.719C281.06 240.939 280.071 241.929 278.85 241.929C277.629 241.929 276.64 240.939 276.64 239.719C276.64 238.498 277.629 237.509 278.85 237.509C280.071 237.509 281.06 238.498 281.06 239.719Z" fill="#4F6371"/>
<path d="M271.25 217.814C271.468 219.085 271.149 220.201 270.535 220.306C269.923 220.412 269.249 219.467 269.03 218.195C268.812 216.924 269.131 215.808 269.745 215.702C270.357 215.597 271.031 216.543 271.25 217.814Z" fill="#313A42"/>
<path d="M283.423 217.401C283.518 218.687 283.094 219.767 282.473 219.813C281.853 219.86 281.272 218.855 281.175 217.568C281.081 216.282 281.505 215.201 282.125 215.155C282.746 215.108 283.327 216.114 283.423 217.401Z" fill="#313A42"/>
<path d="M279.066 210.989C278.919 210.989 278.773 210.927 278.67 210.806C278.484 210.586 278.511 210.259 278.73 210.073C278.849 209.972 281.682 207.615 285.564 208.968C285.836 209.062 285.978 209.359 285.884 209.63C285.79 209.902 285.495 210.045 285.221 209.95C281.903 208.795 279.427 210.844 279.402 210.865C279.306 210.948 279.185 210.989 279.066 210.989Z" fill="#4E1F1B"/>
<path d="M266.326 212.983C266.202 212.983 266.079 212.939 265.98 212.849C265.766 212.658 265.747 212.33 265.938 212.115C267.595 210.264 271.309 211.053 271.465 211.088C271.746 211.149 271.922 211.426 271.861 211.707C271.801 211.986 271.519 212.165 271.243 212.103C270.334 211.905 267.752 211.648 266.714 212.809C266.61 212.923 266.469 212.983 266.326 212.983Z" fill="#4E1F1B"/>
<path d="M277.356 226.589C277.356 226.589 274.04 227.023 273.434 226.589C272.826 226.156 274.906 225.896 275.86 225.983C276.814 226.069 277.356 226.589 277.356 226.589Z" fill="#E1A353"/>
<path d="M274.126 234.408C274.126 234.408 280.02 234.485 283.27 233.176C283.27 233.176 282.056 236.564 278.698 236.641C275.34 236.718 274.126 234.408 274.126 234.408Z" fill="#A9424D"/>
<path d="M279.5 234.563C278.197 234.796 277.037 235.755 276.478 236.284C277.083 236.511 277.811 236.661 278.698 236.641C280.798 236.593 282.059 235.25 282.709 234.251C282.002 234.274 280.729 234.343 279.5 234.563Z" fill="#CD4E5D"/>
<path d="M274.126 234.408C274.126 234.408 274.364 234.828 274.875 235.302C276.87 235.227 280.345 235.004 282.64 234.353C283.075 233.707 283.27 233.176 283.27 233.176C280.02 234.485 274.126 234.408 274.126 234.408Z" fill="#F5F2BF"/>
<path d="M239.282 300.2L140.543 299.185L128.878 230.284L227.618 231.299L239.282 300.2Z" fill="#E7E6E5"/>
<path d="M195 270.269L196.29 299.757L208.107 299.88L195 270.269Z" fill="#8C8C8C"/>
<path d="M176.337 320.753L162.76 270.269H195L209.04 319.843L176.337 320.753Z" fill="#C4C2C1"/>
<path d="M176.337 320.753L209.04 319.843L207.869 315.708H174.98L176.337 320.753Z" fill="#B3B3B2"/>
<path d="M192.015 270.269L205.986 319.927L209.04 319.843L195 270.269H192.015Z" fill="#E1E0DE"/>
<path d="M204.8 315.708L205.986 319.927L209.04 319.843L207.869 315.708H204.8Z" fill="#D0D0CE"/>
<path d="M297.697 322.963H217.706V318.544H297.697V322.963Z" fill="#E3E2E0"/>
<path d="M232.614 322.963H149.76V318.544H232.614V322.963Z" fill="#ABAAA9"/>
<path d="M219.266 322.963H149.76V318.544H219.266V322.963Z" fill="#C4C2C1"/>
<path d="M229.146 293.495C229.146 294.261 228.526 294.883 227.76 294.883C226.995 294.883 226.374 294.261 226.374 293.495C226.374 292.73 226.995 292.109 227.76 292.109C228.526 292.109 229.146 292.73 229.146 293.495Z" fill="#C03744"/>
<path d="M228.15 288.247C228.15 289.013 227.529 289.635 226.764 289.635C225.997 289.635 225.376 289.013 225.376 288.247C225.376 287.482 225.997 286.861 226.764 286.861C227.529 286.861 228.15 287.482 228.15 288.247Z" fill="#FAF783"/>
<path d="M224.527 231.268L236.556 300.172L239.282 300.2L227.617 231.299L224.527 231.268Z" fill="#FEFEFE"/>
<path d="M187.832 242.972L186.193 243.251L188.706 258.095L190.346 257.817L187.832 242.972ZM181.444 243.251L183.957 258.095L185.596 257.817L183.084 242.973L181.444 243.251ZM176.694 243.251L179.207 258.095L180.848 257.817L178.334 242.972L176.694 243.251ZM171.945 243.251L174.459 258.095L176.098 257.817L173.585 242.973L171.945 243.251ZM167.196 243.251L169.708 258.095L171.348 257.817L168.836 242.972L167.196 243.251ZM162.447 243.251L164.96 258.095L166.6 257.817L164.086 242.973L162.447 243.251Z" fill="#8C8C8C"/>
<path d="M246.902 461.944L260 338.043H309.92L321.1 461.944H326.82L317.72 328.943H251.68L240.728 461.944H246.902Z" fill="#9F9F9E"/>
<path d="M246.457 214.642L246.026 215.589L248.864 216.883L249.296 215.936L246.457 214.642ZM217.98 202.81L223.238 205.207L223.67 204.26L218.412 201.864L217.98 202.81ZM232.002 209.2L237.261 211.596L237.692 210.649L232.434 208.254L232.002 209.2ZM203.957 196.421L209.215 198.817L209.646 197.87L204.388 195.474L203.957 196.421ZM175.911 183.642L181.169 186.038L181.601 185.092L176.342 182.696L175.911 183.642ZM189.933 190.032L195.192 192.427L195.624 191.481L190.365 189.084L189.933 190.032ZM164.308 178.356L167.147 179.649L167.578 178.702L164.739 177.408L164.308 178.356Z" fill="#5E7FC2"/>
<path d="M276.111 157.168L275.645 150.945L276.683 150.868L277.149 157.09L276.111 157.168ZM277.356 173.761L276.889 167.539L277.927 167.461L278.395 173.683L277.356 173.761Z" fill="#5E7FC2"/>
<path d="M358.697 210.325L358.368 209.338L364.288 207.369L364.618 208.356L358.697 210.325ZM342.909 215.58L342.579 214.593L348.5 212.622L348.828 213.61L342.909 215.58ZM327.119 220.834L326.791 219.847L332.711 217.877L333.04 218.864L327.119 220.834Z" fill="#5E7FC2"/>
<path d="M329.862 119.776L324.587 116.442L325.145 115.563L330.418 118.897L329.862 119.776ZM343.927 128.669L338.652 125.335L339.209 124.455L344.483 127.789L343.927 128.669ZM357.992 137.561L352.717 134.227L353.273 133.347L358.548 136.681L357.992 137.561Z" fill="#5E7FC2"/>
<path d="M205.272 116.507L204.9 115.536L210.724 113.297L211.097 114.268L205.272 116.507ZM189.74 122.478L189.367 121.506L195.192 119.267L195.565 120.239L189.74 122.478ZM174.208 128.447L173.835 127.477L179.66 125.238L180.032 126.208L174.208 128.447Z" fill="#5E7FC2"/>
<path d="M176.128 90.8908L172.339 87.3579L176.128 83.824L176.979 84.7382L174.17 87.3579L176.979 89.9777L176.128 90.8908Z" fill="#5E7FC2"/>
<path d="M379.334 67.5782L375.545 64.0453L379.334 60.5124L380.184 61.4255L377.374 64.0453L380.184 66.6661L379.334 67.5782Z" fill="#5E7FC2"/>
<path d="M406.913 284.819L403.125 281.286L406.913 277.753L407.764 278.665L404.955 281.286L407.764 283.906L406.913 284.819Z" fill="#5E7FC2"/>
<path d="M86.4829 218.686L82.6943 215.153L86.4829 211.62L87.3341 212.533L84.5244 215.153L87.3341 217.773L86.4829 218.686Z" fill="#5E7FC2"/>
<path d="M93.0938 218.686L89.3047 215.153L93.0938 211.62L93.9449 212.533L91.1353 215.153L93.9449 217.773L93.0938 218.686Z" fill="#5E7FC2"/>
<path d="M323.632 175.309L319.843 171.776L323.632 168.243L324.483 169.156L321.673 171.776L324.483 174.395L323.632 175.309Z" fill="#5E7FC2"/>
<path d="M330.243 175.309L326.453 171.776L330.243 168.243L331.093 169.156L328.283 171.776L331.093 174.395L330.243 175.309Z" fill="#5E7FC2"/>
<path d="M108.858 196.862C79.3531 196.862 55.4343 172.943 55.4343 143.438C55.4343 113.932 79.3531 90.013 108.858 90.013C138.364 90.013 162.283 113.932 162.283 143.438C162.283 172.943 138.364 196.862 108.858 196.862ZM108.811 86.4958C77.3625 86.4958 51.8687 111.989 51.8687 143.438C51.8687 174.886 77.3625 200.38 108.811 200.38C140.259 200.38 165.753 174.886 165.753 143.438C165.753 111.989 140.259 86.4958 108.811 86.4958Z" fill="#008BBA"/>
<path d="M110.837 93.4305C110.165 93.4045 109.489 93.391 108.811 93.391L108.768 92.871H108.811C109.496 92.871 110.179 92.8845 110.857 92.9105L110.837 93.4305ZM102.579 93.7747L102.515 93.2589C103.203 93.1736 103.896 93.1019 104.593 93.0446L104.636 93.5626C103.946 93.6198 103.26 93.6905 102.579 93.7747ZM117.006 94.0586C116.328 93.9473 115.646 93.8486 114.96 93.7643L115.022 93.2485C115.717 93.3338 116.406 93.4325 117.091 93.5459L117.006 94.0586ZM96.484 94.9208L96.3561 94.4164C97.0293 94.2458 97.7085 94.0888 98.3922 93.9453L98.499 94.4538C97.8223 94.5963 97.1503 94.7513 96.484 94.9208ZM123.051 95.445C122.392 95.2505 121.726 95.0685 121.056 94.9L121.183 94.3945C121.86 94.5661 122.532 94.7502 123.198 94.9468L123.051 95.445ZM90.5784 96.8157L90.3899 96.331C91.037 96.0783 91.6912 95.8381 92.3508 95.6103L92.5202 96.1022C91.867 96.3269 91.2198 96.564 90.5784 96.8157ZM128.879 97.577C128.247 97.2993 127.602 97.033 126.963 96.7845L127.153 96.2998C127.797 96.5505 128.448 96.8209 129.088 97.1006L128.879 97.577ZM84.9612 99.4282L84.7134 98.9705C85.324 98.6398 85.9418 98.3205 86.5662 98.0137L86.7958 98.4807C86.1775 98.7854 85.5652 99.1006 84.9612 99.4282ZM134.398 100.418C133.806 100.065 133.201 99.7204 132.598 99.3938L132.846 98.9373C133.454 99.2659 134.066 99.6143 134.664 99.971L134.398 100.418ZM79.708 102.719L79.4053 102.296C79.9708 101.892 80.5449 101.498 81.1269 101.116L81.4126 101.551C80.8362 101.928 80.2674 102.318 79.708 102.719ZM139.522 103.918C138.977 103.495 138.424 103.083 137.862 102.681L138.165 102.258C138.732 102.663 139.291 103.081 139.841 103.508L139.522 103.918ZM74.898 106.632L74.5453 106.251C75.0572 105.777 75.5789 105.317 76.1098 104.866L76.4462 105.261C75.9213 105.709 75.4046 106.165 74.898 106.632ZM144.173 108.024C143.685 107.536 143.187 107.059 142.68 106.592L143.032 106.209C143.545 106.681 144.048 107.164 144.541 107.656L144.173 108.024ZM70.6047 111.11L70.2078 110.775C70.6587 110.242 71.1199 109.72 71.5911 109.207L71.9738 109.559C71.5078 110.066 71.0508 110.584 70.6047 111.11ZM148.283 112.666C147.86 112.123 147.424 111.589 146.978 111.064L147.374 110.727C147.826 111.258 148.265 111.798 148.694 112.346L148.283 112.666ZM66.8944 116.084L66.4585 115.8C66.8404 115.215 67.234 114.639 67.6391 114.072L68.0628 114.375C67.6614 114.937 67.2723 115.506 66.8944 116.084ZM151.789 117.78C151.436 117.188 151.069 116.605 150.692 116.029L151.127 115.744C151.508 116.326 151.882 116.92 152.235 117.513L151.789 117.78ZM63.8256 121.48L63.3584 121.251C63.6639 120.626 63.9861 120 64.3168 119.39L64.7734 119.638C64.4472 120.242 64.1274 120.86 63.8256 121.48ZM154.635 123.284C154.356 122.653 154.066 122.028 153.763 121.412L154.23 121.183C154.536 121.807 154.829 122.437 155.11 123.073L154.635 123.284ZM61.4503 127.218L60.9592 127.049C61.1854 126.387 61.4275 125.725 61.6789 125.082L62.1637 125.27C61.915 125.907 61.6749 126.562 61.4503 127.218ZM156.775 129.1C156.578 128.443 156.366 127.781 156.142 127.132L156.633 126.962C156.859 127.618 157.074 128.288 157.273 128.953L156.775 129.1ZM59.8123 133.199L59.3037 133.093C59.4459 132.409 59.6023 131.731 59.7709 131.057L60.2754 131.183C60.108 131.85 59.9537 132.522 59.8123 133.199ZM158.174 135.142C158.059 134.46 157.931 133.782 157.791 133.11L158.3 133.002C158.443 133.683 158.572 134.367 158.686 135.056L158.174 135.142ZM58.9299 139.337L58.4115 139.295C58.4679 138.598 58.5387 137.905 58.6232 137.215L59.1392 137.279C59.0559 137.96 58.986 138.647 58.9299 139.337ZM158.813 141.31C158.785 140.618 158.742 139.93 158.685 139.246L159.203 139.203C159.26 139.895 159.304 140.59 159.333 141.288L158.813 141.31ZM159.336 145.526L158.816 145.505C158.843 144.82 158.858 144.13 158.858 143.438H159.378C159.378 144.138 159.363 144.835 159.336 145.526ZM58.2872 145.559C58.2588 144.866 58.2441 144.17 58.2441 143.47H58.7641C58.7641 144.163 58.7788 144.852 58.8072 145.538L58.2872 145.559ZM158.697 151.76L158.184 151.675C158.296 150.997 158.394 150.314 158.479 149.628L158.995 149.691C158.909 150.386 158.81 151.076 158.697 151.76ZM58.9312 151.792C58.8174 151.107 58.7162 150.411 58.6317 149.724L59.1477 149.66C59.2326 150.346 59.3313 151.029 59.4442 151.707L58.9312 151.792ZM157.29 157.866L156.792 157.717C156.987 157.059 157.169 156.393 157.34 155.723L157.843 155.85C157.672 156.527 157.487 157.199 157.29 157.866ZM60.3412 157.897C60.1417 157.228 59.9552 156.55 59.7867 155.882L60.2909 155.756C60.4578 156.415 60.6427 157.086 60.8401 157.749L60.3412 157.897ZM155.132 163.753L154.655 163.544C154.932 162.915 155.198 162.271 155.449 161.629L155.934 161.819C155.681 162.467 155.411 163.118 155.132 163.753ZM62.4996 163.774C62.2202 163.139 61.9516 162.491 61.7009 161.849L62.1852 161.66C62.433 162.295 62.6991 162.936 62.9757 163.565L62.4996 163.774ZM152.256 169.329L151.81 169.061C152.165 168.468 152.51 167.862 152.835 167.262L153.292 167.51C152.963 168.116 152.615 168.729 152.256 169.329ZM65.3718 169.338C65.0159 168.741 64.671 168.137 64.3392 167.525L64.7957 167.277C65.1248 167.883 65.4657 168.48 65.8187 169.072L65.3718 169.338ZM148.715 174.502L148.304 174.181C148.728 173.637 149.141 173.085 149.543 172.523L149.966 172.826C149.56 173.393 149.142 173.951 148.715 174.502ZM68.911 174.506C68.4837 173.958 68.0668 173.399 67.6614 172.833L68.0839 172.531C68.4853 173.091 68.898 173.644 69.3218 174.186L68.911 174.506ZM144.563 179.197L144.196 178.83C144.683 178.342 145.161 177.844 145.628 177.338L146.011 177.689C145.539 178.202 145.056 178.705 144.563 179.197ZM73.0622 179.2C72.5693 178.707 72.0875 178.205 71.6147 177.693L71.9965 177.341C72.4645 177.847 72.9422 178.345 73.4298 178.833L73.0622 179.2ZM139.869 183.346L139.548 182.935C140.092 182.512 140.627 182.077 141.153 181.632L141.489 182.028C140.96 182.477 140.415 182.92 139.869 183.346ZM77.7599 183.351C77.2099 182.922 76.6684 182.483 76.1374 182.032L76.4734 181.635C76.9999 182.081 77.5349 182.516 78.0797 182.94L77.7599 183.351ZM134.7 186.884L134.434 186.437C135.025 186.084 135.609 185.719 136.185 185.341L136.469 185.776C135.888 186.158 135.297 186.527 134.7 186.884ZM82.9356 186.891C82.3356 186.533 81.7441 186.163 81.1612 185.781L81.4455 185.347C82.0224 185.724 82.6082 186.09 83.2017 186.444L82.9356 186.891ZM129.136 189.754L128.927 189.278C129.558 189 130.181 188.71 130.799 188.408L131.027 188.875C130.404 189.18 129.773 189.473 129.136 189.754ZM88.5102 189.764C87.8764 189.486 87.2378 189.189 86.611 188.883L86.8397 188.416C87.4596 188.719 88.0926 189.013 88.7194 189.287L88.5102 189.764ZM123.256 191.91L123.108 191.412C123.769 191.214 124.427 191.004 125.078 190.781L125.246 191.273C124.589 191.498 123.925 191.712 123.256 191.91ZM94.398 191.921C93.7386 191.725 93.0692 191.511 92.4073 191.284L92.5759 190.793C93.2263 191.015 93.8829 191.226 94.5463 191.422L94.398 191.921ZM117.15 193.32L117.065 192.808C117.747 192.693 118.425 192.566 119.098 192.426L119.204 192.936C118.524 193.077 117.839 193.205 117.15 193.32ZM100.505 193.325C99.8243 193.212 99.1332 193.083 98.4507 192.941L98.5563 192.432C99.2287 192.573 99.9067 192.699 100.589 192.812L100.505 193.325ZM110.917 193.961L110.895 193.441C111.587 193.414 112.275 193.371 112.96 193.315L113.002 193.833C112.311 193.89 111.616 193.933 110.917 193.961ZM106.737 193.963C106.038 193.935 105.344 193.892 104.652 193.836L104.694 193.318C105.378 193.373 106.067 193.416 106.759 193.443L106.737 193.963Z" fill="#5E7FC2"/>
<path d="M113.712 153.062C113.712 152.488 113.247 152.022 112.672 152.022H90.9185C90.344 152.022 89.8785 152.488 89.8785 153.062C89.8785 153.637 90.344 154.102 90.9185 154.102H112.672C113.247 154.102 113.712 153.637 113.712 153.062ZM133.038 146.302H121.858C121.284 146.302 120.818 146.768 120.818 147.342C120.818 147.917 121.284 148.382 121.858 148.382H133.038C133.613 148.382 134.078 147.917 134.078 147.342C134.078 146.768 133.613 146.302 133.038 146.302ZM90.9185 148.382H114.058C114.633 148.382 115.098 147.917 115.098 147.342C115.098 146.768 114.633 146.302 114.058 146.302H90.9185C90.344 146.302 89.8785 146.768 89.8785 147.342C89.8785 147.917 90.344 148.382 90.9185 148.382ZM133.038 140.582H90.9185C90.344 140.582 89.8785 141.048 89.8785 141.622C89.8785 142.197 90.344 142.662 90.9185 142.662H133.038C133.613 142.662 134.078 142.197 134.078 141.622C134.078 141.048 133.613 140.582 133.038 140.582ZM133.038 134.862H95.2519C94.6774 134.862 94.2119 135.328 94.2119 135.902C94.2119 136.477 94.6774 136.942 95.2519 136.942H133.038C133.613 136.942 134.078 136.477 134.078 135.902C134.078 135.328 133.613 134.862 133.038 134.862ZM76.4706 129.619C76.4706 126.183 79.2656 123.388 82.7021 123.388H139.089C142.525 123.388 145.321 126.183 145.321 129.619V159.519C145.321 162.956 142.525 165.751 139.089 165.751H113.092C112.896 165.751 112.711 165.835 112.583 165.982C112.454 166.128 112.395 166.322 112.421 166.515C112.655 168.307 113.316 170.638 115.025 172.754C112.487 171.676 108.936 169.621 107.273 166.137C107.162 165.901 106.925 165.751 106.664 165.751H82.7021C79.2656 165.751 76.4706 162.956 76.4706 159.519V129.619ZM75.1182 129.619V159.519C75.1182 163.701 78.5201 167.103 82.7021 167.103H106.245C109.399 173.11 117.251 174.981 117.59 175.059C117.641 175.07 117.691 175.077 117.741 175.077C118.002 175.077 118.245 174.926 118.356 174.681C118.49 174.388 118.399 174.043 118.139 173.854C115.385 171.852 114.295 169.201 113.885 167.103H139.089C143.271 167.103 146.673 163.701 146.673 159.519V129.619C146.673 125.438 143.271 122.036 139.089 122.036H82.7021C78.5201 122.036 75.1182 125.438 75.1182 129.619Z" fill="#008BBA"/>
<path d="M270.14 136.404C240.634 136.404 216.715 112.485 216.715 82.9806C216.715 53.4747 240.634 29.5568 270.14 29.5568C299.645 29.5568 323.564 53.4747 323.564 82.9806C323.564 112.485 299.645 136.404 270.14 136.404ZM270.14 26.0385C238.692 26.0385 213.198 51.532 213.198 82.9806C213.198 114.428 238.692 139.923 270.14 139.923C301.589 139.923 327.082 114.428 327.082 82.9806C327.082 51.532 301.589 26.0385 270.14 26.0385Z" fill="#008BBA"/>
<path d="M272.167 32.9732C271.494 32.9472 270.819 32.9327 270.14 32.9327L270.097 32.4127H270.14C270.825 32.4127 271.507 32.4272 272.188 32.4532L272.167 32.9732ZM263.908 33.3175L263.843 32.8016C264.532 32.7153 265.225 32.6446 265.923 32.5874L265.965 33.1053C265.276 33.1625 264.589 33.2332 263.908 33.3175ZM278.335 33.6014C277.658 33.4891 276.975 33.3913 276.288 33.3071L276.352 32.7912C277.047 32.8765 277.736 32.9753 278.42 33.0876L278.335 33.6014ZM257.812 34.4625L257.684 33.9591C258.358 33.7886 259.037 33.6305 259.72 33.488L259.827 33.9966C259.15 34.1391 258.478 34.2941 257.812 34.4625ZM284.38 34.9877C283.72 34.7932 283.055 34.6113 282.384 34.4428L282.511 33.9373C283.189 34.1079 283.86 34.292 284.526 34.4885L284.38 34.9877ZM251.908 36.3574L251.718 35.8738C252.366 35.62 253.02 35.3798 253.68 35.1531L253.849 35.644C253.196 35.8696 252.548 36.1067 251.908 36.3574ZM290.21 37.1187C289.574 36.841 288.93 36.5747 288.293 36.3272L288.482 35.8426C289.125 36.0922 289.776 36.3616 290.419 36.6424L290.21 37.1187ZM246.29 38.9699L246.042 38.5133C246.653 38.1826 247.27 37.8633 247.895 37.5565L248.125 38.0235C247.506 38.3271 246.894 38.6423 246.29 38.9699ZM295.727 39.96C295.131 39.6053 294.525 39.2601 293.926 38.9366L294.173 38.48C294.779 38.8066 295.391 39.155 295.992 39.5138L295.727 39.96ZM241.037 42.2615L240.734 41.8382C241.3 41.4336 241.874 41.0405 242.456 40.6589L242.741 41.0925C242.165 41.4711 241.596 41.86 241.037 42.2615ZM300.851 43.4606C300.308 43.0373 299.754 42.6255 299.192 42.224L299.495 41.7997C300.062 42.2053 300.625 42.6265 301.17 43.0509L300.851 43.4606ZM236.227 46.174L235.874 45.7923C236.386 45.3201 236.908 44.8584 237.439 44.408L237.775 44.8043C237.25 45.2505 236.733 45.707 236.227 46.174ZM305.502 47.5655C305.014 47.0787 304.516 46.6014 304.008 46.1345L304.36 45.7517C304.873 46.2228 305.376 46.7054 305.869 47.1984L305.502 47.5655ZM231.933 50.6532L231.536 50.3163C231.987 49.7848 232.448 49.2628 232.919 48.75L233.303 49.1005C232.836 49.6091 232.38 50.1259 231.933 50.6532ZM309.612 52.2091C309.188 51.6662 308.753 51.1306 308.307 50.6054L308.703 50.2695C309.153 50.7999 309.594 51.3397 310.023 51.8888L309.612 52.2091ZM228.223 55.6265L227.787 55.3415C228.17 54.7581 228.563 54.1819 228.968 53.6151L229.392 53.9178C228.99 54.4784 228.601 55.0483 228.223 55.6265ZM313.117 57.3217C312.762 56.7299 312.397 56.1465 312.021 55.5714L312.455 55.2864C312.836 55.8678 313.205 56.4575 313.564 57.0555L313.117 57.3217ZM225.155 61.022L224.687 60.7932C224.992 60.1682 225.315 59.5421 225.646 58.9327L226.102 59.1802C225.776 59.7834 225.456 60.4032 225.155 61.022ZM315.963 62.8254C315.685 62.1951 315.395 61.5711 315.092 60.9555L315.559 60.7246C315.865 61.3486 316.158 61.9788 316.439 62.6153L315.963 62.8254ZM222.779 66.7597L222.287 66.5912C222.514 65.9298 222.756 65.2673 223.008 64.6235L223.492 64.8129C223.244 65.4493 223.004 66.1045 222.779 66.7597ZM318.103 68.6431C317.908 67.989 317.695 67.3265 317.47 66.6744L317.961 66.5049C318.189 67.1643 318.404 67.834 318.601 68.4955L318.103 68.6431ZM221.141 72.7408L220.632 72.6357C220.774 71.9514 220.931 71.2723 221.1 70.5984L221.604 70.7252C221.437 71.3919 221.282 72.0648 221.141 72.7408ZM319.503 74.6845C319.388 74.0023 319.261 73.3242 319.12 72.6513L319.629 72.5452C319.772 73.2254 319.901 73.9097 320.015 74.5992L319.503 74.6845ZM220.258 78.8789L219.74 78.8372C219.797 78.1404 219.867 77.4468 219.952 76.7583L220.467 76.8217C220.384 77.5029 220.315 78.1893 220.258 78.8789ZM320.141 80.8528C320.113 80.1612 320.07 79.4727 320.013 78.7884L320.531 78.7457C320.589 79.4498 320.633 80.1518 320.661 80.8309L320.141 80.8528ZM320.664 85.0689L320.144 85.0481C320.172 84.3628 320.187 83.6732 320.187 82.9806H320.707C320.707 83.6795 320.692 84.3763 320.664 85.0689ZM219.616 85.1022C219.588 84.4085 219.573 83.7117 219.573 83.0118H220.093C220.093 83.7055 220.108 84.394 220.136 85.0804L219.616 85.1022ZM320.024 91.3027L319.511 91.2174C319.623 90.5393 319.722 89.8571 319.807 89.1696L320.323 89.2341C320.238 89.9278 320.137 90.6173 320.024 91.3027ZM220.26 91.3339C220.146 90.6485 220.045 89.9538 219.96 89.2664L220.477 89.2019C220.561 89.8883 220.66 90.5705 220.773 91.2486L220.26 91.3339ZM318.617 97.4085L318.12 97.2598C318.317 96.5963 318.501 95.9255 318.667 95.2661L319.171 95.3919C319.003 96.0596 318.818 96.7377 318.617 97.4085ZM221.671 97.4397C221.471 96.7699 221.284 96.0919 221.115 95.4242L221.62 95.2973C221.786 95.9577 221.971 96.6285 222.169 97.291L221.671 97.4397ZM316.458 103.296L315.983 103.086C316.257 102.467 316.524 101.823 316.778 101.172L317.263 101.361C317.005 102.019 316.735 102.671 316.458 103.296ZM223.829 103.317C223.549 102.681 223.281 102.033 223.03 101.392L223.514 101.202C223.762 101.837 224.028 102.479 224.305 103.107L223.829 103.317ZM313.584 108.871L313.138 108.604C313.486 108.022 313.831 107.416 314.163 106.804L314.621 107.052C314.285 107.671 313.935 108.283 313.584 108.871ZM226.7 108.88C226.344 108.284 226 107.68 225.667 107.067L226.125 106.819C226.454 107.425 226.795 108.023 227.147 108.615L226.7 108.88ZM310.042 114.044L309.632 113.724C310.056 113.18 310.469 112.627 310.871 112.065L311.294 112.368C310.888 112.936 310.47 113.494 310.042 114.044ZM230.24 114.049C229.813 113.499 229.396 112.942 228.99 112.376L229.412 112.074C229.814 112.633 230.227 113.186 230.65 113.728L230.24 114.049ZM305.892 118.74L305.524 118.372C306.013 117.885 306.49 117.387 306.958 116.879L307.341 117.232C306.867 117.745 306.385 118.247 305.892 118.74ZM234.391 118.743C233.898 118.25 233.416 117.748 232.943 117.236L233.326 116.884C233.793 117.39 234.271 117.888 234.758 118.375L234.391 118.743ZM301.196 122.889L300.878 122.478C301.411 122.064 301.95 121.625 302.482 121.175L302.819 121.571C302.281 122.026 301.736 122.469 301.196 122.889ZM239.089 122.894C238.538 122.464 237.998 122.025 237.466 121.575L237.802 121.178C238.328 121.624 238.864 122.059 239.409 122.483L239.089 122.894ZM296.029 126.426L295.762 125.979C296.353 125.626 296.938 125.261 297.513 124.884L297.798 125.319C297.215 125.7 296.626 126.069 296.029 126.426ZM244.265 126.434C243.665 126.076 243.073 125.706 242.49 125.324L242.774 124.889C243.352 125.267 243.937 125.633 244.53 125.987L244.265 126.434ZM290.465 129.296L290.256 128.82C290.886 128.543 291.511 128.253 292.128 127.95L292.356 128.418C291.732 128.723 291.101 129.016 290.465 129.296ZM249.839 129.306C249.206 129.029 248.566 128.732 247.94 128.425L248.169 127.959C248.789 128.262 249.421 128.554 250.048 128.83L249.839 129.306ZM284.584 131.453L284.436 130.954C285.099 130.757 285.755 130.546 286.407 130.323L286.575 130.815C285.914 131.042 285.243 131.256 284.584 131.453ZM255.727 131.463C255.067 131.268 254.397 131.054 253.736 130.827L253.904 130.335C254.555 130.557 255.212 130.768 255.875 130.964L255.727 131.463ZM278.479 132.862L278.393 132.349C279.077 132.236 279.754 132.109 280.428 131.969L280.533 132.477C279.853 132.62 279.168 132.748 278.479 132.862ZM261.833 132.867C261.152 132.755 260.462 132.626 259.779 132.484L259.885 131.975C260.56 132.115 261.244 132.243 261.919 132.355L261.833 132.867ZM272.244 133.504L272.224 132.984C272.917 132.956 273.605 132.913 274.288 132.858L274.331 133.376C273.639 133.432 272.945 133.475 272.244 133.504ZM268.067 133.506C267.367 133.477 266.673 133.435 265.981 133.379L266.024 132.86C266.707 132.916 267.395 132.958 268.087 132.986L268.067 133.506Z" fill="#5E7FC2"/>
<path d="M290.657 69.341L269.793 81.6161L248.408 69.3378C248.085 69.1517 247.672 69.264 247.486 69.5874C247.299 69.9109 247.412 70.3238 247.735 70.5099L269.461 82.9837C269.565 83.044 269.681 83.0742 269.797 83.0742C269.915 83.0742 270.034 83.0419 270.14 82.9806L291.342 70.5068C291.665 70.3175 291.772 69.9025 291.583 69.5812C291.393 69.2588 290.977 69.1517 290.657 69.341ZM294.26 96.0159C294.26 97.4397 293.101 98.5983 291.676 98.5983H247.917C246.493 98.5983 245.335 97.4397 245.335 96.0159V68.7794C245.335 67.3545 246.493 66.196 247.917 66.196H291.676C293.101 66.196 294.26 67.3545 294.26 68.7794V96.0159ZM291.676 64.844H247.917C245.748 64.844 243.983 66.6099 243.983 68.7794V96.0159C243.983 98.1854 245.748 99.9513 247.917 99.9513H291.676C293.847 99.9513 295.612 98.1854 295.612 96.0159V68.7794C295.612 66.6099 293.847 64.844 291.676 64.844Z" fill="#008BBA"/>
<path d="M419.643 227.146C390.137 227.146 366.218 203.227 366.218 173.723C366.218 144.217 390.137 120.298 419.643 120.298C449.148 120.298 473.067 144.217 473.067 173.723C473.067 203.227 449.148 227.146 419.643 227.146ZM419.643 116.781C388.195 116.781 362.7 142.274 362.7 173.723C362.7 205.17 388.195 230.665 419.643 230.665C451.091 230.665 476.585 205.17 476.585 173.723C476.585 142.274 451.091 116.781 419.643 116.781Z" fill="#008BBA"/>
<path d="M421.669 123.715C420.996 123.689 420.321 123.675 419.643 123.675L419.599 123.155H419.643C420.327 123.155 421.01 123.169 421.69 123.195L421.669 123.715ZM413.41 124.059L413.345 123.544C414.034 123.457 414.727 123.387 415.425 123.328L415.467 123.846C414.778 123.905 414.092 123.975 413.41 124.059ZM427.837 124.342C427.16 124.231 426.477 124.132 425.79 124.048L425.854 123.532C426.549 123.618 427.238 123.716 427.922 123.83L427.837 124.342ZM407.315 125.205L407.187 124.701C407.862 124.531 408.54 124.373 409.223 124.23L409.331 124.739C408.653 124.881 407.982 125.036 407.315 125.205ZM433.883 125.73C433.223 125.535 432.558 125.353 431.887 125.185L432.013 124.679C432.692 124.85 433.363 125.035 434.029 125.232L433.883 125.73ZM401.411 127.1L401.222 126.616C401.866 126.363 402.527 126.122 403.184 125.895L403.352 126.387C402.699 126.612 402.051 126.85 401.411 127.1ZM439.712 127.861C439.075 127.583 438.432 127.316 437.795 127.069L437.984 126.585C438.627 126.834 439.278 127.104 439.921 127.384L439.712 127.861ZM395.793 129.713L395.545 129.256C396.156 128.925 396.773 128.605 397.397 128.299L397.627 128.765C397.008 129.069 396.397 129.385 395.793 129.713ZM445.229 130.702C444.634 130.347 444.028 130.002 443.429 129.679L443.676 129.221C444.282 129.549 444.894 129.897 445.495 130.256L445.229 130.702ZM390.54 133.002L390.237 132.579C390.809 132.169 391.389 131.772 391.96 131.399L392.244 131.835C391.68 132.204 391.105 132.597 390.54 133.002ZM450.352 134.203C449.809 133.779 449.255 133.366 448.693 132.966L448.996 132.542C449.563 132.947 450.126 133.369 450.671 133.792L450.352 134.203ZM385.73 136.917L385.378 136.534C385.892 136.061 386.418 135.595 386.943 135.15L387.28 135.547C386.753 135.994 386.237 136.45 385.73 136.917ZM455.004 138.307C454.516 137.821 454.018 137.343 453.511 136.876L453.862 136.494C454.375 136.965 454.878 137.447 455.371 137.94L455.004 138.307ZM381.437 141.395L381.04 141.058C381.49 140.528 381.956 140 382.425 139.491L382.806 139.844C382.343 140.347 381.882 140.869 381.437 141.395ZM459.114 142.951C458.69 142.408 458.255 141.874 457.809 141.348L458.205 141.011C458.655 141.543 459.095 142.083 459.525 142.632L459.114 142.951ZM377.725 146.369L377.29 146.084C377.672 145.5 378.066 144.924 378.472 144.357L378.894 144.66C378.493 145.22 378.103 145.79 377.725 146.369ZM462.619 148.064C462.264 147.472 461.899 146.889 461.522 146.313L461.956 146.028C462.338 146.61 462.707 147.2 463.066 147.796L462.619 148.064ZM374.658 151.765L374.191 151.536C374.499 150.908 374.817 150.287 375.15 149.675L375.606 149.923C375.279 150.53 374.962 151.143 374.658 151.765ZM465.465 153.567C465.188 152.937 464.899 152.313 464.595 151.696L465.062 151.468C465.368 152.091 465.661 152.721 465.941 153.357L465.465 153.567ZM372.284 157.503L371.792 157.334C372.017 156.675 372.259 156.013 372.511 155.367L372.996 155.555C372.746 156.196 372.507 156.851 372.284 157.503ZM467.606 159.385C467.411 158.731 467.197 158.069 466.973 157.416L467.464 157.247C467.692 157.906 467.907 158.576 468.104 159.236L467.606 159.385ZM370.644 163.484L370.134 163.378C370.275 162.697 370.433 162.011 370.604 161.34L371.107 161.468C370.94 162.132 370.783 162.81 370.644 163.484ZM469.006 165.427C468.89 164.744 468.763 164.067 468.622 163.394L469.131 163.287C469.274 163.967 469.403 164.652 469.517 165.341L469.006 165.427ZM369.762 169.622L369.244 169.58C369.301 168.877 369.372 168.177 369.456 167.5L369.972 167.565C369.888 168.235 369.818 168.927 369.762 169.622ZM469.644 171.595C469.616 170.903 469.573 170.215 469.516 169.53L470.034 169.488C470.092 170.192 470.136 170.894 470.164 171.574L469.644 171.595ZM470.166 175.811L469.646 175.789C469.674 175.105 469.689 174.415 469.689 173.723H470.209C470.209 174.421 470.194 175.118 470.166 175.811ZM369.12 175.844C369.091 175.151 369.077 174.455 369.076 173.755L369.596 173.754C369.597 174.446 369.611 175.136 369.64 175.822L369.12 175.844ZM469.528 182.044L469.014 181.958C469.126 181.281 469.225 180.599 469.31 179.912L469.826 179.976C469.741 180.67 469.64 181.359 469.528 182.044ZM369.763 182.076C369.649 181.392 369.548 180.702 369.462 180.008L369.978 179.944C370.064 180.63 370.163 181.313 370.276 181.991L369.763 182.076ZM468.12 188.151L467.622 188.002C467.819 187.338 468.003 186.668 468.169 186.008L468.673 186.135C468.505 186.802 468.32 187.48 468.12 188.151ZM371.174 188.182C370.976 187.516 370.791 186.844 370.618 186.167L371.123 186.039C371.293 186.709 371.475 187.375 371.672 188.034L371.174 188.182ZM465.96 194.039L465.485 193.829C465.759 193.209 466.026 192.565 466.28 191.914L466.764 192.104C466.508 192.762 466.237 193.413 465.96 194.039ZM373.333 194.059C373.052 193.424 372.786 192.783 372.532 192.135L373.016 191.944C373.267 192.586 373.532 193.222 373.808 193.85L373.333 194.059ZM463.086 199.613L462.64 199.346C462.988 198.764 463.333 198.158 463.665 197.546L464.122 197.794C463.787 198.413 463.437 199.025 463.086 199.613ZM376.203 199.623C375.848 199.027 375.503 198.423 375.171 197.81L375.628 197.561C375.957 198.167 376.298 198.766 376.65 199.357L376.203 199.623ZM459.545 204.786L459.135 204.466C459.559 203.923 459.972 203.369 460.375 202.807L460.797 203.11C460.39 203.68 459.968 204.244 459.545 204.786ZM379.743 204.792C379.316 204.242 378.899 203.685 378.493 203.118L378.917 202.816C379.317 203.376 379.73 203.928 380.153 204.471L379.743 204.792ZM455.393 209.482L455.025 209.114C455.514 208.627 455.991 208.129 456.459 207.621L456.841 207.974C456.369 208.487 455.886 208.989 455.393 209.482ZM383.894 209.485C383.403 208.995 382.915 208.488 382.446 207.978L382.828 207.626C383.296 208.132 383.773 208.63 384.261 209.118L383.894 209.485ZM450.698 213.631L450.38 213.221C450.913 212.806 451.452 212.367 451.984 211.917L452.321 212.313C451.783 212.768 451.238 213.211 450.698 213.631ZM388.591 213.635C388.041 213.206 387.5 212.766 386.968 212.317L387.303 211.92C387.83 212.366 388.366 212.801 388.91 213.225L388.591 213.635ZM445.531 217.168L445.266 216.721C445.856 216.368 446.441 216.003 447.016 215.626L447.301 216.061C446.718 216.442 446.129 216.811 445.531 217.168ZM393.767 217.176C393.168 216.818 392.577 216.448 391.993 216.067L392.276 215.631C392.855 216.009 393.44 216.375 394.033 216.73L393.767 217.176ZM439.967 220.039L439.758 219.563C440.388 219.285 441.013 218.995 441.63 218.693L441.858 219.16C441.234 219.465 440.603 219.758 439.967 220.039ZM399.342 220.048C398.703 219.768 398.07 219.474 397.442 219.167L397.67 218.701C398.292 219.004 398.918 219.294 399.552 219.572L399.342 220.048ZM434.087 222.196L433.938 221.697C434.601 221.5 435.258 221.289 435.909 221.067L436.077 221.558C435.416 221.785 434.745 221.999 434.087 222.196ZM405.23 222.205C404.57 222.01 403.901 221.796 403.238 221.569L403.408 221.077C404.059 221.299 404.714 221.51 405.377 221.706L405.23 222.205ZM427.981 223.604L427.894 223.091C428.579 222.978 429.256 222.851 429.93 222.711L430.035 223.219C429.356 223.362 428.67 223.49 427.981 223.604ZM411.338 223.609C410.658 223.498 409.967 223.369 409.283 223.227L409.389 222.717C410.062 222.857 410.739 222.984 411.423 223.097L411.338 223.609ZM421.747 224.247L421.727 223.727C422.42 223.699 423.108 223.656 423.792 223.6L423.834 224.118C423.143 224.175 422.448 224.218 421.747 224.247ZM417.57 224.248C416.87 224.22 416.176 224.177 415.484 224.121L415.527 223.603C416.21 223.658 416.898 223.701 417.59 223.728L417.57 224.248Z" fill="#5E7FC2"/>
<path d="M413.085 186.01C412.495 186.01 411.94 186.24 411.523 186.658L404.603 193.577C404.154 194.026 403.927 194.621 403.96 195.256C403.993 195.888 404.295 196.478 404.788 196.877C416.498 206.34 433.372 205.436 444.036 194.774C454.701 184.11 455.604 167.237 446.139 155.525C445.742 155.032 445.15 154.73 444.519 154.697C443.892 154.666 443.29 154.891 442.841 155.34L435.921 162.26C435.503 162.677 435.273 163.232 435.273 163.822C435.273 164.412 435.503 164.967 435.92 165.383L442 171.463C443.387 172.851 443.388 175.11 442 176.498L425.763 192.736C424.416 194.083 422.068 194.081 420.726 192.736L414.647 186.658C414.23 186.241 413.676 186.01 413.085 186.01ZM423.233 204.769C416.431 204.769 409.607 202.51 403.938 197.928C403.148 197.289 402.664 196.342 402.61 195.328C402.556 194.32 402.934 193.334 403.646 192.622L410.566 185.702C411.911 184.358 414.257 184.356 415.604 185.701L421.683 191.78C422.516 192.615 423.973 192.616 424.806 191.78L441.043 175.543C441.904 174.682 441.904 173.28 441.043 172.419L434.964 166.34C434.293 165.668 433.921 164.773 433.921 163.822C433.921 162.87 434.293 161.976 434.964 161.303L441.885 154.384C441.885 154.384 441.885 154.384 441.885 154.383C442.596 153.671 443.564 153.289 444.591 153.347C445.605 153.4 446.552 153.885 447.192 154.675C457.093 166.926 456.147 184.576 444.993 195.73C439.001 201.722 431.131 204.768 423.233 204.769Z" fill="#008BBA"/>
<path d="M410.258 175.442C410.251 175.442 410.242 175.442 410.234 175.442C409.93 175.43 409.671 175.218 409.602 174.923L404.695 154.354L401.812 166.2C401.738 166.503 401.467 166.716 401.156 166.716H387.604C387.23 166.716 386.928 166.414 386.928 166.04C386.928 165.667 387.23 165.364 387.604 165.364H400.625L404.044 151.308C404.118 151.004 404.399 150.781 404.703 150.792C405.014 150.792 405.286 151.007 405.359 151.311L410.351 172.241L412.4 165.787C412.489 165.507 412.75 165.316 413.044 165.316H423.807C424.181 165.316 424.483 165.619 424.483 165.991C424.483 166.365 424.181 166.667 423.807 166.667H413.539L410.903 174.971C410.813 175.252 410.552 175.442 410.258 175.442Z" fill="#008BBA"/>
<path d="M326.214 328.943H97.5868C95.9594 328.943 94.6399 327.623 94.6399 325.995V324.869C94.6399 323.242 95.9594 321.923 97.5868 321.923H326.214C327.84 321.923 329.16 323.242 329.16 324.869V325.995C329.16 327.623 327.84 328.943 326.214 328.943Z" fill="#863A2D"/>
<path d="M259.927 328.943H92.7473C91.3514 328.943 90.22 327.811 90.22 326.414V324.45C90.22 323.054 91.3514 321.923 92.7473 321.923H259.927C261.323 321.923 262.454 323.054 262.454 324.45V326.414C262.454 327.811 261.323 328.943 259.927 328.943Z" fill="#AA5E35"/>
</g>
<defs>
<clipPath id="clip0_679_202">
<rect width="520" height="520" rx="12" fill="white"/>
</clipPath>
</defs>
</svg>
