<svg width="94" height="94" viewBox="0 0 94 94" fill="none" xmlns="http://www.w3.org/2000/svg">
<circle cx="47" cy="47" r="47" fill="url(#paint0_linear_625_7284)"/>
<path d="M65.4166 32.9166H44.3674L43.1541 30.4141C42.8876 29.8651 42.4719 29.4022 41.9546 29.0784C41.4373 28.7546 40.8393 28.583 40.2291 28.5833H28.5833C27.7213 28.5833 26.8946 28.9257 26.2852 29.5352C25.6757 30.1446 25.3333 30.9713 25.3333 31.8333V62.1666C25.3333 63.0285 25.6757 63.8552 26.2852 64.4647C26.8946 65.0742 27.7213 65.4166 28.5833 65.4166H65.4166C66.2785 65.4166 67.1052 65.0742 67.7147 64.4647C68.3242 63.8552 68.6666 63.0285 68.6666 62.1666V36.1666C68.6666 35.3046 68.3242 34.478 67.7147 33.8685C67.1052 33.259 66.2785 32.9166 65.4166 32.9166ZM66.4999 62.1666C66.4999 62.4539 66.3858 62.7295 66.1826 62.9326C65.9795 63.1358 65.7039 63.2499 65.4166 63.2499H28.5833C28.2959 63.2499 28.0204 63.1358 27.8172 62.9326C27.6141 62.7295 27.4999 62.4539 27.4999 62.1666V31.8333C27.4999 31.5459 27.6141 31.2704 27.8172 31.0672C28.0204 30.8641 28.2959 30.7499 28.5833 30.7499H40.2291C40.4321 30.7495 40.6312 30.8062 40.8036 30.9134C40.976 31.0207 41.1147 31.1743 41.2041 31.3566L44.2266 37.5858C44.4931 38.1348 44.9087 38.5976 45.426 38.9214C45.9433 39.2452 46.5413 39.4168 47.1516 39.4166H63.2499C63.5372 39.4166 63.8128 39.3024 64.0159 39.0993C64.2191 38.8961 64.3332 38.6206 64.3332 38.3333C64.3332 38.0459 64.2191 37.7704 64.0159 37.5672C63.8128 37.3641 63.5372 37.2499 63.2499 37.2499H47.1516C46.9485 37.2503 46.7495 37.1937 46.5771 37.0864C46.4047 36.9791 46.2659 36.8256 46.1766 36.6433L45.4183 35.0833H65.4166C65.7039 35.0833 65.9795 35.1974 66.1826 35.4006C66.3858 35.6037 66.4999 35.8793 66.4999 36.1666V62.1666ZM57.8332 54.5833H45.7216C45.4939 53.9558 45.0785 53.4137 44.5319 53.0307C43.9853 52.6476 43.334 52.4421 42.6666 52.4421C41.9991 52.4421 41.3478 52.6476 40.8013 53.0307C40.2547 53.4137 39.8393 53.9558 39.6116 54.5833H36.1666C35.8793 54.5833 35.6037 54.6974 35.4006 54.9006C35.1974 55.1037 35.0833 55.3793 35.0833 55.6666C35.0833 55.9539 35.1974 56.2295 35.4006 56.4326C35.6037 56.6358 35.8793 56.7499 36.1666 56.7499H39.6116C39.8393 57.3773 40.2547 57.9194 40.8013 58.3025C41.3478 58.6856 41.9991 58.8911 42.6666 58.8911C43.334 58.8911 43.9853 58.6856 44.5319 58.3025C45.0785 57.9194 45.4939 57.3773 45.7216 56.7499H57.8332C58.1206 56.7499 58.3961 56.6358 58.5993 56.4326C58.8024 56.2295 58.9166 55.9539 58.9166 55.6666C58.9166 55.3793 58.8024 55.1037 58.5993 54.9006C58.3961 54.6974 58.1206 54.5833 57.8332 54.5833ZM42.6666 56.7499C42.4523 56.7499 42.2429 56.6864 42.0647 56.5673C41.8866 56.4483 41.7477 56.2791 41.6657 56.0812C41.5837 55.8832 41.5623 55.6654 41.6041 55.4552C41.6459 55.2451 41.749 55.0521 41.9006 54.9006C42.0521 54.749 42.2451 54.6459 42.4552 54.6041C42.6654 54.5623 42.8832 54.5837 43.0812 54.6657C43.2791 54.7477 43.4483 54.8866 43.5673 55.0647C43.6864 55.2429 43.7499 55.4523 43.7499 55.6666C43.7499 55.9539 43.6358 56.2295 43.4326 56.4326C43.2295 56.6358 42.9539 56.7499 42.6666 56.7499ZM57.8332 45.9166H54.3883C54.1605 45.2892 53.7452 44.7471 53.1986 44.364C52.652 43.9809 52.0007 43.7754 51.3333 43.7754C50.6658 43.7754 50.0145 43.9809 49.4679 44.364C48.9213 44.7471 48.506 45.2892 48.2782 45.9166H36.1666C35.8793 45.9166 35.6037 46.0307 35.4006 46.2339C35.1974 46.437 35.0833 46.7126 35.0833 46.9999C35.0833 47.2872 35.1974 47.5628 35.4006 47.766C35.6037 47.9691 35.8793 48.0833 36.1666 48.0833H48.2782C48.506 48.7107 48.9213 49.2528 49.4679 49.6358C50.0145 50.0189 50.6658 50.2244 51.3333 50.2244C52.0007 50.2244 52.652 50.0189 53.1986 49.6358C53.7452 49.2528 54.1605 48.7107 54.3883 48.0833H57.8332C58.1206 48.0833 58.3961 47.9691 58.5993 47.766C58.8024 47.5628 58.9166 47.2872 58.9166 46.9999C58.9166 46.7126 58.8024 46.437 58.5993 46.2339C58.3961 46.0307 58.1206 45.9166 57.8332 45.9166ZM51.3333 48.0833C51.119 48.0833 50.9095 48.0197 50.7314 47.9007C50.5532 47.7816 50.4144 47.6124 50.3324 47.4145C50.2504 47.2165 50.2289 46.9987 50.2707 46.7886C50.3125 46.5784 50.4157 46.3854 50.5672 46.2339C50.7187 46.0824 50.9118 45.9792 51.1219 45.9374C51.332 45.8956 51.5499 45.9171 51.7478 45.999C51.9458 46.081 52.115 46.2199 52.234 46.398C52.353 46.5762 52.4166 46.7857 52.4166 46.9999C52.4166 47.2872 52.3024 47.5628 52.0993 47.766C51.8961 47.9691 51.6206 48.0833 51.3333 48.0833Z" fill="white"/>
<defs>
<linearGradient id="paint0_linear_625_7284" x1="47" y1="0" x2="47" y2="94" gradientUnits="userSpaceOnUse">
<stop stop-color="#40C8F7"/>
<stop offset="1" stop-color="#008BBA"/>
</linearGradient>
</defs>
</svg>
