<svg width="112" height="112" viewBox="0 0 112 112" fill="none" xmlns="http://www.w3.org/2000/svg">
<g filter="url(#filter0_d_1004_266)">
<circle cx="56" cy="56" r="42" fill="white"/>
</g>
<path d="M74.14 46.46L64.8 36.9C64.521 36.6153 64.188 36.3891 63.8206 36.2346C63.4532 36.0801 63.0586 36.0003 62.66 36H48C47.2044 36 46.4413 36.3161 45.8787 36.8787C45.3161 37.4413 45 38.2044 45 39V40H44C43.2044 40 42.4413 40.3161 41.8787 40.8787C41.3161 41.4413 41 42.2044 41 43V48C41 48.2652 41.1054 48.5196 41.2929 48.7071C41.4804 48.8946 41.7348 49 42 49C42.2652 49 42.5196 48.8946 42.7071 48.7071C42.8946 48.5196 43 48.2652 43 48V43C43 42.7348 43.1054 42.4804 43.2929 42.2929C43.4804 42.1054 43.7348 42 44 42H45V69C45 69.7957 45.3161 70.5587 45.8787 71.1213C46.4413 71.6839 47.2044 72 48 72H69V73C69 73.2652 68.8946 73.5196 68.7071 73.7071C68.5196 73.8946 68.2652 74 68 74H44C43.7348 74 43.4804 73.8946 43.2929 73.7071C43.1054 73.5196 43 73.2652 43 73V52C43 51.7348 42.8946 51.4804 42.7071 51.2929C42.5196 51.1054 42.2652 51 42 51C41.7348 51 41.4804 51.1054 41.2929 51.2929C41.1054 51.4804 41 51.7348 41 52V73C41 73.7957 41.3161 74.5587 41.8787 75.1213C42.4413 75.6839 43.2044 76 44 76H68C68.7956 76 69.5587 75.6839 70.1213 75.1213C70.6839 74.5587 71 73.7957 71 73V72H72C72.7956 72 73.5587 71.6839 74.1213 71.1213C74.6839 70.5587 75 69.7957 75 69V48.55C75.0022 48.162 74.9272 47.7775 74.7796 47.4187C74.632 47.06 74.4146 46.7341 74.14 46.46ZM65 40L71.88 47H66C65.7348 47 65.4804 46.8946 65.2929 46.7071C65.1054 46.5196 65 46.2652 65 46V40ZM73 69C73 69.2652 72.8946 69.5196 72.7071 69.7071C72.5196 69.8946 72.2652 70 72 70H48C47.7348 70 47.4804 69.8946 47.2929 69.7071C47.1054 69.5196 47 69.2652 47 69V39C47 38.7348 47.1054 38.4804 47.2929 38.2929C47.4804 38.1054 47.7348 38 48 38H62.66C62.7765 38.0033 62.8916 38.027 63 38.07V46C63 46.7956 63.3161 47.5587 63.8787 48.1213C64.4413 48.6839 65.2044 49 66 49H73V69ZM65.71 56.29C65.8037 56.383 65.8781 56.4936 65.9289 56.6154C65.9797 56.7373 66.0058 56.868 66.0058 57C66.0058 57.132 65.9797 57.2627 65.9289 57.3846C65.8781 57.5064 65.8037 57.617 65.71 57.71C65.617 57.8037 65.5064 57.8781 65.3846 57.9289C65.2627 57.9797 65.132 58.0058 65 58.0058C64.868 58.0058 64.7373 57.9797 64.6154 57.9289C64.4936 57.8781 64.383 57.8037 64.29 57.71L61 54.41V65C61 65.2652 60.8946 65.5196 60.7071 65.7071C60.5196 65.8946 60.2652 66 60 66C59.7348 66 59.4804 65.8946 59.2929 65.7071C59.1054 65.5196 59 65.2652 59 65V54.41L55.71 57.71C55.5217 57.8983 55.2663 58.0041 55 58.0041C54.7337 58.0041 54.4783 57.8983 54.29 57.71C54.1017 57.5217 53.9959 57.2663 53.9959 57C53.9959 56.7337 54.1017 56.4783 54.29 56.29L59.29 51.29C59.383 51.1963 59.4936 51.1219 59.6154 51.0711C59.7373 51.0203 59.868 50.9942 60 50.9942C60.132 50.9942 60.2627 51.0203 60.3846 51.0711C60.5064 51.1219 60.617 51.1963 60.71 51.29L65.71 56.29Z" fill="#008BBA"/>
<defs>
<filter id="filter0_d_1004_266" x="0" y="0" width="112" height="112" filterUnits="userSpaceOnUse" color-interpolation-filters="sRGB">
<feFlood flood-opacity="0" result="BackgroundImageFix"/>
<feColorMatrix in="SourceAlpha" type="matrix" values="0 0 0 0 0 0 0 0 0 0 0 0 0 0 0 0 0 0 127 0" result="hardAlpha"/>
<feOffset/>
<feGaussianBlur stdDeviation="7"/>
<feComposite in2="hardAlpha" operator="out"/>
<feColorMatrix type="matrix" values="0 0 0 0 0 0 0 0 0 0 0 0 0 0 0 0 0 0 0.12 0"/>
<feBlend mode="normal" in2="BackgroundImageFix" result="effect1_dropShadow_1004_266"/>
<feBlend mode="normal" in="SourceGraphic" in2="effect1_dropShadow_1004_266" result="shape"/>
</filter>
</defs>
</svg>
