<svg width="134" height="44" viewBox="0 0 134 44" fill="none" xmlns="http://www.w3.org/2000/svg">
<path d="M39.6229 22.0086H43.1797C43.1695 21.3724 43.0059 20.8835 42.69 20.5374C42.3741 20.1934 41.9478 20.0194 41.4101 20.0194C40.8724 20.0194 40.4511 20.1935 40.1475 20.5374C39.8416 20.8835 39.6678 21.3724 39.6229 22.0086ZM12.5074 15.6306H10.7521V28.2913H12.0953C13.9253 28.2913 15.2676 27.7525 16.1223 26.6771C16.9759 25.5996 17.4033 23.9522 17.4033 21.7371C17.4033 19.665 16.9994 18.1296 16.1907 17.1287C15.3821 16.13 14.1544 15.6306 12.5074 15.6306ZM23.3411 0.000496084H0V44H23.341C35.331 44 49.15 37.0127 48.7808 22.0002C48.3066 6.51127 36.5885 -0.0658118 23.3411 0.000496084ZM20.5838 30.239C18.5351 32.2801 15.6541 33.2995 11.943 33.2995H4.72729V10.699H12.446C16.0253 10.699 18.7887 11.6273 20.7372 13.4818C22.6837 15.3363 23.6579 18.0177 23.6579 21.5195C23.6581 25.293 22.6327 28.2 20.5838 30.239ZM34.9211 27.8292H32.9766L32.6361 26.6254H32.5022C32.2313 27.0626 31.8458 27.4024 31.348 27.6407C30.849 27.879 30.2818 27.9971 29.6438 27.9971C28.553 27.9971 27.73 27.7029 27.176 27.1102C26.6219 26.5175 26.3447 25.6659 26.3447 24.5532V18.4135H28.8801V23.913C28.8801 24.5926 28.9987 25.1024 29.237 25.4422C29.4753 25.7819 29.8545 25.9519 30.3759 25.9519C31.0843 25.9519 31.5976 25.7115 31.9124 25.2308C32.2283 24.75 32.3868 23.9543 32.3868 22.8437V18.4135H34.9211V27.8292ZM45.5565 22.4706V23.718H39.5656C39.5932 24.4474 39.8058 25.0173 40.2046 25.4276C40.6044 25.8379 41.1635 26.0409 41.8832 26.0409C42.4435 26.0409 42.972 25.9828 43.471 25.8648C43.9699 25.7468 44.4902 25.5581 45.0332 25.3012V27.2883C44.5894 27.5122 44.1161 27.6799 43.6122 27.7897C43.1082 27.8995 42.4927 27.9534 41.7678 27.9534C40.2711 27.9534 39.1026 27.5348 38.2601 26.6976C37.4177 25.8626 36.9976 24.6774 36.9976 23.1439C36.9976 21.567 37.3861 20.3465 38.1651 19.4845C38.9431 18.6225 40.0197 18.1915 41.3937 18.1915C42.7063 18.1915 43.7288 18.5707 44.4597 19.3291C45.1915 20.0878 45.5565 21.1341 45.5565 22.4706ZM123.639 19.4226L133.389 8.41762H124.212L115.227 19.3066V8.41762H107.274V35.581H115.227V28.9171L118.209 25.583L124.48 35.581H134L123.639 19.4226ZM61.095 25.0795H73.7505V18.8797H61.095V14.6173H75.0509V8.41748H53.1411V35.5809H75.4332V29.3811H61.095V25.0795ZM89.3463 15.5291C90.3144 14.9096 91.3982 14.5987 92.5964 14.5987C93.6923 14.5987 94.8199 14.9281 95.9802 15.5871C97.1395 16.2461 98.1405 17.1432 98.9819 18.2809L103.57 12.738C102.219 11.2667 100.537 10.0919 98.523 9.21331C96.5091 8.33473 94.495 7.89538 92.482 7.89538C89.7544 7.89538 87.2946 8.50249 85.1027 9.71672C82.9097 10.9309 81.1892 12.6032 79.9409 14.7333C78.6916 16.8655 78.067 19.2485 78.067 21.8842C78.067 24.5697 78.6795 26.9983 79.9021 29.1677C81.1259 31.3372 82.8148 33.0364 84.9688 34.2631C87.1219 35.4919 89.5377 36.1053 92.2141 36.1053C94.2271 36.1053 96.2605 35.6266 98.3133 34.6713C100.364 33.7161 102.117 32.4355 103.57 30.8336L98.9819 25.875C98.0648 26.8572 97.0252 27.6322 95.8657 28.1999C94.7054 28.7676 93.6156 29.0516 92.5964 29.0516C91.3982 29.0516 90.3144 28.7366 89.3463 28.1026C88.3772 27.4685 87.6124 26.6044 87.0522 25.5062C86.491 24.408 86.2108 23.1751 86.2108 21.8054C86.2108 20.4378 86.491 19.2029 87.0522 18.1047C87.6124 17.0086 88.3772 16.1486 89.3463 15.5291Z" fill="white"/>
</svg>
