<svg width="122" height="40" viewBox="0 0 122 40" fill="none" xmlns="http://www.w3.org/2000/svg">
<g clip-path="url(#clip0_610_30)">
<path d="M36.0746 20.0079H39.3128C39.3035 19.4299 39.1546 18.9857 38.867 18.6712C38.5794 18.3587 38.1912 18.2006 37.7017 18.2006C37.2121 18.2006 36.8286 18.3588 36.5522 18.6712C36.2737 18.9857 36.1155 19.4299 36.0746 20.0079ZM11.3873 14.2134H9.78919V25.7157H11.0122C12.6782 25.7157 13.9004 25.2262 14.6785 24.2492C15.4556 23.2703 15.8448 21.7736 15.8448 19.7612C15.8448 17.8787 15.4771 16.4838 14.7408 15.5745C14.0046 14.6671 12.8868 14.2134 11.3873 14.2134ZM21.2509 0.0133901H0V39.9871H21.2508C32.167 39.9871 44.7485 33.6392 44.4124 20.0003C43.9806 5.92845 33.312 -0.0468508 21.2509 0.0133901ZM18.7405 27.4852C16.8752 29.3395 14.2522 30.2657 10.8735 30.2657H4.30396V9.73303H11.3315C14.5902 9.73303 17.1061 10.5764 18.8801 12.2612C20.6523 13.946 21.5393 16.3821 21.5393 19.5635C21.5394 22.9917 20.6058 25.6328 18.7405 27.4852ZM31.7939 25.2959H30.0234L29.7134 24.2022H29.5916C29.3449 24.5994 28.9939 24.9081 28.5407 25.1246C28.0864 25.3411 27.57 25.4485 26.9892 25.4485C25.996 25.4485 25.2467 25.1811 24.7423 24.6427C24.2379 24.1042 23.9855 23.3305 23.9855 22.3197V16.7417H26.2939V21.738C26.2939 22.3554 26.4018 22.8186 26.6188 23.1272C26.8357 23.4359 27.181 23.5904 27.6556 23.5904C28.3007 23.5904 28.7679 23.3719 29.0546 22.9352C29.3422 22.4985 29.4865 21.7756 29.4865 20.7665V16.7417H31.7939V25.2959ZM41.4768 20.4276V21.5609H36.0224C36.0475 22.2235 36.2411 22.7412 36.6042 23.114C36.9681 23.4868 37.4772 23.6712 38.1325 23.6712C38.6425 23.6712 39.1238 23.6185 39.578 23.5112C40.0323 23.404 40.506 23.2325 41.0003 22.9992V24.8045C40.5963 25.0079 40.1654 25.1603 39.7066 25.26C39.2478 25.3598 38.6873 25.4087 38.0274 25.4087C36.6647 25.4087 35.6009 25.0285 34.8339 24.2679C34.0668 23.5092 33.6844 22.4324 33.6844 21.0393C33.6844 19.6066 34.0381 18.4979 34.7474 17.7147C35.4557 16.9316 36.4358 16.54 37.6868 16.54C38.8819 16.54 39.8127 16.8845 40.4783 17.5735C41.1445 18.2628 41.4768 19.2134 41.4768 20.4276ZM112.567 17.6585L121.444 7.66038H113.089L104.908 17.553V7.66038H97.6676V32.3385H104.908V26.2842L107.623 23.2552L113.333 32.3385H122L112.567 17.6585ZM55.6238 22.7977H67.146V17.1652H55.6238V13.2928H68.3299V7.66026H48.3822V32.3383H68.678V26.7058H55.6238V22.7977ZM81.3452 14.1212C82.2266 13.5583 83.2133 13.2759 84.3041 13.2759C85.3019 13.2759 86.3286 13.5752 87.385 14.1739C88.4405 14.7725 89.3518 15.5876 90.1179 16.6212L94.2953 11.5854C93.0648 10.2488 91.5336 9.18146 89.7 8.38327C87.8665 7.58508 86.0328 7.18592 84.2 7.18592C81.7167 7.18592 79.4772 7.73749 77.4816 8.84062C75.485 9.94375 73.9185 11.463 72.7821 13.3982C71.6446 15.3353 71.076 17.5003 71.076 19.8948C71.076 22.3346 71.6335 24.541 72.7467 26.5119C73.8609 28.4829 75.3985 30.0266 77.3597 31.1411C79.3199 32.2575 81.5194 32.8147 83.9561 32.8147C85.7889 32.8147 87.6402 32.3799 89.5092 31.5119C91.3763 30.6441 92.9726 29.4807 94.2953 28.0254L90.1179 23.5205C89.2829 24.4128 88.3363 25.1169 87.2808 25.6327C86.2243 26.1485 85.2321 26.4064 84.3041 26.4064C83.2133 26.4064 82.2266 26.1203 81.3452 25.5442C80.4628 24.9682 79.7666 24.1832 79.2565 23.1854C78.7455 22.1877 78.4904 21.0676 78.4904 19.8233C78.4904 18.5807 78.7455 17.4588 79.2565 16.4611C79.7666 15.4653 80.4628 14.684 81.3452 14.1212Z" fill="#0789B5"/>
</g>
<defs>
<clipPath id="clip0_610_30">
<rect width="122" height="40" fill="white"/>
</clipPath>
</defs>
</svg>
