<svg width="314" height="319" viewBox="0 0 314 319" fill="none" xmlns="http://www.w3.org/2000/svg">
<mask id="mask0_752_54" style="mask-type:alpha" maskUnits="userSpaceOnUse" x="0" y="0" width="314" height="319">
<rect width="314" height="319" fill="#D9D9D9"/>
</mask>
<g mask="url(#mask0_752_54)">
<path d="M-59 374H360V-45H-59V374Z" fill="white"/>
<path d="M299.511 232.158C294.462 220.673 284.764 211.089 273.116 206.373C260.984 201.46 247.052 203.247 234.273 201.602C223.173 200.172 215.166 195.217 208.538 186.407C202.188 177.967 196.496 168.619 186.113 164.714C177.909 161.63 168.582 162.485 160.428 165.7C145.404 171.623 134.056 184.218 124.499 196.767C115.774 208.225 108.656 220.77 92.5167 221.178C85.2129 221.365 78.0675 219.582 70.9269 217.799C62.2787 215.639 53.6377 213.479 44.731 214.818C23.2397 218.044 5.34166 235.935 1.59119 257.233C-1.9238 277.194 6.89657 296.556 22.0495 307.932H282.504C301.598 287.676 311.618 259.695 299.511 232.158Z" fill="#ECEFF0"/>
<path d="M64.0641 307.932H64.7806C69.7564 302.462 73.6542 295.825 76.1319 288.459C80.1424 276.536 79.9733 264.023 75.656 253.225C73.474 247.77 70.3233 242.683 67.2764 237.764C64.186 232.778 60.991 227.62 58.8222 222.092C57.9256 219.808 57.2633 217.353 56.8648 214.849C56.6853 214.826 56.5056 214.807 56.3258 214.786C56.7264 217.378 57.4072 219.919 58.3349 222.284C60.5206 227.855 63.7285 233.034 66.8312 238.041C69.8662 242.941 73.0047 248.007 75.1695 253.42C79.4408 264.103 79.6063 276.488 75.6354 288.294C73.1271 295.75 69.1476 302.45 64.0641 307.932" fill="white"/>
<path d="M281.245 285.216C286.612 286.36 291.783 287.386 296.786 288.032C296.871 287.866 296.953 287.699 297.039 287.533C291.996 286.892 286.776 285.859 281.356 284.705C273.102 282.945 264.166 281.043 255.307 281.043C249.82 281.043 244.362 281.772 239.112 283.718C237.122 284.456 235.205 285.39 233.38 286.504C228.639 284.483 223.873 282.277 219.153 279.857C222.579 277.276 226.039 274.747 229.54 272.305C255.512 254.168 279.483 243.886 302.641 240.968C302.595 240.798 302.547 240.628 302.499 240.458C279.278 243.4 255.256 253.709 229.239 271.875C225.667 274.37 222.132 276.953 218.636 279.589C213.325 276.847 208.081 273.832 203.003 270.505C193.795 264.471 182.841 255.859 173.275 244.416C210.346 240.255 248.087 235.016 278.909 214.418C280.078 213.634 281.375 212.712 282.718 211.667C282.569 211.56 282.42 211.457 282.269 211.353C280.983 212.35 279.741 213.23 278.618 213.982C247.804 234.576 209.992 239.776 172.875 243.934C166.114 235.757 160.074 226.152 155.876 215.034C149.339 197.714 149.684 180.72 156.825 168.405C157.135 167.871 157.462 167.343 157.799 166.821C157.502 166.96 157.206 167.102 156.911 167.242C156.726 167.54 156.546 167.839 156.37 168.141C149.152 180.594 148.793 197.752 155.386 215.22C159.561 226.277 165.546 235.843 172.252 244.001C170.103 244.242 167.954 244.481 165.812 244.716C158.082 245.568 150.089 246.452 142.328 247.452C139.495 247.816 136.614 248.241 133.747 248.774C127.602 235.803 120.852 223.152 112.126 212.3C112.001 212.425 111.874 212.545 111.748 212.668C120.4 223.437 127.108 235.996 133.215 248.874C120.712 251.258 108.571 255.741 102.089 266.175C96.0349 275.918 96.0403 289.387 102.105 306.206C102.315 306.788 102.531 307.362 102.75 307.932H103.311C103.071 307.308 102.832 306.679 102.598 306.028C96.59 289.368 96.5687 276.053 102.534 266.451C108.939 256.142 121.014 251.719 133.447 249.362C135.616 253.952 137.712 258.578 139.795 263.177L140.021 263.677C147.255 279.645 154.736 295.054 164.532 307.932H165.186C155.3 295.031 147.777 279.528 140.499 263.462L140.272 262.961C138.207 258.402 136.129 253.814 133.979 249.264C136.791 248.744 139.616 248.327 142.395 247.971C150.151 246.972 158.141 246.09 165.869 245.237C168.125 244.988 170.388 244.739 172.65 244.485C182.308 256.108 193.401 264.84 202.716 270.943C207.738 274.234 212.925 277.219 218.173 279.941C209.263 286.678 200.596 293.768 192.136 300.692C189.205 303.088 186.241 305.51 183.253 307.932H184.085C186.903 305.644 189.7 303.359 192.467 301.096C200.987 294.126 209.715 286.984 218.688 280.207C223.383 282.622 228.122 284.824 232.838 286.842C226.387 290.944 221.129 297.298 217.951 305.012C217.553 305.977 217.205 306.952 216.882 307.932H217.435C217.739 307.019 218.064 306.112 218.435 305.211C221.623 297.476 226.924 291.128 233.424 287.091C246.606 292.691 259.559 296.847 270.692 300.141L271.111 300.264C275.802 301.653 280.6 303.074 284.844 305.357C284.961 305.221 285.081 305.087 285.198 304.951C280.887 302.611 276.018 301.169 271.258 299.764L270.839 299.64C259.821 296.378 247.017 292.272 233.975 286.756C235.674 285.746 237.453 284.891 239.295 284.208C252.883 279.174 267.952 282.384 281.245 285.216" fill="white"/>
<path d="M23.3622 251.291C25.6757 260.759 24.6435 270.984 20.5304 279.348C17.8364 284.824 13.946 289.781 9.15411 294.04C9.24944 294.189 9.34686 294.335 9.44364 294.482C14.3133 290.168 18.2659 285.138 21.0005 279.578C25.167 271.108 26.2133 260.752 23.8709 251.166C22.0411 243.676 18.3623 237.332 13.2794 232.742C13.166 232.874 13.0535 233.008 12.9417 233.142C17.9397 237.663 21.5592 243.911 23.3622 251.291" fill="white"/>
<path d="M141.902 131.341C146.465 136.002 148.51 143.856 145.994 151.099C143.558 158.11 138.218 163.918 131.802 167.653C126.641 170.657 119.907 172.315 114.831 169.168C111.037 166.817 109.07 162.204 108.96 157.744C108.851 153.281 110.351 148.932 112.206 144.874C114.82 139.151 118.338 133.603 123.579 130.123C130.804 125.326 137.516 126.857 141.902 131.341" fill="#ECEFF0"/>
<path d="M44.4255 48.8076H80.6355V33.4995H44.4255V48.8076ZM81.4211 49.5933H43.6399V32.7138H81.4211V49.5933Z" fill="#E3E0DA"/>
<path d="M19.8468 64.9478H56.0568V49.6417H19.8468V64.9478ZM56.8424 65.7334H19.0612V48.8561H56.8424V65.7334Z" fill="#E3E0DA"/>
<path d="M296.39 83.7187C293.943 75.5838 289.639 68.1152 283.48 61.2876C277.308 54.4599 268.891 48.8223 258.227 44.3641C247.563 39.906 234.015 37.6769 217.58 37.6769C204.471 37.6769 191.112 39.4451 177.5 42.9814C163.874 46.5304 152.059 51.5772 142.035 58.1367L155.082 93.9549L148.089 99.6197L158.231 102.601C168.24 97.3614 177.362 93.5568 185.591 91.1874C193.808 88.8305 202.54 87.651 211.798 87.651C221.043 87.651 228.042 89.8801 232.798 94.3383C237.551 98.809 239.923 104.176 239.923 110.48C239.923 118.089 237.478 124.839 232.609 130.745C227.718 136.651 222.323 142.62 216.415 148.655C212.311 152.843 208.322 157.174 204.471 161.632C200.621 166.102 197.208 170.881 194.26 176.006C191.298 181.115 188.929 186.625 187.133 192.531C185.327 198.437 184.437 205.059 184.437 212.4C184.437 214.769 184.487 217.587 184.625 220.868C184.649 221.471 184.68 222.062 184.716 222.644H175.129L185.591 229.719H236.46C236.198 228.144 236.072 226.311 236.072 224.211C236.072 222.11 236.072 220.535 236.072 219.483C236.072 215.025 236.975 210.632 238.769 206.301C240.564 201.971 242.82 197.846 245.519 193.901C248.215 189.969 251.226 186.227 254.575 182.693C257.913 179.144 261.124 175.8 264.21 172.649C268.312 168.459 272.553 164.001 276.919 159.275C281.285 154.546 285.148 149.577 288.485 144.325C291.822 139.073 294.582 133.372 296.765 127.196C298.948 121.035 300.052 114.285 300.052 106.931C300.052 99.5904 298.822 91.8536 296.39 83.7187" fill="#E3F2F8"/>
<path d="M201.027 85.1518C191.878 85.1518 183.249 86.2936 175.129 88.575C166.996 90.867 157.981 94.55 148.089 99.6199L132.083 56.5886C141.989 50.2407 153.668 45.3552 167.132 41.9215C180.584 38.4982 193.787 36.7887 206.742 36.7887C222.985 36.7887 236.374 38.9466 246.912 43.2602C257.45 47.5738 265.769 53.0292 271.87 59.6368C277.956 66.2465 282.208 73.4743 284.626 81.3452C287.031 89.2182 288.246 96.7078 288.246 103.812C288.246 110.927 287.155 117.461 284.999 123.425C282.841 129.4 280.113 134.916 276.816 140.001C273.518 145.083 269.699 149.894 265.386 154.469C261.07 159.045 256.88 163.358 252.826 167.412C249.776 170.462 246.602 173.697 243.304 177.133C239.994 180.554 237.019 184.174 234.352 187.981C231.688 191.798 229.456 195.791 227.684 199.981C225.91 204.171 225.017 208.424 225.017 212.737C225.017 213.755 225.017 215.281 225.017 217.313C225.017 219.347 225.141 221.119 225.403 222.645H175.129C174.607 220.103 174.297 217.252 174.173 214.078C174.037 210.904 173.987 208.176 173.987 205.882C173.987 198.778 174.869 192.37 176.654 186.652C178.426 180.937 180.769 175.608 183.695 170.659C186.609 165.7 189.98 161.077 193.787 156.75C197.593 152.435 201.536 148.245 205.59 144.191C211.429 138.352 216.761 132.574 221.596 126.859C226.406 121.144 228.824 114.61 228.824 107.246C228.824 101.145 226.479 95.9515 221.782 91.6233C217.083 87.3097 210.166 85.1518 201.027 85.1518" fill="#B5D2DC"/>
<path d="M239.942 279.097C239.942 288.268 236.973 295.345 231.036 300.338C225.097 305.341 218.386 307.832 210.893 307.832C203.388 307.832 196.678 305.341 190.741 300.338C184.812 295.345 181.843 288.268 181.843 279.097C181.843 269.937 184.812 262.86 190.741 257.857C199.881 250.144 213.402 248.424 224.106 253.837C233.6 258.643 239.942 268.397 239.942 279.097Z" fill="#E3F2F8"/>
<path d="M229.991 279.097C229.991 288.268 227.022 295.345 221.085 300.338C215.145 305.341 208.435 307.832 200.941 307.832C193.437 307.832 186.727 305.341 180.79 300.338C174.861 295.345 171.892 288.268 171.892 279.097C171.892 269.937 174.861 262.86 180.79 257.857C186.727 252.865 193.437 250.364 200.941 250.364C208.435 250.364 215.145 252.865 221.085 257.857C227.022 262.86 229.991 269.937 229.991 279.097Z" fill="#B5D2DC"/>
<path d="M78.529 144.975C80.2377 147.472 79.5988 150.881 77.1017 152.59C74.6047 154.298 71.1955 153.659 69.4868 151.161C67.7781 148.664 68.4171 145.255 70.9141 143.546C73.411 141.839 76.8204 142.478 78.529 144.975" fill="#CAE2EB"/>
<path d="M82.0094 159.367C81.6957 161.039 80.0761 162.141 78.3915 161.825C76.7071 161.508 75.5955 159.897 75.9092 158.223C76.2226 156.552 77.8424 155.452 79.5268 155.768C81.2114 156.082 82.3228 157.696 82.0094 159.367" fill="#CAE2EB"/>
<path d="M81.6904 124.458C79.4957 136.167 68.2244 143.879 56.5154 141.685C44.8062 139.49 37.0933 128.219 39.288 116.51C41.4825 104.801 52.7538 97.087 64.463 99.2826C76.172 101.478 83.8849 112.749 81.6904 124.458" fill="#CAE2EB"/>
<path d="M54.9244 120.484C54.9244 121.984 53.7074 123.201 52.2065 123.201C50.7057 123.201 49.4889 121.984 49.4889 120.484C49.4889 118.982 50.7057 117.767 52.2065 117.767C53.7074 117.767 54.9244 118.982 54.9244 120.484Z" fill="white"/>
<path d="M63.2068 120.484C63.2068 121.984 61.9901 123.201 60.4892 123.201C58.9881 123.201 57.7714 121.984 57.7714 120.484C57.7714 118.982 58.9881 117.767 60.4892 117.767C61.9901 117.767 63.2068 118.982 63.2068 120.484Z" fill="white"/>
<path d="M71.4894 120.484C71.4894 121.984 70.2727 123.201 68.7716 123.201C67.2707 123.201 66.054 121.984 66.054 120.484C66.054 118.982 67.2707 117.767 68.7716 117.767C70.2727 117.767 71.4894 118.982 71.4894 120.484Z" fill="white"/>
<path d="M45.0368 297.034L47.0522 304.804C47.5778 306.83 49.5371 308.2 51.7043 308.051C58.3126 307.603 72.0428 305.984 79.9232 300.176L77.683 288.979C66.848 288.365 56.7154 288.968 47.9413 291.922C45.7445 292.662 44.4739 294.863 45.0368 297.034Z" fill="#6F7176"/>
<path d="M57.6653 303.218C57.5507 303.218 57.4453 303.143 57.413 303.028L54.7069 293.338C54.6682 293.198 54.7497 293.053 54.8888 293.016C55.0291 292.976 55.1728 293.058 55.2116 293.198L57.9175 302.887C57.9565 303.026 57.875 303.17 57.7357 303.21C57.7122 303.216 57.6883 303.218 57.6653 303.218Z" fill="white"/>
<path d="M63.5137 301.909C63.3991 301.909 63.2939 301.834 63.2614 301.719L60.5555 292.029C60.5165 291.889 60.598 291.744 60.7374 291.707C60.8775 291.667 61.0212 291.748 61.06 291.889L63.7661 301.578C63.8049 301.716 63.7234 301.861 63.5843 301.901C63.5606 301.907 63.5369 301.909 63.5137 301.909Z" fill="white"/>
<path d="M70.3061 255.033L45.1235 262.508L63.8254 288.132L90.6745 290.267L127.708 274.609L113.635 253.433L70.3061 255.033Z" fill="#81898B"/>
<path d="M101.352 258.593C156.655 242.222 165.544 291.099 79.256 299.996C76.2082 296.567 72.6465 290.615 71.2322 285.641L116.799 264.584L101.352 258.593" fill="#81898B"/>
<path d="M103.701 293.621C101.115 292.794 98.6366 291.157 98.6366 291.157L89.7488 293.946L91.7855 303.614L101.019 305.489C103.831 300.346 103.995 296.12 103.701 293.621" fill="#F3DBCB"/>
<path d="M71.4295 285.98L71.0348 285.302C80.5409 279.777 104.891 266.503 125.636 262.59L125.782 263.363C105.156 267.253 80.9006 280.477 71.4295 285.98Z" fill="#E3F2F8"/>
<path d="M70.3061 255.033C18.83 245.248 5.49809 294.717 91.7855 303.614C94.8333 300.185 97.2222 296.131 98.6365 291.157C85.3821 282.289 70.5623 273.859 54.3202 265.829L70.3061 255.033" fill="#81898B"/>
<path d="M98.4258 291.488C95.977 289.93 93.4255 288.283 90.7242 286.538C77.1639 277.783 61.7943 267.861 48.7362 262.202L49.0488 261.482C62.1662 267.165 77.5647 277.106 91.1503 285.878C93.8506 287.623 96.401 289.27 98.8476 290.826L98.4258 291.488" fill="#E3F2F8"/>
<path d="M32.5385 279.562L31.8507 279.182C33.7829 275.684 36.8779 273.325 41.0494 272.17L41.2592 272.927C37.243 274.039 34.3905 276.21 32.5385 279.562Z" fill="#E3F2F8"/>
<path d="M139.977 276.584C138.125 273.232 135.272 271.062 131.256 269.948L131.466 269.191C135.638 270.348 138.732 272.707 140.665 276.205L139.977 276.584" fill="#E3F2F8"/>
<path d="M86.9651 303.181L86.3909 302.644C90.5088 298.234 93.0377 293.577 94.1227 288.411L94.8913 288.572C93.7764 293.883 91.1836 298.662 86.9651 303.181" fill="#E3F2F8"/>
<path d="M129.374 290.743C122.779 286.668 109.993 293.709 106.784 294.063C105.848 294.168 104.766 293.963 103.701 293.621C103.995 296.121 103.831 300.346 101.019 305.49L102.587 305.808C102.587 305.808 113.429 309.784 124.93 307.469C135.546 305.334 134.559 293.946 129.374 290.743Z" fill="#6F7176"/>
<path d="M120.384 304.071C120.358 304.071 120.332 304.067 120.306 304.058C120.168 304.014 120.091 303.868 120.135 303.729C120.918 301.249 121.26 296.367 118.991 293.089C118.908 292.969 118.938 292.808 119.057 292.724C119.175 292.643 119.339 292.672 119.421 292.791C121.798 296.223 121.449 301.307 120.634 303.886C120.599 303.997 120.496 304.071 120.384 304.071" fill="white"/>
<path d="M115.212 305.051C115.186 305.051 115.16 305.047 115.133 305.039C114.996 304.997 114.919 304.848 114.963 304.712C115.746 302.229 116.088 297.35 113.819 294.071C113.736 293.952 113.766 293.789 113.885 293.707C114.003 293.625 114.167 293.654 114.249 293.774C116.626 297.205 116.277 302.29 115.462 304.869C115.427 304.98 115.324 305.051 115.212 305.051" fill="white"/>
<path d="M61.1994 191.249C61.1994 191.249 74.1635 180.225 73.6833 178.13C73.3404 176.632 69.668 178.828 69.668 178.828C69.668 178.828 74.8182 172.719 74.5563 171.975C74.0883 170.651 70.5264 173.121 70.5264 173.121C70.5264 173.121 72.9339 169.656 71.7829 169.092C70.6319 168.527 68.1226 170.664 68.1226 170.664C68.1226 170.664 69.5886 168.738 68.8998 168.233C68.2108 167.728 65.2394 169.805 65.2394 169.805C65.2394 169.805 66.3058 167.379 64.0402 168.298C61.7749 169.218 45.8906 183.795 45.8906 183.795L61.1994 191.249" fill="#F3DBCB"/>
<path d="M66.5035 178.174C66.4405 178.174 66.3772 178.151 66.3269 178.105C64.1018 176.073 63.1205 175.578 60.6654 174.822C60.5271 174.78 60.4496 174.633 60.4921 174.495C60.5347 174.357 60.6811 174.279 60.8194 174.323C63.3631 175.105 64.379 175.616 66.6803 177.717C66.7872 177.816 66.7945 177.981 66.6969 178.088C66.6453 178.144 66.5745 178.174 66.5035 178.174Z" fill="#FAE6E0"/>
<path d="M62.5976 184.153L62.5611 184.151C62.4178 184.13 62.3179 183.998 62.338 183.856C62.5928 182.033 63.1666 180.894 64.0924 180.372C64.8837 179.928 65.9134 179.974 67.153 180.508C67.2858 180.567 67.347 180.72 67.2896 180.852C67.2324 180.986 67.0782 181.046 66.9453 180.99C65.8641 180.523 64.9907 180.468 64.349 180.829C63.5862 181.258 63.0841 182.301 62.8565 183.927C62.8383 184.059 62.7262 184.153 62.5976 184.153" fill="#FAE6E0"/>
<path d="M61.9863 173.133C61.9167 173.133 61.8471 173.104 61.7956 173.05C61.6965 172.945 61.7013 172.779 61.8067 172.681L65.0596 169.614C65.165 169.515 65.3305 169.519 65.43 169.624C65.5291 169.731 65.5243 169.897 65.4189 169.995L62.1658 173.06C62.1153 173.108 62.0508 173.133 61.9863 173.133" fill="#FAE6E0"/>
<path d="M64.9978 174.181C64.9324 174.181 64.8672 174.156 64.8163 174.108C64.712 174.007 64.7087 173.842 64.8088 173.737L67.9335 170.481C68.0336 170.377 68.1994 170.372 68.3039 170.473C68.4082 170.574 68.4116 170.739 68.3114 170.844L65.1867 174.099C65.1352 174.154 65.0665 174.181 64.9978 174.181Z" fill="#FAE6E0"/>
<path d="M68.0747 176.014C68.0108 176.014 67.9467 175.989 67.8962 175.943C67.7904 175.844 67.7845 175.679 67.8832 175.572L70.3348 172.943C70.4335 172.838 70.599 172.832 70.705 172.93C70.8108 173.029 70.8164 173.194 70.718 173.299L68.2664 175.93C68.2146 175.985 68.1449 176.014 68.0747 176.014Z" fill="#FAE6E0"/>
<path d="M110.171 264.985L62.7719 266.818L57.5344 223.608C57.5344 223.608 73.4026 208.556 79.5076 203.015L89.8138 202.487C121.79 217.02 116.554 235.173 110.171 264.985Z" fill="#008BBA"/>
<path d="M89.8137 202.486C89.8137 202.486 126.397 205.614 137.93 230.679C149.215 255.203 102.839 263.937 102.839 263.937L89.8137 202.486Z" fill="#008BBA"/>
<path d="M47.9971 207.856L63.1144 189.46L48.9778 180.891C43.0808 184.993 31.6773 194.28 22.0133 204.797C19.8801 207.118 18.214 209.829 17.3747 212.815C16.6589 215.362 16.5285 217.878 16.9312 220.342C17.9802 226.765 23.0321 231.722 29.7757 232.512C35.535 233.187 57.5344 231.464 75.3419 226.227L80.5794 206.012C77.8877 204.485 57.8855 204.219 47.9971 207.856" fill="#008BBA"/>
<path d="M109.996 214.172C107.593 214.172 104.107 213.634 102.836 210.734C101.996 208.822 102.587 206.716 103.51 205.214C103.64 205.252 103.77 205.29 103.902 205.327C103.001 206.743 102.399 208.763 103.195 210.577C104.379 213.276 107.682 213.781 109.985 213.781C110.796 213.781 111.482 213.718 111.909 213.665C114.636 213.336 117.402 212.706 120.083 212.088C120.249 212.184 120.415 212.281 120.58 212.377C120.501 212.396 120.422 212.415 120.343 212.431C117.599 213.064 114.762 213.718 111.956 214.055C111.52 214.107 110.822 214.172 109.996 214.172Z" fill="#DAE0F3"/>
<path d="M128.321 254.403C126.468 252.056 125.496 249.39 125.614 246.846C125.786 243.113 128.636 239.822 131.965 239.505C132.17 239.486 132.374 239.478 132.577 239.478C134.252 239.478 135.857 240.098 137.416 240.699C138.039 240.94 138.672 241.183 139.313 241.391C139.283 241.519 139.25 241.644 139.216 241.772C138.559 241.56 137.911 241.313 137.274 241.066C135.684 240.452 134.172 239.87 132.583 239.87C132.391 239.87 132.197 239.878 132.002 239.897C128.86 240.195 126.17 243.318 126.006 246.863C125.892 249.325 126.843 251.914 128.655 254.191C128.544 254.262 128.433 254.334 128.321 254.403" fill="#DAE0F3"/>
<path d="M27.2365 231.995C27.0999 231.955 26.9683 231.905 26.8336 231.861C28.8834 229.504 31.8669 227.723 35.3446 226.822C36.664 226.481 37.9428 226.313 39.1461 226.313C41.5018 226.313 43.5679 226.958 45.0794 228.207C46.205 229.139 46.9842 230.348 47.5433 231.643C47.4076 231.657 47.272 231.674 47.1373 231.689C46.6033 230.484 45.8686 229.37 44.8295 228.511C43.3883 227.319 41.4111 226.705 39.148 226.705C37.9778 226.705 36.7308 226.87 35.4428 227.203C32.1032 228.067 29.2307 229.757 27.2365 231.995" fill="#DAE0F3"/>
<path d="M24.4319 202.227C24.6024 202.051 24.773 201.873 24.9439 201.697C28.9808 200.651 32.9106 199.203 36.5437 197.111C37.9637 196.294 39.5655 195.252 40.6782 193.742C41.8323 192.175 42.2195 190.319 41.714 188.781C41.5154 188.175 41.1611 187.645 40.7193 187.224C40.8202 187.143 40.9214 187.059 41.0216 186.977C41.4948 187.436 41.8736 188.006 42.0873 188.657C42.6322 190.316 42.2239 192.305 40.9943 193.976C39.8385 195.546 38.195 196.614 36.7396 197.452C32.8877 199.671 28.7116 201.164 24.4319 202.227" fill="#DAE0F3"/>
<path d="M93.1619 192.879L93.1552 193.549L93.049 203.968L93.0358 205.097C93.0159 206.863 92.292 208.463 91.1235 209.626C89.9614 210.781 88.361 211.505 86.588 211.518C83.0156 211.537 80.0939 208.669 80.0608 205.091L79.9347 192.215L93.1619 192.879Z" fill="#F3DBCB"/>
<path d="M93.1553 193.549L93.0491 203.968C87.2589 201.611 84.875 195.343 84.875 195.343L93.1553 193.549Z" fill="#6F7176"/>
<path d="M95.4461 175.369C97.5212 177.86 103.58 191.97 97.4383 196.784C90.5265 202.202 80.0077 193.298 80.0077 193.298L78.5967 176.863L87.7269 174.455L95.4461 175.369" fill="#F3DBCB"/>
<path d="M73.9451 174.464C73.9451 174.464 53.6936 185.027 70.2061 215.473C72.3269 219.383 77.0247 221.09 81.0432 219.182H81.0434C85.3543 217.135 86.9865 211.868 84.6455 207.709C81.9444 202.912 79.3374 196.734 80.4503 192.135L73.9451 174.464" fill="#6F7176"/>
<path d="M81.3356 179.462C81.3356 182.49 78.883 184.941 75.8574 184.941C72.832 184.941 70.3794 182.49 70.3794 179.462C70.3794 176.437 72.832 173.986 75.8574 173.986C78.883 173.986 81.3356 176.437 81.3356 179.462Z" fill="#81898B"/>
<path d="M82.5969 186.045C82.0048 182.628 81.6443 180.284 85.0985 178.522C85.0985 178.522 97.2722 180.736 99.5964 176.144C101.92 171.549 98.379 164.301 90.9641 169.337C71.9843 165.629 69.4388 183.393 75.1936 189.313L80.8736 188.441C82.0166 188.265 82.794 187.184 82.5969 186.045Z" fill="#6F7176"/>
<path d="M92.8315 186.056C92.8315 186.502 92.4691 186.864 92.0222 186.864C91.5753 186.864 91.2129 186.502 91.2129 186.056C91.2129 185.609 91.5753 185.247 92.0222 185.247C92.4691 185.247 92.8315 185.609 92.8315 186.056Z" fill="#6F7176"/>
<path d="M98.3098 183.357C98.3098 183.806 97.9473 184.168 97.5005 184.168C97.0536 184.168 96.6912 183.806 96.6912 183.357C96.6912 182.911 97.0536 182.549 97.5005 182.549C97.9473 182.549 98.3098 182.911 98.3098 183.357Z" fill="#6F7176"/>
<path d="M96.9403 188.546C96.8835 188.546 96.8267 188.525 96.7823 188.484C96.6906 188.396 96.687 188.251 96.7741 188.159C97.0987 187.817 97.4542 187.338 97.3048 186.99C97.1496 186.627 96.4936 186.472 96.1932 186.472C95.5475 186.472 95.2375 185.322 95.1819 185.092C95.1524 184.97 95.2278 184.847 95.3508 184.815C95.4736 184.786 95.5976 184.861 95.6273 184.985C95.7453 185.471 96.0122 186.014 96.1932 186.014C96.5022 186.014 97.4473 186.158 97.7259 186.808C97.9249 187.273 97.7165 187.832 97.1064 188.475C97.0614 188.523 97.0008 188.546 96.9403 188.546" fill="#6F7176"/>
<path d="M96.9815 191.618C96.9375 191.618 96.8929 191.605 96.8535 191.578C95.3298 190.549 93.7912 191.412 93.7757 191.421C93.6663 191.484 93.5262 191.446 93.4629 191.337C93.3999 191.226 93.4376 191.088 93.5471 191.023C93.6203 190.981 95.3516 190.011 97.1099 191.199C97.2146 191.27 97.2425 191.412 97.1717 191.517C97.1273 191.582 97.055 191.618 96.9815 191.618" fill="#6F7176"/>
<path d="M91.6678 182.55C92.1283 183.416 91.3259 183.592 90.3861 184.09C89.4461 184.589 88.4836 184.773 88.2641 184.358C88.0443 183.946 88.6282 183.206 89.5682 182.705C90.5082 182.207 91.3114 181.88 91.6678 182.55Z" fill="#6F7176"/>
<path d="M95.0961 180.986C95.2983 181.759 95.8752 181.421 96.7143 181.201C97.5533 180.981 98.2308 180.56 98.1343 180.192C98.0379 179.823 97.2795 179.701 96.4405 179.921C95.6014 180.141 94.9394 180.386 95.0961 180.986" fill="#6F7176"/>
<path d="M88.2873 192.219C86.9691 192.219 85.9009 191.15 85.9009 189.833C85.9009 188.513 86.9691 187.446 88.2873 187.446C89.6053 187.446 90.6735 188.513 90.6735 189.833C90.6735 191.15 89.6053 192.219 88.2873 192.219Z" fill="#F39176"/>
<path d="M81.1995 187.283C82.8053 188.521 83.2229 190.671 82.1324 192.085C81.042 193.497 78.8563 193.637 77.2504 192.399C75.6446 191.161 75.2271 189.009 76.3175 187.597C77.408 186.183 79.5937 186.043 81.1995 187.283Z" fill="#F3DBCB"/>
<path d="M80.645 191.038C80.5183 191.038 80.4158 190.935 80.4158 190.809C80.4158 190.133 80.0861 189.508 79.5338 189.135C79.0614 188.819 78.4983 188.744 78.0277 188.936C77.9104 188.982 77.777 188.928 77.7292 188.811C77.6814 188.693 77.7376 188.559 77.8547 188.511C78.4668 188.262 79.19 188.354 79.7894 188.756C80.4686 189.213 80.874 189.98 80.874 190.809C80.874 190.935 80.7715 191.038 80.645 191.038" fill="#6F7176"/>
<path d="M39.9192 216.978L39.5345 216.621L47.8048 207.678L48.1894 208.034L39.9192 216.978Z" fill="#6F7176"/>
<path d="M106.058 246.119L105.905 245.618C111.925 243.783 117.766 241.588 123.061 234.967L123.47 235.294C118.082 242.032 112.159 244.259 106.058 246.119Z" fill="#6F7176"/>
<path d="M109.717 225.837H58.5119C56.6702 225.837 55.1775 227.453 55.1775 229.443V266.003C55.1775 267.995 56.6702 269.61 58.5119 269.61H109.717C111.559 269.61 113.052 267.995 113.052 266.003V229.443C113.052 227.453 111.559 225.837 109.717 225.837" fill="#CAE2EB"/>
<path d="M86.8179 244.365H81.4116C80.64 244.365 80.0121 245.007 80.0121 245.794V249.653C80.0121 250.441 80.64 251.082 81.4116 251.082H86.8179C87.5895 251.082 88.2174 250.441 88.2174 249.653V245.794C88.2174 245.007 87.5895 244.365 86.8179 244.365ZM86.8179 245.413C87.0123 245.413 87.1699 245.583 87.1699 245.794V249.653C87.1699 249.863 87.0123 250.035 86.8179 250.035H81.4116C81.2171 250.035 81.0596 249.863 81.0596 249.653V245.794C81.0596 245.583 81.2171 245.413 81.4116 245.413H86.8179Z" fill="#1F3C88"/>
<path d="M308.45 308.456H-0.285339V307.409H308.45V308.456Z" fill="#6F7176"/>
</g>
</svg>
