<svg width="98" height="84" viewBox="0 0 98 84" fill="none" xmlns="http://www.w3.org/2000/svg">
<path d="M88.3914 41.617H81.118C80.6969 41.617 80.3332 41.2725 80.3332 40.8322V11.2408C80.3332 10.8197 80.6777 10.4561 81.118 10.4561H88.3914C88.8125 10.4561 89.1762 10.8006 89.1762 11.2408V40.8514C89.1762 41.2725 88.8316 41.617 88.3914 41.617ZM81.9027 40.0666H87.6258V12.0064H81.9027V40.0666ZM74.2082 41.617H66.9348C66.5137 41.617 66.15 41.2725 66.15 40.8322V17.0787C66.15 16.6576 66.4945 16.2939 66.9348 16.2939H74.2082C74.6293 16.2939 74.993 16.6385 74.993 17.0787V40.8322C74.993 41.2725 74.6484 41.617 74.2082 41.617ZM67.7195 40.0666H73.4426V17.8635H67.7195V40.0666ZM60.025 41.617H52.7516C52.3305 41.617 51.9668 41.2725 51.9668 40.8322V22.9166C51.9668 22.4955 52.3113 22.1318 52.7516 22.1318H60.025C60.4461 22.1318 60.8098 22.4764 60.8098 22.9166V40.8322C60.8098 41.2725 60.4652 41.617 60.025 41.617ZM53.5555 40.0666H59.2594V23.7014H53.5555V40.0666Z" fill="#008BBA"/>
<path d="M96.1051 8.04473C97.1578 8.04473 98 7.20254 98 6.1498V1.93887C98 0.886133 97.1578 0.0439453 96.1051 0.0439453H31.7734C30.7398 0.0439453 29.8785 0.886133 29.8785 1.93887V6.1498C29.8785 7.1834 30.7207 8.04473 31.7734 8.04473H33.6492V28.1807H22.4711C23.275 26.9939 23.7535 25.5393 23.7535 24.008V17.2131L29.2086 9.07832C29.3617 8.84863 29.3809 8.54238 29.2469 8.29356C29.1129 8.04473 28.8449 7.8916 28.577 7.8916H12.7094C10.6039 7.8916 8.90039 9.55684 8.80469 11.6432C8.80469 11.6814 8.78555 11.7006 8.78555 11.7389V24.008C8.78555 25.5775 9.2832 27.0322 10.1062 28.2381C4.45977 28.6975 0 33.4252 0 39.2057V54.5756C0 57.6764 2.52656 60.1838 5.6082 60.1838H6.8332V78.7502C6.8332 81.6213 9.16836 83.9373 12.0203 83.9373H21.5906C24.4426 83.9373 26.7777 81.6021 26.7777 78.7502V41.0814C26.7777 41.0623 26.7777 41.0623 26.7777 41.0432V37.8084H33.6492V44.5268H31.7734C30.7398 44.5268 29.8785 45.3689 29.8785 46.4217V50.6326C29.8785 51.6662 30.7207 52.5084 31.7734 52.5084H45.7078L34.9125 75.6877C34.7977 75.9174 34.8168 76.2045 34.9699 76.415C35.1039 76.6447 35.3527 76.7787 35.6207 76.7787H41.3629C41.6691 76.7787 41.9371 76.6064 42.052 76.3385L53.1344 52.5275H60.293V76.0322C60.293 76.4533 60.6375 76.7979 61.0586 76.7979H66.8008C67.2219 76.7979 67.5664 76.4533 67.5664 76.0322V52.5275H74.725L85.8266 76.3576C85.9414 76.6256 86.2094 76.7979 86.5156 76.7979H92.2578C92.5258 76.7979 92.7555 76.6639 92.9086 76.4342C93.0426 76.2236 93.0617 75.9365 92.9469 75.7068L82.1898 52.5275H96.1242C97.177 52.5275 98.0191 51.6854 98.0191 50.6518V46.4408C98.0191 45.4072 97.177 44.5459 96.1242 44.5459H94.2484V8.04473H96.1051ZM10.3168 11.7963C10.3168 10.4756 11.3887 9.40371 12.7094 9.40371H27.1414L22.5859 16.2178H10.3168V11.7963ZM10.3168 17.749H22.2223V24.008C22.2223 27.3002 19.5426 29.9607 16.2695 29.9607C12.9773 29.9607 10.3168 27.2811 10.3168 24.008V17.749ZM22.452 29.7502L16.8055 41.3877L11.1398 29.7502H11.5035C12.8051 30.8221 14.4512 31.4729 16.2695 31.4729C18.0879 31.4729 19.734 30.8221 21.0355 29.7502H22.452ZM5.6082 58.6334C3.36875 58.6334 1.53125 56.815 1.53125 54.5564V39.1865C1.53125 34.4779 4.97656 30.5732 9.47461 29.8459L16.0398 43.3209V58.6334H8.34531V41.0814C8.34531 40.6604 8.00078 40.3158 7.57969 40.3158C7.15859 40.3158 6.81406 40.6604 6.81406 41.0814V58.6334H5.6082ZM8.34531 78.7502V60.1646H16.0207V82.4252H12.0012C9.99141 82.4252 8.34531 80.7791 8.34531 78.7502ZM21.5906 82.4252H17.5711V60.1646H25.2465V78.7502C25.2465 80.7791 23.6195 82.4252 21.5906 82.4252ZM26.0121 36.2963C25.591 36.2963 25.2465 36.6408 25.2465 37.0619V58.6525H17.5711V43.3209L24.1746 29.7311H42.9707C44.7891 29.7311 46.2629 31.2049 46.2629 33.0232C46.2629 34.8225 44.8082 36.3154 42.9707 36.3154H26.0121V36.2963ZM42.9707 28.1807H35.1805V8.04473H92.698V44.5268H35.1805V37.8084H42.9707C45.6504 37.8084 47.7941 35.6264 47.7941 32.985C47.7941 30.3436 45.6312 28.1807 42.9707 28.1807ZM40.8652 75.2666H36.8074L47.3922 52.5275H51.45L40.8652 75.2666ZM66.0352 75.2666H61.8242V52.5275H66.0352V75.2666ZM91.0711 75.2666H87.0133L76.4285 52.5275H80.4863L91.0711 75.2666ZM96.1051 46.058C96.3156 46.058 96.4688 46.2111 96.4688 46.4217V50.6326C96.4688 50.824 96.3156 50.9771 96.1051 50.9771H31.7734C31.582 50.9771 31.4098 50.824 31.4098 50.6326V46.4217C31.4098 46.2303 31.5629 46.058 31.7734 46.058H96.1051ZM31.7734 6.51348C31.582 6.51348 31.4098 6.36035 31.4098 6.1498V1.93887C31.4098 1.72832 31.5629 1.5752 31.7734 1.5752H96.1242C96.3348 1.5752 96.4879 1.72832 96.4879 1.93887V6.1498C96.4879 6.34121 96.3348 6.51348 96.1242 6.51348H31.7734Z" fill="#008BBA"/>
</svg>
