<svg width="94" height="94" viewBox="0 0 94 94" fill="none" xmlns="http://www.w3.org/2000/svg">
<circle cx="47" cy="47" r="47" fill="url(#paint0_linear_625_7264)"/>
<g clip-path="url(#clip0_625_7264)">
<path d="M68.4362 53.5917V46.0467C68.4362 45.7981 68.3374 45.5596 68.1616 45.3838C67.9858 45.208 67.7473 45.1092 67.4987 45.1092H47.9375V39.2687C53.5262 38.7915 57.9286 34.091 57.9286 28.3809C57.9286 22.3549 53.026 17.4524 47 17.4524C40.974 17.4524 36.0716 22.3549 36.0716 28.3809C36.0716 34.0911 40.4738 38.7917 46.0625 39.2687V45.1092H26.5012C26.2526 45.1092 26.0141 45.208 25.8383 45.3838C25.6625 45.5596 25.5637 45.7981 25.5637 46.0467V53.5917C20.7632 54.0642 17 58.1237 17 63.0463C17 68.2853 21.2622 72.5475 26.5012 72.5475C31.7402 72.5475 36.0024 68.2853 36.0024 63.0463C36.0024 58.1236 32.2392 54.0641 27.4386 53.5917V46.9842H46.0625V53.5917C41.2619 54.0642 37.4988 58.1237 37.4988 63.0463C37.4988 68.2853 41.761 72.5475 47.0001 72.5475C52.2391 72.5475 56.5013 68.2853 56.5013 63.0463C56.5013 58.1236 52.7381 54.0641 47.9375 53.5917V46.9842H66.5613V53.5917C61.7607 54.0642 57.9976 58.1237 57.9976 63.0463C57.9976 68.2853 62.2598 72.5475 67.4989 72.5475C72.7379 72.5475 77.0001 68.2853 77.0001 63.0463C77 58.1237 73.2368 54.0641 68.4362 53.5917ZM47 28.407C45.5717 28.407 44.4098 27.245 44.4098 25.8169C44.4098 24.3887 45.5718 23.2268 47 23.2268C48.4282 23.2268 49.5901 24.3887 49.5901 25.8169C49.5901 27.245 48.4283 28.407 47 28.407ZM52.9357 35.2084C51.345 36.5931 49.2696 37.4345 47 37.4345C44.7304 37.4345 42.655 36.5931 41.0643 35.2084C41.5896 32.3694 44.0629 30.282 47 30.282C49.9371 30.282 52.4104 32.3694 52.9357 35.2084ZM47 19.3275C51.9922 19.3275 56.0536 23.3889 56.0536 28.3811C56.0536 30.3059 55.4479 32.0909 54.4198 33.5595C53.6599 31.5048 52.0816 29.8742 50.0928 29.033C50.9379 28.22 51.4652 27.0792 51.4652 25.817C51.4652 23.355 49.4621 21.3519 47.0001 21.3519C44.538 21.3519 42.5349 23.355 42.5349 25.817C42.5349 27.0793 43.0624 28.22 43.9073 29.033C41.9185 29.8742 40.3402 31.5048 39.5802 33.5595C38.5521 32.0909 37.9464 30.3059 37.9464 28.3811C37.9464 23.3889 42.0078 19.3275 47 19.3275ZM21.5587 68.8472C22.0266 66.5153 24.075 64.8096 26.5012 64.8096C28.9275 64.8096 30.9757 66.5153 31.4437 68.8471C30.1114 69.9839 28.3857 70.6725 26.5011 70.6725C24.6167 70.6725 22.891 69.984 21.5587 68.8472ZM24.4152 60.8484C24.4152 59.6981 25.351 58.7623 26.5013 58.7623C27.6516 58.7623 28.5875 59.698 28.5875 60.8484C28.5875 61.9989 27.6516 62.9346 26.5013 62.9346C25.351 62.9346 24.4152 61.9989 24.4152 60.8484ZM34.1274 63.0463C34.1274 64.5768 33.6726 66.0022 32.8934 67.1979C32.2235 65.5764 30.9609 64.2811 29.3844 63.5606C30.052 62.8513 30.4624 61.8973 30.4624 60.8486C30.4624 58.6643 28.6854 56.8874 26.5012 56.8874C24.3171 56.8874 22.54 58.6643 22.54 60.8486C22.54 61.8973 22.9504 62.8513 23.618 63.5606C22.0415 64.2811 20.7788 65.5764 20.109 67.198C19.3298 66.0022 18.875 64.5768 18.875 63.0463C18.875 58.8411 22.2961 55.4201 26.5012 55.4201C30.7064 55.4201 34.1274 58.8411 34.1274 63.0463ZM42.0575 68.8472C42.5254 66.5153 44.5737 64.8096 47 64.8096C49.4262 64.8096 51.4746 66.5153 51.9425 68.8472C50.6102 69.984 48.8845 70.6726 47 70.6726C45.1155 70.6725 43.3897 69.984 42.0575 68.8472ZM47 62.9346C45.8497 62.9346 44.9138 61.9989 44.9138 60.8484C44.9138 59.698 45.8497 58.7623 47 58.7623C48.1503 58.7623 49.0862 59.698 49.0862 60.8484C49.0862 61.9989 48.1503 62.9346 47 62.9346ZM54.6262 63.0463C54.6262 64.5768 54.1714 66.0022 53.3922 67.1979C52.7223 65.5764 51.4597 64.281 49.8832 63.5606C50.5508 62.8513 50.9612 61.8973 50.9612 60.8486C50.9612 58.6643 49.1841 56.8874 47 56.8874C44.8159 56.8874 43.0388 58.6643 43.0388 60.8486C43.0388 61.8973 43.4492 62.8513 44.1168 63.5606C42.5403 64.2811 41.2776 65.5764 40.6077 67.198C39.8285 66.0024 39.3736 64.5769 39.3736 63.0464C39.3736 58.8413 42.7947 55.4202 46.9999 55.4202C51.205 55.4202 54.6262 58.8411 54.6262 63.0463ZM67.4988 55.4201C71.7039 55.4201 75.125 58.8411 75.125 63.0463C75.125 64.5768 74.6702 66.0022 73.891 67.1979C73.2211 65.5764 71.9585 64.281 70.382 63.5606C71.0496 62.8513 71.46 61.8973 71.46 60.8486C71.46 58.6643 69.6829 56.8874 67.4988 56.8874C65.3146 56.8874 63.5376 58.6643 63.5376 60.8486C63.5376 61.8973 63.948 62.8513 64.6156 63.5606C63.0391 64.2811 61.7765 65.5764 61.1066 67.198C60.3273 66.0024 59.8725 64.5769 59.8725 63.0464C59.8725 58.8411 63.2936 55.4201 67.4988 55.4201ZM67.4988 62.9346C66.3485 62.9346 65.4126 61.9989 65.4126 60.8484C65.4126 59.698 66.3485 58.7623 67.4988 58.7623C68.6491 58.7623 69.585 59.698 69.585 60.8484C69.585 61.9989 68.6491 62.9346 67.4988 62.9346ZM62.5563 68.8472C63.0243 66.5153 65.0727 64.8096 67.4988 64.8096C69.925 64.8096 71.9734 66.5153 72.4413 68.8472C71.109 69.984 69.3833 70.6726 67.4988 70.6726C65.6143 70.6725 63.8885 69.984 62.5563 68.8472Z" fill="white"/>
</g>
<defs>
<linearGradient id="paint0_linear_625_7264" x1="47" y1="0" x2="47" y2="94" gradientUnits="userSpaceOnUse">
<stop stop-color="#40C8F7"/>
<stop offset="1" stop-color="#008BBA"/>
</linearGradient>
<clipPath id="clip0_625_7264">
<rect width="60" height="60" fill="white" transform="translate(17 15)"/>
</clipPath>
</defs>
</svg>
