<svg width="112" height="112" viewBox="0 0 112 112" fill="none" xmlns="http://www.w3.org/2000/svg">
<g filter="url(#filter0_d_1064_117)">
<circle cx="56" cy="56" r="42" fill="white"/>
</g>
<path d="M76.25 47.75H65V41C65 38.525 62.975 36.5 60.5 36.5H35.75C33.275 36.5 31.25 38.525 31.25 41V57.65C31.25 60.125 33.275 62.15 35.75 62.15H38.9V67.325C38.9 68.675 39.8 69.575 41.15 69.575C41.6 69.575 42.05 69.35 42.5 69.125L47 65.75V68.675C47 71.15 49.025 73.175 51.5 73.175H59.825L69.725 80.15C70.175 80.375 70.625 80.6 71.075 80.6C72.425 80.6 73.325 79.7 73.325 78.35V73.175H76.25C78.725 73.175 80.75 71.15 80.75 68.675V52.25C80.75 49.775 78.725 47.75 76.25 47.75ZM41.15 67.325V59.9H35.75C34.4 59.9 33.5 59 33.5 57.65V41C33.5 39.65 34.4 38.75 35.75 38.75H60.5C61.85 38.75 62.75 39.65 62.75 41V57.65C62.75 59 61.85 59.9 60.5 59.9H51.5L41.15 67.325ZM78.5 68.9C78.5 70.25 77.6 71.15 76.25 71.15H70.85V78.575L60.5 71.15H51.5C50.15 71.15 49.25 70.25 49.25 68.9V64.175L52.175 62.15H60.5C62.975 62.15 65 60.125 65 57.65V50H76.25C77.6 50 78.5 50.9 78.5 52.25V68.9Z" fill="#008BBA"/>
<path d="M55.55 55.175C55.55 51.575 52.625 48.65 49.25 48.425C50.825 48.2 51.95 46.85 51.95 45.05C51.95 43.25 50.375 41.675 48.575 41.675C46.775 41.675 44.975 43.25 44.975 45.05C44.975 46.85 46.325 48.2 47.9 48.425C44.525 48.65 41.825 51.575 41.825 55.175C41.825 55.85 42.275 56.3 42.95 56.3H54.2C54.875 56.3 55.55 55.85 55.55 55.175V55.175ZM47.225 45.05C47.225 44.375 47.675 43.925 48.35 43.925C49.025 43.925 49.475 44.375 49.475 45.05C49.475 45.725 49.025 46.175 48.35 46.175C47.675 46.175 47.225 45.725 47.225 45.05ZM44.3 54.05C44.75 52.025 46.55 50.675 48.8 50.675C51.05 50.675 52.625 52.025 53.3 54.05H44.3V54.05Z" fill="#008BBA"/>
<defs>
<filter id="filter0_d_1064_117" x="0" y="0" width="112" height="112" filterUnits="userSpaceOnUse" color-interpolation-filters="sRGB">
<feFlood flood-opacity="0" result="BackgroundImageFix"/>
<feColorMatrix in="SourceAlpha" type="matrix" values="0 0 0 0 0 0 0 0 0 0 0 0 0 0 0 0 0 0 127 0" result="hardAlpha"/>
<feOffset/>
<feGaussianBlur stdDeviation="7"/>
<feComposite in2="hardAlpha" operator="out"/>
<feColorMatrix type="matrix" values="0 0 0 0 0 0 0 0 0 0 0 0 0 0 0 0 0 0 0.12 0"/>
<feBlend mode="normal" in2="BackgroundImageFix" result="effect1_dropShadow_1064_117"/>
<feBlend mode="normal" in="SourceGraphic" in2="effect1_dropShadow_1064_117" result="shape"/>
</filter>
</defs>
</svg>
