<svg width="96" height="90" viewBox="0 0 96 90" fill="none" xmlns="http://www.w3.org/2000/svg">
<path d="M90.3 29.4998H85V19.9998C85 14.1998 80.2 9.3998 74.4 9.3998H38.5L45.4 2.4998C45.8 2.0998 45.8 1.4998 45.4 1.0998C45 0.699805 44.4 0.699805 44 1.0998L35.3 9.6998C35.1 9.8998 35 10.0998 35 10.3998C35 10.6998 35.1 10.8998 35.3 11.0998L44 19.6998C44.2 19.8998 44.5 19.9998 44.7 19.9998C44.9 19.9998 45.2 19.8998 45.4 19.6998C45.8 19.2998 45.8 18.6998 45.4 18.2998L38.5 11.3998H74.4C79.1 11.3998 83 15.2998 83 19.9998V29.5998H5.7C2.5 29.5998 0 32.1998 0 35.2998V44.0998V53.2998V83.5998C0 86.7998 2.6 89.2998 5.7 89.2998H90.3C93.5 89.2998 96 86.6998 96 83.5998V53.2998V44.0998V35.2998C96 32.0998 93.4 29.4998 90.3 29.4998ZM5.7 31.4998H83.7C83.8 31.4998 83.9 31.5998 84 31.5998C84.1 31.5998 84.2 31.5998 84.3 31.4998H90.4C92.5 31.4998 94.1 33.1998 94.1 35.1998V42.9998H2V35.1998C2 33.1998 3.7 31.4998 5.7 31.4998ZM94 52.2998H2V45.0998H94V52.2998ZM90.3 87.2998H5.7C3.6 87.2998 2 85.5998 2 83.5998V54.2998H94V83.5998C94 85.5998 92.3 87.2998 90.3 87.2998Z" fill="#008BBA"/>
<path d="M27.1 61.1001C25.7 61.1001 24.3 61.4001 23.1 62.1001C21.9 61.5001 20.5 61.1001 19.1 61.1001C14 61.1001 9.90002 65.2001 9.90002 70.3001C9.90002 75.4001 14 79.5001 19.1 79.5001C20.5 79.5001 21.9 79.2001 23.1 78.5001C24.4 79.1001 25.7 79.5001 27.1 79.5001C32.2 79.5001 36.3 75.4001 36.3 70.3001C36.3 65.2001 32.2 61.1001 27.1 61.1001ZM19.1 77.4001C15.1 77.4001 11.9 74.2001 11.9 70.2001C11.9 66.2001 15.1 63.0001 19.1 63.0001C19.8 63.0001 20.5 63.1001 21.1 63.3001C21 63.4001 20.9 63.5001 20.9 63.5001C20.8 63.6001 20.7 63.7001 20.6 63.8001C20.4 64.0001 20.2 64.2001 20.1 64.4001C20 64.5001 20 64.6001 19.9 64.7001C19.7 65.0001 19.5 65.3001 19.3 65.6001C19.3 65.6001 19.3 65.7001 19.2 65.7001C19 66.0001 18.9 66.3001 18.8 66.5001C18.8 66.6001 18.7 66.7001 18.7 66.8001C18.6 67.0001 18.5 67.3001 18.5 67.5001C18.5 67.6001 18.4 67.8001 18.4 67.9001C18.3 68.1001 18.3 68.4001 18.2 68.7001C18.2 68.8001 18.2 68.9001 18.1 69.0001C18.1 69.4001 18 69.7001 18 70.1001C18 70.5001 18 70.9001 18.1 71.2001C18.1 71.3001 18.1 71.4001 18.2 71.5001C18.2 71.8001 18.3 72.0001 18.4 72.3001C18.4 72.4001 18.5 72.6001 18.5 72.7001C18.6 72.9001 18.7 73.2001 18.7 73.4001C18.7 73.5001 18.8 73.6001 18.8 73.7001C18.9 74.0001 19.1 74.3001 19.2 74.5001C19.2 74.5001 19.2 74.6001 19.3 74.6001C19.5 74.9001 19.7 75.2001 19.9 75.5001C20 75.6001 20 75.7001 20.1 75.8001C20.3 76.0001 20.4 76.2001 20.6 76.4001C20.7 76.5001 20.8 76.6001 20.9 76.7001C21 76.8001 21 76.9001 21.1 76.9001C20.4 77.3001 19.8 77.4001 19.1 77.4001ZM27.1 77.4001C25.8 77.4001 24.7 77.1001 23.6 76.5001C21.4 75.2001 20 72.9001 20 70.3001C20 67.7001 21.4 65.3001 23.6 64.1001C24.7 63.5001 25.9 63.2001 27.1 63.2001C31.1 63.2001 34.3 66.4001 34.3 70.4001C34.3 74.2001 31.1 77.4001 27.1 77.4001ZM85.1 69.2001H48C47.4 69.2001 47 69.6001 47 70.2001C47 70.8001 47.4 71.2001 48 71.2001H85.1C85.7 71.2001 86.1 70.8001 86.1 70.2001C86.1 69.6001 85.7 69.2001 85.1 69.2001Z" fill="#008BBA"/>
</svg>
