<svg width="94" height="94" viewBox="0 0 94 94" fill="none" xmlns="http://www.w3.org/2000/svg">
<circle cx="47" cy="47" r="47" fill="url(#paint0_linear_625_7254)"/>
<path d="M56.75 54.3125H37.25C36.8009 54.3125 36.4375 53.9487 36.4375 53.5C36.4375 51.8211 39.171 45.7825 40.7857 42.4788C45.3282 33.1875 46.4572 33.1875 47 33.1875C47.5428 33.1875 48.6718 33.1875 53.2143 42.4788C54.829 45.7825 57.5625 51.8211 57.5625 53.5C57.5625 53.9487 57.1991 54.3125 56.75 54.3125ZM38.2093 52.6875H55.7908C54.7712 48.9424 48.744 36.6807 47 34.9371C45.256 36.6807 39.2288 48.9424 38.2093 52.6875Z" fill="white"/>
<path d="M47.4062 47H46.5938C46.3694 47 46.1875 46.8181 46.1875 46.5938V40.9062C46.1875 40.6819 46.3694 40.5 46.5938 40.5H47.4062C47.6306 40.5 47.8125 40.6819 47.8125 40.9062V46.5938C47.8125 46.8181 47.6306 47 47.4062 47ZM47.8125 49.8438V49.0312C47.8125 48.8069 47.6306 48.625 47.4062 48.625H46.5938C46.3694 48.625 46.1875 48.8069 46.1875 49.0312V49.8438C46.1875 50.0681 46.3694 50.25 46.5938 50.25H47.4062C47.6306 50.25 47.8125 50.0681 47.8125 49.8438Z" fill="white"/>
<path d="M64.0625 58.375H29.9375C29.4888 58.375 29.125 58.0112 29.125 57.5625V29.9375C29.125 29.4888 29.4888 29.125 29.9375 29.125H64.0625C64.5112 29.125 64.875 29.4888 64.875 29.9375V57.5625C64.875 58.0112 64.5112 58.375 64.0625 58.375ZM30.75 56.75H63.25V30.75H30.75V56.75Z" fill="white"/>
<path d="M70.5625 60.8125H68.125V28.3125C68.125 26.9719 67.0281 25.875 65.6875 25.875H28.3125C26.9719 25.875 25.875 26.9719 25.875 28.3125V60.8125H23.4375C22.9906 60.8125 22.625 61.1781 22.625 61.625V64.0625C22.625 66.305 24.445 68.125 26.6875 68.125H67.3125C69.555 68.125 71.375 66.305 71.375 64.0625V61.625C71.375 61.1781 71.0094 60.8125 70.5625 60.8125ZM27.5 28.3125C27.5 27.8656 27.8656 27.5 28.3125 27.5H65.6875C66.1344 27.5 66.5 27.8656 66.5 28.3125V60.8125H54.3125C54.0444 60.8125 53.7844 60.9506 53.6381 61.1781L52.7931 62.4375L52.2487 63.25H41.7513L41.2069 62.4375L40.3619 61.1781C40.2156 60.9506 39.9556 60.8125 39.6875 60.8125H27.5V28.3125ZM69.75 64.0625C69.75 65.4031 68.6531 66.5 67.3125 66.5H26.6875C25.3469 66.5 24.25 65.4031 24.25 64.0625V62.4375H26.6875H39.2487L40.6381 64.5094C40.7844 64.7369 41.0444 64.875 41.3125 64.875H52.6875C52.9556 64.875 53.2156 64.7369 53.3619 64.5094L54.7513 62.4375H67.3125H69.75V64.0625Z" fill="white"/>
<defs>
<linearGradient id="paint0_linear_625_7254" x1="47" y1="0" x2="47" y2="94" gradientUnits="userSpaceOnUse">
<stop stop-color="#40C8F7"/>
<stop offset="1" stop-color="#008BBA"/>
</linearGradient>
</defs>
</svg>
