<svg width="94" height="94" viewBox="0 0 94 94" fill="none" xmlns="http://www.w3.org/2000/svg">
<circle cx="47" cy="47" r="47" fill="url(#paint0_linear_625_7331)"/>
<path d="M53.5 60.0001H29.6667V31.8334H53.5V34.9967H55.6667V27.5001C55.6667 26.3508 55.2101 25.2486 54.3975 24.436C53.5848 23.6233 52.4826 23.1667 51.3333 23.1667H31.8333C30.6841 23.1667 29.5819 23.6233 28.7692 24.436C27.9565 25.2486 27.5 26.3508 27.5 27.5001V66.5001C27.5 67.6494 27.9565 68.7516 28.7692 69.5642C29.5819 70.3769 30.6841 70.8334 31.8333 70.8334H51.3333C52.4826 70.8334 53.5848 70.3769 54.3975 69.5642C55.2101 68.7516 55.6667 67.6494 55.6667 66.5001V56.6634H53.5V60.0001ZM31.8333 25.3334H51.3333C51.908 25.3334 52.4591 25.5617 52.8654 25.968C53.2717 26.3743 53.5 26.9254 53.5 27.5001V29.6667H29.6667V27.5001C29.6667 26.9254 29.8949 26.3743 30.3013 25.968C30.7076 25.5617 31.2587 25.3334 31.8333 25.3334ZM51.3333 68.6667H31.8333C31.2587 68.6667 30.7076 68.4385 30.3013 68.0322C29.8949 67.6258 29.6667 67.0747 29.6667 66.5001V62.1667H53.5V66.5001C53.5 67.0747 53.2717 67.6258 52.8654 68.0322C52.4591 68.4385 51.908 68.6667 51.3333 68.6667ZM44.8333 28.5834H38.3333V26.4167H44.8333V28.5834ZM38.3333 64.3334H44.8333V66.5001H38.3333V64.3334ZM63.25 37.2501H42.6667V36.1667H40.5V55.6667H42.6667V54.5834H63.25C64.112 54.5834 64.9386 54.241 65.5481 53.6315C66.1576 53.022 66.5 52.1954 66.5 51.3334V40.5001C66.5 39.6381 66.1576 38.8115 65.5481 38.202C64.9386 37.5925 64.112 37.2501 63.25 37.2501ZM63.25 39.4167C63.5373 39.4167 63.8129 39.5309 64.016 39.734C64.2192 39.9372 64.3333 40.2128 64.3333 40.5001V41.5834H42.6667V39.4167H63.25ZM63.25 52.4167H42.6667V43.7501H64.3333V51.3334C64.3333 51.6207 64.2192 51.8963 64.016 52.0994C63.8129 52.3026 63.5373 52.4167 63.25 52.4167ZM55.6667 48.0834H62.1667V50.2501H55.6667V48.0834ZM44.8333 48.0834H51.3333V50.2501H44.8333V48.0834Z" fill="white"/>
<defs>
<linearGradient id="paint0_linear_625_7331" x1="47" y1="0" x2="47" y2="94" gradientUnits="userSpaceOnUse">
<stop stop-color="#40C8F7"/>
<stop offset="1" stop-color="#008BBA"/>
</linearGradient>
</defs>
</svg>
