<svg width="112" height="112" viewBox="0 0 112 112" fill="none" xmlns="http://www.w3.org/2000/svg">
<g filter="url(#filter0_d_1064_116)">
<circle cx="56" cy="56" r="42" fill="white"/>
</g>
<g clip-path="url(#clip0_1064_116)">
<path d="M70.6667 70.4583H54C53.1712 70.4583 52.3763 70.1291 51.7903 69.543C51.2042 68.957 50.875 68.1621 50.875 67.3333V65.25H68.5833C68.285 66.1468 68.2896 67.1168 68.5964 68.0108C68.9032 68.9048 69.4951 69.6732 70.2813 70.1979L70.6667 70.4583Z" fill="white"/>
<path d="M41.5 45.4583H34.2084V49.6249H41.5V45.4583Z" fill="white"/>
<path d="M77.125 53.7917L72.75 50.1771V38.1667C72.75 37.0616 72.311 36.0018 71.5296 35.2204C70.7482 34.439 69.6884 34 68.5833 34H54C52.8949 34 51.8351 34.439 51.0537 35.2204C50.2723 36.0018 49.8333 37.0616 49.8333 38.1667V40.25H32.125C31.2962 40.25 30.5013 40.5792 29.9153 41.1653C29.3292 41.7513 29 42.5462 29 43.375V60.0417C29 60.8705 29.3292 61.6653 29.9153 62.2514C30.5013 62.8374 31.2962 63.1667 32.125 63.1667H49.8333V67.3333C49.8333 68.4384 50.2723 69.4982 51.0537 70.2796C51.8351 71.061 52.8949 71.5 54 71.5H62.5C62.75 72.7396 63.1146 73.3021 64.4167 75.9167V79.8333C64.4167 80.1096 64.5264 80.3746 64.7218 80.5699C64.9171 80.7653 65.1821 80.875 65.4583 80.875C65.7346 80.875 65.9996 80.7653 66.1949 80.5699C66.3903 80.3746 66.5 80.1096 66.5 79.8333C66.5 75.3437 66.5 75.5104 66.3854 75.1979C65.6957 74.02 65.1135 72.7824 64.6458 71.5H69.625V72.5417C69.625 72.8179 69.7347 73.0829 69.9301 73.2782C70.1254 73.4736 70.3904 73.5833 70.6667 73.5833C70.9429 73.5833 71.2079 73.4736 71.4032 73.2782C71.5986 73.0829 71.7083 72.8179 71.7083 72.5417V70.4583C71.6788 70.2133 71.5853 69.9803 71.4372 69.7828C71.2891 69.5853 71.0916 69.4303 70.8646 69.3333C70.2762 68.93 69.8363 68.3447 69.6124 67.6674C69.3885 66.99 69.3929 66.2579 69.625 65.5833C69.6835 65.4079 69.697 65.2206 69.6642 65.0386C69.6314 64.8566 69.5535 64.6857 69.4375 64.5417L66.0521 60.4896C65.785 60.1575 65.6544 59.7361 65.6868 59.3112C65.7192 58.8862 65.9122 58.4895 66.2265 58.2017C66.5408 57.9139 66.9529 57.7566 67.3791 57.7617C67.8052 57.7668 68.2135 57.9339 68.5208 58.2292L72.0625 61.7812C72.2586 61.9774 72.5247 62.0876 72.8021 62.0876C73.0795 62.0876 73.3455 61.9774 73.5417 61.7812C73.7378 61.5851 73.848 61.3191 73.848 61.0417C73.848 60.7643 73.7378 60.4982 73.5417 60.3021L72.8021 59.5729V52.8854L75.8437 55.4271C76.1857 55.7247 76.4587 56.0932 76.644 56.5069C76.8292 56.9206 76.9223 57.3697 76.9167 57.8229V72.3229C76.9167 74.4062 74.8333 75.2604 74.8333 77.3437V79.8333C74.8333 80.1096 74.9431 80.3746 75.1384 80.5699C75.3338 80.7653 75.5987 80.875 75.875 80.875C76.1513 80.875 76.4162 80.7653 76.6116 80.5699C76.8069 80.3746 76.9167 80.1096 76.9167 79.8333V77.3437C76.9167 76.3021 79 75.0417 79 72.3229V57.8229C79.0043 57.0542 78.8384 56.2942 78.5143 55.5972C78.1901 54.9002 77.7156 54.2836 77.125 53.7917ZM49.8333 56.9167H34.2083C33.9321 56.9167 33.6671 57.0264 33.4718 57.2218C33.2764 57.4171 33.1667 57.6821 33.1667 57.9583C33.1667 58.2346 33.2764 58.4996 33.4718 58.6949C33.6671 58.8903 33.9321 59 34.2083 59H49.8333V61.0833H32.125C31.8487 61.0833 31.5838 60.9736 31.3884 60.7782C31.1931 60.5829 31.0833 60.3179 31.0833 60.0417V43.375C31.0833 43.0987 31.1931 42.8338 31.3884 42.6384C31.5838 42.4431 31.8487 42.3333 32.125 42.3333H49.8333V56.9167ZM68.125 69.4167H54C53.4475 69.4167 52.9176 69.1972 52.5269 68.8065C52.1362 68.4158 51.9167 67.8859 51.9167 67.3333V66.2917H67.3333C67.2713 67.3898 67.5476 68.4805 68.125 69.4167V69.4167ZM70.6667 57.5312L69.9375 56.8021C69.2526 56.1266 68.3343 55.7401 67.3724 55.7226C66.4106 55.7051 65.4788 56.0579 64.7698 56.7081C64.0607 57.3582 63.6287 58.256 63.563 59.2158C63.4972 60.1755 63.8029 61.1238 64.4167 61.8646L66.3542 64.2083H51.9167V38.1667C51.9167 37.6141 52.1362 37.0842 52.5269 36.6935C52.9176 36.3028 53.4475 36.0833 54 36.0833H57.125C57.125 36.3596 57.2347 36.6246 57.4301 36.8199C57.6254 37.0153 57.8904 37.125 58.1667 37.125H64.4167C64.6929 37.125 64.9579 37.0153 65.1532 36.8199C65.3486 36.6246 65.4583 36.3596 65.4583 36.0833H68.5833C69.1359 36.0833 69.6658 36.3028 70.0565 36.6935C70.4472 37.0842 70.6667 37.6141 70.6667 38.1667V57.5312Z" fill="#008BBA"/>
<path d="M34.2083 50.6667H41.5C41.7762 50.6667 42.0412 50.557 42.2365 50.3617C42.4319 50.1663 42.5416 49.9013 42.5416 49.6251V45.4584C42.5416 45.1821 42.4319 44.9172 42.2365 44.7218C42.0412 44.5265 41.7762 44.4167 41.5 44.4167H34.2083C33.932 44.4167 33.6671 44.5265 33.4717 44.7218C33.2764 44.9172 33.1666 45.1821 33.1666 45.4584V49.6251C33.1666 49.9013 33.2764 50.1663 33.4717 50.3617C33.6671 50.557 33.932 50.6667 34.2083 50.6667ZM35.25 46.5001H40.4583V48.5834H35.25V46.5001Z" fill="#008BBA"/>
<path d="M34.2083 54.8333H38.375C38.6512 54.8333 38.9162 54.7236 39.1115 54.5282C39.3069 54.3329 39.4166 54.0679 39.4166 53.7917C39.4166 53.5154 39.3069 53.2504 39.1115 53.0551C38.9162 52.8597 38.6512 52.75 38.375 52.75H34.2083C33.932 52.75 33.6671 52.8597 33.4717 53.0551C33.2764 53.2504 33.1666 53.5154 33.1666 53.7917C33.1666 54.0679 33.2764 54.3329 33.4717 54.5282C33.6671 54.7236 33.932 54.8333 34.2083 54.8333ZM41.5 53.7917C41.5 54.0679 41.6097 54.3329 41.8051 54.5282C42.0004 54.7236 42.2654 54.8333 42.5416 54.8333H46.7083C46.9846 54.8333 47.2495 54.7236 47.4449 54.5282C47.6402 54.3329 47.75 54.0679 47.75 53.7917C47.75 53.5154 47.6402 53.2504 47.4449 53.0551C47.2495 52.8597 46.9846 52.75 46.7083 52.75H42.5416C42.2654 52.75 42.0004 52.8597 41.8051 53.0551C41.6097 53.2504 41.5 53.5154 41.5 53.7917Z" fill="#008BBA"/>
<path d="M66.375 81V80.75H74.9583V81H66.375Z" stroke="#008BBA" stroke-width="6"/>
<path d="M61.2917 52.7499C64.1682 52.7499 66.5 50.4181 66.5 47.5416C66.5 44.6651 64.1682 42.3333 61.2917 42.3333C58.4152 42.3333 56.0834 44.6651 56.0834 47.5416C56.0834 50.4181 58.4152 52.7499 61.2917 52.7499Z" fill="#E6F7F9"/>
<path d="M66.1979 45.1564L62.0312 49.323C61.9339 49.4196 61.8184 49.496 61.6915 49.5478C61.5646 49.5996 61.4287 49.6259 61.2916 49.6251C60.7291 49.6251 60.6979 49.4689 58.4687 47.2397C58.3716 47.1426 58.2945 47.0273 58.242 46.9004C58.1894 46.7735 58.1624 46.6375 58.1624 46.5001C58.1624 46.2227 58.2725 45.9567 58.4687 45.7605C58.6648 45.5644 58.9309 45.4542 59.2083 45.4542C59.3456 45.4542 59.4816 45.4812 59.6085 45.5338C59.7354 45.5864 59.8507 45.6634 59.9479 45.7605L61.2916 47.1147L64.7187 43.6772C64.9148 43.481 65.1809 43.3708 65.4583 43.3708C65.7357 43.3708 66.0017 43.481 66.1979 43.6772C66.394 43.8733 66.5042 44.1394 66.5042 44.4168C66.5042 44.6942 66.394 44.9602 66.1979 45.1564V45.1564Z" fill="#008BBA"/>
</g>
<defs>
<filter id="filter0_d_1064_116" x="0" y="0" width="112" height="112" filterUnits="userSpaceOnUse" color-interpolation-filters="sRGB">
<feFlood flood-opacity="0" result="BackgroundImageFix"/>
<feColorMatrix in="SourceAlpha" type="matrix" values="0 0 0 0 0 0 0 0 0 0 0 0 0 0 0 0 0 0 127 0" result="hardAlpha"/>
<feOffset/>
<feGaussianBlur stdDeviation="7"/>
<feComposite in2="hardAlpha" operator="out"/>
<feColorMatrix type="matrix" values="0 0 0 0 0 0 0 0 0 0 0 0 0 0 0 0 0 0 0.12 0"/>
<feBlend mode="normal" in2="BackgroundImageFix" result="effect1_dropShadow_1064_116"/>
<feBlend mode="normal" in="SourceGraphic" in2="effect1_dropShadow_1064_116" result="shape"/>
</filter>
<clipPath id="clip0_1064_116">
<rect width="50" height="50" fill="white" transform="translate(29 34)"/>
</clipPath>
</defs>
</svg>
