<svg width="94" height="94" viewBox="0 0 94 94" fill="none" xmlns="http://www.w3.org/2000/svg">
<circle cx="47" cy="47" r="47" fill="url(#paint0_linear_625_7320)"/>
<path d="M51.1089 42.5503L44.5073 49.1518L41.8074 46.4498C41.3864 46.0371 40.7123 46.0371 40.2911 46.4498C39.8639 46.8686 39.857 47.5544 40.2757 47.9817L43.7415 51.4496C43.9446 51.6529 44.2201 51.767 44.5074 51.767C44.7947 51.767 45.0701 51.6529 45.2733 51.4496L52.6562 44.0666C53.0749 43.6394 53.0681 42.9534 52.6408 42.5347C52.2135 42.1161 51.5277 42.1229 51.1089 42.5503ZM64.3104 29.1323C64.1878 28.5465 63.6136 28.1709 63.0278 28.2934C57.6778 29.4231 52.099 28.2823 47.622 25.1428C47.2488 24.8805 46.7511 24.8805 46.3779 25.1428C41.9011 28.2824 36.3221 29.4234 30.9721 28.2934C30.8994 28.2782 30.8253 28.2705 30.751 28.2705C30.1525 28.2701 29.667 28.7549 29.6666 29.3534V46.727C29.6702 53.0888 32.7329 59.0609 37.8974 62.776L46.3694 68.8507C46.5531 68.9829 46.7737 69.0541 47 69.0538C47.2262 69.0541 47.4468 68.983 47.6305 68.8508L56.1025 62.776C61.267 59.0609 64.3297 53.0888 64.3333 46.727V29.3534C64.3333 29.2791 64.3256 29.2051 64.3104 29.1323ZM62.1666 46.727C62.1642 52.3905 59.4385 57.7075 54.8414 61.0155L47 66.6374L39.1585 61.0155C34.5615 57.7074 31.8357 52.3905 31.8333 46.727V30.6484C37.1238 31.4386 42.5204 30.2605 47 27.337C51.4799 30.2597 56.8762 31.4378 62.1666 30.6484V46.727Z" fill="white"/>
<defs>
<linearGradient id="paint0_linear_625_7320" x1="47" y1="0" x2="47" y2="94" gradientUnits="userSpaceOnUse">
<stop stop-color="#40C8F7"/>
<stop offset="1" stop-color="#008BBA"/>
</linearGradient>
</defs>
</svg>
