<svg width="488" height="364" viewBox="0 0 488 364" fill="none" xmlns="http://www.w3.org/2000/svg">
<g clip-path="url(#clip0_757_530)">
<path d="M42.8612 1.36157C39.9234 1.36157 37.534 3.75012 37.534 6.68486V271.419C37.534 274.354 39.9234 276.742 42.8612 276.742H231.326C234.261 276.742 236.652 274.354 236.652 271.419V6.68486C236.652 3.75012 234.261 1.36157 231.326 1.36157H42.8612ZM231.326 276.986H42.8612C39.7892 276.986 37.29 274.488 37.29 271.419V6.68486C37.29 3.61552 39.7892 1.11871 42.8612 1.11871H231.326C234.396 1.11871 236.896 3.61552 236.896 6.68486V271.419C236.896 274.488 234.396 276.986 231.326 276.986" fill="#EEEEEE"/>
<path d="M253.967 1.36157C251.03 1.36157 248.641 3.75012 248.641 6.68486V271.419C248.641 274.354 251.03 276.742 253.967 276.742H442.432C445.368 276.742 447.759 274.354 447.759 271.419V6.68486C447.759 3.75012 445.368 1.36157 442.432 1.36157H253.967ZM442.432 276.986H253.967C250.896 276.986 248.397 274.488 248.397 271.419V6.68486C248.397 3.61552 250.896 1.11871 253.967 1.11871H442.432C445.503 1.11871 448.003 3.61552 448.003 6.68486V271.419C448.003 274.488 445.503 276.986 442.432 276.986" fill="#EEEEEE"/>
<path d="M406.776 336.182H439.103V336.426H406.776V336.182Z" fill="#EEEEEE"/>
<path d="M314.786 338.829H323.27V339.073H314.786V338.829Z" fill="#EEEEEE"/>
<path d="M387.068 327.125H405.799V327.369H387.068V327.125" fill="#EEEEEE"/>
<path d="M51.2002 329.008H93.3569V328.765H51.2002V329.008Z" fill="#EEEEEE"/>
<path d="M102.047 329.008H108.228V328.765H102.047V329.008Z" fill="#EEEEEE"/>
<path d="M128.315 333.125H219.743V332.881H128.315V333.125Z" fill="#EEEEEE"/>
<path d="M0 320.727H488V320.483H0V320.727Z" fill="#EEEEEE"/>
<path d="M36.4224 209.844H151.223V40.3306H36.4224V209.844Z" fill="#E3E3E2"/>
<path d="M40.6475 209.844H155.448V40.3306H40.6475V209.844Z" fill="#F4F4F4"/>
<path d="M149.641 129.946V199.916H46.2344V129.946H149.641Z" fill="#EEEEEE"/>
<path d="M149.641 47.2193V129.946H46.2344V47.2193H149.641Z" fill="white"/>
<path d="M149.643 199.916H146.003V47.2241H149.643V199.916Z" fill="#E3E3E2"/>
<path d="M146.392 129.947V133.638H45.9121V129.947H146.392Z" fill="#E3E3E2"/>
<path d="M149.641 123.753V129.946H44.2822V123.753H149.641Z" fill="#F4F4F4"/>
<path d="M427.654 321.591H287.735C277.132 321.591 268.537 313.002 268.537 302.407V260.791C268.537 250.196 277.132 241.608 287.735 241.608H427.654C438.256 241.608 446.852 250.196 446.852 260.791V302.407C446.852 313.002 438.256 321.591 427.654 321.591" fill="#E3E3E2"/>
<path d="M418.258 322.182H278.339C267.735 322.182 259.141 313.593 259.141 302.999V261.382C259.141 250.787 267.735 242.199 278.339 242.199H418.258C428.86 242.199 437.455 250.787 437.455 261.382V302.999C437.455 313.593 428.86 322.182 418.258 322.182" fill="#F8F8F9"/>
<path d="M429.282 279.581H268.363V263.139C268.363 255.74 274.366 249.74 281.771 249.74H415.873C423.278 249.74 429.282 255.74 429.282 263.139V279.581Z" fill="#E3E3E2"/>
<path d="M415.873 313.459H281.771C274.366 313.459 268.363 307.459 268.363 300.06V283.619H429.282V300.06C429.282 307.459 423.278 313.459 415.873 313.459Z" fill="#E3E3E2"/>
<path d="M356.537 279.778H386V255.517H356.537V279.778Z" fill="#E9E9E8"/>
<path d="M348.99 279.778H356.537V255.517H348.99V279.778Z" fill="#F8F8F9"/>
<path d="M355.245 273.249C355.245 274.619 354.134 275.73 352.763 275.73C351.393 275.73 350.282 274.619 350.282 273.249C350.282 271.879 351.393 270.77 352.763 270.77C354.134 270.77 355.245 271.879 355.245 273.249Z" fill="#E3E3E2"/>
<path d="M371.592 251.776H393.725V279.778H371.592V251.776" fill="#E9E9E8"/>
<path d="M365.204 279.778H371.602V251.776H365.204V279.778Z" fill="#F8F8F9"/>
<path d="M370.597 255.844C370.597 257.054 369.614 258.036 368.403 258.036C367.192 258.036 366.21 257.054 366.21 255.844C366.21 254.634 367.192 253.652 368.403 253.652C369.614 253.652 370.597 254.634 370.597 255.844Z" fill="#E3E3E2"/>
<path d="M370.597 255.844C370.597 257.054 369.614 258.036 368.403 258.036C367.192 258.036 366.21 257.054 366.21 255.844C366.21 254.634 367.192 253.652 368.403 253.652C369.614 253.652 370.597 254.634 370.597 255.844Z" fill="#E3E3E2"/>
<path d="M378.114 255.517H396.774V279.778H378.114V255.517Z" fill="#EEEEEE"/>
<path d="M378.114 279.778H373.851V255.517H378.114V279.778Z" fill="#F8F8F9"/>
<path d="M393.387 259.622H417.863V279.778H393.387V259.622Z" fill="#E9E9E8"/>
<path d="M393.387 279.778H387.12V259.622H393.387V279.778Z" fill="#F8F8F9"/>
<path d="M405.893 256.514H424.28V279.778H405.893V256.514Z" fill="#E9E9E8"/>
<path d="M405.902 279.778H400.585V256.514H405.902V279.778Z" fill="#F8F8F9"/>
<path d="M411.312 259.622H429.173V279.778H411.312V259.622Z" fill="#E9E9E8"/>
<path d="M411.303 279.778H407.765V259.622H411.303V279.778Z" fill="#F4F4F4"/>
<path d="M292.764 312.54H315.571V288.279H292.764V312.54Z" fill="#E9E9E8"/>
<path d="M286.922 312.54H292.763V288.279H286.922V312.54Z" fill="#F8F8F9"/>
<path d="M304.419 312.54H321.551V284.538H304.419V312.54Z" fill="#E9E9E8"/>
<path d="M299.473 312.54H304.426V284.538H299.473V312.54Z" fill="#F8F8F9"/>
<path d="M370.57 288.279H393.376V312.54H370.57V288.279Z" fill="#E9E9E8"/>
<path d="M370.569 312.54H364.727V288.279H370.569V312.54Z" fill="#F8F8F9"/>
<path d="M382.224 284.538H399.356V312.54H382.224V284.538Z" fill="#E9E9E8"/>
<path d="M382.231 312.54H377.279V284.538H382.231V312.54Z" fill="#F8F8F9"/>
<path d="M309.467 312.54H323.911V288.279H309.467V312.54Z" fill="#EEEEEE"/>
<path d="M306.167 312.54H309.467V288.279H306.167V312.54Z" fill="#F8F8F9"/>
<path d="M321.289 312.54H340.235V292.384H321.289V312.54Z" fill="#E9E9E8"/>
<path d="M316.438 312.54H321.288V292.384H316.438V312.54Z" fill="#F8F8F9"/>
<path d="M330.969 312.54H345.202V289.276H330.969V312.54Z" fill="#E9E9E8"/>
<path d="M326.861 312.54H330.977V289.276H326.861V312.54Z" fill="#F8F8F9"/>
<path d="M335.165 312.54H348.99V292.384H335.165V312.54Z" fill="#E9E9E8"/>
<path d="M332.419 312.54H335.157V292.384H332.419V312.54Z" fill="#F4F4F4"/>
<path d="M332.276 218.352C331.791 217.395 330.683 216.843 329.674 217.053C328.667 217.264 327.841 218.222 327.737 219.3C327.024 218.768 326.005 218.741 325.269 219.236C324.531 219.73 324.121 220.715 324.274 221.624C323.471 220.976 322.153 221.243 321.635 222.161C321.117 223.078 321.519 224.43 322.441 224.869C321.814 224.914 321.275 225.54 321.291 226.204C321.308 226.868 321.877 227.462 322.507 227.472C321.87 227.487 321.286 228.046 321.208 228.713C321.131 229.379 321.572 230.071 322.185 230.246C321.54 230.532 321.377 231.593 321.903 232.081C322.429 232.569 323.404 232.259 323.589 231.546C323.688 231.752 323.992 231.801 324.143 231.634C324.295 231.467 324.236 231.148 324.037 231.053C324.328 231.462 325.07 231.273 325.152 230.768C324.934 231.936 326.329 233.036 327.327 232.482C327.04 232.97 327.447 233.652 327.972 233.803C328.497 233.956 329.052 233.742 329.544 233.498C330.038 233.254 330.542 232.97 331.088 232.978C331.565 232.984 332.01 233.215 332.468 233.361C333.919 233.827 335.599 233.384 336.673 232.252C337.428 233.265 339.217 232.992 339.67 231.796C339.787 232.371 340.294 232.828 340.849 232.861C341.404 232.894 341.957 232.497 342.133 231.94C342.145 232.197 342.156 232.452 342.167 232.708C343.214 232.956 344.247 231.606 343.799 230.577C344.547 230.591 345.253 229.946 345.349 229.164C345.445 228.381 344.918 227.567 344.193 227.378C345.424 227.033 346.363 225.757 346.377 224.411C346.39 223.066 345.478 221.769 344.253 221.397C343.771 221.249 343.205 221.253 342.819 221.593C342.434 221.933 342.383 222.68 342.813 222.953C343.183 221.746 342.634 220.302 341.578 219.699C340.521 219.097 339.076 219.408 338.326 220.396C338.691 219.883 338.697 219.118 338.341 218.597C337.985 218.077 337.294 217.846 336.719 218.053C336.576 217.224 335.749 216.599 334.96 216.72C334.172 216.843 333.55 217.693 333.638 218.53C333.547 217.83 332.46 217.626 332.146 218.249C331.703 218.124 332.276 218.352 332.276 218.352" fill="#EEEEEE"/>
<path d="M332.57 226.138C332.246 225.914 331.839 225.793 331.454 225.87C331.068 225.948 330.72 226.245 330.64 226.63C330.56 227.014 330.801 227.456 331.183 227.548C331.426 227.606 331.669 227.529 331.914 227.452C332.137 227.382 332.361 227.312 332.587 227.344C332.756 227.368 332.912 227.448 333.077 227.492C333.756 227.673 334.431 227.229 334.995 226.808C335.195 226.66 335.398 226.508 335.53 226.298C335.663 226.089 335.712 225.809 335.587 225.594C335.413 225.297 335.001 225.254 334.659 225.293C333.971 225.371 333.306 225.649 332.767 226.082C332.785 225.974 332.802 225.867 332.82 225.759L332.57 226.138" fill="#FCFDFD"/>
<path d="M342.459 225.554C342.274 225.424 342.084 225.294 341.864 225.242C341.645 225.19 341.387 225.237 341.248 225.414C341.058 225.658 341.179 226.038 341.42 226.231C341.661 226.423 341.982 226.478 342.287 226.524C342.6 226.572 342.996 226.584 343.151 226.308C343.264 226.106 343.173 225.839 343.004 225.681C342.836 225.523 342.608 225.448 342.388 225.377L342.459 225.554" fill="#FCFDFD"/>
<path d="M326.836 220.414C326.206 220.676 325.719 221.26 325.573 221.926C325.528 222.127 325.534 222.378 325.711 222.487C325.835 222.562 325.995 222.531 326.137 222.497C326.74 222.354 327.344 222.211 327.948 222.067C327.659 222.178 327.363 222.293 327.132 222.5C326.901 222.706 326.746 223.027 326.822 223.326C326.911 223.678 327.297 223.896 327.661 223.89C328.025 223.885 328.362 223.705 328.658 223.493C328.973 223.268 329.282 222.954 329.288 222.567C329.294 222.178 328.805 221.819 328.507 222.067C329.197 221.881 329.857 221.581 330.451 221.184C330.666 221.039 330.877 220.877 331.013 220.658C331.149 220.437 331.195 220.146 331.07 219.92C330.451 218.797 329.669 220.444 329.289 220.591C328.944 220.724 328.578 220.602 328.19 220.48C327.765 220.347 327.314 220.214 326.836 220.414" fill="#FCFDFD"/>
<path d="M324.022 225.21C323.958 225.429 324.002 225.694 324.18 225.837C324.36 225.979 324.676 225.931 324.759 225.718C324.355 225.844 323.924 225.99 323.671 226.329C323.42 226.67 323.481 227.264 323.884 227.395C324.135 227.477 324.403 227.354 324.635 227.228C325.291 226.869 325.917 226.457 326.506 225.996C326.326 226.41 326.758 226.88 327.209 226.919C327.659 226.957 328.079 226.715 328.466 226.481C328.939 226.193 329.483 225.753 329.359 225.214C329.25 224.743 328.648 224.536 328.186 224.673C327.724 224.812 327.376 225.183 327.053 225.541C327.305 225.172 326.945 224.623 326.501 224.563C326.069 224.505 325.638 224.768 325.369 225.085C325.872 224.81 325.984 224.089 325.31 224.006C324.871 223.952 324.127 224.844 324.022 225.21Z" fill="#FCFDFD"/>
<path d="M337.838 223.595C337.458 223.452 336.981 223.7 336.879 224.092C336.777 224.485 337.072 224.933 337.472 224.994C337.179 225.02 336.896 225.167 336.706 225.394C336.6 225.52 336.521 225.682 336.544 225.845C336.579 226.088 336.84 226.248 337.086 226.257C337.332 226.267 337.566 226.162 337.791 226.06C337.548 226.083 337.29 226.112 337.097 226.261C336.903 226.41 336.82 226.726 336.993 226.898C337.139 227.042 337.377 227.018 337.573 226.963C338.014 226.84 338.425 226.608 338.76 226.296C339.011 226.574 339.382 226.774 339.752 226.715C340.122 226.654 340.436 226.26 340.32 225.904C340.237 225.65 339.972 225.49 339.706 225.458C339.441 225.425 339.175 225.498 338.921 225.581C339.18 225.396 339.457 225.189 339.552 224.886C339.647 224.581 339.442 224.172 339.123 224.196C338.765 224.225 338.582 224.711 338.299 224.887C337.951 224.56 338.604 223.879 337.838 223.595" fill="#FCFDFD"/>
<path d="M331.388 222.106C330.98 222.381 330.839 222.925 330.868 223.416C330.899 223.958 331.145 224.536 331.643 224.754C332.297 225.04 333.115 224.496 333.235 223.793C333.355 223.088 332.893 222.373 332.26 222.044C332.26 222.044 331.795 221.83 331.388 222.106" fill="#FCFDFD"/>
<path d="M335.957 221.522L336.126 221.667C335.847 221.316 335.262 221.269 334.932 221.573C334.603 221.876 334.601 222.463 334.929 222.768C335.256 223.074 335.842 223.032 336.123 222.683C336.595 222.902 337.218 222.817 337.55 222.416C337.882 222.015 337.807 221.316 337.354 221.06C336.901 220.802 336.211 221.188 336.26 221.706L336.064 221.487L335.957 221.522" fill="#FCFDFD"/>
<path d="M341.001 222.335C340.678 222.654 340.341 222.993 340.223 223.432C340.104 223.87 340.3 224.427 340.74 224.538C341.176 224.65 341.591 224.289 341.841 223.913C342.065 223.575 342.237 223.152 342.108 222.767C341.979 222.38 341.422 222.152 341.144 222.45L341.001 222.335" fill="#FCFDFD"/>
<path d="M333.733 219.69C333.568 219.324 333.046 219.195 332.704 219.407C332.362 219.62 332.236 220.099 332.386 220.473C332.534 220.846 332.919 221.101 333.319 221.144C333.815 221.197 334.401 220.797 334.289 220.312C334.503 220.593 334.887 220.706 335.239 220.671C335.591 220.635 335.918 220.476 336.224 220.301C336.64 220.061 337.084 219.691 337.04 219.212C337.005 218.832 336.637 218.538 336.256 218.503C335.875 218.468 335.499 218.645 335.209 218.893C334.98 219.089 334.79 219.329 334.544 219.5C334.296 219.671 333.959 219.763 333.695 219.62L333.733 219.69" fill="#FCFDFD"/>
<path d="M339.94 241.869H327.441L326.217 229.282H341.164L339.94 241.869Z" fill="#F4F4F4"/>
<path d="M342.132 229.931H325.126L324.82 228.257H342.438L342.132 229.931Z" fill="#FCFDFD"/>
<path d="M326.961 279.751H312.614L317.109 265.277L317.767 263.16H321.012L326.961 279.751" fill="#EEEEEE"/>
<path d="M317.767 263.16L317.109 265.277L312.614 279.751L299.351 279.553L295.087 265.277L294.429 263.16H317.767" fill="#E3E3E2"/>
<path d="M317.767 263.16L317.109 265.277L312.614 279.751L285.374 279.346L291.177 263.16H317.767" fill="#FCFDFD"/>
<path d="M317.767 263.16L317.109 265.277H290.424L291.177 263.16H317.767" fill="#EEEEEE"/>
<path d="M289.235 271.665H294.168L295.69 266.808L290.975 266.755L289.235 271.665ZM294.526 272.153H288.544L290.631 266.264L296.352 266.328L294.526 272.153Z" fill="#EEEEEE"/>
<path d="M295.927 271.665H300.86L302.383 266.808L297.667 266.755L295.927 271.665M301.218 272.153H295.237L297.324 266.264L303.045 266.328L301.218 272.153Z" fill="#EEEEEE"/>
<path d="M302.62 271.665H307.552L309.075 266.808L304.359 266.755L302.62 271.665M307.911 272.153H301.929L304.016 266.264L309.738 266.328L307.911 272.153Z" fill="#EEEEEE"/>
<path d="M309.312 271.665H314.245L315.766 266.808L311.051 266.755L309.312 271.665ZM314.603 272.153H308.621L310.709 266.264L316.429 266.328L314.603 272.153Z" fill="#EEEEEE"/>
<path d="M287.148 277.911H292.081L293.603 273.054L288.887 273.002L287.148 277.911M292.439 278.399H286.457L288.545 272.511L294.265 272.575L292.439 278.399Z" fill="#EEEEEE"/>
<path d="M293.84 277.911H298.773L300.295 273.054L295.58 273.002L293.84 277.911ZM299.131 278.399H293.149L295.237 272.511L300.957 272.575L299.131 278.399Z" fill="#EEEEEE"/>
<path d="M300.532 277.911H305.466L306.987 273.054L302.272 273.002L300.532 277.911M305.824 278.399H299.841L301.928 272.511L307.65 272.575L305.824 278.399" fill="#EEEEEE"/>
<path d="M307.224 277.911H312.157L313.679 273.054L308.963 273.002L307.224 277.911M312.515 278.399H306.534L308.621 272.511L314.341 272.575L312.515 278.399Z" fill="#EEEEEE"/>
<path d="M403.293 234.061C403.293 237.134 403.776 239.121 404.589 240.396C405.201 241.356 406.298 241.896 407.436 241.896H411.889C413.028 241.896 414.125 241.356 414.737 240.396C415.549 239.121 416.032 237.134 416.032 234.061C416.032 229.604 414.087 226.035 413.451 223.185C413.223 222.159 413.984 219.014 413.984 219.014H405.341C405.341 219.014 406.102 222.159 405.874 223.185C405.238 226.035 403.293 229.604 403.293 234.061" fill="#F4F4F4"/>
<path d="M412.547 197.494C412.547 197.494 411.09 197.858 410.242 198.987C409.393 200.117 410.859 202.777 410.859 202.777C410.859 202.777 412.244 204.189 413.966 203.768C415.687 203.348 415.687 203.348 415.687 203.348C415.687 203.348 413.866 198.134 412.559 197.838L412.547 197.494Z" fill="#EEEEEE"/>
<path d="M419.342 198.74C419.114 201.006 417.199 203.559 415.174 203.354C413.149 203.15 411.781 200.269 412.01 198.001C412.238 195.735 413.887 195.822 415.912 196.026C417.938 196.23 419.571 196.474 419.342 198.74" fill="#EEEEEE"/>
<path d="M413.632 196.98C413.632 196.98 414.925 198.481 418.195 198.365C418.195 198.365 412.624 200.728 413.632 196.98Z" fill="#EEEEEE"/>
<path d="M415.058 196.791C415.058 196.791 416.872 196.817 416.759 197.554C416.759 197.554 418.264 197.753 418.175 197.092C418.087 196.43 415.058 196.791 415.058 196.791" fill="#EEEEEE"/>
<path d="M413.632 196.98C413.632 196.98 414.925 198.481 418.195 198.365C418.195 198.365 412.624 200.728 413.632 196.98Z" fill="#E3E3E2"/>
<path d="M415.058 196.791C415.058 196.791 416.872 196.817 416.759 197.554C416.759 197.554 418.264 197.753 418.175 197.092C418.087 196.43 415.058 196.791 415.058 196.791" fill="#E3E3E2"/>
<path d="M411.696 203.428C412.136 204.575 413.329 205.346 414.555 205.43C415.78 205.513 417.001 204.969 417.88 204.111C418.759 203.252 419.317 202.105 419.621 200.916C419.7 200.608 419.872 199.833 419.484 199.635C419.128 199.454 418.796 199.937 418.574 200.149C417.938 200.76 417.281 201.323 416.529 201.791C415.801 202.246 415.021 202.616 414.208 202.892C413.981 202.969 411.773 203.63 411.696 203.428" fill="#EEEEEE"/>
<path d="M421.086 200.59C421.291 201.565 420.947 202.637 420.21 203.31C419.727 203.752 419.109 204.014 418.495 204.243C418.068 204.401 417.532 204.528 417.202 204.213C416.847 203.875 416.996 203.286 417.178 202.83C417.46 202.128 417.76 201.433 418.079 200.748C418.341 200.185 418.619 199.212 419.061 198.776C419.477 198.365 419.886 198.733 420.313 199.169C420.696 199.558 420.973 200.054 421.086 200.59" fill="#EEEEEE"/>
<path d="M412.439 202.288C411.676 202.109 411.047 201.451 410.903 200.681C410.796 200.112 411.055 198.767 411.774 198.726C411.853 199.98 411.91 201.114 412.439 202.288" fill="#E3E3E2"/>
<path d="M417.935 202.686C418.701 202.615 419.418 202.137 419.776 201.456C419.973 201.081 420.204 199.013 419.436 199.755C419.185 199.997 419.053 200.899 418.882 201.241C418.624 201.757 418.306 202.244 417.935 202.686Z" fill="#E3E3E2"/>
<path d="M414.915 203.418C415.387 204.002 416.281 204.195 416.951 203.858C416.8 204.237 415.495 204.332 415.088 204.373C414.029 204.477 413.588 203.937 412.69 203.347C412.69 203.347 414.188 203.873 414.915 203.418Z" fill="#E3E3E2"/>
<path d="M408.468 239.45L410.963 214.261L414.268 205.324L414.841 205.536L411.551 214.432L408.944 240.137L408.468 239.45" fill="#E9E9E8"/>
<path d="M411.529 214.209L410.985 214.485C410.625 213.773 410.349 212.882 410.029 211.851C409.534 210.255 408.974 208.446 407.926 206.741L408.446 206.422C409.534 208.192 410.107 210.04 410.613 211.669C410.924 212.675 411.193 213.544 411.529 214.209" fill="#E9E9E8"/>
<path d="M412.873 210.908C413.722 210.847 414.544 210.47 415.142 209.864C415.821 209.177 416.187 208.25 416.536 207.35C415.428 207.465 414.398 206.743 413.287 206.662C412.402 206.599 411.495 206.974 410.914 207.645C410.162 208.514 409.722 209.578 410.138 210.12C410.481 210.566 411.738 210.987 412.873 210.908" fill="#F4F4F4"/>
<path d="M403.951 208.18C404.77 207.501 406.524 207.225 407.516 207.607C408.51 207.989 409.254 208.862 409.462 209.774C409.066 210.375 408.269 210.605 407.553 210.522C406.838 210.44 406.182 210.101 405.545 209.766C404.907 209.432 404.252 209.091 403.536 209.008L403.951 208.18" fill="#F4F4F4"/>
<path d="M409.452 208.658C408.005 208.819 406.709 209.108 405.393 207.463C404.512 206.361 404.795 204.696 404.86 203.377C406.115 203.652 408.961 205.037 409.592 205.376C410.224 205.715 410.76 206.266 410.865 206.919C410.969 207.572 410.526 208.298 409.814 208.418L409.452 208.658" fill="#F4F4F4"/>
<path d="M405.309 228.254C404.73 229.893 404.178 231.677 404.367 233.42C404.403 233.753 404.505 234.13 404.744 234.189C404.967 234.243 405.188 233.971 405.268 233.67C405.347 233.368 405.325 233.045 405.325 232.732C405.318 230.03 406.79 227.754 407.069 225.119C407.148 224.37 406.955 222.005 406.516 223.743C406.123 225.292 405.845 226.741 405.309 228.254" fill="#FCFDFD"/>
<path d="M200.831 281.922C200.831 281.922 203.67 250.509 191.177 235.188C178.685 219.868 200.931 233.816 204.87 249.094C204.87 249.094 205.608 220.836 193.141 202.524C180.675 184.212 201.924 197.916 205.628 217.89C205.628 217.89 206.334 192.673 200.106 179.303C193.878 165.934 203.168 173.892 207.275 182.249C211.381 190.604 209.339 212.772 209.339 212.772C209.339 212.772 213.706 171.71 221.99 173.935C230.273 176.161 213.058 204.799 211.681 218.78C211.681 218.78 219.214 199.278 226.723 202.241C234.232 205.203 216.27 209.299 210.723 237.692L209.1 250.886C209.1 250.886 215.909 231.715 222.136 236.751C228.362 241.787 206.961 254.364 204.53 282.467L200.831 281.922" fill="#EEEEEE"/>
<path d="M202.173 283.548C202.173 283.548 199.514 244.698 215.339 226.195C231.164 207.691 203.341 224.189 198.069 242.914C198.069 242.914 197.916 208.023 213.789 185.827C229.662 163.631 203.076 179.861 197.97 204.386C197.97 204.386 197.775 173.248 205.818 156.952C213.861 140.654 202.185 150.176 196.894 160.356C191.602 170.535 193.53 197.953 193.53 197.953C193.53 197.953 189.24 147.147 178.959 149.627C168.678 152.106 189.154 187.995 190.479 205.291C190.479 205.291 181.706 180.985 172.362 184.4C163.016 187.815 185.07 193.444 191.153 228.656L192.803 244.989C192.803 244.989 184.915 221.115 177.098 227.13C169.279 233.144 195.349 249.349 197.596 284.102L202.173 283.548" fill="#F4F4F4"/>
<path d="M226.768 302.92C226.768 313.581 215.202 322.232 200.933 322.232C186.654 322.232 175.088 313.581 175.088 302.92C175.088 298.112 177.431 293.734 181.315 290.359L178.26 277.436H223.596L220.541 290.359C224.425 293.734 226.768 298.112 226.768 302.92" fill="#EEEEEE"/>
<path d="M240.481 31.6736C226.287 47.4299 219.259 68.8773 220.458 90.0437C221.658 111.21 229.467 131.471 238.969 150.427C247.29 167.025 257.238 185.849 250.425 203.121C246.616 212.779 237.945 219.929 228.351 223.908C218.757 227.886 208.24 229.039 197.865 229.558C180.183 230.442 162.231 229.632 145.02 233.78C127.81 237.928 110.872 248.164 104.218 264.559C96.3795 283.875 105.277 306.995 120.98 320.718C136.682 334.441 157.75 340.336 178.405 343.245C207.353 347.323 237.013 346.302 265.611 340.242C288.572 335.377 311.174 327.098 329.908 312.966C348.641 298.835 363.259 278.39 367.265 255.279C371.272 232.167 363.496 206.602 345.167 191.949C337.542 185.854 328.353 181.686 321.665 174.576C314.978 167.467 311.583 155.621 317.794 148.092C321.897 143.118 328.799 141.593 335.204 140.83C366.702 137.075 401.593 143.562 427.933 125.9C443.017 115.787 452.772 98.5475 454.921 80.5226C457.069 62.4986 453.176 42.9912 441.809 28.8325C410.852 -9.72786 278.404 -10.4233 240.481 31.6736" fill="#008BBA"/>
<path d="M287.579 334.394C286.595 332.795 284.828 331.729 282.812 331.729H272.453L270.826 313.146C270.39 308.166 265.997 304.129 261.013 304.129C269.637 302.067 273.063 300.237 274.414 299.781C279.509 298.058 277.574 294.332 275.76 294.332C275.733 294.332 275.708 294.333 275.683 294.335C274.155 294.429 272.823 294.473 271.645 294.473C270.574 294.473 269.632 294.437 268.785 294.368C269.021 294.221 269.214 294.101 269.376 294.014C273.577 291.723 271.594 288.783 269.958 288.783C269.859 288.783 269.761 288.794 269.666 288.817C265.91 289.717 263.409 290.046 261.439 290.046C259.49 290.046 258.063 289.723 256.456 289.309C256.098 289.253 255.75 289.216 255.416 289.195L249.705 282.022L247.765 279.54L249.069 278.889L247.82 273.699L246.592 274.259L225.122 243.301C223.415 240.409 221.315 238.404 218.921 237.138L218.942 237.137L224.047 237.007C224.548 236.995 224.994 236.82 225.285 236.424C225.592 236.068 225.752 235.586 225.676 235.08L225.581 234.435L225.046 234.45C226.197 234.203 227.109 233.169 227.165 231.968L227.52 224.244C227.797 224.134 228.074 224.022 228.351 223.908C237.945 219.929 246.615 212.779 250.425 203.121C252.015 199.09 252.692 194.974 252.689 190.822C252.686 185.29 251.479 179.694 249.618 174.147L314.861 209.572C315.264 209.792 315.701 209.895 316.13 209.895C317.074 209.895 317.988 209.392 318.472 208.505L321.856 202.28L329.077 206.201C329.481 206.421 329.917 206.524 330.347 206.524C331.29 206.524 332.205 206.021 332.687 205.134L341.384 189.138C342.673 190.04 343.94 190.97 345.166 191.949C360.345 204.084 368.287 223.701 368.292 243.212C368.293 246.775 368.03 250.337 367.497 253.847C367.425 254.326 367.348 254.802 367.265 255.279C367.141 255.991 367.008 256.699 366.865 257.406C366.409 259.652 365.852 261.875 365.203 264.065C363.59 269.505 361.398 274.761 358.722 279.778C355.96 284.955 352.682 289.877 348.99 294.49C344.853 299.658 340.196 304.435 335.165 308.741C335.163 308.743 335.16 308.745 335.157 308.747C334.256 309.518 333.343 310.274 332.419 311.014C331.94 311.397 331.461 311.775 330.977 312.15C330.808 312.281 330.638 312.41 330.469 312.54C330.282 312.682 330.095 312.825 329.907 312.966C329.689 313.131 329.469 313.296 329.249 313.459C324.941 316.663 320.434 319.56 315.767 322.182C306.852 327.19 297.357 331.194 287.579 334.394M248.034 304.129H157.315C177.116 298.544 193.571 280.401 204.567 267.145C204.913 266.728 205.254 266.317 205.588 265.91C205.644 265.958 205.7 266.005 205.755 266.054C214.612 273.707 230.536 282.672 230.536 282.672L231.281 282.036H231.282L229.087 283.918L233.296 287.443L234.9 285.965L235.423 285.704L237.454 287.504L237.455 287.502L244.396 293.654L243.956 293.876C243.609 294.038 243.434 294.428 243.544 294.795L246.121 302.972C246.345 303.603 246.94 303.998 247.574 303.998C247.717 303.998 247.864 303.978 248.008 303.936L248.034 304.129M156.834 258.832C156.525 256.602 156.39 254.535 156.39 252.606C156.391 251.376 156.447 250.201 156.547 249.077C157.486 249.021 158.427 248.917 159.366 248.759C165.577 247.712 175.446 242.557 182.219 238.221L190.048 237.981C176.786 244.978 165.555 252.412 156.834 258.832M158.903 238.533C159.8 235.901 160.779 233.495 161.556 231.12C166.087 230.688 170.648 230.446 175.217 230.279L175.041 234.121C175.017 234.625 175.149 235.089 175.394 235.467C174.698 235.69 173.976 235.912 173.23 236.128L169.453 236.258C168.811 236.28 168.346 236.794 168.315 237.373C166.117 237.843 163.807 238.212 161.453 238.402C161.45 238.402 161.447 238.402 161.444 238.403C161.438 238.403 161.432 238.404 161.426 238.404C160.591 238.47 159.748 238.515 158.903 238.533ZM368.543 139.188L387.202 104.873L382.079 87.66L372.354 54.6395L372.287 54.7614L372.264 54.6834L309.755 20.7432C309.351 20.5237 308.916 20.4194 308.486 20.4194C307.541 20.4194 306.627 20.9226 306.145 21.8102L302.76 28.0347L295.538 24.1139C295.134 23.8944 294.699 23.7901 294.27 23.7901C293.326 23.7901 292.41 24.2934 291.928 25.1809L231.996 135.406C225.857 120.89 221.346 105.714 220.458 90.0437C220.37 88.4939 220.326 86.9422 220.326 85.3904C220.326 65.766 227.326 46.2751 240.48 31.6736C259.694 10.3443 303.172 0.000988352 345.422 0.000988352C386.561 0.000988352 426.536 9.80884 441.809 28.8325C451.199 40.5305 455.489 55.8782 455.485 71.0249C455.484 74.2113 455.293 77.3889 454.92 80.5226C453.987 88.3525 451.619 96.0332 448.002 103.047C447.921 103.204 447.84 103.36 447.758 103.516C443.058 112.453 436.319 120.279 427.933 125.9C410.686 137.465 389.769 138.676 368.543 139.188" fill="#EFF5FC"/>
<path d="M433.236 352.956C433.236 359.055 348.513 364 244 364C139.488 364 54.7646 359.055 54.7646 352.956C54.7646 346.857 139.488 341.912 244 341.912C348.513 341.912 433.236 346.857 433.236 352.956Z" fill="#F8F8F9"/>
<path d="M228.455 198.183L230.888 184.116L235.685 185.503L228.455 198.183Z" fill="#008BBA"/>
<path d="M230.06 202.682L243.783 198.721L241.878 194.107L230.06 202.682Z" fill="#008BBA"/>
<path d="M232.508 197.394L240.322 182.621L245.586 186.277L232.508 197.394Z" fill="#008BBA"/>
<path d="M103.348 219.551H97.1667C96.8967 219.551 96.6787 219.332 96.6787 219.063C96.6787 218.794 96.8967 218.576 97.1667 218.576H103.348C103.617 218.576 103.836 218.794 103.836 219.063C103.836 219.332 103.617 219.551 103.348 219.551Z" fill="#008BBA"/>
<path d="M93.0575 219.551H62.0969C61.8274 219.551 61.6089 219.332 61.6089 219.063C61.6089 218.794 61.8274 218.576 62.0969 218.576H93.0575C93.3274 218.576 93.5455 218.794 93.5455 219.063C93.5455 219.332 93.3274 219.551 93.0575 219.551" fill="#008BBA"/>
<path d="M202.865 275.989C202.747 275.989 202.627 275.946 202.534 275.86C202.336 275.678 202.323 275.37 202.505 275.171L205.399 272.03C205.582 271.833 205.891 271.821 206.089 272.001C206.287 272.184 206.3 272.492 206.118 272.69L203.224 275.832C203.128 275.936 202.996 275.989 202.865 275.989" fill="#008BBA"/>
<path d="M176.405 300.985C176.227 300.985 176.056 300.888 175.97 300.718C175.848 300.478 175.944 300.185 176.185 300.063C185.228 295.486 199.563 278.381 199.706 278.21C199.878 278.004 200.185 277.974 200.393 278.147C200.6 278.32 200.628 278.627 200.456 278.834C199.863 279.544 185.848 296.264 176.626 300.933L176.405 300.985" fill="#008BBA"/>
<path d="M246.64 295.644L253.601 289.88L236.058 273.241L228.569 279.627L246.64 295.644" fill="#E46554"/>
<path d="M259.152 288.294C259.198 288.578 259.075 288.861 258.843 289.027C258.663 289.181 258.397 289.283 258.057 289.348C257.728 289.414 257.326 289.432 256.867 289.41C256.332 289.391 255.702 289.308 255.012 289.178C254.865 289.149 254.707 289.12 254.555 289.085C255.387 288.686 256.258 288.387 257.152 288.181C257.63 288.072 258.107 287.993 258.597 287.944C258.744 287.943 258.884 287.975 259.011 288.047C259.101 288.103 259.154 288.196 259.152 288.294ZM259.249 287.658C258.776 287.369 257.824 287.507 256.836 287.777C256.365 287.91 255.884 288.071 255.449 288.229C255.11 288.352 254.793 288.48 254.532 288.589C254.143 288.756 253.855 288.883 253.758 288.93C253.666 288.953 253.608 289.042 253.602 289.134L253.63 289.233L253.77 289.335C254.757 289.597 255.769 289.765 256.79 289.846C257.293 289.919 257.805 289.874 258.282 289.736L258.35 289.719C258.625 289.631 258.892 289.517 259.144 289.365C259.468 289.105 259.644 288.699 259.606 288.282C259.601 288.028 259.47 287.793 259.249 287.658" fill="#008BBA"/>
<path d="M256.638 284.571C256.807 284.948 256.478 285.823 255.988 286.679C255.669 287.223 255.292 287.755 254.926 288.142C254.85 287.524 254.772 286.356 255.07 285.492C255.13 285.293 255.217 285.117 255.322 284.967C255.484 284.728 255.724 284.546 255.996 284.467L256.129 284.446C256.542 284.371 256.618 284.526 256.638 284.571V284.571ZM256.057 283.992C255.603 284.066 255.202 284.329 254.948 284.709C254.868 284.822 254.803 284.945 254.749 285.082C254.166 286.336 254.47 288.238 254.532 288.589L254.546 288.639L254.69 288.806L254.828 288.821L254.913 288.773C255.079 288.64 255.255 288.451 255.449 288.229C255.728 287.902 256.021 287.494 256.279 287.063C256.88 286.081 257.314 284.968 257.047 284.391C256.941 284.147 256.685 283.889 256.057 283.992" fill="#008BBA"/>
<path d="M252.7 289.467L243.956 293.876C243.609 294.038 243.434 294.428 243.544 294.795L246.121 302.972C246.405 303.774 247.286 304.193 248.088 303.91L248.241 303.846C263.219 298.584 267.813 294.865 269.376 294.014C273.833 291.583 271.33 288.423 269.666 288.817C262.194 290.606 259.687 290.142 256.456 289.309C254.747 289.04 253.226 289.207 252.7 289.467" fill="#1D2A30"/>
<path d="M237.454 287.504L235.423 285.704L235.425 285.703L237.455 287.502L237.454 287.504" fill="#BDC2CE"/>
<path d="M237.455 287.502L235.425 285.703L238.107 284.364L239.349 285.888L237.455 287.502" fill="#B55144"/>
<path d="M231.282 282.036H231.281L231.284 282.033H231.285L231.282 282.036Z" fill="#BDC2CE"/>
<path d="M231.285 282.033H231.284L231.528 281.823V281.824L231.285 282.033Z" fill="#B55144"/>
<path d="M233.296 287.443L244.472 277.146L242.012 272.829L229.087 283.918L233.296 287.443" fill="#008BBA"/>
<path d="M233.296 287.443L229.087 283.918L231.528 281.824L234.462 286.184L234.9 285.965L233.296 287.443Z" fill="#A1BCE6"/>
<path d="M240.249 274.343L238.752 275.63L236.514 277.551L235.18 278.687L231.284 282.033L230.536 282.672C230.536 282.672 214.612 273.707 205.755 266.054C199.686 260.81 199.142 258.859 198.499 259.347C189.938 265.854 164.599 288.344 150.24 300.046C149.774 300.099 149.309 300.141 148.84 300.175C141.168 300.736 135.133 299.896 130.454 298.112C130.404 291.889 135.734 277.359 136.175 275.955C136.175 275.955 157.363 254.91 191.693 237.121C192.03 236.947 192.385 236.806 192.729 236.661C193.177 236.465 193.622 236.279 194.074 236.118C195.866 235.438 197.628 235.015 199.337 234.934C200.87 234.853 202.359 235.129 203.799 235.634C204.612 235.916 205.407 236.272 206.18 236.681C206.859 237.026 207.523 237.42 208.171 237.835C209.233 238.51 210.258 239.259 211.23 240.005C213.419 241.695 230.001 263.046 238.917 272.897L238.921 272.904C239.387 273.414 239.828 273.902 240.249 274.343Z" fill="#008BBA"/>
<path d="M230.536 282.672C230.536 282.672 214.613 273.707 205.755 266.054C205.7 266.005 205.644 265.958 205.589 265.91C208.017 262.965 210.162 260.301 211.986 258.128C215.198 266.683 225.976 276.091 232.048 280.891L231.17 281.291L231.528 281.823L231.284 282.033L231.281 282.036L230.536 282.672ZM160.381 268.61L159.779 268.608C159.938 268.528 160.044 268.407 160.055 268.269L158.979 264.3C159.007 264.051 158.682 263.841 158.285 263.841C158.276 263.841 158.266 263.841 158.256 263.841L157.776 263.856C157.364 262.091 157.055 260.422 156.834 258.832C165.555 252.412 176.786 244.978 190.049 237.981L200.665 237.655C198.253 238.573 195.796 239.735 193.338 241.078C192.964 241.282 192.589 241.486 192.214 241.705C191.913 241.868 191.611 242.04 191.318 242.226C178.769 249.559 166.497 261.187 160.381 268.61" fill="#025672"/>
<path d="M127.188 184.491C128.526 190.565 129.934 199.429 125.761 203.6C130.938 212.708 137.155 221.186 144.285 228.862C153.429 212.975 144.759 203.157 144.759 203.157C137.904 201.69 138.015 198.931 139.09 194.176L127.188 184.491" fill="#E46554"/>
<path d="M121.522 204.373C122.029 202.727 123.075 201.299 124.491 200.319C125.862 199.27 140.069 199.113 143.761 200.321C145.92 201.004 147.756 202.452 148.923 204.389L121.522 204.373" fill="#008BBA"/>
<path d="M187.077 228.558L190.751 226.884L190.933 232.874C190.933 232.874 189.213 234.408 187.333 234.987C185.53 235.544 183.815 233.885 184.259 232.052C184.626 230.526 185.661 229.243 187.077 228.558" fill="#E46554"/>
<path d="M195.452 228.575L195.26 230.77C195.207 231.448 194.715 232.016 194.051 232.166L190.906 232.871L190.724 226.882L193.917 226.928C194.764 226.917 195.454 227.594 195.458 228.441L195.452 228.575" fill="#E46554"/>
<path d="M140.422 245.595C145.95 248.317 152.717 249.879 159.361 248.758C167.19 247.439 180.829 239.594 186.758 235.089L184.76 232.109C181.798 232.741 157.634 245.015 142.026 233.912C139.117 231.844 127.694 223.328 123.657 223.511C117.111 223.805 117.676 230.662 120.489 233.512C123.782 236.849 135.901 243.368 140.422 245.595" fill="#E46554"/>
<path d="M156.547 249.077C157.485 249.021 158.424 248.916 159.361 248.758C165.573 247.711 175.442 242.557 182.215 238.22H182.219C175.446 242.557 165.577 247.712 159.366 248.759C158.427 248.917 157.486 249.021 156.547 249.077M158.903 238.533C159.748 238.515 160.591 238.47 161.426 238.404C160.589 238.471 159.749 238.515 158.903 238.533ZM161.444 238.403C161.447 238.402 161.45 238.402 161.453 238.402C161.45 238.402 161.447 238.402 161.444 238.403Z" fill="#BDC2CE"/>
<path d="M156.547 249.077C156.908 245.04 157.848 241.63 158.903 238.533C159.749 238.515 160.589 238.471 161.426 238.404C161.432 238.404 161.437 238.403 161.444 238.403C161.447 238.402 161.45 238.402 161.453 238.402C163.806 238.213 166.117 237.843 168.315 237.374C168.314 237.392 168.314 237.412 168.314 237.43C168.313 237.599 168.35 237.773 168.43 237.941C168.626 238.35 169.04 238.611 169.493 238.611C169.505 238.611 169.516 238.61 169.529 238.61L182.215 238.22C175.442 242.557 165.573 247.711 159.361 248.758C158.424 248.916 157.485 249.021 156.547 249.077ZM173.236 236.128C173.981 235.912 174.701 235.691 175.395 235.468C175.538 235.69 175.721 235.882 175.933 236.037L173.236 236.128" fill="#B55144"/>
<path d="M160.882 214.177C169.173 232.423 149.952 237.637 158.756 267.56L116.981 268.563C117.261 252.527 122.964 255.972 115.445 225.821C114.81 223.268 113.75 215.941 116.473 209.271C117.532 206.675 119.424 204.47 121.893 203.138C124.978 201.471 138.562 202.773 144.763 203.19C151.475 202.24 159.657 211.894 160.882 214.177" fill="#008BBA"/>
<path d="M135.192 264.519L132.342 231.964C132.341 231.947 132.339 231.931 132.338 231.915L132.262 231.051C131.881 226.697 128.233 223.357 123.859 223.357H117.322L117.337 223.522C116.839 223.414 116.323 223.357 115.795 223.357H114.99C114.825 222.145 114.701 220.675 114.7 219.054C114.699 216.078 115.117 212.593 116.473 209.271C117.532 206.675 119.425 204.47 121.893 203.138C123.032 202.523 125.603 202.312 128.703 202.312C134.003 202.312 140.852 202.927 144.763 203.19C145.076 203.145 145.393 203.125 145.711 203.125C152.223 203.125 159.715 212 160.882 214.177C162.42 217.563 163.012 220.5 163.011 223.229C163.007 232.343 156.395 239.142 156.391 252.606C156.39 255.91 156.786 259.615 157.776 263.856L135.192 264.519M142.88 215.067C142.88 215.067 140.621 219.662 147.135 231.796L149.859 236.744C150.022 237.04 150.354 237.174 150.797 237.174C152.791 237.174 157.049 234.494 158.506 231.99C158.506 231.99 147.088 225.147 142.88 215.067Z" fill="#A1BCE6"/>
<path d="M152.9 177.971C152.779 178.772 153.109 179.421 153.608 179.49C154.106 179.561 154.608 179.005 154.723 178.236C154.838 177.468 154.514 176.786 154.016 176.717C153.517 176.646 153.012 177.209 152.9 177.971Z" fill="#1D2A30"/>
<path d="M153.788 176.726L155.704 176.46C155.704 176.46 154.547 177.764 153.788 176.726Z" fill="#1D2A30"/>
<path d="M153.03 179.025C153.03 179.025 153.848 182.513 155.06 184.303C153.907 185.102 152.246 184.418 152.246 184.418L153.03 179.025Z" fill="#BB2024"/>
<path d="M155.665 172.606C155.814 172.547 155.923 172.413 155.948 172.254C155.982 172.005 155.812 171.774 155.564 171.733C154.118 171.479 152.638 171.945 151.598 172.981C151.413 173.152 151.402 173.441 151.573 173.625C151.744 173.81 152.032 173.821 152.218 173.651L152.276 173.584C153.114 172.782 154.285 172.43 155.427 172.637L155.665 172.606" fill="#1D2A30"/>
<path d="M127.618 171.655C126.832 181.16 126.29 185.166 130.346 190.695C136.454 199.013 148.329 197.919 151.928 188.833C155.19 180.655 155.936 166.485 147.256 161.396C141.071 157.726 133.081 159.764 129.409 165.944C128.376 167.683 127.763 169.638 127.618 171.655" fill="#E46554"/>
<path d="M152.15 188.256C151.432 187.648 150.882 186.848 150.57 185.932C150.545 185.831 150.602 185.722 150.706 185.689C150.808 185.663 150.915 185.721 150.941 185.821C151.229 186.611 151.695 187.303 152.294 187.857L152.15 188.256" fill="#1D2A30"/>
<path d="M120.842 159.289C117.217 164.201 115.566 165.48 120.056 178.559C121.86 183.816 127.102 190.775 129.65 191.415C134.217 192.562 138.661 189.359 142.09 186.132C145.092 183.309 147.972 180.246 149.8 176.554C151.628 172.861 152.301 168.426 150.791 164.592C149.15 160.427 143.367 156.709 139.035 155.797C133.936 154.724 123.857 155.204 120.842 159.289Z" fill="#1D2A30"/>
<path d="M149.296 177.367C149.296 177.367 150.438 179.332 148.995 180.794L149.024 178.184L149.296 177.367" fill="#1D2A30"/>
<path d="M149.279 177.365C149.279 177.365 149.702 180.373 147.179 181.495L148.531 178.251L149.279 177.365Z" fill="#1D2A30"/>
<path d="M132.517 190.309C132.517 190.309 129.748 191.562 130.15 194.292L132.168 191.414L132.517 190.309Z" fill="#1D2A30"/>
<path d="M132.632 190.363C132.632 190.363 130.523 192.552 131.908 194.94L132.716 191.52L132.632 190.363" fill="#1D2A30"/>
<path d="M153.098 173.44C154.086 172.421 155.084 171.39 155.813 170.173C156.541 168.955 156.986 167.514 156.766 166.112C156.482 164.3 155.121 162.801 153.525 161.892C151.93 160.984 150.108 160.574 148.316 160.176C147.435 159.98 146.453 159.8 145.678 160.262C144.931 160.709 144.607 161.654 144.65 162.523C144.693 163.392 145.038 164.213 145.355 165.024C146.594 168.193 147.371 171.446 147.974 174.788C148.277 176.472 148.046 177.591 149.707 176.941C150.826 176.502 152.244 174.319 153.098 173.44" fill="#1D2A30"/>
<path d="M139.959 178.136C139.857 180.336 140.634 182.487 142.118 184.114C144.102 186.265 146.621 184.861 147.344 182.185C148.004 179.788 147.753 175.778 145.152 174.623C142.553 173.466 140.1 175.456 139.959 178.136" fill="#E46554"/>
<path d="M250.654 300.026L258.195 292.683L243.605 274.362L234.497 279.734L250.654 300.026Z" fill="#E46554"/>
<path d="M265.936 291.124C266.038 291.41 265.981 291.729 265.777 291.964C265.522 292.279 265.01 292.532 264.296 292.703C263.741 292.841 263.066 292.933 262.28 292.975C261.971 292.988 261.636 293.004 261.29 293C261.399 292.912 261.506 292.835 261.619 292.754L261.853 292.588C262.899 291.854 264.05 291.277 265.274 290.884C265.418 290.842 265.578 290.846 265.734 290.892C265.837 290.927 265.913 291.016 265.936 291.124V291.124ZM265.887 290.426C265.047 290.135 263.332 291.069 262.03 291.896C261.699 292.106 261.401 292.307 261.152 292.48L261.132 292.492L261 292.593C260.706 292.8 260.493 292.955 260.415 293.015C260.324 293.067 260.276 293.167 260.302 293.264C260.327 293.361 260.413 293.434 260.52 293.441C261.415 293.479 262.318 293.447 263.214 293.354C263.418 293.334 263.609 293.312 263.809 293.287C264.459 293.235 265.085 293.022 265.621 292.662C265.813 292.537 265.997 292.399 266.162 292.244C266.448 291.901 266.542 291.431 266.408 291.003C266.34 290.743 266.145 290.525 265.887 290.426" fill="#008BBA"/>
<path d="M261.459 291.922C261.191 291.149 260.731 289.517 261.153 288.496C261.266 288.212 261.474 287.967 261.75 287.824L261.882 287.761C262.302 287.595 262.409 287.74 262.444 287.786C262.871 288.359 262.219 290.668 261.459 291.922ZM261.701 287.313C261.241 287.491 260.883 287.855 260.704 288.305C260.089 289.805 261 292.118 261.152 292.48L261.161 292.494L261.169 292.526L261.361 292.673L261.51 292.655L261.588 292.595L261.615 292.561C261.751 292.384 261.894 292.156 262.03 291.896C262.753 290.541 263.423 288.28 262.834 287.498C262.661 287.268 262.339 287.054 261.701 287.313" fill="#008BBA"/>
<path d="M240.414 287.194L239.35 285.888L239.378 285.864L240.43 287.185L240.414 287.194" fill="#B55144"/>
<path d="M239.349 285.888L238.107 284.364L238.162 284.337L239.378 285.864L239.349 285.888" fill="#8E3F35"/>
<path d="M249.705 282.022L247.739 279.553L247.766 279.54L249.705 282.022Z" fill="#BDC2CE"/>
<path d="M240.43 287.185L239.378 285.864L238.162 284.337L247.739 279.553L249.705 282.022L240.43 287.185" fill="#B55144"/>
<path d="M116.607 265.373L115.643 269.16C115.501 269.459 115.859 269.742 116.335 269.73L159.354 268.712C159.73 268.698 160.036 268.508 160.055 268.269L158.979 264.3C159.008 264.045 158.666 263.83 158.257 263.841L117.294 265.046C117.023 265.026 116.761 265.151 116.607 265.373Z" fill="#1D2A30"/>
<path d="M154.878 269.167L153.748 269.286C153.525 269.279 153.336 269.218 153.34 269.077L153.319 264.187C153.323 264.046 153.5 263.91 153.725 263.883L154.854 263.755C155.078 263.761 155.266 263.825 155.262 263.973L155.284 268.855C155.28 269.004 155.102 269.14 154.878 269.167Z" fill="#008BBA"/>
<path d="M139.482 269.364L138.353 269.484C138.129 269.479 137.949 269.416 137.944 269.275L137.932 264.385C137.936 264.244 138.113 264.108 138.337 264.081L139.459 263.953C139.682 263.959 139.87 264.023 139.867 264.171L139.888 269.053C139.892 269.219 139.706 269.338 139.482 269.364" fill="#008BBA"/>
<path d="M139.482 269.364L138.353 269.484C138.129 269.479 137.949 269.416 137.944 269.275L137.932 264.385C137.936 264.244 138.113 264.108 138.337 264.081L139.459 263.953C139.682 263.959 139.87 264.023 139.867 264.171L139.888 269.053C139.892 269.219 139.706 269.338 139.482 269.364" fill="#008BBA"/>
<path d="M248.608 277.17L246.702 278.245L246.694 278.252L243.42 280.1L240.48 281.744L240.473 281.751L237.459 283.453V283.46L236.303 284.111C236.303 284.111 236.043 283.924 235.578 283.582C235.399 283.46 235.195 283.315 234.959 283.135C234.243 282.599 233.242 281.85 232.076 280.922V280.913C226.009 276.12 215.203 266.697 211.986 258.128C209.91 260.601 207.418 263.71 204.568 267.145C192.295 281.939 173.223 302.82 150.291 305.538C149.828 305.603 149.363 305.645 148.891 305.685C141.228 306.344 135.186 305.579 130.486 303.855C118.589 299.501 115.274 289.051 116.089 280.164V280.132C116.163 275.974 116.977 268.56 116.977 268.56L160.381 268.61C166.497 261.187 178.769 249.559 191.318 242.226C191.611 242.04 191.913 241.868 192.214 241.705C192.589 241.486 192.964 241.282 193.338 241.078C197.417 238.849 201.498 237.115 205.366 236.18C206.229 235.976 207.076 235.797 207.914 235.675C208.795 235.537 209.657 235.463 210.512 235.423V235.431C216.457 235.163 221.62 237.368 225.122 243.301L247.957 276.226L248.608 277.17" fill="#008BBA"/>
<path d="M225.187 232.097L177.22 234.079L178.624 203.583L226.59 201.602L225.187 232.097Z" fill="#008BBA"/>
<path d="M224.624 234.504L177.357 236.455C176.016 236.511 174.979 235.465 175.041 234.121L176.436 203.814C176.498 202.469 177.635 201.335 178.976 201.28L226.245 199.328C227.586 199.272 228.622 200.318 228.56 201.662L227.165 231.968C227.102 233.313 225.966 234.448 224.624 234.504" fill="#1D2A30"/>
<path d="M225.187 232.097L177.22 234.079L178.624 203.583L226.59 201.602L225.187 232.097Z" fill="#008BBA"/>
<path d="M177.22 234.079L178.624 203.583L195.134 202.901L188.26 233.623L177.22 234.079M180.374 229.125L180.415 230.099L182.782 229.999L182.741 229.024L180.374 229.125ZM180.527 227.286L182.895 227.185L182.983 226.204L180.617 226.305L180.485 226.311L180.527 227.286M180.597 223.497L180.639 224.472L183.007 224.371L182.965 223.396L180.597 223.497ZM180.708 220.683L180.75 221.659L183.118 221.558L183.076 220.583L180.708 220.683ZM180.82 217.869L180.862 218.845L183.229 218.744L183.187 217.769L180.82 217.869ZM180.931 215.057L180.973 216.032L183.342 215.93L183.3 214.955L180.931 215.057Z" fill="#EFF5FC"/>
<path d="M191.404 233.493L195.073 216.88L195.052 217.374L196.73 217.302L196.475 218.447L195 218.51L194.869 221.436L195.815 221.395L195.558 222.54L194.818 222.572L194.688 225.499L194.898 225.49L194.643 226.635L194.636 226.636L194.635 226.67L193.124 233.422L191.404 233.493M207.343 232.835L207.839 230.632L207.866 230.478C207.938 229.922 207.749 229.394 207.394 229.013L224.029 228.307L224.16 225.38L200.869 226.37L201.122 225.225L224.212 224.244L224.342 221.317L201.773 222.276L202.026 221.132L224.393 220.182L224.524 217.254L202.677 218.183L202.93 217.038L224.576 216.119L224.706 213.192L203.581 214.09L203.834 212.946L224.757 212.057L224.888 209.13L204.485 209.997L204.911 208.067L215.69 207.609L215.781 205.581L205.362 206.024L206.153 202.446L226.59 201.602L225.187 232.097L207.343 232.835M195.615 214.428L195.868 213.284L197.646 213.208L197.39 214.353L195.615 214.428ZM196.519 210.335L196.945 208.406L198.738 208.33L198.307 210.259L196.519 210.335M197.396 206.363L198.188 202.774L199.997 202.7L199.195 206.287L197.396 206.363" fill="#EFF5FC"/>
<path d="M187.811 235.63L188.26 233.623L191.404 233.493L190.956 235.522L187.811 235.63ZM195.133 202.901L195.647 200.608L198.695 200.482L198.188 202.774L195.133 202.901Z" fill="#304047"/>
<path d="M188.26 233.623L195.134 202.901L198.189 202.774L197.396 206.363L195.324 206.45L195.233 208.479L196.945 208.406L196.519 210.335L195.364 210.385L195.233 213.312L195.868 213.284L195.615 214.428L195.183 214.447L195.073 216.88L191.404 233.493L188.26 233.623" fill="#F1F6FC"/>
<path d="M192.667 235.463L193.124 233.422L194.035 233.384L193.376 235.07C193.446 235.199 193.52 235.32 193.599 235.432L192.667 235.463" fill="#304047"/>
<path d="M193.124 233.422L194.635 226.67L194.505 229.562L197.501 229.434C196.022 230.08 194.85 231.291 194.258 232.81L194.035 233.384L193.124 233.422M194.643 226.635L194.898 225.49L201.122 225.225L200.869 226.37L194.643 226.635M195.558 222.54L195.815 221.395L202.026 221.132L201.773 222.276L195.558 222.54M196.475 218.447L196.73 217.302L202.93 217.038L202.677 218.183L196.475 218.447M197.39 214.353L197.646 213.208L203.834 212.946L203.581 214.09L197.39 214.353" fill="#F1F6FC"/>
<path d="M199.997 202.7L200.51 200.407L206.659 200.153L206.153 202.446L199.997 202.7Z" fill="#304047"/>
<path d="M198.307 210.259L198.738 208.33L204.911 208.067L204.485 209.997L198.307 210.259M199.195 206.287L199.997 202.7L206.153 202.446L205.362 206.024L199.195 206.287" fill="#F1F6FC"/>
<path d="M209.617 234.884L225.581 234.435C225.855 236.285 225.065 236.982 224.048 237.007L218.942 237.137L215.531 237.211L210.231 237.362L177.35 238.322L177.088 236.007L209.617 234.884" fill="#008BBA"/>
<path d="M209.618 234.884L225.581 234.435C225.855 236.285 225.065 236.982 224.048 237.007L218.942 237.137L215.531 237.211L210.231 237.362L169.529 238.61C169.063 238.624 168.631 238.361 168.43 237.941C168.064 237.175 168.604 236.286 169.453 236.258L209.618 234.884Z" fill="#008BBA"/>
<path d="M169.493 238.611C169.04 238.611 168.626 238.35 168.43 237.941C168.35 237.773 168.313 237.599 168.314 237.43C168.315 236.828 168.79 236.281 169.453 236.258L193.598 235.432C194.312 236.462 195.348 236.822 196.449 236.822C198.394 236.822 200.538 235.699 201.45 235.163L209.617 234.884L225.581 234.435L209.617 234.884L209.469 237.386L200.664 237.655L190.049 237.981L169.529 238.61C169.516 238.61 169.505 238.611 169.493 238.611" fill="#395EB4"/>
<path d="M224.048 237.007C224.549 236.995 224.988 236.769 225.285 236.424C224.995 236.82 224.549 236.995 224.048 237.007Z" fill="#395EB4"/>
<path d="M218.922 237.138C218.921 237.138 218.922 237.138 218.921 237.138L218.942 237.137L224.048 237.007L218.942 237.137L218.922 237.138" fill="#BDC2CE"/>
<path d="M209.464 237.476L209.469 237.386L210.232 237.362L215.531 237.211L218.921 237.138C218.922 237.138 218.921 237.138 218.922 237.138L209.464 237.476" fill="#395EB4"/>
<path d="M225.285 236.424C225.505 236.126 225.636 235.703 225.636 235.131C225.636 234.919 225.618 234.688 225.581 234.435L225.677 235.08C225.752 235.586 225.593 236.068 225.285 236.424" fill="#BDC2CE"/>
<path d="M209.469 237.386L209.618 234.884L225.581 234.435C225.618 234.688 225.636 234.919 225.636 235.131C225.636 235.703 225.505 236.125 225.285 236.424C224.988 236.769 224.548 236.995 224.048 237.007L218.942 237.137L215.531 237.211L210.231 237.362L209.469 237.386Z" fill="#244CA5"/>
<path d="M150.797 237.174C150.354 237.174 150.022 237.04 149.859 236.744L147.135 231.796C140.621 219.662 142.88 215.067 142.88 215.067C147.088 225.147 158.505 231.99 158.505 231.99C157.049 234.494 152.791 237.174 150.797 237.174Z" fill="#7A95D4"/>
<path d="M198.089 229.212L202.631 227.876L201.902 234.885C201.902 234.885 195.571 239.117 193.376 235.07L194.258 232.81C194.926 231.095 196.334 229.773 198.089 229.212" fill="#E46554"/>
<path d="M207.839 230.632L207.27 233.159C207.101 233.94 206.441 234.518 205.643 234.582L201.87 234.878L202.599 227.869L206.31 228.458C207.298 228.586 207.995 229.49 207.866 230.478L207.839 230.632Z" fill="#E46554"/>
<path d="M160.301 241.067C163.467 245.357 167.918 248.941 173.152 249.965C179.318 251.17 191.185 242.452 196.757 236.808C196.475 234.427 196.635 233.142 194.258 232.81C194.258 232.81 188.135 237.296 176.583 239.99C172.852 240.86 170.364 237.047 167.109 231.498C165.487 228.733 160.235 217.38 158.257 214.856C155.081 210.796 146.038 213.708 149.627 223.468C151.138 227.575 157.713 237.559 160.301 241.067" fill="#E46554"/>
<path d="M156.918 208.213C163.338 214.102 166.46 224.519 166.46 224.519L151.472 233.648C151.472 233.648 140.51 218.282 142.469 212.927C144.012 208.767 146.871 206.045 150.626 205.81C152.954 205.665 155.2 206.637 156.918 208.213Z" fill="#008BBA"/>
<path d="M122.549 269.958L121.413 269.984C121.192 269.958 121.009 269.879 121.026 269.731L121.439 264.866C121.456 264.719 121.645 264.599 121.87 264.592L123.007 264.564C123.229 264.59 123.41 264.678 123.395 264.818L122.981 269.69C122.963 269.838 122.772 269.983 122.549 269.958Z" fill="#008BBA"/>
<path d="M234.461 286.184L249.069 278.889L247.82 273.699L231.169 281.291L234.461 286.184" fill="#008BBA"/>
<path d="M234.461 286.184L231.528 281.823L231.169 281.291L247.82 273.699L249.069 278.889L247.739 279.553L238.161 284.337L238.107 284.364L235.425 285.703L235.423 285.704L234.461 286.184" fill="#A1BCE6"/>
<path d="M257.607 291.885L247.537 294.933C247.141 295.041 246.883 295.422 246.931 295.83L248.144 304.96C248.296 305.861 249.15 306.468 250.052 306.317L250.225 306.277C267.052 303.479 272.603 300.393 274.414 299.781C279.582 298.033 277.518 294.226 275.683 294.335C267.446 294.845 264.878 293.892 261.611 292.413C259.852 291.812 258.213 291.707 257.607 291.885" fill="#1D2A30"/>
<path d="M122.168 171.545C119.144 172.02 116.146 169.701 115.2 166.792C114.253 163.882 115.036 160.634 116.589 157.997C117.736 156.051 125.219 151.422 127.994 156.629C133.518 166.992 122.168 171.545 122.168 171.545" fill="#1D2A30"/>
<path d="M224.757 212.056L195.233 213.312L195.364 210.385L224.888 209.13L224.757 212.056Z" fill="#008BBA"/>
<path d="M195.233 213.312L195.364 210.385L224.888 209.13L224.757 212.056L203.834 212.946L197.646 213.208L195.233 213.312" fill="#C7D9F2"/>
<path d="M224.576 216.119L195.052 217.374L195.183 214.447L224.707 213.192L224.576 216.119" fill="#008BBA"/>
<path d="M195.052 217.374L195.183 214.447L224.707 213.192L224.576 216.119L202.93 217.038L196.73 217.302L195.052 217.374" fill="#C7D9F2"/>
<path d="M224.393 220.182L194.869 221.436L195 218.51L224.524 217.254L224.393 220.182" fill="#008BBA"/>
<path d="M194.869 221.436L195 218.51L224.524 217.254L224.393 220.182L202.026 221.132L195.815 221.395L194.869 221.436" fill="#C7D9F2"/>
<path d="M224.211 224.244L194.688 225.499L194.818 222.572L224.342 221.317L224.211 224.244Z" fill="#008BBA"/>
<path d="M194.688 225.499L194.818 222.572L224.342 221.317L224.211 224.244L201.122 225.225L194.898 225.49L194.688 225.499" fill="#C7D9F2"/>
<path d="M224.029 228.307L194.505 229.562L194.636 226.636L224.16 225.38L224.029 228.307Z" fill="#008BBA"/>
<path d="M194.505 229.562L194.636 226.636L224.16 225.38L224.029 228.307L207.394 229.013L202.457 229.223L197.501 229.434L194.505 229.562" fill="#C7D9F2"/>
<path d="M180.973 216.032L180.931 215.057L183.299 214.955L183.341 215.93L180.973 216.032Z" fill="#008BBA"/>
<path d="M180.973 216.032L180.931 215.057L183.299 214.955L183.341 215.93L180.973 216.032Z" fill="#A1BCE6"/>
<path d="M180.862 218.845L180.82 217.869L183.188 217.769L183.23 218.744L180.862 218.845Z" fill="#008BBA"/>
<path d="M180.862 218.845L180.82 217.869L183.188 217.769L183.23 218.744L180.862 218.845Z" fill="#A1BCE6"/>
<path d="M180.75 221.659L180.708 220.683L183.076 220.583L183.118 221.558L180.75 221.659Z" fill="#008BBA"/>
<path d="M180.75 221.659L180.708 220.683L183.076 220.583L183.118 221.558L180.75 221.659Z" fill="#A1BCE6"/>
<path d="M180.639 224.472L180.597 223.497L182.965 223.396L183.007 224.371L180.639 224.472Z" fill="#008BBA"/>
<path d="M180.639 224.472L180.597 223.497L182.965 223.396L183.007 224.371L180.639 224.472Z" fill="#A1BCE6"/>
<path d="M180.527 227.286L180.485 226.311L182.853 226.209L182.895 227.185L180.527 227.286Z" fill="#008BBA"/>
<path d="M180.527 227.286L182.895 227.185L182.853 226.209L180.617 226.305L182.983 226.204L182.895 227.185L180.527 227.286" fill="#F8FBFE"/>
<path d="M180.527 227.286L180.617 226.305L182.853 226.209L182.895 227.185L180.527 227.286" fill="#A1BCE6"/>
<path d="M180.415 230.099L180.374 229.125L182.741 229.024L182.782 229.999L180.415 230.099Z" fill="#008BBA"/>
<path d="M180.415 230.099L180.374 229.125L182.741 229.024L182.782 229.999L180.415 230.099Z" fill="#A1BCE6"/>
<path d="M185.769 212.261L180.871 214.082L180.925 212.797L183.636 212.36L180.95 212.173L181.003 210.887L185.769 212.261" fill="#008BBA"/>
<path d="M215.69 207.609L195.233 208.479L195.324 206.45L215.781 205.581L215.69 207.609" fill="#008BBA"/>
<path d="M195.233 208.479L195.324 206.45L215.781 205.581L215.69 207.609L204.911 208.067L198.738 208.33L195.233 208.479Z" fill="#C7D9F2"/>
<path d="M188.088 208.658L185.09 208.792L186.302 208.021L186.635 208.326L186.993 208.012L188.088 208.658" fill="#008BBA"/>
<path d="M186.18 207.927L184.968 208.698L185.058 206.914L186.18 207.927Z" fill="#008BBA"/>
<path d="M188.277 206.856L188.179 208.552L187.083 207.906L188.277 206.856Z" fill="#008BBA"/>
<path d="M186.609 207.687L186.601 207.678L186.667 207.608L186.677 207.617L186.609 207.687Z" fill="white"/>
<path d="M186.677 207.687L186.609 207.617L186.619 207.608L186.686 207.678L186.677 207.687Z" fill="white"/>
<path d="M188.277 206.688L186.993 207.859L186.635 208.172L186.302 207.867L185.18 206.854L185.09 206.772L188.277 206.688" fill="#008BBA"/>
<path d="M180.958 207.404L180.946 207.113L183.314 207.012L183.326 207.303L180.958 207.404Z" fill="#008BBA"/>
<path d="M180.958 208.15L180.946 207.859L183.314 207.757L183.326 208.049L180.958 208.15Z" fill="#008BBA"/>
<path d="M180.958 208.895L180.946 208.604L183.314 208.503L183.326 208.795L180.958 208.895Z" fill="#008BBA"/>
<path d="M320.816 60.3442H306.6C305.31 60.3442 304.266 59.2996 304.266 58.0102C304.266 56.7228 305.31 55.6782 306.6 55.6782H320.816C322.105 55.6782 323.151 56.7228 323.151 58.0102C323.151 59.2996 322.105 60.3442 320.816 60.3442Z" fill="#008BBA"/>
<path d="M372.986 108.243L318.472 208.505C317.769 209.796 316.153 210.274 314.862 209.572L222.089 159.2C220.798 158.498 220.318 156.884 221.021 155.591L291.928 25.1809C292.63 23.8905 294.246 23.4126 295.539 24.1139L358.048 58.0541L372.986 108.243" fill="#008BBA"/>
<path d="M316.131 209.895C315.701 209.895 315.265 209.792 314.862 209.572L248.641 173.616L248.397 173.484L236.896 167.239L236.652 167.107L222.089 159.2C221.201 158.717 220.697 157.803 220.697 156.859C220.697 156.43 220.802 155.995 221.021 155.591L291.929 25.1809C292.411 24.2933 293.326 23.7901 294.27 23.7901C294.7 23.7901 295.135 23.8944 295.539 24.1139L302.76 28.0347L235.237 152.221C235.017 152.624 234.914 153.059 234.914 153.488C234.914 154.433 235.417 155.346 236.305 155.829L321.857 202.28L318.472 208.505C317.989 209.392 317.074 209.895 316.131 209.895" fill="#8CC0D1"/>
<path d="M342.4 130.741L273.118 93.392L270.799 97.6854L340.082 135.035L342.4 130.741" fill="#008BBA"/>
<path d="M332.932 148.279L263.65 110.929L261.332 115.224L330.614 152.574L332.932 148.279Z" fill="#008BBA"/>
<path d="M323.464 165.817L254.182 128.467L251.864 132.762L321.146 170.112L323.464 165.817" fill="#008BBA"/>
<path d="M358.137 58.0102L341.693 88.253C340.992 89.5443 341.47 91.1595 342.762 91.8607L372.932 108.242L358.137 58.0102" fill="#008BBA"/>
<path d="M387.203 104.872L332.687 205.134C331.985 206.425 330.369 206.903 329.077 206.201L236.305 155.829C235.013 155.127 234.535 153.512 235.236 152.221L306.145 21.8102C306.847 20.5188 308.463 20.0409 309.755 20.7432L372.264 54.6834L387.203 104.872Z" fill="#008BBA"/>
<path d="M330.347 206.524C329.917 206.524 329.481 206.421 329.077 206.201L321.857 202.28L236.305 155.829C235.417 155.346 234.914 154.433 234.914 153.488C234.914 153.059 235.017 152.624 235.237 152.221L306.145 21.8102C306.627 20.9226 307.542 20.4194 308.486 20.4194C308.916 20.4194 309.351 20.5237 309.755 20.7432L372.264 54.6834L372.288 54.7615L355.91 84.8823C355.691 85.2861 355.587 85.7211 355.587 86.1502C355.587 87.0934 356.091 88.0072 356.979 88.49L387.148 104.872L382.08 87.66L387.203 104.873L332.687 205.134C332.205 206.021 331.291 206.524 330.347 206.524" fill="#B6DFED"/>
<path d="M354.767 126.373L289.183 91.0171C288.162 90.466 286.887 90.8474 286.337 91.8676L286.013 92.4664C285.462 93.4876 285.844 94.7604 286.864 95.3105L352.449 130.668C353.47 131.218 354.745 130.838 355.295 129.817L355.619 129.218C356.17 128.197 355.789 126.924 354.767 126.373" fill="#008BBA"/>
<path d="M345.3 143.912L279.715 108.555C278.694 108.005 277.419 108.386 276.869 109.406L276.546 110.006C275.994 111.026 276.376 112.299 277.397 112.85L342.982 148.206C344.002 148.756 345.276 148.375 345.828 147.356L346.151 146.756C346.701 145.736 346.321 144.462 345.3 143.912" fill="#008BBA"/>
<path d="M335.832 161.45L270.246 126.094C269.226 125.543 267.952 125.924 267.4 126.944L267.077 127.544C266.527 128.564 266.908 129.837 267.928 130.388L333.514 165.744C334.535 166.294 335.808 165.913 336.36 164.894L336.683 164.294C337.233 163.274 336.853 162.001 335.832 161.45" fill="#008BBA"/>
<path d="M372.354 54.6395L355.91 84.8823C355.209 86.1736 355.687 87.7878 356.979 88.49L387.148 104.872L372.354 54.6395Z" fill="#008BBA"/>
<path d="M387.148 104.872L356.979 88.49C356.091 88.0072 355.587 87.0934 355.587 86.1502C355.587 85.7211 355.69 85.2861 355.91 84.8823L372.354 54.6395L387.148 104.872" fill="#8CC0D1"/>
<path d="M368.589 8.67063L373.172 29.0246C355.797 33.793 340.214 50.9733 328.995 67.2085C324.569 73.6134 320.824 81.062 318.025 88.9309C318.025 88.9309 353.057 57.267 372.37 55.4081L371.45 89.0557C371.45 89.0557 391.479 50.0682 430.379 35.7982C430.379 35.7982 397.795 12.3525 368.589 8.67063" fill="#008BBA"/>
<path d="M132.261 231.051L141.114 332.166H126.848L117.322 223.357H123.859C128.232 223.357 131.881 226.697 132.261 231.051Z" fill="#008BBA"/>
<path d="M135.192 264.519L132.338 231.915C132.339 231.931 132.341 231.947 132.342 231.964L135.192 264.519Z" fill="#7A95D4"/>
<path d="M135.548 268.581L135.191 264.519L135.548 268.581Z" fill="#182124"/>
<path d="M138.66 304.129H138.659L135.548 268.581L138.66 304.129" fill="#395EB4"/>
<path d="M138.659 304.129H129.483L122.987 229.944C122.707 226.743 120.364 224.182 117.336 223.522L117.322 223.357H122.943C127.819 223.357 131.889 227.069 132.338 231.915L135.191 264.519L135.548 268.581L138.659 304.129" fill="#005774"/>
<path d="M122.988 229.944L131.938 332.166H46.9879L38.1486 231.201C37.7796 226.984 41.106 223.357 45.3424 223.357H115.795C119.539 223.357 122.662 226.216 122.988 229.944" fill="#008BBA"/>
<path d="M46.9496 331.729L45.9866 320.727L46.9496 331.729ZM45.9652 320.483L42.153 276.941L45.9652 320.483ZM42.1314 276.692L38.2644 232.526C38.2636 232.513 38.2624 232.501 38.2612 232.489L42.1314 276.692" fill="white"/>
<path d="M42.153 276.941L42.1313 276.692L42.153 276.941Z" fill="#F3F3F2"/>
<path d="M45.9867 320.727L45.9653 320.483L45.9867 320.727Z" fill="#F3F3F2"/>
<path d="M47.3373 331.729H46.9499L45.9869 320.727L45.9655 320.483L42.1533 276.941L42.1317 276.692L38.2615 232.489C37.8525 227.576 41.7333 223.357 46.6727 223.357H114.678C119.054 223.357 122.704 226.699 123.085 231.056L129.483 304.129H44.9209L47.3373 331.729" fill="#0580AA"/>
<path d="M272.491 332.166H47.3757L44.9209 304.129H261.014C265.997 304.129 270.39 308.166 270.826 313.146L272.491 332.166" fill="#008BBA"/>
<path d="M272.453 331.729H47.3373L44.9209 304.129H261.014C265.997 304.129 270.39 308.166 270.826 313.146L272.453 331.729" fill="#0580AA"/>
<path d="M282.813 342.904H44.7306C41.6424 342.904 39.1392 340.401 39.1392 337.316C39.1392 334.23 41.6424 331.729 44.7306 331.729H282.813C285.901 331.729 288.404 334.23 288.404 337.316C288.404 340.401 285.901 342.904 282.813 342.904Z" fill="#008BBA"/>
<path d="M282.813 342.904H144.603C141.515 342.904 139.012 340.401 139.012 337.316C139.012 334.23 141.515 331.729 144.603 331.729H282.813C285.901 331.729 288.404 334.23 288.404 337.316C288.404 340.401 285.901 342.904 282.813 342.904Z" fill="#005774"/>
<path d="M47.8521 342.904L50.6741 352.499H56.3174L59.4215 342.904H47.8521Z" fill="#1D2A30"/>
<path d="M56.3174 352.499H50.6741L47.8521 342.904H59.4215L56.3174 352.499Z" fill="#8E989B"/>
<path d="M128.696 342.904L131.518 352.499H137.162L140.266 342.904H128.696Z" fill="#1D2A30"/>
<path d="M137.162 352.499H131.518L128.696 342.904H140.266L137.162 352.499" fill="#8E989B"/>
<path d="M190.573 342.904L193.394 352.499H199.038L202.141 342.904H190.573Z" fill="#1D2A30"/>
<path d="M199.038 352.499H193.394L190.573 342.904H202.141L199.038 352.499" fill="#8E989B"/>
<path d="M271.417 342.904L274.239 352.499H279.882L282.986 342.904H271.417Z" fill="#1D2A30"/>
<path d="M279.882 352.499H274.239L271.417 342.904H282.986L279.882 352.499" fill="#8E989B"/>
</g>
<defs>
<clipPath id="clip0_757_530">
<rect width="488" height="364" fill="white"/>
</clipPath>
</defs>
</svg>
