<svg width="112" height="112" viewBox="0 0 112 112" fill="none" xmlns="http://www.w3.org/2000/svg">
<g filter="url(#filter0_d_1004_260)">
<circle cx="56" cy="56" r="42" fill="white"/>
</g>
<g clip-path="url(#clip0_1004_260)">
<path fill-rule="evenodd" clip-rule="evenodd" d="M55.9997 31C51.8002 31.0008 47.6631 32.0122 43.9409 33.948C43.6355 34.1074 43.4063 34.3811 43.3036 34.7088C43.2009 35.0365 43.2332 35.3914 43.3933 35.6954C43.5535 35.9994 43.8284 36.2276 44.1576 36.3299C44.4867 36.4321 44.8432 36.4 45.1486 36.2405C55.1716 31.0239 67.5086 33.6905 74.4552 42.5752C81.403 51.4594 80.9727 64.0188 73.4327 72.4118H38.5667C30.4567 63.4002 30.6341 49.7065 38.9743 40.9058C39.0914 40.7821 39.183 40.6367 39.2437 40.4778C39.3044 40.3189 39.333 40.1497 39.328 39.9798C39.323 39.8098 39.2844 39.6426 39.2145 39.4875C39.1445 39.3324 39.0446 39.1926 38.9203 39.0759C38.7961 38.9593 38.65 38.8682 38.4904 38.8078C38.3308 38.7474 38.1607 38.7188 37.9901 38.7238C37.8194 38.7288 37.6513 38.7672 37.4955 38.8368C37.3398 38.9065 37.1993 39.006 37.0821 39.1296C27.6545 49.0814 27.6389 64.6186 37.0464 74.5885C37.1677 74.718 37.3145 74.8214 37.4777 74.8922C37.6408 74.963 37.8168 74.9997 37.9947 75H74.0047C74.1825 75 74.3584 74.9637 74.5215 74.8934C74.6846 74.823 74.8315 74.7201 74.9531 74.5911C78.4257 70.9106 80.7407 66.2991 81.6128 61.325C82.485 56.3508 81.8761 51.2314 79.8613 46.5975C77.8465 41.9636 74.5137 38.0177 70.2738 35.2462C66.0339 32.4747 61.072 30.9987 55.9997 31ZM52.9057 37.2706C51.8767 37.4242 50.8607 37.6543 49.8663 37.9591L51.399 42.9052C52.1432 42.6761 52.9037 42.503 53.674 42.3876L52.9057 37.2706ZM59.1093 37.2706L58.3378 42.3902C59.108 42.5054 59.8685 42.6788 60.6128 42.9078L62.1487 37.963C61.1543 37.6588 60.1383 37.4293 59.1093 37.2765V37.2706ZM75.384 50.2274C75.0062 49.2627 74.556 48.3276 74.0372 47.4301L69.5301 50.0112C69.9186 50.6836 70.256 51.3839 70.5396 52.1064L75.384 50.2274ZM36.6213 50.2105L41.4644 52.0941C41.7477 51.3722 42.0853 50.6727 42.4745 50.0015L37.9707 47.4133C37.4508 48.3115 36.9997 49.2474 36.6213 50.2131V50.2105ZM41.8375 42.5824L45.3807 46.3715C45.9511 45.8426 46.5608 45.3572 47.2046 44.9195L44.2705 40.6451C43.4122 41.2296 42.5989 41.8772 41.8375 42.5824ZM64.804 44.9247C65.4475 45.3647 66.0578 45.8506 66.6292 46.3799L70.1723 42.5914C69.4119 41.8866 68.5998 41.2393 67.7426 40.6548L64.804 44.9247ZM44.1437 68.5294C44.1448 68.8723 44.2821 69.2009 44.5256 69.4434C44.7692 69.6858 45.0993 69.8225 45.4437 69.8235H66.4777C66.8222 69.8225 67.1523 69.6858 67.3958 69.4434C67.6394 69.2009 67.7767 68.8723 67.7777 68.5294C67.7755 68.4383 67.7668 68.3475 67.7517 68.2576C67.6022 62.3791 63.1179 57.5119 57.2477 56.8565V46.7494C57.2477 46.4062 57.1108 46.077 56.867 45.8343C56.6232 45.5916 56.2925 45.4553 55.9477 45.4553C55.6029 45.4553 55.2723 45.5916 55.0285 45.8343C54.7847 46.077 54.6477 46.4062 54.6477 46.7494V56.8565C48.6703 57.5152 44.1457 62.5428 44.1437 68.5294ZM57.2477 59.4706C59.2179 59.7508 61.0439 60.6588 62.4524 62.0585C63.8608 63.4583 64.776 65.2745 65.0607 67.2353H57.2477V59.4706ZM54.6477 59.4706V67.2353H46.8347C47.1195 65.2745 48.0346 63.4583 49.4431 62.0585C50.8515 60.6588 52.6775 59.7508 54.6477 59.4706Z" fill="#008BBA"/>
</g>
<defs>
<filter id="filter0_d_1004_260" x="0" y="0" width="112" height="112" filterUnits="userSpaceOnUse" color-interpolation-filters="sRGB">
<feFlood flood-opacity="0" result="BackgroundImageFix"/>
<feColorMatrix in="SourceAlpha" type="matrix" values="0 0 0 0 0 0 0 0 0 0 0 0 0 0 0 0 0 0 127 0" result="hardAlpha"/>
<feOffset/>
<feGaussianBlur stdDeviation="7"/>
<feComposite in2="hardAlpha" operator="out"/>
<feColorMatrix type="matrix" values="0 0 0 0 0 0 0 0 0 0 0 0 0 0 0 0 0 0 0.12 0"/>
<feBlend mode="normal" in2="BackgroundImageFix" result="effect1_dropShadow_1004_260"/>
<feBlend mode="normal" in="SourceGraphic" in2="effect1_dropShadow_1004_260" result="shape"/>
</filter>
<clipPath id="clip0_1004_260">
<rect width="52" height="44" fill="white" transform="translate(30 31)"/>
</clipPath>
</defs>
</svg>
