<svg width="94" height="94" viewBox="0 0 94 94" fill="none" xmlns="http://www.w3.org/2000/svg">
<path d="M56.9529 38.8441C54.6029 26.6794 43.6823 17.5559 30.9647 17.5559C18.247 17.5559 7.32644 26.6794 4.97644 38.8441C2.90291 39.397 1.38232 41.1941 1.38232 43.5441V43.9588C1.38232 46.5853 3.59409 48.797 6.22056 48.797H8.98526C9.81468 48.797 10.3676 48.2441 10.3676 47.4147V40.0882C10.3676 39.2588 9.81468 38.7058 8.98526 38.7058H7.87938C10.2294 28.2 19.9059 20.4588 30.9647 20.4588C42.0235 20.4588 51.7 28.2 54.05 38.7058H52.9441C52.1147 38.7058 51.5617 39.2588 51.5617 40.0882V47.5529C51.5617 48.3823 52.1147 48.9353 52.9441 48.9353H54.1882L53.7735 50.1794C52.6676 53.2206 49.7647 55.2941 46.447 55.2941H46.0323C48.5206 51.8382 50.0411 47.6911 50.0411 43.2676C50.0411 32.9 41.4706 24.4676 30.9647 24.4676C20.4588 24.4676 11.8882 32.9 11.8882 43.2676C11.8882 54.05 20.7353 63.5882 30.9647 63.5882C35.8029 63.5882 40.2264 61.5147 43.6823 58.0588H46.447C50.8706 58.0588 54.8794 55.2941 56.2617 51.0088L57.0911 48.6588C59.0264 48.1059 60.547 46.1706 60.547 44.097V43.6823C60.547 41.1941 59.0264 39.397 56.9529 38.8441ZM7.60291 46.0323H6.22056C5.11468 46.0323 4.14703 45.0647 4.14703 43.9588V43.5441C4.14703 42.3 5.11468 41.4706 6.22056 41.4706H7.60291V46.0323ZM30.9647 60.6853C22.2559 60.6853 14.6529 52.5294 14.6529 43.1294C14.6529 34.2823 21.9794 27.0941 30.9647 27.0941C39.95 27.0941 47.2764 34.2823 47.2764 43.1294C47.2764 47.6911 45.4794 51.9764 42.5764 55.1559H35.6647V54.3264H32.9V58.75H35.6647V58.0588H39.397C36.9088 59.7176 34.0059 60.6853 30.9647 60.6853ZM57.7823 43.9588C57.7823 45.0647 56.8147 46.0323 55.7088 46.0323H54.3264V41.4706H55.7088C56.8147 41.4706 57.7823 42.4382 57.7823 43.5441V43.9588ZM43.5441 65.1088H18.3853C10.0911 65.1088 3.17938 71.8823 3.17938 80.3147V91.2353C3.17938 92.0647 3.73232 92.6176 4.56174 92.6176H57.2294C58.0588 92.6176 58.6117 92.0647 58.6117 91.2353V80.1764C58.75 71.8823 51.9764 65.1088 43.5441 65.1088ZM55.9853 89.8529H6.08232V80.1764C6.08232 73.4029 11.6117 67.7353 18.5235 67.7353H43.6823C50.4558 67.7353 56.1235 73.2647 56.1235 80.1764V89.8529H55.9853ZM73.8176 1.38232L72.85 4.00879C86.397 8.98526 93.5853 24.8823 87.9176 40.0882L90.5441 41.0559C96.7647 24.4676 88.747 6.91174 73.8176 1.38232Z" fill="#008BBA"/>
<path d="M71.3295 7.74121L70.3618 10.3677C81.0059 14.2383 86.1206 26.6794 81.8353 37.8765L84.4618 38.8442C89.1618 26.403 83.6324 12.303 71.3295 7.74121Z" fill="#008BBA"/>
<path d="M68.9794 14.2383L68.0117 16.8648C75.3382 19.6295 78.7941 28.2 75.8911 35.803L78.5176 36.7706C81.8352 27.6471 77.8264 17.4177 68.9794 14.2383Z" fill="#008BBA"/>
<path d="M66.6295 22.394L65.6619 25.0205C68.8413 26.1264 70.2236 29.8587 68.9795 33.0382L71.606 34.0058C73.2648 29.444 71.1913 24.1911 66.6295 22.394Z" fill="#008BBA"/>
</svg>
