<svg width="112" height="112" viewBox="0 0 112 112" fill="none" xmlns="http://www.w3.org/2000/svg">
<g filter="url(#filter0_d_1004_249)">
<circle cx="56" cy="56" r="42" fill="white"/>
</g>
<path d="M55.93 40H54C53.7348 40 53.4804 39.8946 53.2929 39.7071C53.1054 39.5196 53 39.2652 53 39C53 38.7348 53.1054 38.4804 53.2929 38.2929C53.4804 38.1054 53.7348 38 54 38H55.95C56.2152 38 56.4696 38.1054 56.6571 38.2929C56.8446 38.4804 56.95 38.7348 56.95 39C56.95 39.2652 56.8446 39.5196 56.6571 39.7071C56.4696 39.8946 56.2152 40 55.95 40H55.93Z" fill="#008BBA"/>
<path d="M75 50H35V43C35 41.6739 35.5268 40.4021 36.4645 39.4645C37.4021 38.5268 38.6739 38 40 38C40.2652 38 40.5196 38.1054 40.7071 38.2929C40.8946 38.4804 41 38.7348 41 39C41 39.2652 40.8946 39.5196 40.7071 39.7071C40.5196 39.8946 40.2652 40 40 40C39.2044 40 38.4413 40.3161 37.8787 40.8787C37.3161 41.4413 37 42.2044 37 43V48H73V43C73 42.2044 72.6839 41.4413 72.1213 40.8787C71.5587 40.3161 70.7957 40 70 40C69.7348 40 69.4804 39.8946 69.2929 39.7071C69.1054 39.5196 69 39.2652 69 39C69 38.7348 69.1054 38.4804 69.2929 38.2929C69.4804 38.1054 69.7348 38 70 38C70.6566 38 71.3068 38.1293 71.9134 38.3806C72.52 38.6319 73.0712 39.0002 73.5355 39.4645C73.9998 39.9288 74.3681 40.48 74.6194 41.0866C74.8707 41.6932 75 42.3434 75 43V50Z" fill="#008BBA"/>
<path d="M57 74H40C39.3434 74 38.6932 73.8707 38.0866 73.6194C37.48 73.3681 36.9288 72.9998 36.4645 72.5355C36.0002 72.0712 35.6319 71.52 35.3806 70.9134C35.1293 70.3068 35 69.6566 35 69V48H75V58C75 58.2652 74.8946 58.5196 74.7071 58.7071C74.5196 58.8946 74.2652 59 74 59C73.7348 59 73.4804 58.8946 73.2929 58.7071C73.1054 58.5196 73 58.2652 73 58V50H37V69C37 69.7957 37.3161 70.5587 37.8787 71.1213C38.4413 71.6839 39.2044 72 40 72H57C57.2652 72 57.5196 72.1054 57.7071 72.2929C57.8946 72.4804 58 72.7348 58 73C58 73.2652 57.8946 73.5196 57.7071 73.7071C57.5196 73.8946 57.2652 74 57 74ZM48 45H46C45.2044 45 44.4413 44.6839 43.8787 44.1213C43.3161 43.5587 43 42.7956 43 42V36C43 35.2044 43.3161 34.4413 43.8787 33.8787C44.4413 33.3161 45.2044 33 46 33H48C48.7956 33 49.5587 33.3161 50.1213 33.8787C50.6839 34.4413 51 35.2044 51 36V42C51 42.7956 50.6839 43.5587 50.1213 44.1213C49.5587 44.6839 48.7956 45 48 45ZM46 35C45.7348 35 45.4804 35.1054 45.2929 35.2929C45.1054 35.4804 45 35.7348 45 36V42C45 42.2652 45.1054 42.5196 45.2929 42.7071C45.4804 42.8946 45.7348 43 46 43H48C48.2652 43 48.5196 42.8946 48.7071 42.7071C48.8946 42.5196 49 42.2652 49 42V36C49 35.7348 48.8946 35.4804 48.7071 35.2929C48.5196 35.1054 48.2652 35 48 35H46ZM64 45H62C61.2044 45 60.4413 44.6839 59.8787 44.1213C59.3161 43.5587 59 42.7956 59 42V36C59 35.2044 59.3161 34.4413 59.8787 33.8787C60.4413 33.3161 61.2044 33 62 33H64C64.7956 33 65.5587 33.3161 66.1213 33.8787C66.6839 34.4413 67 35.2044 67 36V42C67 42.7956 66.6839 43.5587 66.1213 44.1213C65.5587 44.6839 64.7956 45 64 45ZM62 35C61.7348 35 61.4804 35.1054 61.2929 35.2929C61.1054 35.4804 61 35.7348 61 36V42C61 42.2652 61.1054 42.5196 61.2929 42.7071C61.4804 42.8946 61.7348 43 62 43H64C64.2652 43 64.5196 42.8946 64.7071 42.7071C64.8946 42.5196 65 42.2652 65 42V36C65 35.7348 64.8946 35.4804 64.7071 35.2929C64.5196 35.1054 64.2652 35 64 35H62Z" fill="#008BBA"/>
<path d="M46 60H42C41.4696 60 40.9609 59.7893 40.5858 59.4142C40.2107 59.0391 40 58.5304 40 58V54C40 53.4696 40.2107 52.9609 40.5858 52.5858C40.9609 52.2107 41.4696 52 42 52H46C46.5304 52 47.0391 52.2107 47.4142 52.5858C47.7893 52.9609 48 53.4696 48 54V58C48 58.5304 47.7893 59.0391 47.4142 59.4142C47.0391 59.7893 46.5304 60 46 60ZM42 54V58H46V54H42ZM57 60H53C52.4696 60 51.9609 59.7893 51.5858 59.4142C51.2107 59.0391 51 58.5304 51 58V54C51 53.4696 51.2107 52.9609 51.5858 52.5858C51.9609 52.2107 52.4696 52 53 52H57C57.5304 52 58.0391 52.2107 58.4142 52.5858C58.7893 52.9609 59 53.4696 59 54V58C59 58.5304 58.7893 59.0391 58.4142 59.4142C58.0391 59.7893 57.5304 60 57 60ZM53 54V58H57V54H53ZM46 70H42C41.4696 70 40.9609 69.7893 40.5858 69.4142C40.2107 69.0391 40 68.5304 40 68V64C40 63.4696 40.2107 62.9609 40.5858 62.5858C40.9609 62.2107 41.4696 62 42 62H46C46.5304 62 47.0391 62.2107 47.4142 62.5858C47.7893 62.9609 48 63.4696 48 64V68C48 68.5304 47.7893 69.0391 47.4142 69.4142C47.0391 69.7893 46.5304 70 46 70ZM42 64V68H46V64H42ZM57 70H53C52.4696 70 51.9609 69.7893 51.5858 69.4142C51.2107 69.0391 51 68.5304 51 68V64C51 63.4696 51.2107 62.9609 51.5858 62.5858C51.9609 62.2107 52.4696 62 53 62H57C57.5304 62 58.0391 62.2107 58.4142 62.5858C58.7893 62.9609 59 63.4696 59 64V68C59 68.5304 58.7893 69.0391 58.4142 69.4142C58.0391 69.7893 57.5304 70 57 70ZM53 64V68H57V64H53ZM68 60H64C63.4696 60 62.9609 59.7893 62.5858 59.4142C62.2107 59.0391 62 58.5304 62 58V54C62 53.4696 62.2107 52.9609 62.5858 52.5858C62.9609 52.2107 63.4696 52 64 52H68C68.5304 52 69.0391 52.2107 69.4142 52.5858C69.7893 52.9609 70 53.4696 70 54V58C70 58.5304 69.7893 59.0391 69.4142 59.4142C69.0391 59.7893 68.5304 60 68 60ZM64 54V58H68V54H64ZM71 83C68.8244 83 66.6977 82.3549 64.8887 81.1462C63.0798 79.9375 61.6699 78.2195 60.8373 76.2095C60.0048 74.1995 59.7869 71.9878 60.2114 69.854C60.6358 67.7202 61.6834 65.7602 63.2218 64.2218C64.7602 62.6834 66.7202 61.6358 68.854 61.2114C70.9878 60.7869 73.1995 61.0048 75.2095 61.8373C77.2195 62.6699 78.9375 64.0798 80.1462 65.8887C81.3549 67.6977 82 69.8244 82 72C82 74.9174 80.8411 77.7153 78.7782 79.7782C76.7153 81.8411 73.9174 83 71 83ZM71 63C69.22 63 67.4799 63.5278 65.9999 64.5168C64.5198 65.5057 63.3663 66.9113 62.6851 68.5559C62.0039 70.2004 61.8257 72.01 62.1729 73.7558C62.5202 75.5016 63.3774 77.1053 64.636 78.364C65.8947 79.6226 67.4984 80.4798 69.2442 80.8271C70.99 81.1743 72.7996 80.9961 74.4441 80.3149C76.0887 79.6337 77.4943 78.4802 78.4832 77.0001C79.4722 75.5201 80 73.78 80 72C80 69.6131 79.0518 67.3239 77.364 65.636C75.6761 63.9482 73.3869 63 71 63Z" fill="#008BBA"/>
<path d="M74.4456 68.2551C74.6184 68.0897 74.8483 67.9982 75.0869 68C75.3255 68.0018 75.5541 68.0968 75.7244 68.2648C75.8947 68.4328 75.9934 68.6608 75.9997 68.9005C76.006 69.1403 75.9194 69.3732 75.7582 69.5501L70.8636 75.7044C70.7794 75.7955 70.6778 75.8686 70.5649 75.9194C70.452 75.9702 70.33 75.9975 70.2064 75.9998C70.0827 76.0021 69.9598 75.9793 69.8451 75.9328C69.7304 75.8863 69.6262 75.817 69.5387 75.729L66.2928 72.4656C66.2024 72.381 66.1299 72.2788 66.0796 72.1654C66.0294 72.0519 66.0023 71.9294 66.0001 71.8052C65.998 71.681 66.0207 71.5577 66.067 71.4425C66.1132 71.3273 66.1821 71.2227 66.2695 71.1348C66.3568 71.047 66.4609 70.9778 66.5755 70.9312C66.69 70.8847 66.8127 70.8619 66.9363 70.8641C67.0598 70.8662 67.1816 70.8934 67.2945 70.944C67.4073 70.9945 67.5089 71.0674 67.5931 71.1583L70.1619 73.7397L74.4223 68.2822C74.4299 68.2727 74.4381 68.2636 74.4468 68.2551H74.4456Z" fill="#008BBA"/>
<defs>
<filter id="filter0_d_1004_249" x="0" y="0" width="112" height="112" filterUnits="userSpaceOnUse" color-interpolation-filters="sRGB">
<feFlood flood-opacity="0" result="BackgroundImageFix"/>
<feColorMatrix in="SourceAlpha" type="matrix" values="0 0 0 0 0 0 0 0 0 0 0 0 0 0 0 0 0 0 127 0" result="hardAlpha"/>
<feOffset/>
<feGaussianBlur stdDeviation="7"/>
<feComposite in2="hardAlpha" operator="out"/>
<feColorMatrix type="matrix" values="0 0 0 0 0 0 0 0 0 0 0 0 0 0 0 0 0 0 0.12 0"/>
<feBlend mode="normal" in2="BackgroundImageFix" result="effect1_dropShadow_1004_249"/>
<feBlend mode="normal" in="SourceGraphic" in2="effect1_dropShadow_1004_249" result="shape"/>
</filter>
</defs>
</svg>
