<svg width="112" height="112" viewBox="0 0 112 112" fill="none" xmlns="http://www.w3.org/2000/svg">
<g filter="url(#filter0_d_1004_294)">
<circle cx="56" cy="56" r="42" fill="white"/>
</g>
<circle cx="54.5" cy="32.5" r="5.5" stroke="#008BBA" stroke-width="2"/>
<circle cx="33.5" cy="41.5" r="5.5" stroke="#008BBA" stroke-width="2"/>
<circle cx="77.5" cy="42.5" r="5.5" stroke="#008BBA" stroke-width="2"/>
<path d="M74.78 59.6374C74.6037 59.6405 74.4308 59.5885 74.2854 59.4887C74.14 59.3889 74.0294 59.2462 73.9689 59.0806C73.6146 57.9396 73.1567 56.8334 72.6011 55.7758C72.5269 55.6164 72.5033 55.4381 72.5337 55.265C72.564 55.0918 72.6466 54.9321 72.7705 54.8074C73.3745 54.2016 73.7136 53.381 73.7136 52.5256C73.7136 51.6701 73.3745 50.8496 72.7705 50.2437L69.7563 47.2295C69.153 46.63 68.3371 46.2935 67.4866 46.2935C66.6361 46.2935 65.8201 46.63 65.2168 47.2295C65.0941 47.3565 64.9342 47.4414 64.7602 47.4718C64.5862 47.5023 64.407 47.4768 64.2484 47.399C63.1908 46.8433 62.0846 46.3854 60.9437 46.0311C60.778 45.9706 60.6353 45.86 60.5355 45.7146C60.4357 45.5693 60.3837 45.3963 60.3868 45.22C60.3853 44.7956 60.3001 44.3756 60.1362 43.9841C59.9723 43.5925 59.7329 43.2371 59.4316 42.9381C59.1304 42.6391 58.7732 42.4024 58.3804 42.2414C57.9877 42.0805 57.5671 41.9984 57.1426 42H52.8574C52.4309 42.0016 52.0089 42.0876 51.6158 42.253C51.2227 42.4184 50.8662 42.66 50.5668 42.9638C50.2675 43.2676 50.0313 43.6277 49.8718 44.0232C49.7122 44.4188 49.6326 44.842 49.6374 45.2684C49.6426 45.4314 49.5946 45.5915 49.5007 45.7247C49.4067 45.858 49.272 45.957 49.1168 46.0069C47.9627 46.3672 46.8443 46.8332 45.7758 47.399C45.6164 47.4732 45.4381 47.4967 45.265 47.4664C45.0918 47.4361 44.9321 47.3534 44.8074 47.2295C44.2041 46.63 43.3881 46.2935 42.5376 46.2935C41.6871 46.2935 40.8712 46.63 40.2679 47.2295L37.2295 50.2437C36.6255 50.8496 36.2864 51.6701 36.2864 52.5256C36.2864 53.381 36.6255 54.2016 37.2295 54.8074C37.3534 54.9321 37.436 55.0918 37.4663 55.265C37.4967 55.4381 37.4731 55.6164 37.3989 55.7758C36.8433 56.8334 36.3854 57.9396 36.0311 59.0806C35.9706 59.2462 35.86 59.3889 35.7146 59.4887C35.5692 59.5885 35.3963 59.6405 35.22 59.6374C34.367 59.6406 33.5498 59.9809 32.9466 60.584C32.3435 61.1872 32.0032 62.0044 32 62.8574V67.1427C32.0032 67.9957 32.3435 68.8128 32.9466 69.416C33.5498 70.0192 34.367 70.3595 35.22 70.3627C35.3963 70.3595 35.5692 70.4115 35.7146 70.5113C35.86 70.6111 35.9706 70.7538 36.0311 70.9195C36.3854 72.0604 36.8433 73.1666 37.3989 74.2242C37.4731 74.3836 37.4967 74.5619 37.4663 74.7351C37.436 74.9082 37.3534 75.0679 37.2295 75.1927C36.6255 75.7985 36.2864 76.6191 36.2864 77.4745C36.2864 78.3299 36.6255 79.1505 37.2295 79.7563L40.2437 82.7706C40.847 83.3701 41.6629 83.7065 42.5134 83.7065C43.3639 83.7065 44.1799 83.3701 44.7832 82.7706C44.9059 82.6435 45.0658 82.5587 45.2398 82.5282C45.4138 82.4978 45.593 82.5233 45.7516 82.6011C46.8092 83.1568 47.9154 83.6146 49.0563 83.969C49.222 84.0294 49.3647 84.14 49.4645 84.2854C49.5643 84.4308 49.6163 84.6037 49.6132 84.78C49.6147 85.2045 49.6999 85.6245 49.8638 86.016C50.0277 86.4075 50.2671 86.7629 50.5684 87.0619C50.8696 87.3609 51.2268 87.5977 51.6196 87.7586C52.0123 87.9196 52.4329 88.0016 52.8574 88H57.1426C57.9956 87.9968 58.8128 87.6566 59.416 87.0534C60.0192 86.4502 60.3594 85.633 60.3626 84.78C60.3595 84.6037 60.4115 84.4308 60.5113 84.2854C60.6111 84.14 60.7538 84.0294 60.9195 83.969C62.0604 83.6146 63.1666 83.1568 64.2242 82.6011C64.3836 82.5269 64.5619 82.5034 64.735 82.5337C64.9082 82.564 65.0679 82.6467 65.1926 82.7706C65.7959 83.3701 66.6119 83.7065 67.4624 83.7065C68.3129 83.7065 69.1288 83.3701 69.7321 82.7706L72.7463 79.7563C73.3503 79.1505 73.6894 78.3299 73.6894 77.4745C73.6894 76.6191 73.3503 75.7985 72.7463 75.1927C72.6224 75.0679 72.5397 74.9082 72.5094 74.7351C72.4791 74.5619 72.5027 74.3836 72.5768 74.2242C73.1406 73.1506 73.6065 72.0283 73.9689 70.8711C74.0266 70.7121 74.1347 70.5763 74.2768 70.4845C74.4189 70.3927 74.5871 70.3499 74.7558 70.3627C75.1802 70.3643 75.6008 70.2822 75.9936 70.1213C76.3863 69.9603 76.7435 69.7236 77.0448 69.4246C77.346 69.1256 77.5855 68.7701 77.7493 68.3786C77.9132 67.9871 77.9984 67.5671 78 67.1427V62.8574C77.9968 62.0044 77.6565 61.1872 77.0534 60.584C76.4502 59.9809 75.633 59.6406 74.78 59.6374ZM75.5789 67.1427C75.5758 67.2508 75.5514 67.3572 75.5071 67.4559C75.4628 67.5546 75.3995 67.6435 75.3208 67.7177C75.2421 67.7919 75.1496 67.8499 75.0485 67.8883C74.9474 67.9267 74.8397 67.9448 74.7316 67.9416C74.0514 67.9352 73.3871 68.1469 72.8359 68.5455C72.2848 68.9442 71.8758 69.5089 71.669 70.1569C71.362 71.1744 70.9566 72.1596 70.4584 73.0984C70.1365 73.7127 70.0216 74.4145 70.1306 75.0994C70.2397 75.7842 70.5669 76.4156 71.0637 76.8995C71.1391 76.9738 71.199 77.0624 71.2398 77.1601C71.2807 77.2578 71.3017 77.3626 71.3017 77.4684C71.3017 77.5743 71.2807 77.6791 71.2398 77.7768C71.199 77.8745 71.1391 77.9631 71.0637 78.0374L68.0374 81.0637C67.963 81.1391 67.8745 81.199 67.7768 81.2398C67.6791 81.2807 67.5743 81.3018 67.4684 81.3018C67.3625 81.3018 67.2577 81.2807 67.1601 81.2398C67.0624 81.199 66.9738 81.1391 66.8995 81.0637C66.4145 80.5763 65.7862 80.2569 65.1066 80.1524C64.427 80.0478 63.7317 80.1636 63.1226 80.4827C62.1937 80.9662 61.226 81.3711 60.2295 81.6932C59.5676 81.899 58.9897 82.3129 58.5819 82.8734C58.1741 83.434 57.958 84.1111 57.9658 84.8042C57.9627 85.0152 57.8775 85.2166 57.7283 85.3657C57.5792 85.5149 57.3778 85.6001 57.1668 85.6032H52.8574C52.6464 85.6001 52.445 85.5149 52.2959 85.3657C52.1467 85.2166 52.0615 85.0152 52.0584 84.8042C52.067 84.1126 51.8527 83.4366 51.4472 82.8763C51.0417 82.316 50.4665 81.9012 49.8068 81.6932C48.8056 81.3733 47.8337 80.9684 46.9016 80.4827C46.2916 80.1673 45.5972 80.0537 44.9185 80.1581C44.2398 80.2625 43.6118 80.5796 43.1247 81.0637C43.0504 81.1391 42.9618 81.199 42.8642 81.2398C42.7665 81.2807 42.6617 81.3018 42.5558 81.3018C42.4499 81.3018 42.3451 81.2807 42.2474 81.2398C42.1497 81.199 42.0612 81.1391 41.9868 81.0637L38.9605 78.0374C38.8851 77.9631 38.8253 77.8745 38.7844 77.7768C38.7435 77.6791 38.7225 77.5743 38.7225 77.4684C38.7225 77.3626 38.7435 77.2578 38.7844 77.1601C38.8253 77.0624 38.8851 76.9738 38.9605 76.8995C39.4573 76.4156 39.7845 75.7842 39.8936 75.0994C40.0026 74.4145 39.8877 73.7127 39.5658 73.0984C39.0747 72.1689 38.6695 71.1964 38.3553 70.1932C38.1433 69.5336 37.7258 68.9592 37.1638 68.554C36.6018 68.1488 35.9249 67.9342 35.2321 67.9416C35.0212 67.9385 34.8198 67.8533 34.6706 67.7041C34.5215 67.555 34.4363 67.3536 34.4332 67.1427V62.8574C34.4363 62.6465 34.5215 62.4451 34.6706 62.2959C34.8198 62.1467 35.0212 62.0616 35.2321 62.0584C35.9249 62.0658 36.6018 61.8512 37.1638 61.446C37.7258 61.0409 38.1433 60.4665 38.3553 59.8069C38.6695 58.8036 39.0747 57.8312 39.5658 56.9016C39.8877 56.2873 40.0026 55.5856 39.8936 54.9007C39.7845 54.2158 39.4573 53.5845 38.9605 53.1006C38.8851 53.0262 38.8253 52.9376 38.7844 52.84C38.7435 52.7423 38.7225 52.6375 38.7225 52.5316C38.7225 52.4257 38.7435 52.3209 38.7844 52.2232C38.8253 52.1256 38.8851 52.037 38.9605 51.9627L41.9868 48.9363C42.0612 48.8609 42.1497 48.8011 42.2474 48.7602C42.3451 48.7193 42.4499 48.6983 42.5558 48.6983C42.6617 48.6983 42.7665 48.7193 42.8642 48.7602C42.9618 48.8011 43.0504 48.8609 43.1247 48.9363C43.6097 49.4238 44.238 49.7431 44.9176 49.8477C45.5973 49.9522 46.2925 49.8365 46.9016 49.5174C47.8404 49.0193 48.8256 48.6138 49.8432 48.3069C50.495 48.0909 51.0611 47.6729 51.4594 47.1135C51.8577 46.5542 52.0676 45.8825 52.0584 45.1958C52.0677 44.9891 52.1555 44.7938 52.3041 44.6498C52.4526 44.5058 52.6505 44.424 52.8574 44.4211H57.1426C57.3536 44.4242 57.555 44.5094 57.7041 44.6585C57.8533 44.8077 57.9385 45.0091 57.9416 45.22C57.933 45.9116 58.1473 46.5876 58.5528 47.1479C58.9583 47.7083 59.5335 48.1231 60.1932 48.3311C61.1944 48.6509 62.1663 49.0559 63.0984 49.5416C63.7075 49.8607 64.4027 49.9764 65.0824 49.8719C65.762 49.7673 66.3903 49.448 66.8753 48.9605C66.9496 48.8852 67.0382 48.8253 67.1358 48.7844C67.2335 48.7436 67.3383 48.7225 67.4442 48.7225C67.5501 48.7225 67.6549 48.7436 67.7526 48.7844C67.8503 48.8253 67.9388 48.8852 68.0132 48.9605L71.0395 51.9869C71.1149 52.0612 71.1747 52.1498 71.2156 52.2474C71.2565 52.3451 71.2775 52.4499 71.2775 52.5558C71.2775 52.6617 71.2565 52.7665 71.2156 52.8642C71.1747 52.9619 71.1149 53.0504 71.0395 53.1248C70.5427 53.6087 70.2155 54.24 70.1064 54.9249C69.9974 55.6098 70.1123 56.3115 70.4342 56.9258C70.9253 57.8554 71.3305 58.8278 71.6447 59.8311C71.8567 60.4907 72.2742 61.0651 72.8362 61.4703C73.3982 61.8754 74.0751 62.09 74.7679 62.0827C74.9788 62.0858 75.1802 62.171 75.3294 62.3201C75.4785 62.4693 75.5637 62.6707 75.5668 62.8816L75.5789 67.1427Z" fill="#008BBA"/>
<path d="M55 50.7158C52.1749 50.7158 49.4132 51.5536 47.0642 53.1231C44.7151 54.6927 42.8843 56.9236 41.8031 59.5337C40.722 62.1438 40.4391 65.0159 40.9903 67.7867C41.5415 70.5576 42.9019 73.1028 44.8996 75.1005C46.8973 77.0982 49.4425 78.4586 52.2133 79.0098C54.9842 79.5609 57.8563 79.2781 60.4664 78.1969C63.0765 77.1158 65.3074 75.2849 66.8769 72.9359C68.4465 70.5869 69.2842 67.8252 69.2842 65C69.281 61.2126 67.7751 57.5812 65.097 54.9031C62.4188 52.225 58.7875 50.719 55 50.7158ZM55 76.8632C52.6537 76.8632 50.3601 76.1674 48.4092 74.8639C46.4583 73.5603 44.9378 71.7076 44.0399 69.5399C43.142 67.3722 42.9071 64.9869 43.3648 62.6856C43.8226 60.3844 44.9524 58.2706 46.6115 56.6115C48.2706 54.9524 50.3844 53.8226 52.6857 53.3648C54.9869 52.9071 57.3722 53.142 59.5399 54.0399C61.7076 54.9378 63.5604 56.4583 64.8639 58.4092C66.1674 60.3601 66.8632 62.6537 66.8632 65C66.8568 68.1444 65.6049 71.1581 63.3815 73.3815C61.1581 75.6049 58.1444 76.8568 55 76.8632Z" fill="#008BBA"/>
<path d="M61.0524 57.8094C60.7674 57.6647 60.4366 57.6386 60.1324 57.7368L55.2903 59.3347L56.0408 61.6347L58.1713 60.9447L55.835 65.6536L53.3414 63.9952C53.205 63.9049 53.0517 63.8432 52.8908 63.8137C52.7299 63.7843 52.5646 63.7878 52.4051 63.824C52.2456 63.8602 52.0951 63.9284 51.9626 64.0244C51.8302 64.1204 51.7186 64.2422 51.6345 64.3826L48.0029 70.4352L50.085 71.6457L53.0629 66.6826L55.6413 68.4015C55.7834 68.4976 55.9443 68.5624 56.1134 68.5917C56.2824 68.6209 56.4558 68.6138 56.6219 68.571C56.7883 68.5272 56.9436 68.4484 57.0771 68.3398C57.2107 68.2313 57.3197 68.0955 57.3966 67.9415L60.314 62.0584L60.9919 64.1284L63.2919 63.3657L61.694 58.5236C61.6414 58.3671 61.5574 58.223 61.447 58.1002C61.3367 57.9774 61.2024 57.8784 61.0524 57.8094Z" fill="#008BBA"/>
<defs>
<filter id="filter0_d_1004_294" x="0" y="0" width="112" height="112" filterUnits="userSpaceOnUse" color-interpolation-filters="sRGB">
<feFlood flood-opacity="0" result="BackgroundImageFix"/>
<feColorMatrix in="SourceAlpha" type="matrix" values="0 0 0 0 0 0 0 0 0 0 0 0 0 0 0 0 0 0 127 0" result="hardAlpha"/>
<feOffset/>
<feGaussianBlur stdDeviation="7"/>
<feComposite in2="hardAlpha" operator="out"/>
<feColorMatrix type="matrix" values="0 0 0 0 0 0 0 0 0 0 0 0 0 0 0 0 0 0 0.12 0"/>
<feBlend mode="normal" in2="BackgroundImageFix" result="effect1_dropShadow_1004_294"/>
<feBlend mode="normal" in="SourceGraphic" in2="effect1_dropShadow_1004_294" result="shape"/>
</filter>
</defs>
</svg>
