<svg width="94" height="94" viewBox="0 0 94 94" fill="none" xmlns="http://www.w3.org/2000/svg">
<circle cx="47" cy="47" r="47" fill="url(#paint0_linear_625_7274)"/>
<path d="M72.7401 37.76H68.7801V32.48C68.7801 29.5694 66.4107 27.2 63.5 27.2H22.58C19.6694 27.2 17.3 29.5694 17.3 32.48V54.92C17.3 57.8305 19.6694 60.2 22.58 60.2H38.1297L37.3377 64.16H34.46C33.734 64.16 33.14 64.7539 33.14 65.4799C33.14 66.2059 33.734 66.7999 34.46 66.7999H51.62C52.3461 66.7999 52.9401 66.2059 52.9401 65.4799C52.9401 64.7539 52.3461 64.16 51.62 64.16H48.7424L47.9504 60.2H56.9001V62.84C56.9001 65.0245 58.6754 66.7999 60.8601 66.7999H72.7401C74.9247 66.7999 76.7001 65.0245 76.7001 62.84V41.72C76.7001 39.5354 74.9247 37.76 72.7401 37.76ZM40.0304 64.16L40.8224 60.2H45.2577L46.0497 64.16H40.0304ZM56.9001 57.5599H22.58C21.1214 57.5599 19.94 56.3785 19.94 54.92V53.5999H56.9001V57.5599ZM56.9001 41.72V50.9599H19.94V32.48C19.94 31.0214 21.1214 29.84 22.58 29.84H63.5C64.9587 29.84 66.14 31.0214 66.14 32.48V37.76H60.8601C58.6754 37.76 56.9001 39.5354 56.9001 41.72ZM74.0601 62.84C74.0601 63.5659 73.466 64.16 72.7401 64.16H60.8601C60.1341 64.16 59.5401 63.5659 59.5401 62.84V60.86H74.0601V62.84ZM74.0601 58.2199H59.5401V46.34H74.0601V58.2199ZM74.0601 43.7H59.5401V41.72C59.5401 40.994 60.1341 40.4 60.8601 40.4H72.7401C73.466 40.4 74.0601 40.994 74.0601 41.72V43.7Z" fill="white"/>
<defs>
<linearGradient id="paint0_linear_625_7274" x1="47" y1="0" x2="47" y2="94" gradientUnits="userSpaceOnUse">
<stop stop-color="#40C8F7"/>
<stop offset="1" stop-color="#008BBA"/>
</linearGradient>
</defs>
</svg>
