<svg width="509" height="488" viewBox="0 0 509 488" fill="none" xmlns="http://www.w3.org/2000/svg">
<rect y="24" width="447" height="464" fill="url(#paint0_linear_717_53)"/>
<rect x="40" width="468.988" height="453" rx="6" fill="#F3F5F5"/>
<path d="M315.517 368.834C315.517 390.339 298.088 407.771 276.587 407.771C255.087 407.771 237.657 390.339 237.657 368.834C237.657 347.33 255.087 329.897 276.587 329.897C298.088 329.897 315.517 347.33 315.517 368.834Z" fill="#44B7D0"/>
<path d="M279.477 391.391C279.477 388.114 279.477 388.388 279.477 384.975C279.477 381.563 283.05 379.85 283.05 379.85H276.587H270.125C270.125 379.85 273.697 381.563 273.697 384.975C273.697 388.388 273.697 388.114 273.697 391.391C273.697 394.667 264.908 394.12 264.498 399.035C264.498 399.035 265.372 400.947 276.587 400.947C287.803 400.947 288.676 399.035 288.676 399.035C288.267 394.12 279.477 394.667 279.477 391.391Z" fill="#F8C61D"/>
<path d="M288.676 399.035C288.267 394.12 279.477 394.667 279.477 391.391C279.477 388.114 279.477 388.388 279.477 384.975C279.477 381.563 283.05 379.85 283.05 379.85H276.587H270.125C270.125 379.85 271.602 380.563 272.657 381.98C274.086 382.464 275.686 382.927 276.587 382.927C278.474 382.927 276.563 390.163 278.064 393.166C279.35 395.736 286.923 398.106 284.718 400.448C288.285 399.881 288.676 399.035 288.676 399.035Z" fill="#F2AD28"/>
<path d="M276.587 343.659H259.754C259.754 343.659 260.56 353.852 261.686 367.867C262.813 381.88 276.587 380.88 276.587 380.88C276.587 380.88 290.361 381.88 291.488 367.867C292.615 353.852 293.419 343.659 293.419 343.659H276.587Z" fill="#F8C61D"/>
<path d="M258.141 374.778C256.148 374.778 253.972 373.358 253.707 370.611C253.648 370.011 254.088 369.476 254.688 369.419C255.287 369.363 255.822 369.801 255.88 370.4C256.026 371.911 257.176 372.644 258.241 372.591C259.317 372.535 260.461 371.638 260.446 369.284C260.437 367.722 259.775 367.193 257.684 365.756C256.204 364.74 254.177 363.348 251.936 360.863C249.12 357.743 248.172 353.856 249.399 350.467C250.218 348.205 251.912 346.628 253.82 346.356C258.272 345.723 260.62 348.494 261.239 350.05C261.462 350.611 261.189 351.246 260.629 351.47C260.072 351.691 259.44 351.421 259.214 350.866C259.156 350.731 257.943 347.969 254.129 348.518C253.038 348.673 251.987 349.731 251.451 351.211C250.504 353.828 251.291 356.889 253.557 359.4C255.626 361.693 257.452 362.948 258.92 363.956C260.983 365.373 262.613 366.493 262.63 369.27C262.653 372.918 260.498 374.662 258.353 374.772L258.141 374.778Z" fill="#F8C61D"/>
<path d="M295.033 374.778C297.026 374.778 299.201 373.358 299.467 370.611C299.526 370.011 299.086 369.476 298.487 369.419C297.887 369.363 297.352 369.801 297.295 370.4C297.148 371.911 295.998 372.644 294.933 372.591C293.858 372.535 292.714 371.638 292.727 369.284C292.737 367.722 293.399 367.193 295.49 365.756C296.969 364.74 298.996 363.348 301.238 360.863C304.053 357.743 305.002 353.856 303.776 350.467C302.956 348.205 301.263 346.628 299.354 346.356C294.903 345.723 292.554 348.494 291.935 350.05C291.712 350.611 291.985 351.246 292.545 351.47C293.102 351.691 293.734 351.421 293.96 350.866C294.018 350.731 295.231 347.969 299.046 348.518C300.136 348.673 301.187 349.731 301.723 351.211C302.669 353.828 301.883 356.889 299.618 359.4C297.549 361.693 295.721 362.948 294.254 363.956C292.191 365.373 290.561 366.493 290.544 369.27C290.522 372.918 292.676 374.662 294.822 374.772L295.033 374.778Z" fill="#F2AD28"/>
<path d="M282.977 373.508C281.726 377.906 279.525 379.941 277.719 380.885C281.032 380.768 290.558 379.426 291.488 367.867C292.615 353.852 293.42 343.66 293.42 343.66H285.42C285.354 348.962 284.984 366.46 282.977 373.508Z" fill="#F2AD28"/>
<path d="M265.59 372.008C263.27 372.008 261.901 355.221 263.953 355.217H263.953C267.013 355.217 267.91 372.008 265.59 372.008Z" fill="#F7D55C"/>
<path d="M263.871 353.033C261.689 353.033 260.839 346.263 262.944 346.263C262.945 346.263 262.948 346.263 262.949 346.263C265.939 346.279 266.055 353.033 263.871 353.033Z" fill="#F7D55C"/>
<path d="M293.589 343.659H259.401C258.781 343.659 258.275 343.153 258.275 342.535V342.147C258.275 341.528 258.781 341.021 259.401 341.021H293.589C294.208 341.021 294.715 341.528 294.715 342.147V342.535C294.715 343.153 294.208 343.659 293.589 343.659Z" fill="#F5D718"/>
<path d="M376.883 97.1242C376.883 118.629 359.454 136.062 337.953 136.062C316.452 136.062 299.022 118.629 299.022 97.1242C299.022 75.6198 316.452 58.1867 337.953 58.1867C359.454 58.1867 376.883 75.6198 376.883 97.1242Z" fill="#44B7D0"/>
<path d="M352.865 73.5505H323.178C321.219 73.5505 319.616 71.9468 319.616 69.987V68.5543C319.616 66.5945 321.219 64.9908 323.178 64.9908H352.865C354.825 64.9908 356.429 66.5945 356.429 68.5543V69.987C356.429 71.9468 354.825 73.5505 352.865 73.5505Z" fill="#9B8F85"/>
<path d="M356.429 70.6297V69.8418C355.849 70.4104 354.644 71.1984 352.397 71.1984C348.884 71.1984 326.38 71.1984 323.193 71.1984C321.223 71.1984 320.15 70.2137 319.616 69.4607V70.6297C319.616 72.2365 320.875 73.5505 322.413 73.5505H353.631C355.17 73.5505 356.429 72.2365 356.429 70.6297Z" fill="#888177"/>
<path d="M352.865 129.258H323.178C321.219 129.258 319.616 127.655 319.616 125.696V124.263C319.616 122.303 321.219 120.699 323.178 120.699H352.865C354.825 120.699 356.429 122.303 356.429 124.263V125.696C356.429 127.655 354.825 129.258 352.865 129.258Z" fill="#9B8F85"/>
<path d="M356.429 126.338V125.55C355.85 126.119 354.644 126.908 352.397 126.908C348.884 126.908 326.38 126.908 323.193 126.908C321.223 126.908 320.15 125.922 319.616 125.169V126.338C319.616 127.944 320.875 129.259 322.413 129.259H353.631C355.17 129.259 356.429 127.944 356.429 126.338Z" fill="#888177"/>
<path d="M344.995 101.914H344.997L344.987 101.91C344.614 101.7 344.225 101.505 343.82 101.33C342.265 100.492 340.391 98.8604 340.273 97.1249C340.391 95.3894 342.265 93.7574 343.82 92.9193C344.225 92.7441 344.614 92.5498 344.987 92.3396L344.997 92.3355H344.995C353.73 87.4143 353.631 73.5506 353.631 73.5506H338.023H322.413C322.413 73.5506 322.315 87.4143 331.049 92.3355H331.046L331.058 92.3396C331.431 92.5498 331.818 92.7441 332.225 92.9193C333.78 93.7574 335.652 95.3894 335.771 97.1249C335.652 98.8604 333.78 100.492 332.225 101.33C331.818 101.505 331.431 101.7 331.058 101.91L331.046 101.914H331.049C322.315 106.835 322.413 120.699 322.413 120.699H338.023H353.631C353.631 120.699 353.73 106.835 344.995 101.914Z" fill="#6ECBEF"/>
<path d="M344.193 103.095L344.183 103.091C343.84 102.898 343.49 102.723 343.143 102.573L343.09 102.551L343.039 102.523C342.634 102.305 342.222 102.049 341.82 101.759L340.436 100.559C339.534 99.6067 338.867 98.4651 338.783 97.2175L338.776 97.1241L338.783 97.0315C338.867 95.7839 339.534 94.6422 340.436 93.6907L341.816 92.4939C342.218 92.202 343.144 91.6758 343.144 91.6758C343.488 91.5265 343.838 91.3531 344.183 91.1588L344.244 91.1238C350.603 87.496 351.91 77.0023 352.15 73.5506H337.953H323.755C323.996 77.0023 325.304 87.496 331.661 91.1238L331.722 91.1588C332.068 91.3531 332.418 91.5265 332.762 91.6758C332.762 91.6758 333.687 92.202 334.09 92.4939L335.469 93.6907C336.372 94.6422 337.038 95.7839 337.124 97.0315L337.13 97.1241L337.124 97.2175C337.038 98.4651 336.372 99.6067 335.469 100.559L334.086 101.759C333.684 102.049 333.272 102.305 332.867 102.523L332.816 102.551L332.763 102.573C332.416 102.723 332.066 102.898 331.722 103.091L331.713 103.095C325.311 106.704 323.997 117.238 323.755 120.699H337.953H352.15C351.909 117.238 350.595 106.704 344.193 103.095Z" fill="#C2E4E6"/>
<path d="M351.132 114.232C347.249 111.362 338.554 104.987 337.953 104.987C337.352 104.987 328.656 111.362 324.773 114.232C324.111 116.911 323.85 119.346 323.755 120.699H337.953H352.15C352.055 119.346 351.795 116.911 351.132 114.232Z" fill="#C7B5A3"/>
<path d="M326.464 84.9511C327.636 87.4813 329.3 89.7772 331.662 91.124L331.722 91.159C332.068 91.3533 332.418 91.5268 332.762 91.6761C332.762 91.6761 333.687 92.2023 334.09 92.4942L335.469 93.6909C336.372 94.6425 337.038 95.7842 337.124 97.0318L337.13 97.1243L337.124 97.2177C337.124 97.2177 338.304 98.4653 338.783 97.2177L338.776 97.1243L338.783 97.0318C338.867 95.7842 339.534 94.6425 340.437 93.6909L341.816 92.4942C342.218 92.2023 343.144 91.6761 343.144 91.6761C343.488 91.5268 343.838 91.3533 344.183 91.159L344.244 91.124C346.62 89.7688 348.29 87.4538 349.463 84.906C346.299 83.4866 339.144 80.3376 337.953 80.3376C336.749 80.3376 329.538 83.555 326.464 84.9511Z" fill="#C7B5A3"/>
<path d="M344.998 92.3357H344.995L344.999 92.3344L344.998 92.3357Z" fill="#3CA6BA"/>
<path d="M353.631 120.699H352.15C351.909 117.238 350.595 106.704 344.193 103.095L344.183 103.091C343.84 102.898 343.49 102.723 343.143 102.573L343.09 102.551L343.039 102.523C342.634 102.305 342.222 102.049 341.82 101.759L340.436 100.559C339.675 99.7552 339.081 98.8162 338.864 97.7929C338.864 97.7854 338.863 97.7787 338.863 97.7712C338.863 96.9348 338.942 96.2684 339.108 95.6713C339.403 94.9508 339.874 94.2836 340.436 93.6907L341.816 92.4939C342.218 92.202 343.144 91.6758 343.144 91.6758C343.488 91.5265 343.838 91.3531 344.183 91.1588L344.244 91.1238C344.252 91.1196 344.26 91.1146 344.269 91.1104C344.27 91.1087 344.273 91.1071 344.275 91.1062C344.292 91.0971 344.309 91.0871 344.325 91.0771C344.327 91.0762 344.328 91.0754 344.329 91.0745C344.346 91.0645 344.364 91.0545 344.381 91.0445C344.382 91.0437 344.383 91.0428 344.384 91.0428C344.402 91.032 344.419 91.022 344.437 91.0112L344.438 91.0103C350.63 87.2817 351.912 76.9665 352.15 73.5506H353.631C353.631 73.5506 353.631 73.5573 353.631 73.569C353.631 73.5731 353.631 73.5764 353.631 73.5806C353.631 74.302 353.49 87.5494 344.995 92.3347H344.996C344.995 92.3355 344.995 92.3355 344.995 92.3355H344.996L344.987 92.3396C344.614 92.5498 344.225 92.7441 343.82 92.9193C342.265 93.7574 340.391 95.3894 340.273 97.1249C340.391 98.8604 342.265 100.492 343.82 101.33C344.225 101.505 344.614 101.7 344.987 101.91L344.997 101.914H344.995C353.525 106.72 353.631 120.054 353.631 120.677C353.631 120.677 353.631 120.678 353.631 120.678C353.631 120.679 353.631 120.679 353.631 120.68C353.631 120.693 353.631 120.699 353.631 120.699Z" fill="#60BBD8"/>
<path d="M352.15 120.699C352.055 119.346 351.795 116.911 351.132 114.232C350.106 113.474 348.744 112.47 347.283 111.404C344.61 102.797 338.891 100.652 338.864 97.7929C339.081 98.8162 339.675 99.7552 340.436 100.559L341.82 101.759C342.222 102.049 342.634 102.305 343.039 102.523L343.089 102.551L343.143 102.573C343.49 102.723 343.84 102.898 344.183 103.091L344.193 103.095C350.595 106.704 351.909 117.238 352.15 120.699ZM344.244 91.1238C344.253 91.1196 344.26 91.1146 344.268 91.1104C344.26 91.1146 344.252 91.1196 344.244 91.1238ZM344.275 91.1062C344.292 91.0971 344.309 91.0871 344.325 91.0771C344.309 91.0871 344.292 91.0971 344.275 91.1062ZM344.329 91.0745C344.347 91.0645 344.364 91.0545 344.381 91.0445C344.364 91.0545 344.346 91.0645 344.329 91.0745ZM344.384 91.0428C344.401 91.032 344.419 91.022 344.437 91.0112C344.419 91.022 344.402 91.032 344.384 91.0428ZM344.438 91.0103C346.712 89.641 348.322 87.3835 349.463 84.9058C348.622 84.528 347.498 84.0284 346.278 83.4972C347.776 78.4985 347.056 73.5506 347.056 73.5506H352.15C351.912 76.9665 350.63 87.2817 344.438 91.0103Z" fill="#AACDD1"/>
<path d="M352.15 120.699H348.626C348.577 116.941 348.058 113.9 347.283 111.404C348.744 112.47 350.106 113.474 351.132 114.232C351.795 116.911 352.055 119.346 352.15 120.699Z" fill="#AFA293"/>
<path d="M339.108 95.6714C339.683 93.5973 341.31 92.3589 344.346 87.7354C345.224 86.3978 345.844 84.9459 346.278 83.4973C347.498 84.0285 348.622 84.5281 349.463 84.9058C348.323 87.3835 346.712 89.641 344.438 91.0104L344.437 91.0112C344.419 91.0221 344.401 91.0321 344.384 91.0429C344.383 91.0429 344.382 91.0438 344.381 91.0446C344.364 91.0546 344.347 91.0646 344.329 91.0746C344.328 91.0754 344.327 91.0763 344.325 91.0771C344.309 91.0871 344.292 91.0972 344.275 91.1063C344.273 91.1072 344.27 91.1088 344.269 91.1105C344.26 91.1146 344.253 91.1197 344.244 91.1238L344.183 91.1589C343.837 91.3532 343.488 91.5266 343.144 91.6759C343.144 91.6759 342.218 92.2021 341.816 92.494L340.436 93.6907C339.874 94.2837 339.403 94.9508 339.108 95.6714Z" fill="#AFA293"/>
<path d="M335.234 100.763C336.169 99.6443 336.717 98.8345 336.966 98.0964C336.704 99.0021 336.155 99.8352 335.469 100.559L335.234 100.763ZM336.966 96.1525C336.717 95.4136 336.169 94.6055 335.234 93.4871L335.469 93.6906C336.155 94.4137 336.704 95.2468 336.966 96.1525Z" fill="#A6DFEE"/>
<path d="M327.111 112.51C327.847 110.155 328.97 107.714 330.683 105.829C332.736 103.567 334.215 101.982 335.234 100.763L335.469 100.559C336.155 99.8352 336.704 99.0021 336.966 98.0964C337.067 97.7987 337.119 97.5126 337.128 97.2224C337.173 97.2683 337.516 97.6102 337.894 97.7303C337.713 98.8878 336.98 101.72 334.014 106.401C333.655 106.966 333.336 107.573 333.052 108.207C331.13 109.573 328.953 111.159 327.111 112.51ZM328.045 84.2385C325.821 79.2206 325.714 73.5505 325.714 73.5505H330.739C330.739 73.5505 330.576 78.1156 331.75 82.6115C330.454 83.1669 329.151 83.7423 328.045 84.2385Z" fill="#DAEBEE"/>
<path d="M330.739 120.698H325.714C325.714 120.698 325.789 116.74 327.111 112.511C328.953 111.159 331.13 109.573 333.052 108.207C330.667 113.523 330.739 120.698 330.739 120.698Z" fill="#DBD0C7"/>
<path d="M337.894 97.7305C337.516 97.6104 337.173 97.2685 337.128 97.2226C337.13 97.1892 337.13 97.1567 337.13 97.1242C337.13 96.8006 337.078 96.4837 336.966 96.1526C336.704 95.2469 336.155 94.4138 335.469 93.6908L335.234 93.4873C334.215 92.2681 332.737 90.6827 330.683 88.4202C329.574 87.2009 328.714 85.749 328.044 84.2387C329.151 83.7425 330.454 83.1671 331.75 82.6117C332.238 84.4805 332.956 86.3361 334.014 87.8481C338.474 94.2295 337.953 97.1242 337.953 97.1242C337.953 97.1242 337.958 97.3235 337.894 97.7305Z" fill="#DBD0C7"/>
<path d="M254.152 98.5086C254.152 120.014 236.722 137.446 215.222 137.446C193.72 137.446 176.291 120.014 176.291 98.5086C176.291 77.0042 193.72 59.5711 215.222 59.5711C236.722 59.5711 254.152 77.0042 254.152 98.5086Z" fill="#44B7D0"/>
<path d="M242.503 97.1251C242.503 112.195 230.289 124.411 215.222 124.411C200.155 124.411 187.941 112.195 187.941 97.1251C187.941 82.0547 200.155 69.8389 215.222 69.8389C230.289 69.8389 242.503 82.0547 242.503 97.1251Z" fill="#F8C61D"/>
<path d="M237.624 97.1249C237.624 109.499 227.594 119.53 215.222 119.53C202.849 119.53 192.82 109.499 192.82 97.1249C192.82 84.7498 202.849 74.719 215.222 74.719C227.594 74.719 237.624 84.7498 237.624 97.1249Z" fill="#E12E43"/>
<path d="M232.078 97.1249C232.078 106.436 224.531 113.984 215.222 113.984C205.912 113.984 198.365 106.436 198.365 97.1249C198.365 87.8129 205.912 80.2647 215.222 80.2647C224.531 80.2647 232.078 87.8129 232.078 97.1249Z" fill="#F8C61D"/>
<path d="M227.309 97.125C227.309 103.802 221.897 109.215 215.222 109.215C208.546 109.215 203.133 103.802 203.133 97.125C203.133 90.4475 208.546 85.0343 215.222 85.0343C221.897 85.0343 227.309 90.4475 227.309 97.125Z" fill="#E12E43"/>
<path d="M222.541 97.1249C222.541 101.168 219.264 104.445 215.222 104.445C211.18 104.445 207.903 101.168 207.903 97.1249C207.903 93.0818 211.18 89.8044 215.222 89.8044C219.264 89.8044 222.541 93.0818 222.541 97.1249Z" fill="#F8C61D"/>
<path d="M218.66 97.1251C218.66 99.024 217.12 100.563 215.222 100.563C213.322 100.563 211.783 99.024 211.783 97.1251C211.783 95.2253 213.322 93.6867 215.222 93.6867C217.12 93.6867 218.66 95.2253 218.66 97.1251Z" fill="#E12E43"/>
<path d="M244.528 67.8131C243.979 67.2636 243.079 67.2636 242.529 67.8131L214.25 96.0976C213.7 96.6472 213.7 97.5479 214.25 98.0974C214.381 98.2292 214.534 98.3276 214.696 98.396L244.827 68.2601C244.758 68.0975 244.66 67.9449 244.528 67.8131Z" fill="#5E5754"/>
<path d="M244.827 68.2599L214.696 98.3958C215.211 98.6135 215.831 98.5159 216.249 98.0973L244.528 69.8128C244.947 69.395 245.044 68.7753 244.827 68.2599Z" fill="#4E4A45"/>
<path d="M244.264 70.0781L250.319 69.7904L242.399 77.7121L236.378 77.9648L244.264 70.0781Z" fill="#16AEB8"/>
<path d="M242.495 71.8471L248.148 71.9622L247.114 72.9961L241.437 72.906L242.495 71.8471Z" fill="#60C7B7"/>
<path d="M240.289 74.0529L245.942 74.168L244.908 75.2019L239.23 75.1119L240.289 74.0529Z" fill="#17A6A8"/>
<path d="M242.264 68.0781L242.551 62.0211L234.631 69.9428L234.378 75.9648L242.264 68.0781Z" fill="#16AEB8"/>
<path d="M240.495 69.8469L240.38 64.1926L239.346 65.2267L239.436 70.906L240.495 69.8469Z" fill="#60C7B7"/>
<path d="M238.29 72.0529L238.175 66.3987L237.141 67.4336L237.231 73.1121L238.29 72.0529Z" fill="#17A6A8"/>
<path d="M184.759 184.451C184.759 205.956 167.329 223.389 145.828 223.389C124.327 223.389 106.897 205.956 106.897 184.451C106.897 162.947 124.327 145.514 145.828 145.514C167.329 145.514 184.759 162.947 184.759 184.451Z" fill="#44B7D0"/>
<path d="M446.277 184.451C446.277 205.956 428.846 223.389 407.346 223.389C385.845 223.389 368.416 205.956 368.416 184.451C368.416 162.947 385.845 145.514 407.346 145.514C428.846 145.514 446.277 162.947 446.277 184.451Z" fill="#44B7D0"/>
<path d="M137.419 220.504C137.419 220.504 136.948 227.074 145.809 227.074C154.671 227.074 154.297 220.504 154.297 220.504H137.419Z" fill="#565F62"/>
<path d="M146.374 227.061C152.955 225.506 151.086 221.732 147.892 221.732C145.262 221.732 139.495 221.732 137.518 221.732C137.385 221.012 137.419 220.511 137.419 220.504H154.297C154.298 220.519 154.64 226.786 146.374 227.061Z" fill="#4E5659"/>
<path d="M145.858 165.756C136.158 165.756 128.295 173.621 128.295 183.323C128.295 187.303 129.621 190.973 131.853 193.919C132.704 195.394 133.814 197.083 134.499 200.244C135.259 203.755 135.948 207.196 135.948 207.196C136.432 210.097 138.365 210.338 140.057 210.338C141.749 210.338 145.858 210.338 145.858 210.338C145.858 210.338 149.966 210.338 151.658 210.338C153.35 210.338 155.284 210.097 155.767 207.196C155.767 207.196 156.456 203.755 157.217 200.244C157.902 197.083 159.012 195.394 159.863 193.919C162.094 190.973 163.42 187.303 163.42 183.323C163.42 173.621 155.557 165.756 145.858 165.756Z" fill="#F8C61D"/>
<path d="M148.699 211.359L148.615 211.354C148.217 211.308 147.932 210.948 147.978 210.551L150.914 185.059C150.34 185.395 149.605 185.654 148.698 185.654C147.286 185.654 146.374 185.033 145.828 184.451C145.361 184.96 144.617 185.499 143.502 185.647C142.491 185.781 141.529 185.379 140.783 184.902L143.738 210.551C143.784 210.948 143.498 211.308 143.101 211.354C142.7 211.401 142.343 211.114 142.297 210.717L139.134 183.259C139.098 182.943 139.272 182.641 139.562 182.512C139.852 182.384 140.193 182.46 140.402 182.7C140.816 183.171 142.142 184.363 143.311 184.209C144.69 184.026 145.142 182.92 145.147 182.909C145.255 182.634 145.52 182.453 145.815 182.45H145.821C146.114 182.45 146.378 182.626 146.491 182.897C146.512 182.945 147.081 184.203 148.698 184.203C150.411 184.203 151.225 182.827 151.233 182.812C151.405 182.515 151.763 182.38 152.089 182.487C152.415 182.595 152.621 182.917 152.582 183.259L149.418 210.717C149.376 211.086 149.062 211.359 148.699 211.359Z" fill="#E7663A"/>
<path d="M142.254 210.338C141.415 210.338 140.608 210.338 140.057 210.338C138.365 210.338 136.432 210.097 135.948 207.196C135.948 207.196 135.259 203.755 134.499 200.244C133.814 197.083 132.704 195.394 131.853 193.919C131.836 193.897 131.82 193.876 131.803 193.854C131.82 193.876 131.836 193.897 131.853 193.919C132.704 195.394 133.814 197.083 134.499 200.244C135.259 203.755 135.948 207.196 135.948 207.196C136.432 210.097 138.365 210.338 140.057 210.338C140.608 210.338 141.415 210.338 142.254 210.338ZM163.42 183.323C163.42 183.314 163.42 183.304 163.42 183.295C163.42 183.304 163.42 183.314 163.42 183.323ZM163.42 183.287C163.42 183.281 163.42 183.274 163.42 183.268C163.42 183.274 163.42 183.281 163.42 183.287ZM163.42 183.258C163.42 183.253 163.42 183.247 163.42 183.242C163.42 183.248 163.42 183.253 163.42 183.258ZM163.42 183.231C163.42 183.226 163.42 183.22 163.42 183.215C163.42 183.22 163.42 183.225 163.42 183.231ZM163.42 183.203C163.42 183.198 163.42 183.193 163.42 183.188C163.42 183.193 163.42 183.198 163.42 183.203ZM163.42 183.176C163.42 183.171 163.42 183.167 163.419 183.162C163.42 183.166 163.42 183.171 163.42 183.176ZM163.419 183.149C163.419 183.143 163.419 183.138 163.419 183.133C163.419 183.138 163.419 183.143 163.419 183.149ZM163.419 183.123C163.419 183.119 163.419 183.114 163.419 183.111C163.419 183.115 163.419 183.118 163.419 183.123ZM163.418 183.076C163.418 183.074 163.418 183.073 163.418 183.072C163.418 183.072 163.418 183.074 163.418 183.076ZM163.418 183.051C163.418 183.049 163.418 183.047 163.418 183.046C163.418 183.047 163.418 183.049 163.418 183.051ZM163.418 183.026C163.418 183.023 163.418 183.022 163.418 183.019C163.418 183.022 163.418 183.024 163.418 183.026ZM163.418 182.999C163.418 182.997 163.418 182.996 163.418 182.994C163.418 182.996 163.418 182.997 163.418 182.999ZM163.417 182.973C163.417 182.972 163.417 182.971 163.417 182.969C163.417 182.971 163.417 182.972 163.417 182.973Z" fill="#40B0C7"/>
<path d="M151.658 210.338C151.107 210.338 150.3 210.338 149.462 210.338L151.294 194.433C160.237 190.129 162.286 177.62 159.34 172.068C161.816 175.033 163.335 178.824 163.417 182.969C163.417 182.971 163.417 182.972 163.417 182.973C163.417 182.98 163.418 182.987 163.418 182.994C163.418 182.996 163.418 182.997 163.418 182.999C163.418 183.006 163.418 183.012 163.418 183.019C163.418 183.022 163.418 183.023 163.418 183.026C163.418 183.032 163.418 183.039 163.418 183.046C163.418 183.047 163.418 183.049 163.418 183.051C163.418 183.057 163.418 183.064 163.418 183.072C163.418 183.073 163.418 183.074 163.418 183.076C163.419 183.088 163.419 183.099 163.419 183.111C163.419 183.114 163.419 183.119 163.419 183.123C163.419 183.126 163.419 183.13 163.419 183.133C163.419 183.138 163.419 183.143 163.419 183.149C163.419 183.153 163.419 183.158 163.419 183.162C163.42 183.167 163.42 183.171 163.42 183.176C163.42 183.18 163.42 183.184 163.42 183.188C163.42 183.193 163.42 183.198 163.42 183.203C163.42 183.207 163.42 183.211 163.42 183.215C163.42 183.22 163.42 183.226 163.42 183.231C163.42 183.234 163.42 183.238 163.42 183.242C163.42 183.247 163.42 183.253 163.42 183.258C163.42 183.262 163.42 183.265 163.42 183.268C163.42 183.274 163.42 183.281 163.42 183.287C163.42 183.29 163.42 183.293 163.42 183.295C163.42 183.304 163.42 183.314 163.42 183.323C163.42 187.303 162.094 190.973 159.863 193.919C159.012 195.394 157.902 197.083 157.217 200.244C156.456 203.755 155.767 207.196 155.767 207.196C155.284 210.097 153.35 210.338 151.658 210.338ZM148.002 210.338C146.818 210.338 145.858 210.338 145.858 210.338C145.858 210.338 144.897 210.338 143.713 210.338L142.059 195.974C142.347 195.981 142.639 195.985 142.938 195.985C143.858 195.985 144.831 195.948 145.858 195.866C147.267 195.754 148.567 195.478 149.761 195.065L148.002 210.338ZM142.254 210.338C141.415 210.338 140.608 210.338 140.057 210.338C138.365 210.338 136.432 210.097 135.948 207.196C135.948 207.196 135.259 203.755 134.499 200.244C133.814 197.083 132.704 195.394 131.853 193.919C131.836 193.897 131.82 193.876 131.803 193.854C131.628 193.619 131.459 193.378 131.295 193.134C133.222 194.341 136.202 195.569 140.59 195.9L142.254 210.338Z" fill="#ECBE1E"/>
<path d="M149.462 210.338C148.971 210.338 148.469 210.338 148.002 210.338L149.761 195.065C150.293 194.88 150.804 194.67 151.294 194.433L149.462 210.338ZM143.714 210.338C143.247 210.338 142.745 210.338 142.254 210.338L140.59 195.9C141.064 195.935 141.552 195.96 142.059 195.974L143.714 210.338Z" fill="#DD6239"/>
<path d="M154.78 219.194H136.835V211.035H154.78V219.194Z" fill="#8C949B"/>
<path d="M154.414 212.285H137.302C136.458 212.285 135.767 211.595 135.767 210.751V210.517C135.767 209.673 136.458 208.982 137.302 208.982H154.414C155.258 208.982 155.948 209.673 155.948 210.517V210.751C155.948 211.595 155.258 212.285 154.414 212.285Z" fill="#B3B9C0"/>
<path d="M154.414 216.394H137.302C136.458 216.394 135.767 215.705 135.767 214.861V214.626C135.767 213.783 136.458 213.092 137.302 213.092H154.414C155.258 213.092 155.948 213.783 155.948 214.626V214.861C155.948 215.705 155.258 216.394 154.414 216.394Z" fill="#B3B9C0"/>
<path d="M154.414 220.504H137.302C136.458 220.504 135.767 219.814 135.767 218.97V218.736C135.767 217.892 136.458 217.201 137.302 217.201H154.414C155.258 217.201 155.948 217.892 155.948 218.736V218.97C155.948 219.814 155.258 220.504 154.414 220.504Z" fill="#B3B9C0"/>
<path d="M134.174 176.377C133.714 176.377 133.378 176.258 133.205 176.008C132.541 175.047 134.556 172.504 137.705 170.329C140.036 168.718 142.334 167.761 143.641 167.761C144.101 167.761 144.437 167.88 144.61 168.129C145.273 169.09 143.259 171.633 140.109 173.809C137.779 175.418 135.481 176.377 134.174 176.377Z" fill="#F7D55C"/>
<path d="M145.807 151.191C145.007 151.191 143.668 151.232 143.763 152.36C143.858 153.488 145.807 162.029 145.807 162.029C145.807 162.029 147.758 153.488 147.852 152.36C147.947 151.232 146.607 151.191 145.807 151.191Z" fill="#F8C61D"/>
<path d="M170.486 161.624C169.92 161.058 168.944 160.139 168.214 161.004C167.483 161.868 162.824 169.287 162.824 169.287C162.824 169.287 170.241 164.627 171.105 163.897C171.97 163.166 171.051 162.19 170.486 161.624Z" fill="#F8C61D"/>
<path d="M180.56 186.455C180.56 185.654 180.52 184.315 179.392 184.409C178.264 184.504 169.724 186.455 169.724 186.455C169.724 186.455 178.264 188.404 179.392 188.499C180.52 188.594 180.56 187.254 180.56 186.455Z" fill="#F8C61D"/>
<path d="M170.13 211.137C170.695 210.571 171.614 209.595 170.749 208.864C169.885 208.134 162.467 203.474 162.467 203.474C162.467 203.474 167.127 210.892 167.858 211.757C168.588 212.621 169.564 211.702 170.13 211.137Z" fill="#F8C61D"/>
<path d="M120.626 210.78C121.192 211.346 122.168 212.265 122.898 211.4C123.628 210.536 128.288 203.117 128.288 203.117C128.288 203.117 120.87 207.778 120.006 208.508C119.141 209.239 120.06 210.215 120.626 210.78Z" fill="#F8C61D"/>
<path d="M110.551 185.951C110.551 186.751 110.592 188.091 111.72 187.995C112.847 187.9 121.387 185.951 121.387 185.951C121.387 185.951 112.847 184.001 111.72 183.906C110.592 183.811 110.551 185.151 110.551 185.951Z" fill="#F8C61D"/>
<path d="M120.982 161.268C120.416 161.834 119.497 162.809 120.362 163.54C121.227 164.271 128.644 168.931 128.644 168.931C128.644 168.931 123.985 161.512 123.254 160.647C122.523 159.783 121.548 160.702 120.982 161.268Z" fill="#F8C61D"/>
<path d="M434.76 208.756H384.115V169.571H434.76V208.756Z" fill="#F3B026"/>
<path d="M432.806 206.886H382.16V167.7H432.806V206.886Z" fill="#F8C61D"/>
<path d="M387.868 170.277C387.868 171.262 387.069 172.061 386.084 172.061C385.099 172.061 384.3 171.262 384.3 170.277C384.3 169.291 385.099 168.492 386.084 168.492C387.069 168.492 387.868 169.291 387.868 170.277Z" fill="#EE9932"/>
<path d="M393.982 170.277C393.982 171.262 393.184 172.061 392.198 172.061C391.213 172.061 390.415 171.262 390.415 170.277C390.415 169.291 391.213 168.492 392.198 168.492C393.184 168.492 393.982 169.291 393.982 170.277Z" fill="#EE9932"/>
<path d="M400.096 170.277C400.096 171.262 399.297 172.061 398.311 172.061C397.327 172.061 396.529 171.262 396.529 170.277C396.529 169.291 397.327 168.492 398.311 168.492C399.297 168.492 400.096 169.291 400.096 170.277Z" fill="#EE9932"/>
<path d="M406.21 170.277C406.21 171.262 405.411 172.061 404.426 172.061C403.441 172.061 402.642 171.262 402.642 170.277C402.642 169.291 403.441 168.492 404.426 168.492C405.411 168.492 406.21 169.291 406.21 170.277Z" fill="#EE9932"/>
<path d="M412.324 170.277C412.324 171.262 411.526 172.061 410.54 172.061C409.555 172.061 408.757 171.262 408.757 170.277C408.757 169.291 409.555 168.492 410.54 168.492C411.526 168.492 412.324 169.291 412.324 170.277Z" fill="#EE9932"/>
<path d="M418.439 170.277C418.439 171.262 417.64 172.061 416.654 172.061C415.67 172.061 414.871 171.262 414.871 170.277C414.871 169.291 415.67 168.492 416.654 168.492C417.64 168.492 418.439 169.291 418.439 170.277Z" fill="#EE9932"/>
<path d="M424.552 170.277C424.552 171.262 423.754 172.061 422.769 172.061C421.784 172.061 420.985 171.262 420.985 170.277C420.985 169.291 421.784 168.492 422.769 168.492C423.754 168.492 424.552 169.291 424.552 170.277Z" fill="#EE9932"/>
<path d="M430.666 170.277C430.666 171.262 429.868 172.061 428.882 172.061C427.897 172.061 427.099 171.262 427.099 170.277C427.099 169.291 427.897 168.492 428.882 168.492C429.868 168.492 430.666 169.291 430.666 170.277Z" fill="#EE9932"/>
<path d="M386.101 171.371H386.067C385.47 171.371 384.981 170.882 384.981 170.285V165.822C384.981 165.224 385.47 164.736 386.067 164.736H386.101C386.698 164.736 387.187 165.224 387.187 165.822V170.285C387.187 170.882 386.698 171.371 386.101 171.371Z" fill="#6D757B"/>
<path d="M392.215 171.371H392.181C391.584 171.371 391.095 170.882 391.095 170.285V165.822C391.095 165.224 391.584 164.736 392.181 164.736H392.215C392.813 164.736 393.301 165.224 393.301 165.822V170.285C393.301 170.882 392.813 171.371 392.215 171.371Z" fill="#6D757B"/>
<path d="M398.329 171.371H398.296C397.698 171.371 397.209 170.882 397.209 170.285V165.822C397.209 165.224 397.698 164.736 398.296 164.736H398.329C398.927 164.736 399.415 165.224 399.415 165.822V170.285C399.415 170.882 398.927 171.371 398.329 171.371Z" fill="#6D757B"/>
<path d="M404.444 171.371H404.409C403.812 171.371 403.324 170.882 403.324 170.285V165.822C403.324 165.224 403.812 164.736 404.409 164.736H404.444C405.041 164.736 405.53 165.224 405.53 165.822V170.285C405.53 170.882 405.041 171.371 404.444 171.371Z" fill="#6D757B"/>
<path d="M410.558 171.371H410.524C409.927 171.371 409.438 170.882 409.438 170.285V165.822C409.438 165.224 409.927 164.736 410.524 164.736H410.558C411.155 164.736 411.643 165.224 411.643 165.822V170.285C411.643 170.882 411.155 171.371 410.558 171.371Z" fill="#6D757B"/>
<path d="M416.672 171.371H416.638C416.041 171.371 415.552 170.882 415.552 170.285V165.822C415.552 165.224 416.041 164.736 416.638 164.736H416.672C417.269 164.736 417.758 165.224 417.758 165.822V170.285C417.758 170.882 417.269 171.371 416.672 171.371Z" fill="#6D757B"/>
<path d="M422.785 171.371H422.752C422.154 171.371 421.666 170.882 421.666 170.285V165.822C421.666 165.224 422.154 164.736 422.752 164.736H422.785C423.383 164.736 423.872 165.224 423.872 165.822V170.285C423.872 170.882 423.383 171.371 422.785 171.371Z" fill="#6D757B"/>
<path d="M428.9 171.371H428.866C428.268 171.371 427.78 170.882 427.78 170.285V165.822C427.78 165.224 428.268 164.736 428.866 164.736H428.9C429.497 164.736 429.986 165.224 429.986 165.822V170.285C429.986 170.882 429.497 171.371 428.9 171.371Z" fill="#6D757B"/>
<path d="M414.018 178.785H413.353C412.37 178.785 411.565 177.98 411.565 176.996V176.94C411.565 175.957 412.37 175.151 413.353 175.151H414.018C415.002 175.151 415.807 175.957 415.807 176.94V176.996C415.807 177.98 415.002 178.785 414.018 178.785Z" fill="#5E5754"/>
<path d="M420.255 178.785H419.59C418.605 178.785 417.801 177.98 417.801 176.996V176.94C417.801 175.957 418.605 175.151 419.59 175.151H420.255C421.238 175.151 422.043 175.957 422.043 176.94V176.996C422.043 177.98 421.238 178.785 420.255 178.785Z" fill="#5E5754"/>
<path d="M426.491 178.785H425.826C424.842 178.785 424.037 177.98 424.037 176.996V176.94C424.037 175.957 424.842 175.151 425.826 175.151H426.491C427.475 175.151 428.28 175.957 428.28 176.94V176.996C428.28 177.98 427.475 178.785 426.491 178.785Z" fill="#E7663A"/>
<path d="M389.106 184.883H388.442C387.459 184.883 386.653 184.078 386.653 183.094V183.038C386.653 182.054 387.459 181.249 388.442 181.249H389.106C390.091 181.249 390.897 182.054 390.897 183.038V183.094C390.897 184.078 390.091 184.883 389.106 184.883Z" fill="#5E5754"/>
<path d="M395.343 184.883H394.679C393.695 184.883 392.889 184.078 392.889 183.094V183.038C392.889 182.054 393.695 181.249 394.679 181.249H395.343C396.327 181.249 397.132 182.054 397.132 183.038V183.094C397.132 184.078 396.327 184.883 395.343 184.883Z" fill="#5E5754"/>
<path d="M401.579 184.883H400.915C399.931 184.883 399.126 184.078 399.126 183.094V183.038C399.126 182.054 399.931 181.249 400.915 181.249H401.579C402.563 181.249 403.369 182.054 403.369 183.038V183.094C403.369 184.078 402.563 184.883 401.579 184.883Z" fill="#5E5754"/>
<path d="M407.816 184.883H407.152C406.167 184.883 405.361 184.078 405.361 183.094V183.038C405.361 182.054 406.167 181.249 407.152 181.249H407.816C408.799 181.249 409.605 182.054 409.605 183.038V183.094C409.605 184.078 408.799 184.883 407.816 184.883Z" fill="#5E5754"/>
<path d="M414.051 184.883H413.387C412.404 184.883 411.598 184.078 411.598 183.094V183.038C411.598 182.054 412.404 181.249 413.387 181.249H414.051C415.036 181.249 415.841 182.054 415.841 183.038V183.094C415.841 184.078 415.036 184.883 414.051 184.883Z" fill="#5E5754"/>
<path d="M420.288 184.883H419.624C418.64 184.883 417.834 184.078 417.834 183.094V183.038C417.834 182.054 418.64 181.249 419.624 181.249H420.288C421.272 181.249 422.077 182.054 422.077 183.038V183.094C422.077 184.078 421.272 184.883 420.288 184.883Z" fill="#5E5754"/>
<path d="M426.524 184.883H425.86C424.876 184.883 424.071 184.078 424.071 183.094V183.038C424.071 182.054 424.876 181.249 425.86 181.249H426.524C427.508 181.249 428.313 182.054 428.313 183.038V183.094C428.313 184.078 427.508 184.883 426.524 184.883Z" fill="#E7663A"/>
<path d="M389.106 190.981H388.442C387.459 190.981 386.653 190.176 386.653 189.192V189.136C386.653 188.152 387.459 187.347 388.442 187.347H389.106C390.091 187.347 390.897 188.152 390.897 189.136V189.192C390.897 190.176 390.091 190.981 389.106 190.981Z" fill="#5E5754"/>
<path d="M395.343 190.981H394.679C393.695 190.981 392.889 190.176 392.889 189.192V189.136C392.889 188.152 393.695 187.347 394.679 187.347H395.343C396.327 187.347 397.132 188.152 397.132 189.136V189.192C397.132 190.176 396.327 190.981 395.343 190.981Z" fill="#5E5754"/>
<path d="M401.579 190.981H400.915C399.931 190.981 399.126 190.176 399.126 189.192V189.136C399.126 188.152 399.931 187.347 400.915 187.347H401.579C402.563 187.347 403.369 188.152 403.369 189.136V189.192C403.369 190.176 402.563 190.981 401.579 190.981Z" fill="#5E5754"/>
<path d="M407.816 190.981H407.152C406.167 190.981 405.361 190.176 405.361 189.192V189.136C405.361 188.152 406.167 187.347 407.152 187.347H407.816C408.799 187.347 409.605 188.152 409.605 189.136V189.192C409.605 190.176 408.799 190.981 407.816 190.981Z" fill="#5E5754"/>
<path d="M414.051 190.981H413.387C412.404 190.981 411.598 190.176 411.598 189.192V189.136C411.598 188.152 412.404 187.347 413.387 187.347H414.051C415.036 187.347 415.841 188.152 415.841 189.136V189.192C415.841 190.176 415.036 190.981 414.051 190.981Z" fill="#5E5754"/>
<path d="M420.288 190.981H419.624C418.64 190.981 417.834 190.176 417.834 189.192V189.136C417.834 188.152 418.64 187.347 419.624 187.347H420.288C421.272 187.347 422.077 188.152 422.077 189.136V189.192C422.077 190.176 421.272 190.981 420.288 190.981Z" fill="#5E5754"/>
<path d="M426.524 190.981H425.86C424.876 190.981 424.071 190.176 424.071 189.192V189.136C424.071 188.152 424.876 187.347 425.86 187.347H426.524C427.508 187.347 428.313 188.152 428.313 189.136V189.192C428.313 190.176 427.508 190.981 426.524 190.981Z" fill="#E7663A"/>
<path d="M389.106 197.079H388.442C387.459 197.079 386.653 196.273 386.653 195.29V195.234C386.653 194.25 387.459 193.445 388.442 193.445H389.106C390.091 193.445 390.897 194.25 390.897 195.234V195.29C390.897 196.273 390.091 197.079 389.106 197.079Z" fill="#5E5754"/>
<path d="M395.343 197.079H394.679C393.695 197.079 392.889 196.273 392.889 195.29V195.234C392.889 194.25 393.695 193.445 394.679 193.445H395.343C396.327 193.445 397.132 194.25 397.132 195.234V195.29C397.132 196.273 396.327 197.079 395.343 197.079Z" fill="#5E5754"/>
<path d="M401.579 197.079H400.915C399.931 197.079 399.126 196.273 399.126 195.29V195.234C399.126 194.25 399.931 193.445 400.915 193.445H401.579C402.563 193.445 403.369 194.25 403.369 195.234V195.29C403.369 196.273 402.563 197.079 401.579 197.079Z" fill="#5E5754"/>
<path d="M407.816 197.079H407.152C406.167 197.079 405.361 196.273 405.361 195.29V195.234C405.361 194.25 406.167 193.445 407.152 193.445H407.816C408.799 193.445 409.605 194.25 409.605 195.234V195.29C409.605 196.273 408.799 197.079 407.816 197.079Z" fill="#5E5754"/>
<path d="M414.051 197.079H413.387C412.404 197.079 411.598 196.273 411.598 195.29V195.234C411.598 194.25 412.404 193.445 413.387 193.445H414.051C415.036 193.445 415.841 194.25 415.841 195.234V195.29C415.841 196.273 415.036 197.079 414.051 197.079Z" fill="#5E5754"/>
<path d="M420.288 197.079H419.624C418.64 197.079 417.834 196.273 417.834 195.29V195.234C417.834 194.25 418.64 193.445 419.624 193.445H420.288C421.272 193.445 422.077 194.25 422.077 195.234V195.29C422.077 196.273 421.272 197.079 420.288 197.079Z" fill="#5E5754"/>
<path d="M426.524 197.079H425.86C424.876 197.079 424.071 196.273 424.071 195.29V195.234C424.071 194.25 424.876 193.445 425.86 193.445H426.524C427.508 193.445 428.313 194.25 428.313 195.234V195.29C428.313 196.273 427.508 197.079 426.524 197.079Z" fill="#E7663A"/>
<path d="M389.106 202.571H388.442C387.459 202.571 386.653 201.766 386.653 200.782V200.726C386.653 199.742 387.459 198.937 388.442 198.937H389.106C390.091 198.937 390.897 199.742 390.897 200.726V200.782C390.897 201.766 390.091 202.571 389.106 202.571Z" fill="#5E5754"/>
<path d="M395.343 202.571H394.679C393.695 202.571 392.889 201.766 392.889 200.782V200.726C392.889 199.742 393.695 198.937 394.679 198.937H395.343C396.327 198.937 397.132 199.742 397.132 200.726V200.782C397.132 201.766 396.327 202.571 395.343 202.571Z" fill="#5E5754"/>
<path d="M401.579 202.571H400.915C399.931 202.571 399.126 201.766 399.126 200.782V200.726C399.126 199.742 399.931 198.937 400.915 198.937H401.579C402.563 198.937 403.369 199.742 403.369 200.726V200.782C403.369 201.766 402.563 202.571 401.579 202.571Z" fill="#5E5754"/>
<path d="M181.112 290.377C181.112 311.882 163.682 329.314 142.182 329.314C120.681 329.314 103.251 311.882 103.251 290.377C103.251 268.873 120.681 251.44 142.182 251.44C163.682 251.44 181.112 268.873 181.112 290.377Z" fill="#44B7D0"/>
<path d="M129.201 280.032C129.201 281.432 128.065 282.568 126.664 282.568C125.264 282.568 124.129 281.432 124.129 280.032C124.129 278.631 125.264 277.496 126.664 277.496C128.065 277.496 129.201 278.631 129.201 280.032Z" fill="#565F62"/>
<path d="M125.027 299.214C120.876 299.214 117.51 295.847 117.51 291.695C117.51 287.542 120.876 284.176 125.027 284.176C129.179 284.176 132.545 287.542 132.545 291.695C132.545 295.847 129.179 299.214 125.027 299.214ZM139.982 288.538C139.588 286.66 138.847 284.909 137.831 283.354L139.822 280.552L137.995 278.724L136.169 276.898L133.368 278.888C131.812 277.874 130.062 277.132 128.183 276.737L127.61 273.352H125.027H122.444L121.871 276.737C119.993 277.132 118.243 277.874 116.688 278.888L113.886 276.898L112.059 278.724L110.233 280.552L112.223 283.354C111.208 284.909 110.467 286.66 110.073 288.538L106.688 289.111V291.695V294.279L110.073 294.851C110.467 296.73 111.208 298.482 112.223 300.037L110.233 302.838L112.059 304.665L113.886 306.492L116.688 304.501C118.243 305.517 119.993 306.258 121.871 306.653L122.444 310.038H125.027H127.61L128.183 306.653C130.062 306.258 131.812 305.517 133.368 304.501L136.169 306.492L137.995 304.665L139.822 302.838L137.831 300.037C138.847 298.482 139.588 296.73 139.982 294.851L143.367 294.279V291.695V289.111L139.982 288.538Z" fill="white"/>
<path d="M154.396 317.863C150.244 317.863 146.878 314.496 146.878 310.343C146.878 306.191 150.244 302.825 154.396 302.825C158.547 302.825 161.913 306.191 161.913 310.343C161.913 314.496 158.547 317.863 154.396 317.863ZM169.35 307.187C168.956 305.307 168.215 303.557 167.2 302.002L169.19 299.2L167.363 297.372L165.537 295.546L162.736 297.537C161.18 296.522 159.43 295.78 157.551 295.386L156.978 292H154.396H151.813L151.24 295.386C149.361 295.78 147.611 296.522 146.056 297.537L143.254 295.546L141.428 297.372L139.601 299.2L141.591 302.002C140.576 303.557 139.835 305.307 139.441 307.187L136.056 307.76V310.343V312.926L139.441 313.499C139.835 315.378 140.576 317.13 141.591 318.685L139.601 321.486L141.428 323.313L143.254 325.14L146.056 323.15C147.611 324.165 149.361 324.906 151.24 325.302L151.813 328.686H154.396H156.978L157.551 325.302C159.43 324.906 161.18 324.165 162.736 323.15L165.537 325.14L167.363 323.313L169.19 321.486L167.2 318.685C168.215 317.13 168.956 315.378 169.35 313.499L172.735 312.926V310.343V307.76L169.35 307.187Z" fill="#E6E7E9"/>
<path d="M158.487 283.68C155.071 284.181 151.896 281.818 151.395 278.402C150.893 274.987 153.255 271.812 156.671 271.31C160.086 270.808 163.26 273.171 163.762 276.587C164.264 280.002 161.902 283.178 158.487 283.68ZM169.499 273.092C168.947 271.594 168.126 270.244 167.103 269.086L168.402 266.542L166.679 265.26L164.956 263.978L162.892 265.954C161.49 265.306 159.962 264.908 158.368 264.811L157.488 262.095L155.364 262.407L153.239 262.719L153.177 265.573C151.679 266.124 150.329 266.945 149.172 267.969L146.628 266.669L145.345 268.392L144.064 270.115L146.039 272.179C145.392 273.582 144.994 275.112 144.897 276.704L142.182 277.585L142.493 279.71L142.805 281.835L145.659 281.897C146.21 283.395 147.031 284.745 148.054 285.903L146.755 288.447L148.478 289.729L150.201 291.012L152.265 289.035C153.667 289.683 155.196 290.081 156.789 290.179L157.669 292.894L159.793 292.582L161.918 292.27L161.98 289.416C163.478 288.865 164.828 288.045 165.985 287.02L168.53 288.321L169.811 286.598L171.094 284.874L169.118 282.81C169.765 281.407 170.163 279.878 170.261 278.285L172.976 277.404L172.664 275.279L172.352 273.154L169.499 273.092Z" fill="#565F62"/>
<path d="M449.924 291.7C449.924 313.206 432.493 330.638 410.993 330.638C389.493 330.638 372.063 313.206 372.063 291.7C372.063 270.196 389.493 252.763 410.993 252.763C432.493 252.763 449.924 270.196 449.924 291.7Z" fill="#44B7D0"/>
<path d="M433.644 327.103H390.523V271.672H433.644V327.103Z" fill="#F7DD88"/>
<path d="M431.462 325.092H388.341V269.661H431.462V325.092Z" fill="#F6F0A3"/>
<path d="M400.445 285.096H393.764V278.416H400.445V285.096Z" fill="#E7663A"/>
<path d="M423.944 283.454H406.44C405.506 283.454 404.743 282.69 404.743 281.757C404.743 280.823 405.506 280.059 406.44 280.059H423.944C424.878 280.059 425.642 280.823 425.642 281.757C425.642 282.69 424.878 283.454 423.944 283.454Z" fill="#7A726A"/>
<path d="M400.445 295.416H393.764V288.735H400.445V295.416Z" fill="#E7663A"/>
<path d="M423.944 293.773H406.44C405.506 293.773 404.743 293.009 404.743 292.075C404.743 291.142 405.506 290.378 406.44 290.378H423.944C424.878 290.378 425.642 291.142 425.642 292.075C425.642 293.009 424.878 293.773 423.944 293.773Z" fill="#7A726A"/>
<path d="M400.445 305.735H393.764V299.054H400.445V305.735Z" fill="#E7663A"/>
<path d="M423.944 304.092H406.44C405.506 304.092 404.743 303.329 404.743 302.395C404.743 301.461 405.506 300.697 406.44 300.697H423.944C424.878 300.697 425.642 301.461 425.642 302.395C425.642 303.329 424.878 304.092 423.944 304.092Z" fill="#7A726A"/>
<path d="M400.445 316.054H393.764V309.373H400.445V316.054Z" fill="#E7663A"/>
<path d="M423.944 314.412H406.44C405.506 314.412 404.743 313.647 404.743 312.714C404.743 311.78 405.506 311.016 406.44 311.016H423.944C424.878 311.016 425.642 311.78 425.642 312.714C425.642 313.647 424.878 314.412 423.944 314.412Z" fill="#7A726A"/>
<path d="M394.928 279.975C394.928 279.975 396.812 280.643 397.231 281.847C397.231 281.847 399.012 278.391 401.787 277.081C401.787 277.081 399.221 279.303 397.44 284.061C397.44 284.061 396.29 281.665 394.928 279.975Z" fill="#F4E31A"/>
<path d="M394.8 290.203C394.8 290.203 396.686 290.871 397.104 292.075C397.104 292.075 398.884 288.618 401.66 287.309C401.66 287.309 399.094 289.531 397.313 294.288C397.313 294.288 396.161 291.892 394.8 290.203Z" fill="#F4E31A"/>
<path d="M394.673 300.43C394.673 300.43 396.559 301.098 396.977 302.303C396.977 302.303 398.757 298.846 401.533 297.537C401.533 297.537 398.967 299.758 397.187 304.515C397.187 304.515 396.034 302.119 394.673 300.43Z" fill="#F4E31A"/>
<path d="M394.546 310.657C394.546 310.657 396.431 311.325 396.85 312.529C396.85 312.529 398.63 309.073 401.406 307.763C401.406 307.763 398.84 309.985 397.059 314.743C397.059 314.743 395.908 312.347 394.546 310.657Z" fill="#F4E31A"/>
<path d="M276.587 286.851C235.992 286.851 203.082 253.935 203.082 213.332C203.082 172.729 235.992 139.814 276.587 139.814C317.183 139.814 350.092 172.729 350.092 213.332C350.092 253.935 317.183 286.851 276.587 286.851Z" fill="#86D4F2"/>
<path d="M343.753 254.916H209.422L198.793 315.16H354.382L343.753 254.916Z" fill="#16AEB8"/>
<path d="M352.595 322.148H201.13L198.793 315.16H354.382L352.595 322.148Z" fill="#17A1A2"/>
<path d="M326.112 229.442C324.977 226.04 317.038 199.041 316.131 195.32C315.223 191.599 292.509 187.824 292.509 187.824H277.342H262.175C262.175 187.824 239.46 191.599 238.552 195.32C237.645 199.041 229.706 226.04 228.572 229.442C227.438 232.846 253.145 264.836 253.145 264.836L261.041 258.71C261.041 258.71 242.182 232.392 241.502 231.031C240.82 229.67 251.869 209.024 251.902 210.158C251.936 211.293 257.38 249.71 257.38 249.71H277.342H297.303C297.303 249.71 302.747 211.293 302.78 210.158C302.814 209.024 313.862 229.67 313.182 231.031C312.501 232.392 293.642 258.71 293.642 258.71L301.539 264.836C301.539 264.836 327.246 232.846 326.112 229.442Z" fill="#A6ACB3"/>
<path d="M277.342 191.929H268.817L277.404 234.888L285.866 191.929H277.342Z" fill="#F2F2F4"/>
<path d="M268.817 191.929L277.404 234.888C277.404 234.888 267.502 210.836 267.16 210.572C266.818 210.309 268.88 208.343 268.88 208.343C268.88 208.343 262.887 191.932 262.175 191.327C261.463 190.723 266.667 186.596 266.667 186.596L268.817 191.929Z" fill="#BBCFDB"/>
<path d="M285.866 191.929L277.404 234.888C277.404 234.888 287.306 210.836 287.648 210.572C287.99 210.309 285.929 208.343 285.929 208.343C285.929 208.343 291.796 191.932 292.508 191.327C293.22 190.723 288.017 186.596 288.017 186.596L285.866 191.929Z" fill="#BBCFDB"/>
<path d="M276.969 191.929L272.32 192.767C272.32 192.767 275.35 198.588 276.969 198.588C278.589 198.588 281.618 192.767 281.618 192.767L276.969 191.929Z" fill="#9BA1A8"/>
<path d="M278.402 197.384L276.969 196.318L275.537 197.384L275.131 225.695L276.969 234.888L278.807 225.695L278.402 197.384Z" fill="#9BA1A8"/>
<path d="M254.961 161.077C254.961 161.077 249.516 159.111 249.365 163.345C249.214 167.58 251.944 174.742 256.93 174.262L254.961 161.077Z" fill="#F3B287"/>
<path d="M299.608 161.077C299.608 161.077 305.052 159.111 305.203 163.345C305.354 167.58 302.624 174.742 297.637 174.262L299.608 161.077Z" fill="#F3B287"/>
<path d="M277.342 145.044C277.342 145.044 252.163 145.243 253.297 152.304C253.297 152.304 256.473 172.345 257.607 177.865C258.741 183.386 261.463 193.143 277.342 193.143C293.22 193.143 295.942 183.386 297.076 177.865C298.211 172.345 301.386 152.304 301.386 152.304C302.521 145.243 277.342 145.044 277.342 145.044Z" fill="#F2BF97"/>
<path d="M255.79 167.619L257.682 150.792C257.682 150.792 264.079 158.747 290.694 160.411L287.171 153.363C287.171 153.363 292.615 161.531 297.908 163.497L299.874 152.606L298.645 169.093C298.645 169.093 302.293 155.934 303.503 150.792C304.713 145.649 298.966 135.666 297.152 133.852C295.337 132.036 279.901 126.742 275.748 126.742C271.595 126.742 259.775 130.349 254.809 135.515C251.029 139.447 250.424 148.372 250.272 151.548C250.121 154.724 255.79 167.619 255.79 167.619Z" fill="#5E5754"/>
<path d="M272.04 166.259C268.246 167.731 261.973 165.703 261.973 165.703C263.184 166.601 264.33 167.142 265.388 167.443C265.388 167.443 264.292 170.889 266.885 171.332C268.883 171.674 269.064 168.895 269.041 167.602C270.91 167.224 272.04 166.259 272.04 166.259Z" fill="#5E5754"/>
<path d="M266.953 170.113C266.843 170.493 266.58 170.749 266.363 170.688C266.146 170.625 266.06 170.267 266.168 169.888C266.277 169.509 266.541 169.252 266.758 169.314C266.974 169.376 267.062 169.734 266.953 170.113Z" fill="white"/>
<path d="M280.989 166.168C284.588 168.201 291.184 167.08 291.184 167.08C289.836 167.806 288.605 168.182 287.499 168.328C287.499 168.328 288.097 171.95 285.428 172.017C283.371 172.069 283.595 169.251 283.806 167.955C281.984 167.303 280.989 166.168 280.989 166.168Z" fill="#5E5754"/>
<path d="M285.397 170.885C285.445 171.237 285.646 171.5 285.847 171.472C286.049 171.445 286.173 171.138 286.124 170.786C286.077 170.435 285.876 170.172 285.674 170.199C285.474 170.226 285.35 170.534 285.397 170.885Z" fill="white"/>
<path d="M276.969 172.043C276.969 172.043 274.09 177.563 274.166 180.437C274.242 183.31 276.969 182.252 276.969 182.252V172.043Z" fill="#F19078"/>
<path d="M269.239 183.898C269.239 183.898 276.778 187.923 283.146 183.898C283.146 183.898 275.103 184.982 269.239 183.898Z" fill="#F19078"/>
<path d="M272.979 187.058H279.405C279.405 187.058 276.154 188.571 272.979 187.058Z" fill="#F19078"/>
<path d="M270.568 174.765C270.568 175.449 268.689 176.004 266.371 176.004C264.053 176.004 262.175 175.449 262.175 174.765C262.175 174.081 264.053 173.527 266.371 173.527C268.689 173.527 270.568 174.081 270.568 174.765Z" fill="#F0A681"/>
<path d="M291.763 174.765C291.763 175.449 289.885 176.004 287.567 176.004C285.25 176.004 283.371 175.449 283.371 174.765C283.371 174.081 285.25 173.527 287.567 173.527C289.885 173.527 291.763 174.081 291.763 174.765Z" fill="#F0A681"/>
<path d="M263.644 163.45C263.627 164.62 269.851 163.373 269.023 163.013C268.195 162.653 263.667 161.859 263.644 163.45Z" fill="#5E5754"/>
<path d="M289.971 163.627C290.028 164.796 283.765 163.762 284.581 163.373C285.395 162.985 289.894 162.038 289.971 163.627Z" fill="#5E5754"/>
<path d="M254.828 171.619C254.828 171.619 252.106 171.305 251.199 167.108C250.292 162.911 252.822 162.504 253.864 164.028C254.906 165.553 255.395 168.923 254.318 168.582C253.241 168.242 253.548 166.292 254.147 166.257C254.147 166.257 253.957 164.182 253.145 164.028C252.333 163.875 251.369 164.686 251.709 167.05C252.048 169.416 254.261 171.196 254.828 171.619Z" fill="#EC846A"/>
<path d="M299.847 171.619C299.847 171.619 302.568 171.305 303.476 167.108C304.384 162.911 301.853 162.504 300.811 164.028C299.769 165.553 299.28 168.923 300.357 168.582C301.434 168.242 301.128 166.292 300.527 166.257C300.527 166.257 300.717 164.182 301.53 164.028C302.342 163.875 303.305 164.686 302.966 167.05C302.626 169.416 300.414 171.196 299.847 171.619Z" fill="#EC846A"/>
<path d="M258.968 146.065C258.968 146.065 263.653 152.19 283.371 157.296L281.425 145.044C281.425 145.044 288.344 154.346 296.169 157.296L299.751 148.447L300.933 155.14V143.909L295.829 153.892C295.829 153.892 285.167 147.653 279.95 139.713L280.744 153.551C280.744 153.551 266.908 151.963 258.968 146.065Z" fill="#706865"/>
<path d="M252.314 143.758C252.314 143.758 251.044 151.775 252.965 156.841L254.28 150.3L255.338 153.967C255.338 153.967 256.93 149.204 257.38 145.725L255.414 150.64L254.204 148.504C254.204 148.504 253.086 150.489 252.965 152.833C252.965 152.833 252.087 146.935 252.314 143.758Z" fill="#706865"/>
<path d="M311.709 229.442C308.721 229.442 277.342 229.442 277.342 229.442C277.342 229.442 245.962 229.442 242.974 229.442C239.986 229.442 237.21 229.67 237.423 233.073C237.637 236.476 239.986 272.096 239.986 272.096H277.342H314.698C314.698 272.096 317.046 236.476 317.259 233.073C317.473 229.67 314.698 229.442 311.709 229.442Z" fill="#CDD8E3"/>
<path d="M311.709 230.169C308.721 230.169 277.342 230.169 277.342 230.169C277.342 230.169 245.962 230.169 242.974 230.169C239.986 230.169 237.21 230.396 237.423 233.799C237.637 237.202 239.986 272.822 239.986 272.822H277.342H314.698C314.698 272.822 317.046 237.202 317.259 233.799C317.473 230.396 314.698 230.169 311.709 230.169Z" fill="#BBCFDB"/>
<path d="M314.698 272.823H239.986C239.986 272.823 239.013 275.545 242.188 275.545C245.364 275.545 277.342 275.545 277.342 275.545C277.342 275.545 309.32 275.545 312.495 275.545C315.671 275.545 314.698 272.823 314.698 272.823Z" fill="#ACBFCF"/>
<path d="M277.342 252.475C277.342 252.475 274.755 246.981 277.342 246.981C279.927 246.981 277.342 252.475 277.342 252.475Z" fill="white"/>
<path d="M277.342 252.475C277.342 252.475 282.833 249.888 282.833 252.475C282.833 255.06 277.342 252.475 277.342 252.475Z" fill="white"/>
<path d="M277.342 252.474C277.342 252.474 279.927 257.968 277.342 257.968C274.755 257.968 277.342 252.474 277.342 252.474Z" fill="white"/>
<path d="M277.342 252.475C277.342 252.475 271.849 255.06 271.849 252.475C271.849 249.888 277.342 252.475 277.342 252.475Z" fill="white"/>
<path d="M277.342 252.475C277.342 252.475 279.396 246.762 281.226 248.591C283.054 250.42 277.342 252.475 277.342 252.475Z" fill="white"/>
<path d="M277.342 252.475C277.342 252.475 283.054 254.53 281.226 256.359C279.396 258.188 277.342 252.475 277.342 252.475Z" fill="white"/>
<path d="M277.342 252.475C277.342 252.475 275.286 258.188 273.458 256.359C271.629 254.53 277.342 252.475 277.342 252.475Z" fill="white"/>
<path d="M277.342 252.475C277.342 252.475 271.629 250.42 273.458 248.591C275.286 246.762 277.342 252.475 277.342 252.475Z" fill="white"/>
<path d="M170.049 148.179L185.083 129.52L184.434 128.997L169.4 147.656" fill="#008BBA"/>
<path d="M258.525 94.1035H293.147V93.2697H258.525V94.1035Z" fill="#008BBA"/>
<path d="M368.096 129.527L383.796 148.186L384.434 147.649L368.734 128.99" fill="#008BBA"/>
<path d="M162.05 249.728H162.884V227.074H162.05V249.728Z" fill="#008BBA"/>
<path d="M172.754 329.039L228.313 363.965L228.757 363.259L173.197 328.333" fill="#008BBA"/>
<path d="M260.15 93.6868C260.15 94.7224 259.311 95.562 258.275 95.562C257.239 95.562 256.4 94.7224 256.4 93.6868C256.4 92.6504 257.239 91.8116 258.275 91.8116C259.311 91.8116 260.15 92.6504 260.15 93.6868Z" fill="#008BBA"/>
<path d="M186.634 129.259C186.634 130.295 185.794 131.135 184.759 131.135C183.723 131.135 182.884 130.295 182.884 129.259C182.884 128.223 183.723 127.383 184.759 127.383C185.794 127.383 186.634 128.223 186.634 129.259Z" fill="#008BBA"/>
<path d="M171.6 147.918C171.6 148.954 170.76 149.793 169.724 149.793C168.689 149.793 167.849 148.954 167.849 147.918C167.849 146.883 168.689 146.043 169.724 146.043C170.76 146.043 171.6 146.883 171.6 147.918Z" fill="#008BBA"/>
<path d="M295.02 93.5827C295.078 94.6166 294.286 95.5021 293.252 95.5588C292.218 95.6164 291.333 94.8242 291.275 93.7903C291.218 92.7564 292.01 91.8718 293.044 91.8142C294.079 91.7567 294.962 92.5488 295.02 93.5827Z" fill="#008BBA"/>
<path d="M370.288 129.155C370.345 130.189 369.554 131.074 368.52 131.131C367.486 131.189 366.6 130.397 366.544 129.363C366.485 128.329 367.278 127.444 368.312 127.387C369.346 127.33 370.231 128.121 370.288 129.155Z" fill="#008BBA"/>
<path d="M385.987 147.286C386.044 148.319 385.252 149.205 384.219 149.262C383.185 149.319 382.3 148.528 382.242 147.494C382.185 146.46 382.977 145.574 384.011 145.518C385.045 145.46 385.93 146.251 385.987 147.286Z" fill="#008BBA"/>
<path d="M164.34 226.971C164.397 228.005 163.606 228.889 162.571 228.947C161.537 229.004 160.653 228.212 160.595 227.178C160.538 226.144 161.33 225.259 162.364 225.202C163.398 225.145 164.282 225.936 164.34 226.971Z" fill="#008BBA"/>
<path d="M164.34 249.624C164.397 250.658 163.606 251.543 162.571 251.601C161.537 251.658 160.653 250.866 160.595 249.833C160.538 248.798 161.33 247.914 162.364 247.856C163.398 247.798 164.282 248.59 164.34 249.624Z" fill="#008BBA"/>
<path d="M174.847 328.583C174.905 329.617 174.114 330.501 173.08 330.559C172.046 330.616 171.16 329.825 171.104 328.79C171.046 327.756 171.837 326.872 172.871 326.814C173.906 326.757 174.791 327.549 174.847 328.583Z" fill="#008BBA"/>
<path d="M230.408 363.509C230.465 364.543 229.673 365.427 228.639 365.485C227.605 365.542 226.72 364.75 226.663 363.717C226.606 362.683 227.397 361.797 228.432 361.74C229.466 361.683 230.35 362.475 230.408 363.509Z" fill="#008BBA"/>
<path d="M323.689 366.154L378.821 329.032L378.356 328.341L323.224 365.462" fill="#008BBA"/>
<path d="M326.145 365.384C326.203 366.418 325.41 367.303 324.376 367.36C323.342 367.418 322.458 366.626 322.4 365.592C322.343 364.558 323.134 363.673 324.168 363.616C325.203 363.558 326.088 364.35 326.145 365.384Z" fill="#008BBA"/>
<path d="M380.461 328.583C380.518 329.617 379.727 330.501 378.693 330.559C377.659 330.616 376.774 329.825 376.717 328.79C376.659 327.756 377.451 326.872 378.485 326.814C379.519 326.757 380.404 327.549 380.461 328.583Z" fill="#008BBA"/>
<path d="M390.479 253.624H391.313V227.061H390.479V253.624Z" fill="#008BBA"/>
<path d="M392.769 226.957C392.825 227.991 392.034 228.876 391 228.934C389.966 228.991 389.081 228.199 389.024 227.165C388.966 226.131 389.759 225.247 390.792 225.189C391.826 225.131 392.711 225.924 392.769 226.957Z" fill="#008BBA"/>
<path d="M392.968 252.659C393.024 253.693 392.233 254.578 391.199 254.635C390.165 254.694 389.281 253.901 389.223 252.867C389.166 251.833 389.958 250.948 390.992 250.891C392.025 250.834 392.91 251.625 392.968 252.659Z" fill="#008BBA"/>
<defs>
<linearGradient id="paint0_linear_717_53" x1="67.148" y1="49.5153" x2="430.122" y2="522.223" gradientUnits="userSpaceOnUse">
<stop stop-color="#DADFE0"/>
<stop offset="1" stop-color="#D9D9D9" stop-opacity="0"/>
</linearGradient>
</defs>
</svg>
